<?xml version="1.0" encoding="iso-8859-1"?>
<!-- Uploaded to: SVG Repo, www.svgrepo.com, Generator: SVG Repo Mixer Tools -->
<svg height="800px" width="800px" version="1.1" id="Layer_1" xmlns="http://www.w3.org/2000/svg" xmlns:xlink="http://www.w3.org/1999/xlink" 
	 viewBox="0 0 512 512" xml:space="preserve">
<circle style="fill:#71CCCE;" cx="256" cy="256" r="256"/>
<circle style="fill:#D0EEEF;" cx="256" cy="256" r="98.462"/>
<path style="fill:#20AAB0;" d="M305.231,247.56H264.44v-40.791c0-4.662-3.778-8.44-8.44-8.44c-4.662,0-8.44,3.778-8.44,8.44v40.791
	h-40.791c-4.662,0-8.44,3.778-8.44,8.44c0,4.662,3.778,8.44,8.44,8.44h40.791v40.791c0,4.662,3.778,8.44,8.44,8.44
	c4.662,0,8.44-3.778,8.44-8.44V264.44h40.791c4.662,0,8.44-3.778,8.44-8.44C313.67,251.338,309.893,247.56,305.231,247.56z"/>
<path style="fill:#D0EEEF;" d="M256,30.945c-30.378,0-59.852,5.952-87.605,17.69c-4.292,1.815-6.302,6.767-4.484,11.06
	c1.814,4.293,6.767,6.298,11.06,4.484c23.083-9.763,47.464-15.181,72.589-16.175v22.52
	c-71.916,3.219-135.353,47.394-163.139,114.399c-1.786,4.305,0.258,9.243,4.563,11.029c4.301,1.784,9.242-0.258,11.029-4.563
	c7.564-18.24,18.047-34.606,30.759-48.682l16.045,16.045c-23.064,25.868-37.104,59.946-37.104,97.246s14.04,71.378,37.104,97.245
	l-15.934,15.933C103.757,339.217,87.209,299.505,87.209,256c0-4.662-3.778-8.44-8.44-8.44H48.005
	c0.974-24.628,6.204-48.558,15.611-71.245c1.786-4.305-0.258-9.243-4.563-11.029c-4.308-1.788-9.243,0.258-11.029,4.563
	C36.691,197.181,30.945,226.166,30.945,256c0,124.095,100.96,225.055,225.055,225.055c30.378,0,59.852-5.952,87.605-17.69
	c4.292-1.815,6.302-6.767,4.484-11.06c-1.815-4.294-6.769-6.302-11.06-4.484c-23.083,9.763-47.464,15.181-72.589,16.175v-22.52
	c71.917-3.219,135.354-47.395,163.139-114.4c1.786-4.305-0.258-9.244-4.563-11.029c-4.308-1.788-9.245,0.258-11.029,4.563
	c-7.564,18.241-18.047,34.607-30.759,48.684l-16.046-16.046c23.064-25.867,37.104-59.945,37.104-97.245s-14.04-71.378-37.104-97.245
	l15.934-15.933c27.128,29.959,43.676,69.671,43.676,113.177c0,4.662,3.778,8.44,8.44,8.44h30.764
	c-0.974,24.628-6.204,48.558-15.611,71.245c-1.786,4.305,0.258,9.243,4.563,11.029c1.057,0.439,2.153,0.646,3.23,0.646
	c3.309,0,6.451-1.96,7.799-5.209c11.334-27.331,17.081-56.315,17.081-86.15C481.055,131.905,380.095,30.945,256,30.945z
	 M256,109.714c-37.301,0-71.378,14.04-97.245,37.104l-16.066-16.066c30.386-27.514,70.42-43.544,113.311-43.544
	c43.505,0,83.217,16.548,113.179,43.676l-15.934,15.933C327.378,123.754,293.301,109.714,256,109.714z M353.245,365.182
	l16.066,16.066c-30.385,27.514-70.42,43.544-113.311,43.544c-43.505,0-83.217-16.548-113.179-43.676l15.934-15.933
	c25.867,23.064,59.945,37.104,97.245,37.104S327.378,388.246,353.245,365.182z M48.01,264.44h22.509
	c2.132,47.398,22.125,90.221,53.385,121.899c0.245,0.33,0.507,0.652,0.807,0.951c0.306,0.305,0.634,0.573,0.971,0.821
	c31.675,31.25,74.49,51.23,121.879,53.362v22.518C139.471,459.658,52.342,372.529,48.01,264.44z M256,385.407
	c-71.355,0-129.407-58.052-129.407-129.407S184.645,126.593,256,126.593S385.407,184.645,385.407,256S327.355,385.407,256,385.407z
	 M388.096,125.662c-0.245-0.33-0.507-0.652-0.807-0.951c-0.306-0.305-0.634-0.573-0.971-0.821
	c-31.676-31.25-74.491-51.23-121.879-53.362V48.01c108.089,4.333,195.218,91.462,199.551,199.551h-22.509
	C439.349,200.163,419.356,157.339,388.096,125.662z"/>
</svg>