<?xml version="1.0" encoding="iso-8859-1"?>
<!-- Uploaded to: SVG Repo, www.svgrepo.com, Generator: SVG Repo Mixer Tools -->
<svg fill="#000000" height="800px" width="800px" version="1.1" id="Capa_1" xmlns="http://www.w3.org/2000/svg" xmlns:xlink="http://www.w3.org/1999/xlink" 
	 viewBox="0 0 490 490" xml:space="preserve">
<g>
	<g>
		<g>
			<path d="M207.65,281.6c-21-21-94-65.9-147.8-53.3L216.55,385C251.75,338,226.65,300.6,207.65,281.6z"/>
			<path d="M302.55,185.9c-60.7-60.7-158.7-60.7-219.3,0l-21,21c71.4-6.9,136.1,37.3,159.1,60.7c29.2,29.2,51.6,77.6,8.9,131.4
				l91.4,91l144.3-140.8L302.55,185.9z"/>
			<ellipse cx="208.75" cy="34.6" rx="184.7" ry="34.6"/>
			<path d="M383.35,67.7c-37.4,14.7-124.1,21.4-174.6,21.4s-140.1-7.6-174.6-21.4c25.3,39.7,93.7,68.1,174.6,68.1
				S358.15,107.3,383.35,67.7z"/>
		</g>
	</g>
</g>
</svg>