<?xml version="1.0" encoding="iso-8859-1"?>
<!-- Uploaded to: SVG Repo, www.svgrepo.com, Generator: SVG Repo Mixer Tools -->
<svg fill="#000000" height="800px" width="800px" version="1.1" id="Layer_1" xmlns="http://www.w3.org/2000/svg" xmlns:xlink="http://www.w3.org/1999/xlink" 
	 viewBox="0 0 305 305" xml:space="preserve">
<g id="XMLID_93_">
	<path id="XMLID_102_" d="M96.932,163.33c-5.857-5.857-15.355-5.857-21.213,0l-61.34,61.34c-5.858,5.858-5.858,15.355,0,21.213
		l40.988,40.988C67.228,298.732,83.969,305,103.783,305c39.643-0.001,89.545-25.277,130.233-65.965
		c29.127-29.126,50.531-62.818,60.269-94.871c10.722-35.285,6.306-65.037-12.433-83.775l-40.988-40.987
		c-5.857-5.858-15.354-5.856-21.213,0l-61.366,61.363c-2.813,2.813-4.394,6.628-4.394,10.606s1.58,7.794,4.394,10.607l30.446,30.445
		l-61.355,61.352L96.932,163.33z"/>
	<polygon id="XMLID_103_" points="4.982,80.002 44.981,80.002 44.981,120 84.982,120 84.982,80.002 124.982,80.002 124.982,40.002 
		84.982,40.002 84.982,0 44.981,0 44.981,40.002 4.982,40.002 	"/>
</g>
</svg>