<?xml version="1.0" encoding="iso-8859-1"?>
<!-- Uploaded to: SVG Repo, www.svgrepo.com, Generator: SVG Repo Mixer Tools -->
<svg height="800px" width="800px" version="1.1" id="Layer_1" xmlns="http://www.w3.org/2000/svg" xmlns:xlink="http://www.w3.org/1999/xlink" 
	 viewBox="0 0 460 460" xml:space="preserve">
<g id="XMLID_2972_">
	<path id="XMLID_1594_" style="fill:#9BA9CB;" d="M230,460L230,460c-77.32,0-140-62.68-140-140V140C90,62.68,152.68,0,230,0l0,0
		c77.32,0,140,62.68,140,140v180C370,397.32,307.32,460,230,460z"/>
	<path id="XMLID_1647_" style="fill:#899DC1;" d="M368.449,140v180c0,77.32-62.68,140-140,140l0,0v-40H230V0.02
		C306.604,0.853,368.449,63.199,368.449,140z"/>
	<path id="XMLID_1530_" style="fill:#8E9AAF;" d="M370,140v180c0,77.32-62.68,140-140,140l0,0l0,0c-77.32,0-140-62.68-140-140V140
		c0-33.936,12.077-65.05,32.165-89.284L230,158.551L337.835,50.716C357.923,74.949,370,106.063,370,140z"/>
	<path id="XMLID_1431_" style="fill:#7A8EA5;" d="M370,140v180c0,77.32-62.68,140-140,140l0,0V333V197.107v-38.556L337.835,50.716
		C357.923,74.949,370,106.063,370,140z"/>
	<path id="XMLID_1247_" style="fill:#DD9E8C;" d="M170.071,137.178C171.546,105.352,197.809,80,230,80s58.454,25.352,59.929,57.178
		H290V200H170v-62.822L170.071,137.178L170.071,137.178z"/>
	<path id="XMLID_1683_" style="fill:#EACCC2;" d="M230,80v120h-59.929v-62.822C171.546,105.352,197.809,80,230,80z"/>
	<path id="XMLID_1675_" style="fill:#CEB7B2;" d="M230,158.551l50.67-50.67c5.426,8.544,8.76,18.549,9.258,29.298H290V200H170
		v-62.822h0.071c0.498-10.749,3.832-20.753,9.258-29.298L230,158.551z"/>
	<path id="XMLID_1596_" style="fill:#C98D81;" d="M289.929,200H230v-41.449l50.67-50.67c5.426,8.544,8.76,18.549,9.258,29.298V200
		H289.929z"/>
	<path id="XMLID_1380_" style="fill:#96B1C3;" d="M370,140v180c0,77.32-62.68,140-140,140l0,0l0,0c-77.32,0-140-62.68-140-140V140
		c0-23.968,6.028-46.526,16.643-66.25L230,197.107L353.357,73.75C363.972,93.473,370,116.032,370,140z"/>
	<path id="XMLID_1370_" style="fill:#C2CBD2;" d="M230,197.107V460l0,0c-77.32,0-140-62.68-140-140V140
		c0-23.968,6.028-46.526,16.643-66.25L230,197.107z"/>
	<path id="XMLID_1358_" style="fill:#A6BECC;" d="M310,117.107V310c0,33.137-26.863,60-60,60h-20h-20c-33.137,0-60-26.863-60-60
		V117.107l80,80L310,117.107z"/>
	<path id="XMLID_1356_" style="fill:#D7DBDD;" d="M150,117.107l80,80V370h-20c-33.137,0-60-26.863-60-60V117.107z"/>
	<path id="XMLID_1354_" style="fill:#C6524A;" d="M275,275c0,8.284-6.716,15-15,15h-15v15c0,8.284-6.716,15-15,15s-15-6.716-15-15
		v-15h-15c-8.284,0-15-6.716-15-15s6.716-15,15-15h15v-15c0-8.284,6.716-15,15-15s15,6.716,15,15v15h15
		C268.284,260,275,266.716,275,275z"/>
	<path id="XMLID_1347_" style="fill:#D3625F;" d="M215,290.23V290h-15c-8.284,0-15-6.716-15-15s6.716-15,15-15h15v-15
		c0-8.284,6.716-15,15-15s15,6.716,15,15v15h0.23L215,290.23z"/>
</g>
</svg>