<?xml version="1.0" encoding="iso-8859-1"?>
<!-- Uploaded to: SVG Repo, www.svgrepo.com, Generator: SVG Repo Mixer Tools -->
<svg version="1.1" id="Layer_1" xmlns="http://www.w3.org/2000/svg" xmlns:xlink="http://www.w3.org/1999/xlink" 
	 viewBox="0 0 509 509" xml:space="preserve">
<circle style="fill:#71D456;" cx="254.5" cy="254.5" r="254.5"/>
<path style="fill:#FCFCFD;" d="M42.3,151.5h274.9c3.8,0,7.4,1.2,10.5,3.4l76.1,55.6c0.3,0.2,0.6,0.5,1,0.7l65.4,41.3
	c4.5,2.8,7.4,7.5,8.1,12.7l6,45.2c1.4,10.7-6.9,20.2-17.6,20.2H42.3c-9.8-0.1-17.8-8.1-17.8-17.9V169.3
	C24.5,159.5,32.5,151.5,42.3,151.5z"/>
<g style="opacity:0.5;">
	<path style="fill:#BDBDBE;" d="M200.6,171.3v-5.8H24.9c-0.3,1.2-0.4,2.5-0.4,3.8v2.1h176.1V171.3z"/>
</g>
<g>
	<path style="fill:#414753;" d="M251,235.1H129.1c-1.3,0-2.3-1-2.3-2.3v-64.9c0-1.3,1-2.3,2.3-2.3H251c1.3,0,2.3,1,2.3,2.3v64.9
		C253.3,234,252.3,235.1,251,235.1z"/>
	<path style="fill:#414753;" d="M289.1,235.1h104.7c6.6,0,9.1-8.6,3.5-12.1l0,0c-0.6-0.4-1.2-0.8-1.8-1.2l-76.1-55.6
		c-0.6-0.5-1.4-0.7-2.2-0.7h-28.1c-3.6,0-6.6,2.9-6.6,6.6v56.4C282.6,232.1,285.5,235.1,289.1,235.1z"/>
</g>
<rect x="24.5" y="238.7" style="fill:#F5EA0A;" width="63.9" height="29.8"/>
<rect x="88.3" y="238.7" style="fill:#0090FF;" width="63.9" height="29.8"/>
<rect x="152.2" y="238.7" style="fill:#F5EA0A;" width="63.9" height="29.8"/>
<rect x="216.1" y="238.7" style="fill:#0090FF;" width="63.9" height="29.8"/>
<g>
	<rect x="279.9" y="238.7" style="fill:#F5EA0A;" width="63.9" height="29.8"/>
	<path style="fill:#F5EA0A;" d="M407.6,268.5h71.1l-0.4-3.4c-0.7-5.2-3.7-9.9-8.1-12.7l-21.8-13.8h-40.8L407.6,268.5L407.6,268.5z"
		/>
</g>
<rect x="343.8" y="238.7" style="fill:#0090FF;" width="63.9" height="29.8"/>
<path style="fill:#646B79;" d="M480.3,279.9h-12l-30.5,23.9H44.7l-20.2-13.7v22.5c0,9.8,8,17.8,17.8,17.8h424.4
	c10.8,0,19.1-9.5,17.6-20.2L480.3,279.9z"/>
<path style="fill:#333842;" d="M417.9,275.5c-25.1,0-45.5,20.4-45.5,45.5c0,3.2,0.3,6.4,1,9.4h89.1c0.6-3,1-6.2,1-9.4
	C463.4,295.9,443,275.5,417.9,275.5z"/>
<circle style="fill:#4F5565;" cx="417.9" cy="321" r="36.5"/>
<circle style="fill:#BDBDBE;" cx="417.9" cy="321" r="21.5"/>
<circle style="fill:#F1F3F7;" cx="417.9" cy="321" r="13.5"/>
<g>
	<circle style="fill:#646B79;" cx="417.9" cy="321" r="8.2"/>
	<ellipse style="fill:#646B79;" cx="417.9" cy="303.5" rx="2.5" ry="2.2"/>
	<ellipse style="fill:#646B79;" cx="417.9" cy="338.5" rx="2.5" ry="2.2"/>
	<ellipse style="fill:#646B79;" cx="435.4" cy="321" rx="2.2" ry="2.5"/>
	<ellipse style="fill:#646B79;" cx="400.4" cy="321" rx="2.2" ry="2.5"/>
	
		<ellipse transform="matrix(0.7071 -0.7071 0.7071 0.7071 -92.1794 394.6741)" style="fill:#646B79;" cx="430.324" cy="308.607" rx="2.2" ry="2.5"/>
	
		<ellipse transform="matrix(0.7071 -0.7071 0.7071 0.7071 -116.9659 384.3942)" style="fill:#646B79;" cx="405.522" cy="333.387" rx="2.2" ry="2.5"/>
	
		<ellipse transform="matrix(0.707 0.7072 -0.7072 0.707 361.8577 -206.6245)" style="fill:#646B79;" cx="430.297" cy="333.401" rx="2.2" ry="2.5"/>
	
		<ellipse transform="matrix(0.707 0.7072 -0.7072 0.707 337.0727 -196.3703)" style="fill:#646B79;" cx="405.529" cy="308.616" rx="2.2" ry="2.5"/>
</g>
<path style="fill:#333842;" d="M142.6,321c0-25.1-20.4-45.5-45.5-45.5S51.6,295.9,51.6,321c0,3.2,0.3,6.4,1,9.4h89.1
	C142.3,327.4,142.6,324.3,142.6,321z"/>
<circle style="fill:#4F5565;" cx="97.1" cy="321" r="36.5"/>
<circle style="fill:#BDBDBE;" cx="97.1" cy="321" r="21.5"/>
<circle style="fill:#F1F3F7;" cx="97.1" cy="321" r="13.5"/>
<g>
	<circle style="fill:#646B79;" cx="97.1" cy="321" r="8.2"/>
	<ellipse style="fill:#646B79;" cx="97.1" cy="303.5" rx="2.5" ry="2.2"/>
	<ellipse style="fill:#646B79;" cx="97.1" cy="338.5" rx="2.5" ry="2.2"/>
	<ellipse style="fill:#646B79;" cx="114.6" cy="321" rx="2.2" ry="2.5"/>
	<ellipse style="fill:#646B79;" cx="79.6" cy="321" rx="2.2" ry="2.5"/>
	
		<ellipse transform="matrix(0.7071 -0.7071 0.7071 0.7071 -186.1427 167.8374)" style="fill:#646B79;" cx="109.526" cy="308.613" rx="2.2" ry="2.5"/>
	
		<ellipse transform="matrix(0.7071 -0.7071 0.7071 0.7071 -210.937 157.5526)" style="fill:#646B79;" cx="84.714" cy="333.4" rx="2.2" ry="2.5"/>
	
		<ellipse transform="matrix(0.707 0.7072 -0.7072 0.707 267.8756 20.2519)" style="fill:#646B79;" cx="109.496" cy="333.416" rx="2.2" ry="2.5"/>
	
		<ellipse transform="matrix(0.707 0.7072 -0.7072 0.707 243.0936 30.4989)" style="fill:#646B79;" cx="84.739" cy="308.631" rx="2.2" ry="2.5"/>
</g>
<g style="opacity:0.5;">
	<rect x="265.4" y="151.5" style="fill:#414753;" width="5.3" height="179.6"/>
</g>
</svg>