<?xml version="1.0" encoding="UTF-8"?>
<svg version="1.1" xmlns="http://www.w3.org/2000/svg" width="380" height="90">
<path d="M0 0 C0.85212067 0.0003336 1.70424133 0.00066719 2.58218384 0.00101089 C7.54018765 0.003599 12.49807265 0.01422356 17.45602798 0.03660774 C18.98050559 0.04336192 20.50498929 0.04887332 22.02947617 0.05303764 C29.62101473 0.07775701 37.09382754 0.20420758 44.625 1.25 C44.625 1.91 44.625 2.57 44.625 3.25 C43.77010986 3.23952637 42.91521973 3.22905273 42.03442383 3.21826172 C2.06075199 2.80178693 -37.65715935 4.68035484 -77.375 9.25 C-78.19657593 9.34452454 -79.01815186 9.43904907 -79.86462402 9.53643799 C-100.6154775 11.94268108 -121.25522387 14.88583272 -141.85253906 18.37060547 C-142.59879044 18.49609268 -143.34504181 18.6215799 -144.11390686 18.75086975 C-146.12427536 19.09008971 -148.13382546 19.43414991 -150.14331055 19.77856445 C-153.375 20.25 -153.375 20.25 -157.375 20.25 C-156.1202325 16.77525923 -154.98417788 13.89493391 -152.375 11.25 C-149.81899848 10.57816598 -147.57428553 10.163439 -144.97265625 9.87109375 C-144.23265884 9.77388535 -143.49266144 9.67667694 -142.73023987 9.57652283 C-140.30121239 9.26233119 -137.869909 8.9742409 -135.4375 8.6875 C-133.73407355 8.47523107 -132.03078644 8.26184119 -130.32763672 8.04736328 C-126.10053508 7.52017919 -121.87106417 7.01585287 -117.64031982 6.51885986 C-114.54091185 6.15100611 -111.44454401 5.75952318 -108.34765625 5.37109375 C-102.0580026 4.61002685 -95.76045188 3.98736921 -89.44934082 3.43292236 C-88.01807017 3.30670809 -86.58700908 3.17810239 -85.15612793 3.04754639 C-56.77251801 0.46701569 -28.47935329 -0.02455696 0 0 Z " fill="#8CC63E" transform="translate(174.375,54.75)"/>
<path d="M0 0 C-0.33 9.24 -0.66 18.48 -1 28 C-0.34 28 0.32 28 1 28 C0.979375 28.99 0.95875 29.98 0.9375 31 C0.92918572 35.06568074 1.43531533 38.97662176 2 43 C-1.3125 43.3125 -1.3125 43.3125 -5 43 C-7.92750767 39.69474941 -8.1220273 37.27095551 -8 33 C-18.02080426 33.55922245 -18.02080426 33.55922245 -26.45703125 38.30859375 C-28.10145416 40.86004571 -29.57427651 43.43990167 -30.96923828 46.13476562 C-32.96199542 49.74079701 -35.39148254 53.06447462 -37.75 56.4375 C-38.21059814 57.11127686 -38.67119629 57.78505371 -39.14575195 58.47924805 C-44.29502966 65.99702445 -44.29502966 65.99702445 -47 69 C-49.75 69.3125 -49.75 69.3125 -52 69 C-51.37390928 65.70060866 -50.18520051 63.51293222 -48.26953125 60.76953125 C-47.71330078 59.96580078 -47.15707031 59.16207031 -46.58398438 58.33398438 C-45.99939453 57.50189453 -45.41480469 56.66980469 -44.8125 55.8125 C-43.67264253 54.17354872 -42.53331755 52.53422698 -41.39453125 50.89453125 C-40.83459473 50.09096191 -40.2746582 49.28739258 -39.69775391 48.45947266 C-37.0832472 44.67193447 -34.53721827 40.83959926 -32 37 C-33.65 36.34 -35.3 35.68 -37 35 C-36.6465342 32.43737294 -36.22529498 31.22529498 -34.375 29.375 C-32 28 -32 28 -28.75390625 27.3828125 C-23.82763491 26.01540055 -21.52363395 22.44877909 -18.5625 18.5 C-18.00119385 17.78328125 -17.4398877 17.0665625 -16.86157227 16.328125 C-14.77818095 13.66253473 -12.73200055 10.97016079 -10.69433594 8.26953125 C-9.61575475 6.84101839 -8.52708711 5.42013601 -7.4375 4 C-6.85871094 3.21625 -6.27992187 2.4325 -5.68359375 1.625 C-4 0 -4 0 0 0 Z M-10 14 C-11.56332059 16.12481569 -13.07430571 18.26104434 -14.5625 20.4375 C-14.98724609 21.04916016 -15.41199219 21.66082031 -15.84960938 22.29101562 C-18.03118568 24.92293613 -18.03118568 24.92293613 -19 28 C-15.7 28 -12.4 28 -9 28 C-9 23.38 -9 18.76 -9 14 C-9.33 14 -9.66 14 -10 14 Z " fill="#005481" transform="translate(58,10)"/>
<path d="M0 0 C1.265625 1.5234375 1.265625 1.5234375 2 4 C1.68628607 6.89825621 1.27225591 9.59621716 0.6875 12.4375 C0.4719043 13.56381836 0.4719043 13.56381836 0.25195312 14.71289062 C-0.15225831 16.8114678 -0.57297856 18.9059627 -1 21 C-1.19980469 22.00160156 -1.39960938 23.00320312 -1.60546875 24.03515625 C-1.73566406 24.68355469 -1.86585938 25.33195312 -2 26 C-3.98 26 -5.96 26 -8 26 C-8.99 24.02 -9.98 22.04 -11 20 C-11.50789062 20.34933594 -12.01578125 20.69867188 -12.5390625 21.05859375 C-16.65827521 23.78159391 -19.92966418 25.75855544 -25 26 C-25.66 25.67 -26.32 25.34 -27 25 C-27.42312501 18.86468736 -27.0470209 15.92205244 -23 11 C-17.18613383 4.35558152 -9.16954496 -2.53625712 0 0 Z M-10.65625 7.57421875 C-15.24062623 12.73465451 -15.24062623 12.73465451 -18 19 C-14.91140053 17.64664405 -12.992036 16.19113751 -10.8125 13.625 C-10.30332031 13.03976563 -9.79414063 12.45453125 -9.26953125 11.8515625 C-7.92440727 9.88975091 -7.42485598 8.323911 -7 6 C-9.13922755 5.77035695 -9.13922755 5.77035695 -10.65625 7.57421875 Z " fill="#005581" transform="translate(149,25)"/>
<path d="M0 0 C0.556875 0.391875 1.11375 0.78375 1.6875 1.1875 C1.6875 2.5075 1.6875 3.8275 1.6875 5.1875 C2.491875 3.9809375 2.491875 3.9809375 3.3125 2.75 C6.11855369 -0.27758424 7.65575194 -0.53760809 11.6875 -0.8125 C14.43058365 3.30212548 13.87193805 6.31920557 13.625 11.125 C13.60276367 12.34219727 13.60276367 12.34219727 13.58007812 13.58398438 C13.37565775 17.80751713 13.24930788 19.58848029 10.26953125 22.765625 C7.6875 24.1875 7.6875 24.1875 5.4375 24 C3.6875 23.1875 3.6875 23.1875 2.6875 22.1875 C2.64429753 19.85456666 2.64727609 17.5204866 2.6875 15.1875 C2.6875 14.1975 2.6875 13.2075 2.6875 12.1875 C2.24019531 12.95835938 1.79289063 13.72921875 1.33203125 14.5234375 C0.72746094 15.52632812 0.12289062 16.52921875 -0.5 17.5625 C-1.09167969 18.56023438 -1.68335938 19.55796875 -2.29296875 20.5859375 C-4.48867418 23.41444778 -5.91997622 24.21485933 -9.3125 25.1875 C-11.3125 23.1875 -11.3125 23.1875 -11.39453125 21.19140625 C-9.52861218 4.2899654 -9.52861218 4.2899654 -4.875 -0.125 C-2.3125 -0.8125 -2.3125 -0.8125 0 0 Z " fill="#005581" transform="translate(164.3125,24.8125)"/>
<path d="M0 0 C1.98 0 3.96 0 6 0 C6.33 3.96 6.66 7.92 7 12 C7.86625 11.62875 8.7325 11.2575 9.625 10.875 C13.61043665 9.84173865 15.32438268 10.24572809 19 12 C21.20192224 15.30288336 21.23959968 16.27462727 21.1953125 20.10546875 C21.18886719 21.08837891 21.18242187 22.07128906 21.17578125 23.08398438 C21.15902344 24.10814453 21.14226562 25.13230469 21.125 26.1875 C21.11597656 27.22326172 21.10695313 28.25902344 21.09765625 29.32617188 C21.0740786 31.88434685 21.0411703 34.44205748 21 37 C19.33388095 37.042721 17.66617115 37.04063832 16 37 C14.45049732 35.45049732 14.78344807 33.90009406 14.68359375 31.74609375 C14.64169922 30.89208984 14.59980469 30.03808594 14.55664062 29.15820312 C14.49766602 27.81145508 14.49766602 27.81145508 14.4375 26.4375 C14.39431641 25.53580078 14.35113281 24.63410156 14.30664062 23.70507812 C14.20021858 21.47021515 14.09820012 19.23523692 14 17 C11.58354218 16.83312552 11.58354218 16.83312552 9 17 C6.64641749 19.35358251 6.72128096 19.92968394 6.5859375 23.1328125 C6.54726562 23.93847656 6.50859375 24.74414062 6.46875 25.57421875 C6.4378125 26.41597656 6.406875 27.25773437 6.375 28.125 C6.33632812 28.97449219 6.29765625 29.82398437 6.2578125 30.69921875 C6.16343506 32.79911684 6.08062414 34.89952891 6 37 C4.02 37 2.04 37 0 37 C0 24.79 0 12.58 0 0 Z " fill="#8CC63F" transform="translate(243,12)"/>
<path d="M0 0 C1.98 0 3.96 0 6 0 C6.33 3.96 6.66 7.92 7 12 C8.5778125 11.443125 8.5778125 11.443125 10.1875 10.875 C14.22133825 9.94920106 15.49317345 9.99609911 19 12 C21 14 21 14 21.22705078 16.33837891 C21.21657715 17.29147949 21.20610352 18.24458008 21.1953125 19.2265625 C21.18886719 20.2578125 21.18242187 21.2890625 21.17578125 22.3515625 C21.15902344 23.43179688 21.14226562 24.51203125 21.125 25.625 C21.11597656 26.71296875 21.10695313 27.8009375 21.09765625 28.921875 C21.07403409 31.61480152 21.04109556 34.30729255 21 37 C19.35 37 17.7 37 16 37 C15.93941406 35.72382812 15.87882812 34.44765625 15.81640625 33.1328125 C15.73200432 31.46352984 15.64735614 29.79425963 15.5625 28.125 C15.52318359 27.28324219 15.48386719 26.44148438 15.44335938 25.57421875 C15.38051758 24.36572266 15.38051758 24.36572266 15.31640625 23.1328125 C15.27974854 22.38918457 15.24309082 21.64555664 15.20532227 20.87939453 C15.10044135 18.91135688 15.10044135 18.91135688 14 17 C11.02934491 17.34227572 11.02934491 17.34227572 8 18 C6.3501993 21.29960141 6.61741639 24.99127884 6.4375 28.625 C6.37272461 29.82769531 6.37272461 29.82769531 6.30664062 31.0546875 C6.20048543 33.0362511 6.09973145 35.01810271 6 37 C4.02 37 2.04 37 0 37 C0 24.79 0 12.58 0 0 Z " fill="#8CC63F" transform="translate(352,12)"/>
<path d="M0 0 C4.65108153 4.88363561 4 6.7261564 4 14 C-1.61 14 -7.22 14 -13 14 C-12.01 15.65 -11.02 17.3 -10 19 C-7.26622386 19.60393692 -7.26622386 19.60393692 -4.3125 19.3125 C-2.82169922 19.24482422 -2.82169922 19.24482422 -1.30078125 19.17578125 C-0.54152344 19.11777344 0.21773438 19.05976562 1 19 C1.33 20.65 1.66 22.3 2 24 C-2.19897892 26.09948946 -7.43998333 25.54696419 -12 25 C-15.23307772 23.38043957 -17.36183145 21.2763371 -19 18 C-19.5844409 13.12472717 -20.0919466 8.1692362 -17.8359375 3.6875 C-15.67180544 1.02395284 -13.7633914 -0.65848279 -10.625 -2.0625 C-6.82975749 -1.97213708 -3.48455252 -1.57859686 0 0 Z M-11 4 C-11.66 5.65 -12.32 7.3 -13 9 C-9.37 9 -5.74 9 -2 9 C-2.66 7.35 -3.32 5.7 -4 4 C-6.31 4 -8.62 4 -11 4 Z " fill="#8CC63F" transform="translate(288,24)"/>
<path d="M0 0 C-1.26174446 6.93959455 -3.45077718 13.36906185 -5.87939453 19.97045898 C-7.21560145 23.63103084 -8.38349795 27.13354269 -9 31 C-7.3603125 29.9790625 -7.3603125 29.9790625 -5.6875 28.9375 C-3.82421875 27.77734375 -3.82421875 27.77734375 -2 27 C-1.01 27.33 -0.02 27.66 1 28 C-0.31307184 32.11475987 -1.7177601 33.99461761 -5.3125 36.375 C-6.45138672 37.16003906 -6.45138672 37.16003906 -7.61328125 37.9609375 C-10.58344366 39.25400329 -11.95723006 39.0026746 -15 38 C-15.99 37.34 -16.98 36.68 -18 36 C-18.64913273 29.70893703 -17.26661335 24.80950497 -15.125 18.9375 C-14.5845731 17.40542852 -14.04549061 15.87288208 -13.5078125 14.33984375 C-13.24661621 13.61015381 -12.98541992 12.88046387 -12.71630859 12.12866211 C-12.04047925 10.12029262 -11.50099022 8.11648353 -10.984375 6.0625 C-10 3 -10 3 -7.125 1.0625 C-4 0 -4 0 0 0 Z " fill="#005581" transform="translate(83,17)"/>
<path d="M0 0 C-0.60182742 6.1185788 -2.40305572 11.48971933 -4.5 17.25 C-4.82097656 18.1471875 -5.14195313 19.044375 -5.47265625 19.96875 C-6.06528236 21.62512757 -6.6606624 23.28052446 -7.25976562 24.93457031 C-7.86210308 26.61523486 -8.43542549 28.30627648 -9 30 C-7.906875 29.505 -6.81375 29.01 -5.6875 28.5 C-2 27 -2 27 1 27 C0.71435135 30.42778386 0.29390456 31.72242347 -2.25 34.125 C-3.61125 35.053125 -3.61125 35.053125 -5 36 C-6.2065625 36.928125 -6.2065625 36.928125 -7.4375 37.875 C-10 39 -10 39 -13.1875 38.25 C-14.80570795 37.53079647 -16.41611852 36.79194074 -18 36 C-18.49000813 29.53189269 -16.72784056 24.42608869 -14.5625 18.375 C-13.91531899 16.52957296 -13.27070004 14.68324499 -12.62890625 12.8359375 C-12.34088135 12.02688965 -12.05285645 11.2178418 -11.75610352 10.38427734 C-10.92807294 7.97922343 -10.92807294 7.97922343 -10.57397461 5.31103516 C-10 3 -10 3 -7.1875 1.1875 C-4 0 -4 0 0 0 Z " fill="#005581" transform="translate(103,16)"/>
<path d="M0 0 C2 0.75 2 0.75 4 3.75 C4.33919452 9.68590405 2.80903413 14.15675296 -1 18.75 C-1.99 19.41 -2.98 20.07 -4 20.75 C-0.23375329 22.00541557 1.37188934 21.12061958 5 19.75 C5 21.07 5 22.39 5 23.75 C-0.94687028 27.45276829 -4.73586804 28.09771423 -11.6796875 27.3046875 C-14 26.75 -14 26.75 -16 24.75 C-17.75812921 19.72677368 -16.53511248 15.99325475 -14.515625 11.29296875 C-11.89778063 6.9006577 -5.68400806 -0.71050101 0 0 Z M-3 6.75 C-5.95303159 9.82115285 -6.52651586 12.5833396 -7 16.75 C-3.46413986 13.57679218 -1.41421969 11.58256305 -1 6.75 C-1.66 6.75 -2.32 6.75 -3 6.75 Z " fill="#005581" transform="translate(220,19.25)"/>
<path d="M0 0 C2.88359729 4.17903624 2.2296869 8.42913392 2.05859375 13.37109375 C2.04054688 14.35464844 2.0225 15.33820312 2.00390625 16.3515625 C1.95683501 18.77573158 1.89110117 21.19791434 1.80859375 23.62109375 C-2.62754447 25.83916286 -8.37457648 25.14569897 -13.19140625 24.62109375 C-16.50390625 22.49609375 -16.50390625 22.49609375 -18.19140625 19.62109375 C-18.92947666 15.68471825 -18.55277333 14.18183577 -16.37890625 10.80859375 C-13.39088443 7.82057193 -11.71530955 7.62997347 -7.50390625 7.55859375 C-6.41078125 7.57921875 -5.31765625 7.59984375 -4.19140625 7.62109375 C-4.52140625 6.63109375 -4.85140625 5.64109375 -5.19140625 4.62109375 C-8.49140625 4.62109375 -11.79140625 4.62109375 -15.19140625 4.62109375 C-15.52140625 2.64109375 -15.85140625 0.66109375 -16.19140625 -1.37890625 C-10.49251775 -2.42564087 -5.11216155 -3.21674337 0 0 Z M-12.19140625 14.62109375 C-11.86140625 16.27109375 -11.53140625 17.92109375 -11.19140625 19.62109375 C-8.88140625 19.62109375 -6.57140625 19.62109375 -4.19140625 19.62109375 C-4.19140625 17.31109375 -4.19140625 15.00109375 -4.19140625 12.62109375 C-7.90739816 12.42022932 -8.9634907 12.46915005 -12.19140625 14.62109375 Z " fill="#8CC63F" transform="translate(313.19140625,24.37890625)"/>
<path d="M0 0 C0.66 0.66 1.32 1.32 2 2 C1.625 4.625 1.625 4.625 1 7 C-0.0725 7.12375 -1.145 7.2475 -2.25 7.375 C-4.23562266 7.81001307 -4.23562266 7.81001307 -6 9 C-7.82955623 12.1845878 -8.95660715 15.4874601 -10 19 C-9.46890625 18.65066406 -8.9378125 18.30132812 -8.390625 17.94140625 C-7.68421875 17.48636719 -6.9778125 17.03132813 -6.25 16.5625 C-5.55390625 16.11003906 -4.8578125 15.65757813 -4.140625 15.19140625 C-2.07042986 14.0391991 -0.31303676 13.45323018 2 13 C1.88951334 16.75654639 0.6954829 18.67195061 -1.9375 21.1875 C-6.08872837 24.50676732 -10.69134418 25.92886223 -16 26 C-18.30078125 25.03125 -18.30078125 25.03125 -20 24 C-20.82203726 16.71909852 -19.47400722 13.03314039 -15 7.2421875 C-10.76281903 2.4919104 -6.76926654 -1.10197362 0 0 Z " fill="#005581" transform="translate(200,23)"/>
<path d="M0 0 C0 1.98 0 3.96 0 6 C1.98 6 3.96 6 6 6 C6.33 6.99 6.66 7.98 7 9 C6.67 9.66 6.34 10.32 6 11 C4.02 11 2.04 11 0 11 C0.33 15.95 0.66 20.9 1 26 C2.98 26.33 4.96 26.66 7 27 C7 28.65 7 30.3 7 32 C5.56344146 32.08131463 4.1255517 32.13933559 2.6875 32.1875 C1.48673828 32.23970703 1.48673828 32.23970703 0.26171875 32.29296875 C-2.51627459 31.93312505 -3.29427215 31.16758647 -5 29 C-6.59412284 25.81175432 -6.10174735 22.37103338 -6.0625 18.875 C-6.05798828 18.12089844 -6.05347656 17.36679687 -6.04882812 16.58984375 C-6.03703499 14.72652873 -6.01909942 12.86325445 -6 11 C-7.32 11 -8.64 11 -10 11 C-8.64763423 8.06120516 -7.10057341 5.70767089 -5 3.25 C-4.484375 2.63640625 -3.96875 2.0228125 -3.4375 1.390625 C-2 0 -2 0 0 0 Z " fill="#8CC63F" transform="translate(342,17)"/>
<path d="M0 0 C1.98 0 3.96 0 6 0 C6 10.56 6 21.12 6 32 C7.65 32 9.3 32 11 32 C11 33.65 11 35.3 11 37 C4.69587946 37.48493235 4.69587946 37.48493235 1.79003906 35.45996094 C-0.61831439 32.15028153 -0.50643248 29.32389888 -0.390625 25.390625 C-0.38496521 24.66381531 -0.37930542 23.93700562 -0.37347412 23.18817139 C-0.35114553 20.87476755 -0.30096048 18.5629328 -0.25 16.25 C-0.22993023 14.67840784 -0.21168029 13.10679132 -0.1953125 11.53515625 C-0.15129293 7.68950283 -0.08229375 3.84501711 0 0 Z " fill="#8CC63F" transform="translate(321,12)"/>
<path d="M0 0 C-0.20496094 0.66386719 -0.40992187 1.32773437 -0.62109375 2.01171875 C-0.89050781 2.89472656 -1.15992187 3.77773438 -1.4375 4.6875 C-1.70433594 5.55761719 -1.97117187 6.42773438 -2.24609375 7.32421875 C-2.96344529 9.87025921 -3.517541 12.4003423 -4 15 C-2.02 14.67 -0.04 14.34 2 14 C1.68619894 16.90265983 1.43052594 18.55291537 -0.625 20.6875 C-3.74336919 22.41080929 -6.48740196 23.37275035 -10 24 C-12.5 23.1875 -12.5 23.1875 -14 21 C-14 14.21566293 -12.4358807 6.91173591 -9 1 C-5.68259773 -0.91346896 -3.6052278 -1.33526955 0 0 Z " fill="#005581" transform="translate(119,29)"/>
<path d="M0 0 C0.99 0 1.98 0 3 0 C3 13.2 3 26.4 3 40 C2.01 40 1.02 40 0 40 C0 26.8 0 13.6 0 0 Z " fill="#8CC63F" transform="translate(234,12)"/>
<path d="M0 0 C0.3125 2.3125 0.3125 2.3125 0 5 C-2.1875 6.875 -2.1875 6.875 -5 8 C-7.8125 7.6875 -7.8125 7.6875 -10 7 C-9.4360709 3.72921124 -8.54319569 2.13628438 -6 0 C-3.50907189 -1.24546405 -2.58919267 -0.7767578 0 0 Z " fill="#005581" transform="translate(120,20)"/>
</svg>
