<?xml version="1.0" encoding="UTF-8"?>
<svg version="1.1" xmlns="http://www.w3.org/2000/svg" width="1200" height="630">
<path d="M0 0 C396 0 792 0 1200 0 C1200 207.9 1200 415.8 1200 630 C804 630 408 630 0 630 C0 422.1 0 214.2 0 0 Z " fill="#F9F9F9" transform="translate(0,0)"/>
<path d="M0 0 C0.85702802 -0.00765109 1.71405604 -0.01530219 2.5970546 -0.02318513 C5.46209992 -0.04378432 8.32633903 -0.03587326 11.19143677 -0.02792358 C13.24828837 -0.03662002 15.3051335 -0.04698705 17.36196899 -0.05889893 C22.94469046 -0.08567895 28.52714112 -0.0868363 34.1099143 -0.08177233 C38.77195926 -0.07963279 43.43394944 -0.08939997 48.09598267 -0.09898317 C59.09561582 -0.12117375 70.09511237 -0.12204831 81.09475708 -0.10995483 C92.43862019 -0.09787458 103.78198721 -0.12249859 115.12576568 -0.16509497 C124.86863837 -0.20033334 134.6113532 -0.2123287 144.35428727 -0.20581949 C150.17176241 -0.20219428 155.98888372 -0.20746076 161.80630112 -0.23524857 C167.27795881 -0.26040676 172.74884363 -0.25651696 178.2204895 -0.23042679 C180.22638333 -0.22569624 182.23233155 -0.23116142 184.23816299 -0.24767303 C186.98160931 -0.26862471 189.72246601 -0.25240271 192.46582031 -0.22705078 C193.65037585 -0.24917364 193.65037585 -0.24917364 194.8588618 -0.27174342 C201.14485127 -0.14992618 204.80455982 2.31060336 209.3598938 6.52139282 C213.22221199 10.77984621 214.46700623 13.79581884 214.56863403 19.49258423 C214.58792465 20.50438751 214.60721527 21.5161908 214.62709045 22.55865479 C214.68501014 27.19577341 214.73413161 31.83273889 214.7649231 36.47012329 C214.78647662 38.91037165 214.82054743 41.35054325 214.86746216 43.79043579 C214.93465258 47.31829178 214.96195733 50.84454862 214.98098755 54.37295532 C215.00881821 55.45452911 215.03664886 56.53610291 215.06532288 57.65045166 C215.04536088 65.06624317 213.46467513 70.0194084 208.3598938 75.52139282 C206.06893254 77.2348556 203.98374886 78.3103828 201.3598938 79.52139282 C200.3698938 80.01639282 200.3698938 80.01639282 199.3598938 80.52139282 C196.70991795 80.6257935 194.08584007 80.66918889 191.43531799 80.66856384 C190.19271283 80.67407887 190.19271283 80.67407887 188.92500454 80.67970532 C186.13303112 80.69076924 183.34109488 80.69459062 180.54910278 80.69839478 C178.55358257 80.70465752 176.55806353 80.71130415 174.56254578 80.7183075 C169.12835298 80.73573802 163.69416901 80.74627546 158.25995517 80.75451303 C154.86512076 80.75966022 151.47028909 80.76573617 148.07545662 80.77202415 C137.45492669 80.79108438 126.83440373 80.80531215 116.21385998 80.81363612 C103.95292854 80.82340404 91.69217787 80.84970854 79.43131012 80.89013702 C69.956896 80.92030533 60.48253365 80.9351058 51.00807244 80.93841714 C45.34873416 80.94076735 39.6895888 80.94972384 34.03030205 80.97487831 C28.7024976 80.99817553 23.37501284 81.00238548 18.04717064 80.99211693 C16.09490648 80.99162182 14.1426265 80.99793495 12.19041061 81.01167297 C9.51767836 81.02942399 6.84608929 81.02227011 4.1733551 81.00914001 C3.40718146 81.02010926 2.64100782 81.03107851 1.8516168 81.04238015 C-4.89450047 80.9627874 -10.53288533 78.73209184 -16.01881409 74.82901001 C-21.47446201 68.92810431 -21.65129845 63.580925 -21.53463745 55.77139282 C-21.53896286 54.55870728 -21.54328827 53.34602173 -21.54774475 52.09658813 C-21.54812497 49.54152084 -21.53112577 46.98639869 -21.49777222 44.43154907 C-21.4527384 40.53283746 -21.47703588 36.63889733 -21.50924683 32.74014282 C-21.50102626 30.25054233 -21.48879088 27.76095119 -21.47213745 25.27139282 C-21.48114578 24.1128479 -21.49015411 22.95430298 -21.49943542 21.76065063 C-21.36984233 15.35296912 -20.63606059 11.21179206 -16.5092926 6.21377563 C-11.02365813 1.24701925 -7.17323944 -0.06827294 0 0 Z " fill="#9DA0A5" transform="translate(458.6401062011719,272.4786071777344)"/>
<path d="M0 0 C1.18172791 -0.01283524 2.36345581 -0.02567047 3.58099365 -0.03889465 C4.86427551 -0.04628159 6.14755737 -0.05366852 7.46972656 -0.0612793 C9.4417807 -0.07338692 9.4417807 -0.07338692 11.45367432 -0.08573914 C14.24125032 -0.10076838 17.02880083 -0.1106045 19.81640625 -0.11816406 C23.37858784 -0.129211 26.94014172 -0.16358934 30.5021019 -0.20333576 C33.90795125 -0.23585146 37.313734 -0.24028552 40.71972656 -0.2487793 C41.9949115 -0.26628738 43.27009644 -0.28379547 44.58392334 -0.30183411 C55.51171616 -0.27506611 55.51171616 -0.27506611 60.36035156 4.17700195 C61.72160156 5.41450195 61.72160156 5.41450195 63.11035156 6.67700195 C66.58240316 10.53483707 67.60754891 13.20434331 67.65087891 18.38525391 C67.66363861 19.42345779 67.67639832 20.46166168 67.68954468 21.53132629 C67.69177032 22.64803207 67.69399597 23.76473785 67.69628906 24.9152832 C67.70627426 26.64647652 67.70627426 26.64647652 67.71646118 28.41264343 C67.72658556 30.8545065 67.73127827 33.29639722 67.73095703 35.73828125 C67.73532294 39.46506668 67.771627 43.19066098 67.80957031 46.91723633 C67.81543999 49.29158124 67.81940837 51.66593178 67.82128906 54.0402832 C67.8356601 55.15091629 67.85003113 56.26154938 67.86483765 57.40583801 C67.82160046 64.76744684 66.8844552 69.32691873 61.79785156 74.8840332 C57.015713 78.56160172 53.98507019 80.41921323 47.90844727 80.4675293 C46.27073112 80.48666885 46.27073112 80.48666885 44.59992981 80.50619507 C43.4238768 80.50842072 42.24782379 80.51064636 41.03613281 80.51293945 C39.21217232 80.52292465 39.21217232 80.52292465 37.35136414 80.53311157 C34.77665723 80.54323916 32.20192407 80.54792856 29.62719727 80.54760742 C25.70512021 80.55196609 21.78418157 80.58824717 17.86230469 80.6262207 C15.35775123 80.63209182 12.85319244 80.63605924 10.34863281 80.63793945 C9.18270096 80.65231049 8.0167691 80.66668152 6.81550598 80.68148804 C-1.08011541 80.63762288 -7.61975755 79.56332308 -13.79589844 74.3605957 C-14.23933594 73.78438477 -14.68277344 73.20817383 -15.13964844 72.61450195 C-15.60371094 72.03571289 -16.06777344 71.45692383 -16.54589844 70.8605957 C-18.63893422 67.63881562 -18.77659491 64.79672868 -18.81665039 61.06640625 C-18.82948563 60.02489914 -18.84232086 58.98339203 -18.85554504 57.9103241 C-18.86293198 56.78531998 -18.87031891 55.66031586 -18.87792969 54.5012207 C-18.88600143 53.34330521 -18.89407318 52.18538971 -18.90238953 50.99238586 C-18.91622698 48.54034929 -18.92695065 46.08829348 -18.93481445 43.63623047 C-18.95203271 39.88968374 -18.9959242 36.14401809 -19.04003906 32.39770508 C-19.05016558 30.01555011 -19.05868181 27.63338764 -19.06542969 25.2512207 C-19.08293777 24.13228928 -19.10044586 23.01335785 -19.1184845 21.86051941 C-19.09742734 14.29606963 -18.16138975 10.72103277 -12.78808594 5.3137207 C-12.20285156 4.83547852 -11.61761719 4.35723633 -11.01464844 3.86450195 C-10.42425781 3.37336914 -9.83386719 2.88223633 -9.22558594 2.3762207 C-6.0900156 0.00523525 -3.88339268 0.03664038 0 0 Z " fill="#0177BB" transform="translate(699.6396484375,272.822998046875)"/>
<path d="M0 0 C1.33989996 -0.00778592 2.67979503 -0.01645772 4.01968384 -0.02597046 C6.82220487 -0.0408522 9.62422186 -0.04034505 12.42675781 -0.02978516 C16.00036123 -0.01820794 19.57188713 -0.05203902 23.14514732 -0.0984745 C25.9112432 -0.12808971 28.67684691 -0.12967404 31.44307327 -0.12345505 C33.39503376 -0.1249671 35.34691839 -0.1526023 37.29867554 -0.18081665 C44.08185352 -0.11047427 48.68237699 0.31699677 53.79606628 5.00878906 C54.30938004 5.5344043 54.82269379 6.06001953 55.3515625 6.6015625 C56.16488037 7.28814941 56.97819824 7.97473633 57.81616211 8.68212891 C60.41539844 13.62435629 59.94069098 18.8194416 59.91796875 24.3125 C59.92416733 25.55399811 59.93036591 26.79549622 59.93675232 28.07461548 C59.94566696 31.36997856 59.93455232 34.66459626 59.91766357 37.9598999 C59.91407068 39.9719839 59.9279766 41.9831434 59.94848633 43.99511719 C59.98540848 47.87218123 59.98798971 51.74779356 59.98046875 55.625 C59.99372696 56.81999115 60.00698517 58.0149823 60.02064514 59.2461853 C59.95603976 65.04281146 59.89051156 69.68971865 55.9216156 74.1698761 C55.40349808 74.64233261 54.88538055 75.11478912 54.3515625 75.6015625 C53.81052383 76.09750412 53.26948517 76.59344574 52.71205139 77.10441589 C46.69433376 81.66565221 40.22820401 81.34233153 32.9453125 81.30078125 C31.02640198 81.31151421 31.02640198 81.31151421 29.06872559 81.32246399 C26.37218445 81.33428827 23.67647164 81.32773145 20.97998047 81.30834961 C17.54309884 81.28545538 14.10868863 81.31227066 10.67205048 81.35341167 C7.36715386 81.38529459 4.06285215 81.37198434 0.7578125 81.36328125 C-0.46635376 81.37856369 -1.69052002 81.39384613 -2.95178223 81.40959167 C-10.61538989 81.30549926 -15.21912574 80.14344782 -20.6484375 74.6015625 C-24.57900073 70.26786458 -25.75815429 67.22209923 -25.85717773 61.4309082 C-25.87646835 60.37583572 -25.89575897 59.32076324 -25.91563416 58.23371887 C-25.973484 53.40365093 -26.02266077 48.57373043 -26.0534668 43.7434082 C-26.0750392 41.19932475 -26.10913239 38.65531535 -26.15600586 36.11157227 C-26.2230794 32.43732661 -26.25048091 28.76461571 -26.26953125 25.08984375 C-26.29736191 23.95936111 -26.32519257 22.82887848 -26.35386658 21.66413879 C-26.33721017 15.23552017 -25.68547056 11.07314052 -21.30766296 6.20704651 C-20.76011856 5.67723679 -20.21257416 5.14742706 -19.6484375 4.6015625 C-18.40006104 3.38267334 -18.40006104 3.38267334 -17.12646484 2.13916016 C-11.55610024 -0.3234368 -6.02328925 -0.00858945 0 0 Z " fill="#0478BC" transform="translate(612.6484375,361.3984375)"/>
<path d="M0 0 C1.71218971 -0.01418472 1.71218971 -0.01418472 3.45896912 -0.02865601 C4.68301956 -0.02258331 5.90707001 -0.01651062 7.16821289 -0.01025391 C8.43427872 -0.01312408 9.70034454 -0.01599426 11.004776 -0.01895142 C13.68058127 -0.02099173 16.35556266 -0.01697769 19.03125 -0.00292969 C22.44869758 0.01414485 25.86543733 0.00432666 29.28285885 -0.01364708 C32.55716831 -0.02714158 35.83139417 -0.0176712 39.10571289 -0.01025391 C40.32773911 -0.0163266 41.54976532 -0.02239929 42.80882263 -0.02865601 C51.9392393 0.04677709 57.58233338 1.76714783 64.20336914 8.38818359 C66.67028716 14.65837656 66.57544944 20.93090721 66.64477539 27.60302734 C66.66543312 29.35758995 66.66543312 29.35758995 66.68650818 31.14759827 C66.70971639 33.61438308 66.72701412 36.08122972 66.73876953 38.5480957 C66.76575955 42.31040694 66.84074721 46.06993538 66.91625977 49.83154297 C66.93291309 52.23451895 66.94668088 54.63751701 66.95727539 57.04052734 C66.98713028 58.15846176 67.01698517 59.27639618 67.04774475 60.4282074 C67.01686402 65.94048275 66.64070771 69.61370112 63.09375 73.97241211 C55.78461657 81.00584713 48.84731278 80.8553099 39.11352539 80.85693359 C37.85503281 80.86454712 36.59654022 80.87216064 35.2999115 80.88000488 C32.64444209 80.89078714 29.9898656 80.89504239 27.33447266 80.88916016 C23.9505835 80.88326506 20.56812964 80.91386847 17.18451786 80.95427704 C13.93171539 80.986509 10.67896274 80.98203764 7.42602539 80.98193359 C6.22059586 80.99832886 5.01516632 81.01472412 3.77320862 81.03161621 C-3.3068461 80.97372292 -8.54392284 80.41764458 -13.79663086 75.38818359 C-19.42345849 69.3629235 -19.50862777 63.15182095 -19.39038086 55.22412109 C-19.39042114 54.07328033 -19.39046143 52.92243958 -19.39050293 51.73672485 C-19.38516207 49.31449901 -19.36764131 46.89227275 -19.33862305 44.47021484 C-19.29668375 40.76785255 -19.29756675 37.06730653 -19.30444336 33.36474609 C-19.29395283 31.00535849 -19.28101548 28.64598022 -19.26538086 26.28662109 C-19.26517944 25.18337494 -19.26497803 24.08012878 -19.26477051 22.94345093 C-19.1544171 15.76663782 -18.30272455 11.22402646 -13.42163086 5.70068359 C-9.02198738 1.8248072 -5.92747102 0.01413113 0 0 Z " fill="#0378BC" transform="translate(605.796630859375,183.61181640625)"/>
<path d="M0 0 C0.83802139 -0.0055344 1.67604278 -0.01106879 2.53945875 -0.0167709 C5.34012716 -0.03035548 8.13990102 -0.01542023 10.94055176 -0.00050354 C12.95138426 -0.00428751 14.96221415 -0.0097882 16.97303772 -0.01687622 C22.42963369 -0.03083782 27.88591458 -0.01965595 33.34249306 -0.00316501 C39.05320101 0.01068574 44.76389068 0.00422538 50.47460938 0.0007019 C60.06470822 -0.00200019 69.65468191 0.01147542 79.24475098 0.03465271 C90.33177024 0.06126238 101.41858023 0.0630095 112.50562048 0.05126435 C123.1715446 0.04048465 133.83739304 0.04667517 144.50331116 0.06081963 C149.04225962 0.06657774 153.58115266 0.0664981 158.12010193 0.06175423 C163.46518324 0.05698147 168.81003543 0.06709871 174.15507317 0.08870888 C176.11664495 0.09427281 178.07823876 0.09474566 180.03981209 0.08975601 C182.71763212 0.08379875 185.39475272 0.09631681 188.07250977 0.11352539 C188.8485844 0.10751535 189.62465903 0.1015053 190.42425108 0.09531313 C196.06592443 0.16123118 200.01103923 1.48103292 204.41125488 5.00120544 C205.53625488 6.50120544 205.53625488 6.50120544 205.53625488 9.50120544 C174.32373011 10.33631652 143.13043194 10.66295529 111.90710449 10.63157654 C106.01915459 10.62574059 100.13124892 10.62926834 94.24330044 10.635149 C89.64432942 10.63874936 85.0453691 10.63762083 80.44639778 10.63502121 C78.2706915 10.63435755 76.09498422 10.63516061 73.9192791 10.63750076 C70.9197513 10.64003337 67.92029854 10.63618439 64.92077637 10.63059998 C63.59742783 10.63363632 63.59742783 10.63363632 62.24734497 10.63673401 C58.21086904 10.62277619 54.47457043 10.51366481 50.53625488 9.50120544 C50.53625488 12.14120544 50.53625488 14.78120544 50.53625488 17.50120544 C46.24625488 17.50120544 41.95625488 17.50120544 37.53625488 17.50120544 C37.53625488 14.86120544 37.53625488 12.22120544 37.53625488 9.50120544 C36.5497998 9.66274109 35.56334473 9.82427673 34.54699707 9.9907074 C30.4891517 10.56755547 26.45796123 10.66281913 22.36437988 10.66917419 C21.60131531 10.67250259 20.83825073 10.67583099 20.05206299 10.67926025 C18.44523719 10.68429556 16.83840106 10.68666964 15.23156738 10.68650818 C12.80690748 10.68868689 10.38270909 10.70685741 7.95812988 10.72581482 C-0.3895749 10.75506328 -8.299875 10.49473488 -16.46374512 8.50120544 C-13.79700393 1.03433012 -7.09502004 -0.08781077 0 0 Z " fill="#BCC0C3" transform="translate(460.4637451171875,275.49879455566406)"/>
<path d="M0 0 C2.9375 2.0625 2.9375 2.0625 5 4 C7.72338893 3.9148941 8.89464774 3.07981231 11.0625 1.4375 C15.63159625 -0.79844072 20.01338045 -0.77759876 25 0 C28.99032351 1.84986578 31.5508278 4.3262417 34 8 C34.22705078 11.09448242 34.22705078 11.09448242 34.1953125 14.85546875 C34.1924826 15.51710526 34.18965271 16.17874176 34.18673706 16.86042786 C34.17555918 18.96963737 34.15045981 21.07841925 34.125 23.1875 C34.11496707 24.61913448 34.10584176 26.05077564 34.09765625 27.48242188 C34.07562795 30.98841977 34.04111485 34.49416813 34 38 C30.04 38 26.08 38 22 38 C22 29.75 22 21.5 22 13 C18.50615721 11.83538574 15.66344611 11.86431681 12 12 C10.25493385 13.74506615 10.76717216 16.19039143 10.68359375 18.56640625 C10.62075195 20.2534668 10.62075195 20.2534668 10.55664062 21.97460938 C10.51732422 23.15861328 10.47800781 24.34261719 10.4375 25.5625 C10.37272461 27.34430664 10.37272461 27.34430664 10.30664062 29.16210938 C10.20016547 32.10792197 10.09954319 35.05394502 10 38 C5.71 38 1.42 38 -3 38 C-3.06058594 36.20691406 -3.12117187 34.41382813 -3.18359375 32.56640625 C-3.26797849 30.23176176 -3.35262751 27.89712681 -3.4375 25.5625 C-3.47681641 24.37849609 -3.51613281 23.19449219 -3.55664062 21.97460938 C-3.59853516 20.84990234 -3.64042969 19.72519531 -3.68359375 18.56640625 C-3.72025146 17.52427979 -3.75690918 16.48215332 -3.79467773 15.40844727 C-3.73515341 13.0500174 -3.73515341 13.0500174 -5 12 C-6.87321948 11.83946185 -6.87321948 11.83946185 -9 11.875 C-9.721875 11.87242187 -10.44375 11.86984375 -11.1875 11.8671875 C-13.02089415 11.80304724 -13.02089415 11.80304724 -14 13 C-14.15786308 14.85174706 -14.25107356 16.7090911 -14.31640625 18.56640625 C-14.35830078 19.69111328 -14.40019531 20.81582031 -14.44335938 21.97460938 C-14.48267578 23.15861328 -14.52199219 24.34261719 -14.5625 25.5625 C-14.60568359 26.75037109 -14.64886719 27.93824219 -14.69335938 29.16210938 C-14.79983453 32.10792197 -14.90045681 35.05394502 -15 38 C-19.29 38 -23.58 38 -28 38 C-28 25.79 -28 13.58 -28 1 C-24.04 1 -20.08 1 -16 1 C-15.67 1.66 -15.34 2.32 -15 3 C-14.45214844 2.51402344 -13.90429688 2.02804687 -13.33984375 1.52734375 C-9.25369623 -1.1399078 -4.70943633 -0.67277662 0 0 Z " fill="#F9FAFB" transform="translate(542,295)"/>
<path d="M0 0 C0.33 0.33 0.66 0.66 1 1 C1.33 0.34 1.66 -0.32 2 -1 C5.63 -1 9.26 -1 13 -1 C13 10.88 13 22.76 13 35 C9.37 35 5.74 35 2 35 C2 34.01 2 33.02 2 32 C1.2575 32.639375 0.515 33.27875 -0.25 33.9375 C-4.78932307 37.34199231 -9.38710699 37.72325845 -15 37 C-22.30247968 34.64653049 -25.83798626 30.24302061 -30 24 C-30.79370575 16.66989399 -30.31889052 9.51831666 -26.1875 3.25 C-19.08098649 -4.05955675 -8.6710784 -5.419424 0 0 Z " fill="#FBFCFC" transform="translate(609,298)"/>
<path d="M0 0 C1.73276436 -0.02882263 1.73276436 -0.02882263 3.50053406 -0.05822754 C4.75050674 -0.06672729 6.00047943 -0.07522705 7.28833008 -0.08398438 C8.5746785 -0.09538452 9.86102692 -0.10678467 11.18635559 -0.11853027 C13.91250179 -0.13953523 16.63853038 -0.1512286 19.36474609 -0.15820312 C22.84079314 -0.16913791 26.31525928 -0.21711614 29.79081249 -0.27414703 C33.12328488 -0.3206128 36.45555086 -0.32431401 39.78833008 -0.33398438 C41.02818161 -0.35867798 42.26803314 -0.38337158 43.54545593 -0.40881348 C50.39829273 -0.37368599 54.69410256 0.23438007 59.95137024 4.7947998 C63.99556763 9.14815575 63.37036133 12.26887558 63.37036133 18.32226562 C37.63036133 18.32226562 11.89036133 18.32226562 -14.62963867 18.32226562 C-14.62963867 9.32226562 -14.62963867 9.32226562 -13.42260742 6.98242188 C-12.89280273 6.45519531 -12.36299805 5.92796875 -11.81713867 5.38476562 C-11.0340332 4.56685547 -11.0340332 4.56685547 -10.23510742 3.73242188 C-6.70628007 0.63289226 -4.59092159 0.06162524 0 0 Z " fill="#699FD0" transform="translate(605.629638671875,364.677734375)"/>
<path d="M0 0 C1.09503845 -0.01268417 2.1900769 -0.02536835 3.31829834 -0.03843689 C5.08708344 -0.03403343 5.08708344 -0.03403343 6.89160156 -0.02954102 C8.1099469 -0.03478287 9.32829224 -0.04002472 10.58355713 -0.04542542 C13.16246784 -0.05185011 15.74140783 -0.05050289 18.3203125 -0.04199219 C22.25346624 -0.03350929 26.18515482 -0.06219681 30.11816406 -0.09399414 C32.62597613 -0.09560698 35.13379076 -0.09502705 37.64160156 -0.09204102 C39.39824127 -0.10889198 39.39824127 -0.10889198 41.19036865 -0.12608337 C49.33530546 -0.05710179 54.99842989 0.95860098 61.03222656 6.84155273 C62.69193544 9.67688874 62.9805053 11.17644582 62.53222656 14.40405273 C60.84718957 16.08908973 58.76962772 15.52371257 56.52128601 15.5284729 C55.80487442 15.52487762 55.08846283 15.52128235 54.3503418 15.51757812 C53.22358536 15.51779716 53.22358536 15.51779716 52.07406616 15.51802063 C49.57962197 15.51732137 47.08525153 15.50952838 44.59082031 15.50170898 C42.86589092 15.49984485 41.140961 15.49842093 39.41603088 15.49742126 C34.86710153 15.49359571 30.3182039 15.48376511 25.76928711 15.47271729 C21.1310265 15.46250397 16.49276079 15.45792382 11.85449219 15.45288086 C2.74705634 15.44214287 -6.36035591 15.425066 -15.46777344 15.40405273 C-14.84266554 9.55139415 -14.04345067 7.23485228 -9.46777344 3.40405273 C-8.86511658 2.87098007 -8.26245972 2.33790741 -7.64154053 1.78868103 C-4.91616391 0.05269303 -3.21702733 0.01807148 0 0 Z " fill="#5096CE" transform="translate(700.4677734375,275.595947265625)"/>
<path d="M0 0 C1.65224075 -0.01418472 1.65224075 -0.01418472 3.33786011 -0.02865601 C5.11605637 -0.01954697 5.11605637 -0.01954697 6.93017578 -0.01025391 C8.15326447 -0.01312408 9.37635315 -0.01599426 10.63650513 -0.01895142 C13.22382062 -0.02099301 15.81115152 -0.01545658 18.3984375 -0.00292969 C22.35338019 0.01309402 26.30729658 -0.00276211 30.26220703 -0.02197266 C32.7765322 -0.0199897 35.29085673 -0.01614495 37.80517578 -0.01025391 C38.98659149 -0.0163266 40.1680072 -0.02239929 41.38522339 -0.02865601 C48.99623485 0.03631376 53.74122244 0.62891775 59.31298828 6.20068359 C61.50048828 9.38818359 61.50048828 9.38818359 62.50048828 15.38818359 C36.76048828 15.38818359 11.02048828 15.38818359 -15.49951172 15.38818359 C-14.36743625 7.46365529 -14.36743625 7.46365529 -9.49951172 3.38818359 C-8.89750946 2.85478363 -8.2955072 2.32138367 -7.67526245 1.77182007 C-4.93790031 0.03103513 -3.2297411 0.00796471 0 0 Z " fill="#7FACD7" transform="translate(606.49951171875,186.61181640625)"/>
<path d="M0 0 C5.45235032 2.75399328 9.47623065 6.7556739 12.359375 12.16015625 C12.359375 13.15015625 12.359375 14.14015625 12.359375 15.16015625 C0.75477601 15.82644902 0.75477601 15.82644902 -4.640625 11.16015625 C-7.69667397 10.64079193 -10.60061807 10.5282447 -13.640625 11.16015625 C-15.83617279 12.73191305 -16.53127024 13.62520457 -17.07421875 16.28125 C-17.08050197 20.00719766 -17.05214474 22.45714337 -15.140625 25.72265625 C-11.67286462 27.71661847 -8.49543813 27.97334198 -4.640625 27.16015625 C-3.898125 26.50015625 -3.155625 25.84015625 -2.390625 25.16015625 C2.06211253 21.92180169 7.0282528 22.85406311 12.359375 23.16015625 C11.2099785 29.72813623 6.56122546 33.4407444 1.359375 37.16015625 C-4.96304461 39.57755198 -13.9893272 39.3170862 -20.078125 36.66015625 C-30.67755155 26.3192523 -30.67755155 26.3192523 -31.015625 18.97265625 C-30.93702664 12.93040756 -28.29573952 8.83564249 -24.11328125 4.62109375 C-17.06319066 -1.51409958 -9.01733384 -2.86793902 0 0 Z " fill="#F9FAFB" transform="translate(483.640625,295.83984375)"/>
<path d="M0 0 C2.58769666 1.99240494 3.60888882 4.24762568 4.6640625 7.28125 C4.6640625 7.94125 4.6640625 8.60125 4.6640625 9.28125 C2.87272272 9.33516993 1.08092351 9.37400571 -0.7109375 9.40625 C-1.70867188 9.42945313 -2.70640625 9.45265625 -3.734375 9.4765625 C-6.3359375 9.28125 -6.3359375 9.28125 -8.3359375 7.28125 C-10.90655061 6.63357207 -10.90655061 6.63357207 -13.3359375 6.28125 C-13.32156978 8.23140777 -13.32156978 8.23140777 -12.3359375 10.28125 C-9.50362247 11.69376373 -9.50362247 11.69376373 -6.0859375 12.71875 C2.88522175 15.95860883 2.88522175 15.95860883 5.6640625 20.28125 C6.22015718 24.17391279 6.04066311 26.45272866 4.4140625 30.03125 C1.83829749 33.34294787 -0.35934033 34.95571761 -4.3359375 36.28125 C-10.21162516 36.72295379 -15.86665642 36.64054772 -21.3359375 34.28125 C-23.51302459 32.40254541 -24.7137665 30.73908485 -26.3359375 28.28125 C-26.3359375 26.96125 -26.3359375 25.64125 -26.3359375 24.28125 C-24.54459772 24.22733007 -22.75279851 24.18849429 -20.9609375 24.15625 C-19.96320312 24.13304687 -18.96546875 24.10984375 -17.9375 24.0859375 C-15.3359375 24.28125 -15.3359375 24.28125 -13.3359375 26.28125 C-10.25245924 26.44806109 -10.25245924 26.44806109 -7.3359375 26.28125 C-7.6659375 25.29125 -7.9959375 24.30125 -8.3359375 23.28125 C-11.20605087 21.92230887 -14.07889434 20.79816039 -17.05664062 19.70703125 C-21.41245362 17.99761461 -23.83811601 16.24946395 -26.3359375 12.28125 C-27.08295404 7.71614893 -26.72255478 5.88391811 -24.2109375 1.96875 C-17.39341857 -4.40414813 -7.94473465 -4.4313261 0 0 Z " fill="#F9FAFB" transform="translate(651.3359375,297.71875)"/>
<path d="M0 0 C26.6595892 -0.04668307 53.31917229 -0.08197071 79.9787941 -0.10362434 C92.3568076 -0.11394491 104.73479574 -0.12802015 117.11279297 -0.15087891 C127.89915888 -0.17078889 138.68550643 -0.18371076 149.47189021 -0.18817699 C155.18525513 -0.19078842 160.89856749 -0.19694263 166.61191559 -0.21146011 C171.98638782 -0.22500624 177.36078568 -0.22922866 182.73527336 -0.22621536 C184.71059256 -0.22676686 186.68591418 -0.23076192 188.66121864 -0.23841095 C191.35303431 -0.24832571 194.04456729 -0.24598157 196.73638916 -0.24050903 C197.52238219 -0.24633472 198.30837523 -0.2521604 199.11818624 -0.25816262 C202.89426644 -0.23733788 205.79848137 -0.12560991 209 2 C208.67 2.66 208.34 3.32 208 4 C181.04510163 4.04666165 154.09020929 4.08196015 127.1352787 4.10362434 C114.62044553 4.11394948 102.10563741 4.12803338 89.59082031 4.15087891 C78.68654628 4.17077498 67.78229039 4.18370743 56.87799871 4.18817699 C51.10098169 4.1907908 45.32401657 4.19695992 39.54701614 4.21146011 C34.11509605 4.22498434 28.68324949 4.22923315 23.25131416 4.22621536 C21.25257913 4.22676785 19.25384176 4.23077588 17.25512123 4.23841095 C14.53633215 4.24829156 11.81782448 4.24599426 9.09902954 4.24050903 C8.29942893 4.24633472 7.49982831 4.2521604 6.67599738 4.25816262 C1.22824242 4.22824242 1.22824242 4.22824242 -1 2 C-0.67 1.34 -0.34 0.68 0 0 Z " fill="#CACCD0" transform="translate(452,276)"/>
<path d="M0 0 C1.18172791 -0.01283524 2.36345581 -0.02567047 3.58099365 -0.03889465 C4.86427551 -0.04628159 6.14755737 -0.05366852 7.46972656 -0.0612793 C9.4417807 -0.07338692 9.4417807 -0.07338692 11.45367432 -0.08573914 C14.24125032 -0.10076838 17.02880083 -0.1106045 19.81640625 -0.11816406 C23.37858784 -0.129211 26.94014172 -0.16358934 30.5021019 -0.20333576 C33.90795125 -0.23585146 37.313734 -0.24028552 40.71972656 -0.2487793 C41.9949115 -0.26628738 43.27009644 -0.28379547 44.58392334 -0.30183411 C55.51171616 -0.27506611 55.51171616 -0.27506611 60.36035156 4.17700195 C61.72160156 5.41450195 61.72160156 5.41450195 63.11035156 6.67700195 C66.63228437 10.59026063 67.61243868 13.23870645 67.58740234 18.49633789 C67.58725128 19.55713562 67.58710022 20.61793335 67.58694458 21.71087646 C67.57662201 22.84954163 67.56629944 23.98820679 67.55566406 25.16137695 C67.55283417 26.33210754 67.55000427 27.50283813 67.54708862 28.70904541 C67.53589312 32.4484682 67.51078932 36.18765154 67.48535156 39.92700195 C67.47532096 42.46215474 67.46619525 44.99731129 67.45800781 47.5324707 C67.43595582 53.74739616 67.40248432 59.96218195 67.36035156 66.17700195 C67.03035156 66.17700195 66.70035156 66.17700195 66.36035156 66.17700195 C66.36035156 49.34700195 66.36035156 32.51700195 66.36035156 15.17700195 C65.70035156 15.17700195 65.04035156 15.17700195 64.36035156 15.17700195 C64.36035156 17.15700195 64.36035156 19.13700195 64.36035156 21.17700195 C54.09461575 21.24641253 43.82893546 21.29976759 33.56301308 21.33243847 C28.7964819 21.34811628 24.03011087 21.36939294 19.26367188 21.40332031 C14.66659336 21.43583861 10.06966921 21.45383902 5.47248459 21.46163368 C3.71572819 21.46719078 1.95898054 21.47804199 0.20228958 21.49419212 C-2.25220971 21.51586673 -4.70606545 21.51897313 -7.16064453 21.51757812 C-7.89216232 21.52836395 -8.62368011 21.53914978 -9.37736511 21.55026245 C-11.3999939 21.5377655 -11.3999939 21.5377655 -14.63964844 21.17700195 C-15.29964844 20.18700195 -15.95964844 19.19700195 -16.63964844 18.17700195 C-16.96964844 34.01700195 -17.29964844 49.85700195 -17.63964844 66.17700195 C-17.96964844 66.17700195 -18.29964844 66.17700195 -18.63964844 66.17700195 C-18.74118761 58.7389697 -18.81117277 51.30111665 -18.859375 43.86254883 C-18.87947249 41.33285848 -18.90675512 38.80321449 -18.94140625 36.27368164 C-18.990004 32.63456778 -19.01263656 28.99606895 -19.03027344 25.35668945 C-19.06124115 23.66417557 -19.06124115 23.66417557 -19.09283447 21.93746948 C-19.09500217 14.3274634 -18.19218166 10.75201956 -12.78808594 5.3137207 C-12.20285156 4.83547852 -11.61761719 4.35723633 -11.01464844 3.86450195 C-10.42425781 3.37336914 -9.83386719 2.88223633 -9.22558594 2.3762207 C-6.0900156 0.00523525 -3.88339268 0.03664038 0 0 Z M-11.63964844 8.17700195 C-14.03019522 11.95560816 -14.63964844 13.66613685 -14.63964844 18.17700195 C-4.6173708 18.20012605 5.40490053 18.21791738 15.42719936 18.22881413 C20.08046343 18.23404281 24.7337093 18.24114018 29.38696289 18.25244141 C33.87379702 18.26327082 38.36061361 18.2692789 42.84745979 18.2718792 C44.56315449 18.27373335 46.27884818 18.27735378 47.99453545 18.28273201 C50.38920069 18.28994317 52.78379252 18.29099287 55.1784668 18.29052734 C56.25308418 18.29592026 56.25308418 18.29592026 57.34941101 18.30142212 C60.63653364 18.57935037 60.63653364 18.57935037 63.36035156 17.17700195 C63.8086303 13.94939503 63.52006044 12.44983796 61.86035156 9.61450195 C54.88085704 2.8094948 47.86747012 2.57092179 38.57519531 2.6105957 C37.36013809 2.60439713 36.14508087 2.59819855 34.89320374 2.59181213 C32.33400267 2.5847325 29.77475537 2.58785531 27.21557617 2.60058594 C23.30659211 2.61447091 19.39999394 2.58032405 15.49121094 2.54223633 C12.99837181 2.54128524 10.5055297 2.54314339 8.01269531 2.5480957 C6.84898911 2.53483749 5.6852829 2.52157928 4.48631287 2.50791931 C-2.5752409 2.58875808 -6.42534261 3.29103592 -11.63964844 8.17700195 Z " fill="#378FC8" transform="translate(699.6396484375,272.822998046875)"/>
<path d="M0 0 C0 0.33 0 0.66 0 1 C-2.31 1.33 -4.62 1.66 -7 2 C-7 2.66 -7 3.32 -7 4 C-8.99330842 5.34331654 -10.99384866 6.67594012 -13 8 C-13.99 9.485 -13.99 9.485 -15 11 C-3.76892461 12.30734434 7.46207013 12.11285861 18.75 12.0625 C20.71874886 12.05747437 22.68749896 12.05291335 24.65625 12.04882812 C29.43753118 12.03790809 34.21875158 12.02070218 39 12 C39 14.31 39 16.62 39 19 C20.85 19 2.7 19 -16 19 C-16.66 16.69 -17.32 14.38 -18 12 C-19.26593439 14.53186878 -19.15918194 16.34974791 -19.20532227 19.18408203 C-19.22526749 20.26505157 -19.24521271 21.34602112 -19.26576233 22.45974731 C-19.28247482 23.63060883 -19.29918732 24.80147034 -19.31640625 26.0078125 C-19.33718735 27.20356903 -19.35796844 28.39932556 -19.37937927 29.63131714 C-19.44492289 33.46248464 -19.50378218 37.29372238 -19.5625 41.125 C-19.60568063 43.71745527 -19.64929477 46.30990336 -19.69335938 48.90234375 C-19.80060919 55.26815427 -19.9023666 61.63403513 -20 68 C-20.33 68 -20.66 68 -21 68 C-21.1525351 60.17147884 -21.25737817 52.34334297 -21.32958984 44.51367188 C-21.35630869 41.85150272 -21.40058855 39.1912826 -21.45263672 36.52929688 C-21.52568584 32.69636633 -21.55951361 28.86475132 -21.5859375 25.03125 C-21.61690521 23.84760864 -21.64787292 22.66396729 -21.67977905 21.44445801 C-21.68248595 14.75132834 -21.02480571 10.65532502 -16.56655884 5.53601074 C-11.17896307 0.25347377 -7.27541583 -0.58203327 0 0 Z " fill="#A7ACB1" transform="translate(459,273)"/>
<path d="M0 0 C4.29 0 8.58 0 13 0 C13 12.21 13 24.42 13 37 C8.71 37 4.42 37 0 37 C0 24.79 0 12.58 0 0 Z " fill="#F7F7F8" transform="translate(498,296)"/>
<path d="M0 0 C0.33 0.99 0.66 1.98 1 3 C26.41 2.67 51.82 2.34 78 2 C78 4.31 78 6.62 78 9 C52.26 9 26.52 9 0 9 C0 6.03 0 3.06 0 0 Z " fill="#4F95CE" transform="translate(591,374)"/>
<path d="M0 0 C2 2 2 2 3 8 C-22.74 8 -48.48 8 -75 8 C-74.67 5.69 -74.34 3.38 -74 1 C-73.67 1.66 -73.34 2.32 -73 3 C-72.40912598 2.97003433 -71.81825195 2.94006866 -71.20947266 2.90919495 C-55.12896204 2.11478981 -39.09802727 1.87349434 -23 1.9375 C-20.74869894 1.9425361 -18.49739675 1.9470952 -16.24609375 1.95117188 C-10.83070396 1.96198495 -5.41535759 1.97854832 0 2 C0 1.34 0 0.68 0 0 Z " fill="#5B9BCF" transform="translate(666,194)"/>
<path d="M0 0 C1.16485931 -0.0127597 2.32971863 -0.02551941 3.52987671 -0.03866577 C4.78926056 -0.04089142 6.04864441 -0.04311707 7.34619141 -0.04541016 C8.63965485 -0.05206696 9.93311829 -0.05872375 11.26577759 -0.06558228 C14.00453019 -0.07755538 16.74315667 -0.08126313 19.48193359 -0.08007812 C22.9848237 -0.07987504 26.4869015 -0.10716438 29.98959923 -0.14162254 C33.33764203 -0.16926291 36.68553599 -0.16804143 40.03369141 -0.17041016 C41.28902679 -0.18478119 42.54436218 -0.19915222 43.83773804 -0.21395874 C45.00890167 -0.20780548 46.18006531 -0.20165222 47.38671875 -0.1953125 C48.41469574 -0.19816254 49.44267273 -0.20101257 50.50180054 -0.20394897 C54.0612993 0.41998472 55.77089486 1.77985622 58.32275391 4.29052734 C58.32275391 4.95052734 58.32275391 5.61052734 58.32275391 6.29052734 C35.88275391 6.29052734 13.44275391 6.29052734 -9.67724609 6.29052734 C-8.1708432 0.26491575 -5.67747534 0.04217009 0 0 Z " fill="#8CB1DA" transform="translate(605.67724609375,364.70947265625)"/>
<path d="M0 0 C1.10156937 -0.00953201 2.20313873 -0.01906403 3.33808899 -0.02888489 C4.52871445 -0.02797348 5.7193399 -0.02706207 6.94604492 -0.02612305 C8.17054855 -0.03040817 9.39505219 -0.0346933 10.65666199 -0.03910828 C13.24994284 -0.04485656 15.84323983 -0.04534819 18.43652344 -0.04101562 C22.40026501 -0.03786268 26.36325543 -0.06128561 30.3269043 -0.08666992 C32.84578356 -0.08894358 35.36466484 -0.0896461 37.88354492 -0.08862305 C39.06809769 -0.09783279 40.25265045 -0.10704254 41.47309875 -0.11653137 C52.07739691 -0.05708006 52.07739691 -0.05708006 56.61401367 3.2746582 C57.10901367 4.7596582 57.10901367 4.7596582 57.61401367 6.2746582 C35.17401367 6.2746582 12.73401367 6.2746582 -10.38598633 6.2746582 C-7.66641828 0.83552211 -5.78567305 0.02747918 0 0 Z " fill="#8DB2DB" transform="translate(700.385986328125,275.725341796875)"/>
<path d="M0 0 C0.33 0.99 0.66 1.98 1 3 C26.74 3 52.48 3 79 3 C79 4.32 79 5.64 79 7 C52.93 7 26.86 7 0 7 C0 4.69 0 2.38 0 0 Z " fill="#2C8AC7" transform="translate(590,199)"/>
<path d="M0 0 C0.33 0.66 0.66 1.32 1 2 C23.44 2 45.88 2 69 2 C69.33 1.34 69.66 0.68 70 0 C72 2 72 2 72 5 C69.08898394 6.45550803 66.50682802 6.1651099 63.25537109 6.20532227 C62.21617775 6.22017166 62.21617775 6.22017166 61.1559906 6.23532104 C58.86184122 6.26695497 56.56767111 6.29170086 54.2734375 6.31640625 C52.68445288 6.33697415 51.09547376 6.35797058 49.50650024 6.37937927 C45.32096805 6.43461691 41.13538634 6.48401869 36.94976807 6.53222656 C32.6800088 6.58242926 28.41032158 6.63812174 24.140625 6.69335938 C15.76047755 6.80096163 7.3802699 6.90240199 -1 7 C-1.625 5.1875 -1.625 5.1875 -2 3 C-1.34 2.01 -0.68 1.02 0 0 Z " fill="#76A6D4" transform="translate(689,280)"/>
<path d="M0 0 C7.7192796 -0.09286256 15.43850095 -0.16384714 23.15821266 -0.20724869 C26.74320901 -0.22808423 30.32782194 -0.25632651 33.91259766 -0.30175781 C37.3750419 -0.34536192 40.83711841 -0.36916743 44.29981613 -0.37950897 C46.25742482 -0.39044821 48.21488648 -0.42165128 50.17227173 -0.45318604 C61.1613231 -0.45595092 61.1613231 -0.45595092 66 4 C67.36125 5.2375 67.36125 5.2375 68.75 6.5 C72.27193281 10.41325867 73.25208712 13.06170449 73.22705078 18.31933594 C73.22689972 19.38013367 73.22674866 20.4409314 73.22659302 21.53387451 C73.21627045 22.67253967 73.20594788 23.81120483 73.1953125 24.984375 C73.1924826 26.15510559 73.18965271 27.32583618 73.18673706 28.53204346 C73.17554156 32.27146625 73.15043776 36.01064959 73.125 39.75 C73.1149694 42.28515279 73.10584369 44.82030934 73.09765625 47.35546875 C73.07560426 53.57039421 73.04213275 59.78518 73 66 C72.67 66 72.34 66 72 66 C72 49.17 72 32.34 72 15 C71.34 15 70.68 15 70 15 C70 16.98 70 18.96 70 21 C69.67 21 69.34 21 69 21 C68.98582031 20.40832031 68.97164062 19.81664062 68.95703125 19.20703125 C68.70006375 14.94970483 68.45229284 12.59444202 65.8125 9.125 C58.65159992 3.71454216 53.00843212 3.5807879 44.26953125 3.671875 C42.42847054 3.67468475 42.42847054 3.67468475 40.55021667 3.67755127 C37.96224236 3.6842609 35.374278 3.69815364 32.78637695 3.71875 C28.81647358 3.74996875 24.84696723 3.7597293 20.87695312 3.765625 C18.3619743 3.77479276 15.84699953 3.7851678 13.33203125 3.796875 C11.54609306 3.80324982 11.54609306 3.80324982 9.72407532 3.80975342 C8.62250595 3.81936096 7.52093658 3.82896851 6.38598633 3.83886719 C4.93087395 3.84910919 4.93087395 3.84910919 3.44636536 3.85955811 C0.86126128 3.90106007 0.86126128 3.90106007 -2 5 C-1.34 3.35 -0.68 1.7 0 0 Z " fill="#2685C0" transform="translate(694,273)"/>
<path d="M0 0 C3.0625 1.5 3.0625 1.5 5 4 C5.69059386 8.83415704 5.75252273 10.82104773 3.125 14.9375 C-0.07158658 18.04006933 -2.47158275 18.47161173 -6.95703125 18.40625 C-9 18 -9 18 -12 15.4375 C-14.32543335 11.44066142 -14.82563373 9.54098553 -14 5 C-10.34605126 -0.53985777 -6.18466738 -1.17430393 0 0 Z " fill="#9C9FA5" transform="translate(605,306)"/>
<path d="M0 0 C0.495 1.98 0.495 1.98 1 4 C-24.74 4 -50.48 4 -77 4 C-77 3.01 -77 2.02 -77 1 C-51.59 0.67 -26.18 0.34 0 0 Z " fill="#328CC8" transform="translate(668,379)"/>
<path d="M0 0 C3.3 0 6.6 0 10 0 C10.33 0.66 10.66 1.32 11 2 C10.67 2.66 10.34 3.32 10 4 C-58.31 3.67 -126.62 3.34 -197 3 C-197 2.67 -197 2.34 -197 2 C-131.99 1.67 -66.98 1.34 0 1 C0 0.67 0 0.34 0 0 Z " fill="#9FA4AA" transform="translate(650,273)"/>
<path d="M0 0 C3.76991795 0.70685962 5.40418092 1.74418215 8 4.5625 C9.0625 7.5 9.0625 7.5 9 10.5625 C7.22960551 13.30966387 5.93708156 15.09395922 3 16.5625 C-1.05263598 17.10285146 -2.53730231 16.90449395 -5.875 14.4375 C-8 11.5625 -8 11.5625 -8.625 8.5625 C-7.58351809 3.56338683 -5.03644185 0.94433285 0 0 Z " fill="#D8DDE4" transform="translate(689,247.4375)"/>
<path d="M0 0 C0.33 0.66 0.66 1.32 1 2 C8.81524066 2.0232496 16.6304731 2.0409791 24.44573975 2.05181217 C28.07532988 2.05701352 31.70489621 2.06406083 35.33447266 2.07543945 C38.84227734 2.08636654 42.35005924 2.0922975 45.85787964 2.09487724 C47.83633171 2.09760298 49.81477471 2.10539921 51.79321289 2.11329651 C57.95988363 2.11367808 63.90554389 1.9656238 70 1 C70.495 2.98 70.495 2.98 71 5 C63.03017436 6.10257521 55.15527199 6.12892023 47.12109375 6.09765625 C45.69906159 6.09578745 44.27702877 6.09436573 42.85499573 6.09336853 C39.14132866 6.08957971 35.42770169 6.07978117 31.71405029 6.06866455 C27.912888 6.05837158 24.11171913 6.05385414 20.31054688 6.04882812 C12.87367978 6.03815505 5.43684554 6.02112318 -2 6 C-1.125 1.125 -1.125 1.125 0 0 Z " fill="#76A6D5" transform="translate(595,191)"/>
<path d="M0 0 C0.33 0.66 0.66 1.32 1 2 C23.77 2 46.54 2 70 2 C66.86762947 5.13237053 62.97643085 4.48744706 58.75 4.625 C57.75033203 4.66294678 56.75066406 4.70089355 55.72070312 4.73999023 C36.49446072 5.35014948 17.23298958 5.07944486 -2 5 C-1.34 3.35 -0.68 1.7 0 0 Z " fill="#78A7D5" transform="translate(595,369)"/>
<path d="M0 0 C1.02794174 -0.00637985 2.05588348 -0.0127597 3.11497498 -0.01933289 C4.22437943 -0.02044571 5.33378387 -0.02155853 6.47680664 -0.02270508 C7.61726944 -0.02603348 8.75773224 -0.02936188 9.93275452 -0.03279114 C12.34611609 -0.03785665 14.75948468 -0.04019958 17.17285156 -0.04003906 C20.86868806 -0.04222552 24.56422611 -0.06038539 28.26000977 -0.0793457 C30.6031077 -0.08227967 32.94620706 -0.08426444 35.28930664 -0.08520508 C36.39668686 -0.09239059 37.50406708 -0.09957611 38.64500427 -0.10697937 C40.19164513 -0.10236443 40.19164513 -0.10236443 41.76953125 -0.09765625 C42.6753746 -0.09908127 43.58121796 -0.10050629 44.51451111 -0.10197449 C47.09384488 0.15992381 48.72940453 0.84095539 50.94946289 2.14526367 C50.94946289 2.47526367 50.94946289 2.80526367 50.94946289 3.14526367 C31.47946289 3.14526367 12.00946289 3.14526367 -8.05053711 3.14526367 C-8.05053711 2.48526367 -8.05053711 1.82526367 -8.05053711 1.14526367 C-5.07613735 0.15379708 -3.1047783 0.01307642 0 0 Z " fill="#9EBBDD" transform="translate(704.050537109375,275.854736328125)"/>
<path d="M0 0 C1.02814316 0.00222061 2.05628632 0.00444122 3.11558533 0.00672913 C4.85727745 0.00684242 4.85727745 0.00684242 6.63415527 0.00695801 C8.52943214 0.01469994 8.52943214 0.01469994 10.46299744 0.02259827 C12.39193092 0.02472069 12.39193092 0.02472069 14.35983276 0.02688599 C17.78427561 0.03071034 21.20867628 0.0405399 24.63310242 0.05158997 C28.12522308 0.06180587 31.61735053 0.06638399 35.10948181 0.07142639 C41.96561897 0.08216225 48.82172806 0.09923767 55.67784119 0.12025452 C55.67784119 0.78025452 55.67784119 1.44025452 55.67784119 2.12025452 C52.25660837 2.89011864 49.08806613 3.25007751 45.58384705 3.26551819 C44.59609787 3.27189804 43.60834869 3.27827789 42.59066772 3.28485107 C41.00766624 3.28652031 41.00766624 3.28652031 39.39268494 3.28822327 C37.75282372 3.29321587 37.75282372 3.29321587 36.07983398 3.29830933 C33.77258219 3.30336437 31.46532312 3.30571809 29.1580658 3.30555725 C25.62482243 3.30774864 22.09188892 3.32593302 18.55870056 3.34486389 C16.31586309 3.34779709 14.07302413 3.34978238 11.83018494 3.35072327 C10.77282639 3.35790878 9.71546783 3.3650943 8.62606812 3.37249756 C7.6414711 3.36942093 6.65687408 3.3663443 5.6424408 3.36317444 C4.77815964 3.36459946 3.91387848 3.36602448 3.02340698 3.36749268 C0.49455623 3.10093507 -1.13948232 2.3923869 -3.32215881 1.12025452 C-2.32215881 0.12025452 -2.32215881 0.12025452 0 0 Z " fill="#A0BDE0" transform="translate(604.3221588134766,187.87974548339844)"/>
<path d="M0 0 C18.48 0 36.96 0 56 0 C56 0.66 56 1.32 56 2 C52.82576416 2.93826489 49.98484218 3.12139248 46.68066406 3.11352539 C45.61986633 3.11344986 44.5590686 3.11337433 43.46612549 3.11329651 C41.75812775 3.10555458 41.75812775 3.10555458 40.015625 3.09765625 C38.84489441 3.0962413 37.67416382 3.09482635 36.46795654 3.09336853 C32.72861171 3.0877709 28.98932674 3.0752188 25.25 3.0625 C22.71484461 3.0574847 20.17968829 3.05292184 17.64453125 3.04882812 C11.42966707 3.03780224 5.21483781 3.02106644 -1 3 C-0.67 2.01 -0.34 1.02 0 0 Z " fill="#9EBCDE" transform="translate(600,365)"/>
<path d="M0 0 C0.66 0.66 1.32 1.32 2 2 C5.05727257 2.26188787 5.05727257 2.26188787 8.69702148 2.15112305 C9.72898651 2.13934021 9.72898651 2.13934021 10.78179932 2.12731934 C13.06182249 2.0986832 15.34131368 2.05543651 17.62109375 2.01171875 C19.20287496 1.98808852 20.78466765 1.96521537 22.36647034 1.94306946 C25.68463373 1.89449246 29.00259068 1.83912314 32.32055664 1.77856445 C36.57541435 1.7011073 40.83034003 1.63670051 45.08547878 1.57690716 C48.35316027 1.5301854 51.62074563 1.47842201 54.88832283 1.42493629 C56.45720714 1.39950596 58.02611024 1.37520838 59.59502983 1.3520565 C61.78799779 1.31856427 63.98075846 1.27874754 66.17358398 1.23706055 C67.42219711 1.21548386 68.67081024 1.19390717 69.95726013 1.17167664 C73.0443448 1.13093188 73.0443448 1.13093188 76 0 C76 1.32 76 2.64 76 4 C50.92 4 25.84 4 0 4 C0 2.68 0 1.36 0 0 Z " fill="#619ED1" transform="translate(686,284)"/>
<path d="M0 0 C3.63 0 7.26 0 11 0 C11 2.64 11 5.28 11 8 C7.37 8 3.74 8 0 8 C0 5.36 0 2.72 0 0 Z " fill="#FEFFFF" transform="translate(499,284)"/>
<path d="M0 0 C0.99 0.99 0.99 0.99 2 2 C1.67 3.32 1.34 4.64 1 6 C-23.75 6 -48.5 6 -74 6 C-74 5.67 -74 5.34 -74 5 C-73.11494781 4.98969254 -72.22989563 4.97938507 -71.31802368 4.96876526 C-62.98924184 4.87090733 -54.66053293 4.76840973 -46.33187294 4.66066074 C-42.04972559 4.60542678 -37.76757142 4.55200602 -33.48535156 4.50268555 C-29.35506512 4.45504897 -25.22486299 4.40270642 -21.09467697 4.34705925 C-19.51659613 4.32663249 -17.93849217 4.30791994 -16.36037064 4.29092598 C-14.15503811 4.26688903 -11.94986549 4.23683366 -9.74462891 4.20532227 C-8.48776276 4.18977798 -7.23089661 4.1742337 -5.9359436 4.15821838 C-3.06616168 4.19909528 -3.06616168 4.19909528 -1 3 C-0.67 2.01 -0.34 1.02 0 0 Z " fill="#5C9ECD" transform="translate(666,371)"/>
<path d="M0 0 C18.81 0 37.62 0 57 0 C57 0.33 57 0.66 57 1 C56.31983826 1.00808685 55.63967651 1.01617371 54.93890381 1.02450562 C47.86614128 1.11049598 40.79366079 1.20999747 33.72119141 1.31738281 C31.08094007 1.35568967 28.44063624 1.39053949 25.80029297 1.421875 C22.00729599 1.46748789 18.21466095 1.52548956 14.421875 1.5859375 C13.23946228 1.59748871 12.05704956 1.60903992 10.83880615 1.62094116 C9.73796692 1.64081085 8.63712769 1.66068054 7.50292969 1.68115234 C6.05064972 1.70113785 6.05064972 1.70113785 4.56903076 1.7215271 C1.93125552 2.00745163 0.26695361 2.65840093 -2 4 C-1.34 2.68 -0.68 1.36 0 0 Z " fill="#0072B9" transform="translate(694,274)"/>
<path d="M0 0 C1.2065625 0.0309375 1.2065625 0.0309375 2.4375 0.0625 C3.41870464 3.11513664 3.41870464 5.00986336 2.4375 8.0625 C1.1175 7.0725 -0.2025 6.0825 -1.5625 5.0625 C-1.5625 6.0525 -1.5625 7.0425 -1.5625 8.0625 C-2.2225 8.0625 -2.8825 8.0625 -3.5625 8.0625 C-3.60491723 5.72955225 -3.60342937 3.39547433 -3.5625 1.0625 C-2.5625 0.0625 -2.5625 0.0625 0 0 Z " fill="#BEC5CD" transform="translate(688.5625,251.9375)"/>
<path d="M0 0 C-1 3 -1 3 -3.75 4.5625 C-6.48116059 5.77051334 -9.21083436 6.93355431 -12 8 C-8.99188416 2.4349857 -6.61192972 -0.55099414 0 0 Z " fill="#197EBC" transform="translate(601,186)"/>
<path d="M0 0 C0.66 0.33 1.32 0.66 2 1 C-3.96583144 9.81548975 -3.96583144 9.81548975 -9 11 C-7.59928507 5.70841026 -4.14512755 3.22521956 0 0 Z " fill="#2182BF" transform="translate(597,363)"/>
<path d="M0 0 C0.66 0.33 1.32 0.66 2 1 C0.47742153 4.04515693 -0.37176201 5.70158696 -3.5 7.1875 C-4.325 7.455625 -5.15 7.72375 -6 8 C-6.99 8.66 -7.98 9.32 -9 10 C-7.61811547 6.78956118 -6.07578097 4.95063635 -3.375 2.75 C-2.74335937 2.22921875 -2.11171875 1.7084375 -1.4609375 1.171875 C-0.73777344 0.59179688 -0.73777344 0.59179688 0 0 Z " fill="#1C7FBD" transform="translate(692,274)"/>
<path d="M0 0 C1.22589844 0.01353516 1.22589844 0.01353516 2.4765625 0.02734375 C3.41628906 0.04474609 3.41628906 0.04474609 4.375 0.0625 C4.375 0.3925 4.375 0.7225 4.375 1.0625 C2.065 1.3925 -0.245 1.7225 -2.625 2.0625 C-2.625 2.7225 -2.625 3.3825 -2.625 4.0625 C-3.615 4.3925 -4.605 4.7225 -5.625 5.0625 C-5.955 3.7425 -6.285 2.4225 -6.625 1.0625 C-4.21954362 -0.14022819 -2.67503047 -0.03821472 0 0 Z " fill="#A9B0B8" transform="translate(454.625,272.9375)"/>
</svg>
