<?xml version="1.0" encoding="UTF-8"?>
<svg version="1.1" xmlns="http://www.w3.org/2000/svg" width="226" height="223">
<path d="M0 0 C74.58 0 149.16 0 226 0 C226 73.59 226 147.18 226 223 C151.42 223 76.84 223 0 223 C0 149.41 0 75.82 0 0 Z " fill="#D2D2D2" transform="translate(0,0)"/>
<path d="M0 0 C1.01140045 -0.00570007 2.0228009 -0.01140015 3.06484985 -0.01727295 C5.20126311 -0.02668256 7.33769062 -0.03324078 9.47412109 -0.03710938 C12.68223736 -0.04674191 15.8896919 -0.0777743 19.09765625 -0.109375 C42.14590538 -0.22863413 68.74409959 1.83740036 86.2890625 18.640625 C92.17428391 24.93571004 94.88843642 30.71314343 96.3515625 39.203125 C93.15406254 37.34651212 90.08979677 35.35046935 87.0390625 33.265625 C73.8432652 24.49009478 59.98802291 21.07827096 44.25 21.0625 C42.04556263 21.04416607 39.84113527 21.02459523 37.63671875 21.00390625 C34.18749091 20.97502808 30.73890712 20.95312675 27.28955078 20.95263672 C-1.48272492 20.92373646 -1.48272492 20.92373646 -13.0234375 9.83984375 C-13.5596875 9.29972656 -14.0959375 8.75960937 -14.6484375 8.203125 C-15.4734375 7.460625 -16.2984375 6.718125 -17.1484375 5.953125 C-18.6484375 4.203125 -18.6484375 4.203125 -18.6484375 1.203125 C-12.4021031 0.2902766 -6.30843338 0.02815639 0 0 Z " fill="#02B33F" transform="translate(50.6484375,65.796875)"/>
<path d="M0 0 C1.55847656 0.57621094 1.55847656 0.57621094 3.1484375 1.1640625 C11.93414307 5.04243703 20.09291064 12.1073939 24 21 C24.60559077 23.3995965 24.84469308 25.51508925 25 28 C24.31035156 27.54109375 23.62070313 27.0821875 22.91015625 26.609375 C10.54131068 18.53314661 -0.09378304 14.5655312 -14.9609375 14.91015625 C-16.83333074 14.93057781 -18.70572668 14.95075247 -20.578125 14.97070312 C-23.47636073 15.01405909 -26.37440322 15.06248889 -29.27246094 15.11645508 C-57.96112675 15.61083531 -57.96112675 15.61083531 -69 5 C-74 -0.05868545 -74 -0.05868545 -74 -4 C-50.14470958 -6.27218943 -22.76723324 -8.51818911 0 0 Z " fill="#555756" transform="translate(109,49)"/>
<path d="M0 0 C2.413125 -0.020625 4.82625 -0.04125 7.3125 -0.0625 C8.06829346 -0.071604 8.82408691 -0.08070801 9.6027832 -0.09008789 C12.6839493 -0.10287966 15.05605196 0.01868399 18 1 C21.29548898 0.99140681 24.57818232 0.86955836 27.87109375 0.7421875 C31.31141873 1.02565997 32.64303971 1.51178042 35 4 C35.41440419 7.72963769 35.4060813 10.16753334 33.75 13.5625 C33.5025 14.366875 33.255 15.17125 33 16 C34.26598344 18.04329727 35.59705837 20.04819761 37 22 C37.54269531 20.91460937 38.08539063 19.82921875 38.64453125 18.7109375 C41.76302083 12.47395833 44.88151042 6.23697917 48 0 C48.66 0 49.32 0 50 0 C51.67613728 3.43296095 53.33925697 6.87206883 55 10.3125 C55.47695312 11.28896484 55.95390625 12.26542969 56.4453125 13.27148438 C56.89648438 14.20927734 57.34765625 15.14707031 57.8125 16.11328125 C58.23144531 16.97735596 58.65039062 17.84143066 59.08203125 18.73168945 C60 21 60 21 60 24 C58.02 24 56.04 24 54 24 C54 23.01 54 22.02 54 21 C52.35333797 21.1135629 50.70763918 21.24117381 49.0625 21.375 C47.68771484 21.47941406 47.68771484 21.47941406 46.28515625 21.5859375 C45.53105469 21.72257812 44.77695313 21.85921875 44 22 C43.67 22.66 43.34 23.32 43 24 C38.9444522 24.34433896 35.04313918 24.53765149 31 24 C28.43165951 21.31491676 27 19.77787347 27 16 C26.34 16 25.68 16 25 16 C25 18.97 25 21.94 25 25 C22.69 25 20.38 25 18 25 C17.67 25.66 17.34 26.32 17 27 C17 26.34 17 25.68 17 25 C11.39 25 5.78 25 0 25 C0 16.75 0 8.5 0 0 Z " fill="#138F28" transform="translate(82,117)"/>
<path d="M0 0 C2.82928932 2.55071314 4.67893264 5.46621272 6.6875 8.6875 C7.31011719 9.68136719 7.93273437 10.67523438 8.57421875 11.69921875 C9.27998047 12.83810547 9.27998047 12.83810547 10 14 C10.38091797 13.23816406 10.38091797 13.23816406 10.76953125 12.4609375 C12.84635417 8.30729167 14.92317708 4.15364583 17 0 C17.66 0 18.32 0 19 0 C19.67117267 3.43663614 20.33616071 6.87444041 21 10.3125 C21.19078125 11.28896484 21.3815625 12.26542969 21.578125 13.27148438 C21.75859375 14.20927734 21.9390625 15.14707031 22.125 16.11328125 C22.37636719 17.40939331 22.37636719 17.40939331 22.6328125 18.73168945 C23 21 23 21 23 24 C21.906875 23.896875 20.81375 23.79375 19.6875 23.6875 C15.90936098 23.57440725 15.90936098 23.57440725 14.0625 26.25 C12.75973381 29.13051224 12.75973381 29.13051224 13 33 C13.5878125 32.01 13.5878125 32.01 14.1875 31 C16 29 16 29 18.6875 28.75 C19.450625 28.8325 20.21375 28.915 21 29 C21.66 30.32 22.32 31.64 23 33 C22.34 33 21.68 33 21 33 C21 32.34 21 31.68 21 31 C19.35 31 17.7 31 16 31 C15.67 33.31 15.34 35.62 15 38 C15.763125 38 16.52625 38 17.3125 38 C19.20833333 38 21.10416667 38 23 38 C22.505 38.99 22.505 38.99 22 40 C18.04 40 14.08 40 10 40 C9.67 37.36 9.34 34.72 9 32 C8.690625 33.134375 8.38125 34.26875 8.0625 35.4375 C7 39 7 39 6 40 C3.13732433 40.07325168 0.299281 40.09238205 -2.5625 40.0625 C-3.36880859 40.05798828 -4.17511719 40.05347656 -5.00585938 40.04882812 C-7.00393756 40.03700518 -9.00197783 40.01906914 -11 40 C-11 36.37 -11 32.74 -11 29 C-8.36 29 -5.72 29 -3 29 C-3 29.66 -3 30.32 -3 31 C-4.98 31 -6.96 31 -9 31 C-6.7763932 32.2981424 -6.7763932 32.2981424 -3 32 C-2.67 31.34 -2.34 30.68 -2 30 C0.64 30 3.28 30 6 30 C6.23428313 25.2102679 6.23428313 25.2102679 4 21 C3.34 21.99 2.68 22.98 2 24 C-1.125 24.1875 -1.125 24.1875 -4 24 C-3.4533512 15.81911794 -1.82876132 7.98214061 0 0 Z " fill="#A6A6A6" transform="translate(55,117)"/>
<path d="M0 0 C2.3925 -0.020625 4.785 -0.04125 7.25 -0.0625 C8.37003418 -0.07615601 8.37003418 -0.07615601 9.51269531 -0.09008789 C12.86001112 -0.10404254 15.78548284 0.10328624 19 1 C19.05785647 4.95827235 19.09354717 8.9164367 19.125 12.875 C19.14175781 14.00292969 19.15851563 15.13085938 19.17578125 16.29296875 C19.18222656 17.36933594 19.18867187 18.44570312 19.1953125 19.5546875 C19.20578613 20.54968262 19.21625977 21.54467773 19.22705078 22.56982422 C19 25 19 25 17 27 C17 26.34 17 25.68 17 25 C11.39 25 5.78 25 0 25 C0 16.75 0 8.5 0 0 Z " fill="#AFD5BD" transform="translate(82,117)"/>
<path d="M0 0 C1.85625 0.02513672 1.85625 0.02513672 3.75 0.05078125 C10.96929713 0.38678577 17.81004349 2.16397061 24 6 C25.04510301 7.63876096 26.0513282 9.30359215 27 11 C20.88023503 11.07447293 14.76073722 11.12875469 8.640625 11.16479492 C6.56115113 11.17982843 4.48170869 11.20026074 2.40234375 11.22631836 C-0.59643334 11.26294136 -3.59478911 11.27978111 -6.59375 11.29296875 C-7.97548401 11.31619453 -7.97548401 11.31619453 -9.38513184 11.33988953 C-16.6593389 11.34176192 -22.29850916 10.30752343 -28 5.4375 C-30 3 -30 3 -30 1 C-20.11132332 -0.73775908 -10.0019544 -0.15605105 0 0 Z " fill="#01B641" transform="translate(100,91)"/>
<path d="M0 0 C13.125 -0.66964286 13.125 -0.66964286 16.75 2.375 C19.8490174 5.9905203 20.351112 8.09542492 20.28125 12.8984375 C19.81551608 16.37850484 18.28243136 18.40913197 16 21 C11 23 11 23 0 23 C0 15.41 0 7.82 0 0 Z " fill="#11811D" transform="translate(163,118)"/>
<path d="M0 0 C1.59343619 0.230163 3.1763114 0.53512051 4.75 0.875 C5.61109375 1.05804688 6.4721875 1.24109375 7.359375 1.4296875 C8.93986695 1.77103635 10.51634646 2.13352222 12.08178711 2.53833008 C16.18358368 3.18724644 20.18834254 3.04190858 24.33203125 2.95703125 C26.20246295 2.93460923 28.07290649 2.91315759 29.94335938 2.89257812 C32.86125543 2.85582145 35.7785295 2.81319891 38.69604492 2.75317383 C53.57226735 2.46203162 69.06024068 2.23235345 81.5 11.625 C82.5621875 12.40101562 83.624375 13.17703125 84.71875 13.9765625 C85.4715625 14.64429687 86.224375 15.31203125 87 16 C87 16.66 87 17.32 87 18 C87.99 18 88.98 18 90 18 C90 18.66 90 19.32 90 20 C89.34 20 88.68 20 88 20 C87.67 20.66 87.34 21.32 87 22 C86.44054687 21.62488281 85.88109375 21.24976562 85.3046875 20.86328125 C68.28854817 10.00249779 48.77777776 6.96328848 28.96875 6.68359375 C27.73709106 6.66281265 26.50543213 6.64203156 25.2364502 6.62062073 C21.32435374 6.55553812 17.41219344 6.49643307 13.5 6.4375 C10.83852655 6.39476101 8.17707783 6.35065998 5.515625 6.30664062 C-0.98951698 6.19989931 -7.49472165 6.09805821 -14 6 C-14 5.67 -14 5.34 -14 5 C-10.92382812 4.70703125 -10.92382812 4.70703125 -7.84765625 4.4140625 C-7.23792969 4.27742188 -6.62820312 4.14078125 -6 4 C-5.67 3.34 -5.34 2.68 -5 2 C-2 3 -2 3 0 4 C-0.33 3.01 -0.66 2.02 -1 1 C-0.67 0.67 -0.34 0.34 0 0 Z " fill="#D2E2D9" transform="translate(46,60)"/>
<path d="M0 0 C2.82928932 2.55071314 4.67893264 5.46621272 6.6875 8.6875 C7.31011719 9.68136719 7.93273438 10.67523438 8.57421875 11.69921875 C9.04472656 12.45847656 9.51523438 13.21773437 10 14 C10.25394531 13.49210938 10.50789063 12.98421875 10.76953125 12.4609375 C12.84635417 8.30729167 14.92317708 4.15364583 17 0 C17.66 0 18.32 0 19 0 C19.67117267 3.43663614 20.33616071 6.87444041 21 10.3125 C21.19078125 11.28896484 21.3815625 12.26542969 21.578125 13.27148438 C21.84882812 14.67817383 21.84882812 14.67817383 22.125 16.11328125 C22.29257813 16.97735596 22.46015625 17.84143066 22.6328125 18.73168945 C23 21 23 21 23 24 C21.35 24 19.7 24 18 24 C17.34 21.36 16.68 18.72 16 16 C13.75972706 18.88035092 11.83827868 21.84866512 10 25 C6.72713318 22.2180632 5.03572303 18.72045933 3 15 C2.34 17.97 1.68 20.94 1 24 C-0.65 24 -2.3 24 -4 24 C-3.4533512 15.81911794 -1.82876132 7.98214061 0 0 Z " fill="#097910" transform="translate(55,117)"/>
<path d="M0 0 C0.66 0 1.32 0 2 0 C2 1.32 2 2.64 2 4 C2.66 4 3.32 4 4 4 C4 3.34 4 2.68 4 2 C4.66 2 5.32 2 6 2 C6.66 1.34 7.32 0.68 8 0 C8.02912348 3.72915017 8.04684037 7.4582709 8.0625 11.1875 C8.07087891 12.24259766 8.07925781 13.29769531 8.08789062 14.38476562 C8.09111328 15.40634766 8.09433594 16.42792969 8.09765625 17.48046875 C8.10289307 18.41785889 8.10812988 19.35524902 8.11352539 20.32104492 C8.00082657 22.98049477 7.59376649 25.40920573 7 28 C7.598125 28.020625 8.19625 28.04125 8.8125 28.0625 C11 29 11 29 12.8125 32.375 C14 36 14 36 13 39 C12.67 38.01 12.34 37.02 12 36 C10.35 36 8.7 36 7 36 C6.67 36.99 6.34 37.98 6 39 C5 37 5 37 4 34 C3.3400321 32.33066942 2.67441131 30.6635479 2 29 C-0.41619823 28.74969023 -0.41619823 28.74969023 -3 29 C-4.9451 31.91765 -5.45276317 33.62537285 -6 37 C-6.33 37 -6.66 37 -7 37 C-7.54330269 30.34454208 -6.77304004 26.54165256 -3 21 C-2.67 21.66 -2.34 22.32 -2 23 C-0.02 23 1.96 23 4 23 C3.87882812 22.44538086 3.75765625 21.89076172 3.6328125 21.31933594 C3.08427744 18.79712955 2.54207981 16.27360128 2 13.75 C1.80921875 12.87730469 1.6184375 12.00460938 1.421875 11.10546875 C1.24140625 10.26113281 1.0609375 9.41679688 0.875 8.546875 C0.70742187 7.77182617 0.53984375 6.99677734 0.3671875 6.19824219 C0 4 0 4 0 0 Z " fill="#C2DACA" transform="translate(74,118)"/>
<path d="M0 0 C4.95 0 9.9 0 15 0 C15 1.65 15 3.3 15 5 C12.03 5 9.06 5 6 5 C6 6.32 6 7.64 6 9 C8.31 9 10.62 9 13 9 C13 10.32 13 11.64 13 13 C10.69 13 8.38 13 6 13 C6 14.65 6 16.3 6 18 C8.97 18 11.94 18 15 18 C15 19.65 15 21.3 15 23 C10.05 23 5.1 23 0 23 C0 15.41 0 7.82 0 0 Z " fill="#09831E" transform="translate(33,118)"/>
<path d="M0 0 C4.02992782 0.55312735 8.02022924 1.1558062 12 2 C12 5.3 12 8.6 12 12 C10.4325 12.144375 8.865 12.28875 7.25 12.4375 C4.06005603 12.73131063 1.09769442 13.19863992 -2 14 C-2.66 14 -3.32 14 -4 14 C-4.99 14.495 -4.99 14.495 -6 15 C-6 14.34 -6 13.68 -6 13 C-6.804375 12.690625 -7.60875 12.38125 -8.4375 12.0625 C-11 11 -11 11 -12 10 C-12.46594715 4.64160774 -12.46594715 4.64160774 -10.77734375 2.31640625 C-8.47853506 0.61377212 -7.14017258 0.68955771 -4.3125 0.8125 C-3.10013672 0.85310547 -3.10013672 0.85310547 -1.86328125 0.89453125 C-1.24839844 0.92933594 -0.63351563 0.96414062 0 1 C0 0.67 0 0.34 0 0 Z " fill="#A3A3A3" transform="translate(152,145)"/>
<path d="M0 0 C0.66 0 1.32 0 2 0 C3.67613728 3.43296095 5.33925697 6.87206883 7 10.3125 C7.71542969 11.77719727 7.71542969 11.77719727 8.4453125 13.27148438 C8.89648438 14.20927734 9.34765625 15.14707031 9.8125 16.11328125 C10.23144531 16.97735596 10.65039062 17.84143066 11.08203125 18.73168945 C12 21 12 21 12 24 C10.02 24 8.04 24 6 24 C6 23.01 6 22.02 6 21 C4.84371094 21.05220703 4.84371094 21.05220703 3.6640625 21.10546875 C2.66117188 21.13253906 1.65828125 21.15960938 0.625 21.1875 C-0.87160156 21.23970703 -0.87160156 21.23970703 -2.3984375 21.29296875 C-3.25695312 21.19628906 -4.11546875 21.09960938 -5 21 C-7 18 -7 18 -6.81640625 15.2109375 C-5.92377284 11.70019747 -4.61285164 8.83312015 -2.9375 5.625 C-2.38964844 4.56539063 -1.84179688 3.50578125 -1.27734375 2.4140625 C-0.85582031 1.61742188 -0.43429688 0.82078125 0 0 Z " fill="#087D10" transform="translate(130,117)"/>
<path d="M0 0 C4.62 0 9.24 0 14 0 C14 1.32 14 2.64 14 4 C11.03 4 8.06 4 5 4 C5 5.65 5 7.3 5 9 C7.64 9 10.28 9 13 9 C13 10.32 13 11.64 13 13 C10.69 13.33 8.38 13.66 6 14 C5.67 15.32 5.34 16.64 5 18 C8.3 18 11.6 18 15 18 C15 19.65 15 21.3 15 23 C10.05 23 5.1 23 0 23 C0 15.41 0 7.82 0 0 Z " fill="#018D1A" transform="translate(82,118)"/>
<path d="M0 0 C3.95820859 0.56545837 6.6659053 1.80902348 10 4 C9.67 4.66 9.34 5.32 9 6 C7.35 5.34 5.7 4.68 4 4 C5.39195915 6.7839183 7.15575779 6.97898997 10 8 C9.67 9.65 9.34 11.3 9 13 C3.375 15.125 3.375 15.125 0 14 C-0.33 13.34 -0.66 12.68 -1 12 C-1.66 11.67 -2.32 11.34 -3 11 C-3.33 11.66 -3.66 12.32 -4 13 C-6.97 13 -9.94 13 -13 13 C-13 9.37 -13 5.74 -13 2 C-10.69 2 -8.38 2 -6 2 C-5.67 2.99 -5.34 3.98 -5 5 C-4.34 5 -3.68 5 -3 5 C-3 5.66 -3 6.32 -3 7 C-2.34 7 -1.68 7 -1 7 C-1.020625 6.21625 -1.04125 5.4325 -1.0625 4.625 C-1 2 -1 2 0 0 Z " fill="#B2B2B2" transform="translate(128,144)"/>
<path d="M0 0 C10.23 0 20.46 0 31 0 C31 0.66 31 1.32 31 2 C33.64 2.33 36.28 2.66 39 3 C38.34 2.34 37.68 1.68 37 1 C43.625 -0.25 43.625 -0.25 47 2 C46.34 2.33 45.68 2.66 45 3 C46.32 4.32 47.64 5.64 49 7 C47.92169922 6.84152588 46.84339844 6.68305176 45.73242188 6.51977539 C40.25759384 5.83857317 34.79234809 5.7711121 29.28125 5.68359375 C28.18276733 5.66281265 27.08428467 5.64203156 25.95251465 5.62062073 C22.46840231 5.55561377 18.98421924 5.49646889 15.5 5.4375 C13.12759706 5.39426825 10.75520109 5.35065252 8.3828125 5.30664062 C2.58861487 5.19998294 -3.20565199 5.09812885 -9 5 C-9 4.67 -9 4.34 -9 4 C-6.36 4 -3.72 4 -1 4 C-0.67 2.68 -0.34 1.36 0 0 Z " fill="#05B747" transform="translate(65,81)"/>
<path d="M0 0 C0.33 0 0.66 0 1 0 C1.66 2.31 2.32 4.62 3 7 C4.32 6.34 5.64 5.68 7 5 C5.90863407 13.05753146 4.72168056 21.0509642 3 29 C4.32 29.33 5.64 29.66 7 30 C5.35 30 3.7 30 2 30 C1.67 28.02 1.34 26.04 1 24 C-2.3 24 -5.6 24 -9 24 C-9 22.35 -9 20.7 -9 19 C-6.69 19 -4.38 19 -2 19 C-2 17.68 -2 16.36 -2 15 C-4.31 15 -6.62 15 -9 15 C-9 13.68 -9 12.36 -9 11 C-6.03 11 -3.06 11 0 11 C0 9.02 0 7.04 0 5 C-2.64 5 -5.28 5 -8 5 C-8 4.67 -8 4.34 -8 4 C-5.36 4 -2.72 4 0 4 C0 2.68 0 1.36 0 0 Z " fill="#D7DADA" transform="translate(48,112)"/>
<path d="M0 0 C0.87205078 -0.01224609 1.74410156 -0.02449219 2.64257812 -0.03710938 C3.90038086 -0.04000977 3.90038086 -0.04000977 5.18359375 -0.04296875 C5.9511499 -0.04707764 6.71870605 -0.05118652 7.50952148 -0.05541992 C9.5625 0.1875 9.5625 0.1875 12.5625 2.1875 C12.5625 1.5275 12.5625 0.8675 12.5625 0.1875 C17.5125 0.1875 22.4625 0.1875 27.5625 0.1875 C28.0575 2.1675 28.0575 2.1675 28.5625 4.1875 C24.91215773 6.01267113 20.55890885 5.59919113 16.53125 5.80859375 C13.44759744 5.89447327 13.44759744 5.89447327 11.5625 8.1875 C11.5625 7.5275 11.5625 6.8675 11.5625 6.1875 C5.9525 6.1875 0.3425 6.1875 -5.4375 6.1875 C-5.7675 9.4875 -6.0975 12.7875 -6.4375 16.1875 C-6.7675 16.1875 -7.0975 16.1875 -7.4375 16.1875 C-7.4375 13.5475 -7.4375 10.9075 -7.4375 8.1875 C-8.0975 8.1875 -8.7575 8.1875 -9.4375 8.1875 C-9.4375 8.8475 -9.4375 9.5075 -9.4375 10.1875 C-10.0975 10.1875 -10.7575 10.1875 -11.4375 10.1875 C-11.4375 7.2175 -11.4375 4.2475 -11.4375 1.1875 C-7.91593642 -0.57328179 -3.87858049 0.002854 0 0 Z " fill="#DFDFE0" transform="translate(87.4375,111.8125)"/>
<path d="M0 0 C1.59343619 0.230163 3.1763114 0.53512051 4.75 0.875 C5.61109375 1.05804688 6.4721875 1.24109375 7.359375 1.4296875 C8.97007408 1.77756038 10.57753272 2.14158324 12.17797852 2.53393555 C15.7323374 3.12094749 19.20470155 3.08526716 22.79296875 3.02734375 C24.32616954 3.01468823 25.8593728 3.00232797 27.39257812 2.99023438 C29.78401567 2.96555014 32.17532117 2.93767122 34.56665039 2.90405273 C51.6754081 2.67900745 51.6754081 2.67900745 60 5 C60 5.33 60 5.66 60 6 C35.58 6 11.16 6 -14 6 C-14 5.67 -14 5.34 -14 5 C-10.92382812 4.70703125 -10.92382812 4.70703125 -7.84765625 4.4140625 C-7.23792969 4.27742188 -6.62820312 4.14078125 -6 4 C-5.67 3.34 -5.34 2.68 -5 2 C-2 3 -2 3 0 4 C-0.33 3.01 -0.66 2.02 -1 1 C-0.67 0.67 -0.34 0.34 0 0 Z " fill="#DEE3DF" transform="translate(46,60)"/>
<path d="M0 0 C1.98 0 3.96 0 6 0 C6 6.27 6 12.54 6 19 C8.97 19 11.94 19 15 19 C15 20.65 15 22.3 15 24 C10.05 24 5.1 24 0 24 C0 16.08 0 8.16 0 0 Z " fill="#008005" transform="translate(145,117)"/>
<path d="M0 0 C0.67247269 0.06851669 1.34494537 0.13703339 2.03779602 0.20762634 C8.52596307 0.8376773 14.96448783 1.19319003 21.48046875 1.31640625 C22.88876701 1.3475779 22.88876701 1.3475779 24.32551575 1.37937927 C27.27944727 1.44396047 30.23345571 1.50332734 33.1875 1.5625 C35.20899184 1.60577253 37.23047634 1.64938935 39.25195312 1.69335938 C44.16789305 1.7995458 49.08390909 1.90106101 54 2 C54 2.66 54 3.32 54 4 C54.66 4.33 55.32 4.66 56 5 C44.12 5.33 32.24 5.66 20 6 C19.34 7.65 18.68 9.3 18 11 C16.68 10.34 15.36 9.68 14 9 C14 7.35 14 5.7 14 4 C9.59085217 2.89771304 5.51617599 2.92345464 1 3 C0.67 2.01 0.34 1.02 0 0 Z M-4 2 C0 3 0 3 0 3 Z " fill="#D8DBDA" transform="translate(50,85)"/>
<path d="M0 0 C0.66 0 1.32 0 2 0 C6 5.41176471 6 5.41176471 6 8 C9.96 8 13.92 8 18 8 C17 10 17 10 13.875 11.125 C10.09941262 11.97755199 6.85361088 12.15729024 3 12 C3.20625 12.86625 3.4125 13.7325 3.625 14.625 C4.04047622 18.36428602 3.39666276 20.54942141 2 24 C1.34 23.67 0.68 23.34 0 23 C0 22.34 0 21.68 0 21 C-1.65 21 -3.3 21 -5 21 C-5.33 21.99 -5.66 22.98 -6 24 C-7 22 -7 22 -6 18.5625 C-4.66254524 15.07761738 -4.66254524 15.07761738 -6 12 C-5.67 11.01 -5.34 10.02 -5 9 C-3.35 9 -1.7 9 0 9 C0 6.03 0 3.06 0 0 Z " fill="#D0D0D0" transform="translate(107,133)"/>
<path d="M0 0 C6.15231759 -0.07493454 12.3043614 -0.12896804 18.45703125 -0.16479492 C20.54399247 -0.17975234 22.63092298 -0.20012565 24.71777344 -0.22631836 C39.64672121 -0.40881508 53.03183431 0.13337041 67 6 C63.90279155 6.87840996 62.09354597 6.99435406 59 6 C59.66 7.32 60.32 8.64 61 10 C60.20650146 9.69582153 60.20650146 9.69582153 59.39697266 9.38549805 C51.18783254 6.56100306 42.95826037 6.22898732 34.375 5.8125 C32.8788452 5.73092989 31.38275017 5.64825571 29.88671875 5.56445312 C26.25841232 5.36358185 22.6295279 5.17761791 19 5 C19 4.67 19 4.34 19 4 C26.92 3.67 34.84 3.34 43 3 C43 2.34 43 1.68 43 1 C28.81 1 14.62 1 0 1 C0 0.67 0 0.34 0 0 Z " fill="#AEE2C3" transform="translate(61,86)"/>
<path d="M0 0 C0.33 0 0.66 0 1 0 C1 7.59 1 15.18 1 23 C5.95 23 10.9 23 16 23 C16 23.33 16 23.66 16 24 C15.19175781 24.12117188 14.38351563 24.24234375 13.55078125 24.3671875 C12.48214844 24.53476563 11.41351563 24.70234375 10.3125 24.875 C9.25675781 25.03742188 8.20101562 25.19984375 7.11328125 25.3671875 C4.14904396 25.96970499 1.68548406 26.60981125 -1 28 C-2.74570339 31.40663508 -2.74570339 31.40663508 -4 35 C-4.66 35.99 -5.32 36.98 -6 38 C-6 36.68 -6 35.36 -6 34 C-7.98 33.34 -9.96 32.68 -12 32 C-12 31.34 -12 30.68 -12 30 C-10.35 30.33 -8.7 30.66 -7 31 C-7.7734375 30.4740625 -7.7734375 30.4740625 -8.5625 29.9375 C-10 28 -10 28 -9.6875 24.3125 C-9.460625 23.219375 -9.23375 22.12625 -9 21 C-13.95 21.495 -13.95 21.495 -19 22 C-18.67 21.34 -18.34 20.68 -18 20 C-14.7 20 -11.4 20 -8 20 C-8 20.99 -8 21.98 -8 23 C-6.02 23 -4.04 23 -2 23 C-2.495 20.525 -2.495 20.525 -3 18 C-2.34 18 -1.68 18 -1 18 C-0.67 12.06 -0.34 6.12 0 0 Z " fill="#CFCFCF" transform="translate(144,118)"/>
<path d="M0 0 C3.3 0 6.6 0 10 0 C9.67 1.32 9.34 2.64 9 4 C7.68 4 6.36 4 5 4 C5 8.95 5 13.9 5 19 C6.65 19.33 8.3 19.66 10 20 C10.99 20.66 11.98 21.32 13 22 C11 23 11 23 0 23 C0 15.41 0 7.82 0 0 Z " fill="#037509" transform="translate(163,118)"/>
<path d="M0 0 C6.06998119 3.25706308 9.67906826 8.00947949 13 14 C13.75037138 16.49388135 13.9429753 18.37686395 14 21 C13.31035156 20.54109375 12.62070313 20.0821875 11.91015625 19.609375 C6.67479628 16.19095066 1.58999821 13.14717831 -4.22265625 10.82421875 C-6 10 -6 10 -8 8 C-5.36 7.67 -2.72 7.34 0 7 C0 4.69 0 2.38 0 0 Z " fill="#131211" transform="translate(120,56)"/>
<path d="M0 0 C-3.44450737 2.29633824 -5.93812283 2.54016485 -10 3 C-11.22772827 5.23259665 -11.22772827 5.23259665 -12 8 C-11.18391223 10.62374655 -11.18391223 10.62374655 -10 13 C-10 13.99 -10 14.98 -10 16 C-15.90516339 13.10767507 -20.28589319 9.49778121 -24 4 C-24 3.01 -24 2.02 -24 1 C-15.97875848 0.28586721 -8.05358138 -0.14525497 0 0 Z " fill="#68676C" transform="translate(59,44)"/>
<path d="M0 0 C0 3.3 0 6.6 0 10 C-1.81242052 10.02687279 -3.62495233 10.04633715 -5.4375 10.0625 C-6.44683594 10.07410156 -7.45617187 10.08570313 -8.49609375 10.09765625 C-11 10 -11 10 -12 9 C-12.37086093 3.1589404 -12.37086093 3.1589404 -12 1 C-7.66314105 -1.8912393 -5.07581238 -0.73562498 0 0 Z " fill="#9C9C9C" transform="translate(164,147)"/>
<path d="M0 0 C3.60479946 0.10979085 7.20854679 0.24044045 10.8125 0.375 C12.34874023 0.42140625 12.34874023 0.42140625 13.91601562 0.46875 C14.89892578 0.50742188 15.88183594 0.54609375 16.89453125 0.5859375 C17.80050049 0.6173584 18.70646973 0.6487793 19.63989258 0.68115234 C22 1 22 1 25 3 C24.01 3.66 23.02 4.32 22 5 C22.33 5.99 22.66 6.98 23 8 C21.80696352 11.09104906 20.48086572 14.03826855 19 17 C18.34 17 17.68 17 17 17 C16.67 16.01 16.34 15.02 16 14 C16.66 14 17.32 14 18 14 C17.814375 13.071875 17.62875 12.14375 17.4375 11.1875 C17 8 17 8 18 5 C17.01 5.33 16.02 5.66 15 6 C15 5.01 15 4.02 15 3 C13.02 3 11.04 3 9 3 C8.67 3.99 8.34 4.98 8 6 C5.69 5.67 3.38 5.34 1 5 C0.67 3.35 0.34 1.7 0 0 Z " fill="#D7D8DA" transform="translate(80,141)"/>
<path d="M0 0 C2.29109597 -0.08075665 4.58299267 -0.13907731 6.875 -0.1875 C8.78925781 -0.23970703 8.78925781 -0.23970703 10.7421875 -0.29296875 C11.81726563 -0.19628906 12.89234375 -0.09960938 14 0 C14.66 0.99 15.32 1.98 16 3 C15.34 3 14.68 3 14 3 C13.67 3.99 13.34 4.98 13 6 C13.66 6.66 14.32 7.32 15 8 C14.01 8.495 14.01 8.495 13 9 C13.33 9.66 13.66 10.32 14 11 C7.95689976 10.87667142 5.45049757 9.09172276 1.28515625 4.7890625 C0 3 0 3 0 0 Z " fill="#069126" transform="translate(32,67)"/>
<path d="M0 0 C0.33 0 0.66 0 1 0 C1.33 6.93 1.66 13.86 2 21 C3.32 21.66 4.64 22.32 6 23 C5.01 23 4.02 23 3 23 C3.33 23.99 3.66 24.98 4 26 C0.5437104 27.88524887 -0.71947694 28.07254907 -4.625 27.0625 C-6.295625 26.5365625 -6.295625 26.5365625 -8 26 C-8.99 26.33 -9.98 26.66 -11 27 C-13.04296875 26.87890625 -13.04296875 26.87890625 -15.1875 26.5625 C-16.445625 26.376875 -17.70375 26.19125 -19 26 C-12.66105613 22.58672253 -8.44404542 22 -1 22 C-0.67 14.74 -0.34 7.48 0 0 Z " fill="#D0DDDC" transform="translate(161,120)"/>
<path d="M0 0 C6 0 6 0 7.875 1.0625 C9.66235303 4.14071911 9.43386742 6.52906068 9 10 C7.3125 11.9375 7.3125 11.9375 5 13 C3.35 13 1.7 13 0 13 C0 8.71 0 4.42 0 0 Z " fill="#D2DBD7" transform="translate(168,123)"/>
<path d="M0 0 C0 0.33 0 0.66 0 1 C-17.36839609 1.10970224 -34.65684384 1.08273885 -52 0 C-52 -0.33 -52 -0.66 -52 -1 C-11.62087407 -3.04809812 -11.62087407 -3.04809812 0 0 Z " fill="#EDF1F0" transform="translate(106,65)"/>
<path d="M0 0 C0.33 0 0.66 0 1 0 C1.91160286 7.35793733 2.11459026 14.58982977 2 22 C3.32 22 4.64 22 6 22 C5.01 20.68 4.02 19.36 3 18 C3.66 16.68 4.32 15.36 5 14 C5 15.32 5 16.64 5 18 C8.3 18 11.6 18 15 18 C15 19.65 15 21.3 15 23 C10.05 23 5.1 23 0 23 C0 15.41 0 7.82 0 0 Z " fill="#0F8227" transform="translate(82,118)"/>
<path d="M0 0 C2.5 1.0625 2.5 1.0625 5 3 C5.3125 6.6875 5.3125 6.6875 5 10 C3.33333333 10 1.66666667 10 0 10 C-0.33 10.66 -0.66 11.32 -1 12 C-3.32156597 12.40729228 -5.6568787 12.74438677 -8 13 C-8 12.01 -8 11.02 -8 10 C-7.34 10 -6.68 10 -6 10 C-6 8.02 -6 6.04 -6 4 C-4.02 3.34 -2.04 2.68 0 2 C0 1.34 0 0.68 0 0 Z " fill="#159030" transform="translate(112,118)"/>
<path d="M0 0 C9.80843419 0.61970499 9.80843419 0.61970499 14 4 C14 4.66 14 5.32 14 6 C14.99 6.33 15.98 6.66 17 7 C17 7.66 17 8.32 17 9 C12.545 9.495 12.545 9.495 8 10 C8 9.34 8 8.68 8 8 C6.68 7.67 5.36 7.34 4 7 C4 6.34 4 5.68 4 5 C3.34 5 2.68 5 2 5 C1.34 3.35 0.68 1.7 0 0 Z " fill="#D6E3DE" transform="translate(120,92)"/>
<path d="M0 0 C2.31 0 4.62 0 7 0 C8.77084117 2.70834531 9.01052504 3.89264459 8.6875 7.1875 C8 10 8 10 7 11 C4.66702567 11.04092937 2.33294775 11.04241723 0 11 C0 7.37 0 3.74 0 0 Z " fill="#838383" transform="translate(115,146)"/>
<path d="M0 0 C5.3226134 4.81569784 6.73572622 10.17292158 8 17 C3.79766566 14.58047417 -0.07927649 11.84444647 -4 9 C-3.71848913 7.68528432 -3.42446661 6.37324233 -3.125 5.0625 C-2.96257812 4.33160156 -2.80015625 3.60070312 -2.6328125 2.84765625 C-2 1 -2 1 0 0 Z " fill="#07A436" transform="translate(139,88)"/>
<path d="M0 0 C0.66 0 1.32 0 2 0 C2.75 1.75 2.75 1.75 3 4 C1.0625 6.25 1.0625 6.25 -1 8 C0.32 8 1.64 8 3 8 C3.33 10.97 3.66 13.94 4 17 C2.02 17 0.04 17 -2 17 C-2 15.68 -2 14.36 -2 13 C-2.99 13 -3.98 13 -5 13 C-5 13.99 -5 14.98 -5 16 C-5.66 16 -6.32 16 -7 16 C-5.56835889 12.34061828 -4.01065704 8.76011932 -2.375 5.1875 C-1.92898437 4.21167969 -1.48296875 3.23585938 -1.0234375 2.23046875 C-0.51683594 1.12638672 -0.51683594 1.12638672 0 0 Z " fill="#148024" transform="translate(130,117)"/>
<path d="M0 0 C2.3125 0.1875 2.3125 0.1875 5 1 C6.66796875 3.55078125 6.66796875 3.55078125 8 6 C1.78866744 6.04938976 -4.42255112 6.08571476 -10.6340332 6.10986328 C-12.74766022 6.11992894 -14.8612733 6.13358257 -16.97485352 6.15087891 C-20.01061442 6.1751023 -23.04619143 6.18647738 -26.08203125 6.1953125 C-27.5024749 6.21079636 -27.5024749 6.21079636 -28.95161438 6.22659302 C-29.83230087 6.22674408 -30.71298737 6.22689514 -31.62036133 6.22705078 C-32.39535477 6.231492 -33.17034821 6.23593323 -33.96882629 6.24050903 C-36 6 -36 6 -39 4 C-25.8 4 -12.6 4 1 4 C0.505 2.02 0.505 2.02 0 0 Z " fill="#1AB159" transform="translate(119,96)"/>
<path d="M0 0 C2.83469118 1.08385251 4.27754892 2.41765601 6.125 4.8125 C6.04273794 7.52714802 5.36459034 8.54415881 3.5625 10.5625 C2.8509375 11.18125 2.8509375 11.18125 2.125 11.8125 C0.1875 11.0625 0.1875 11.0625 -1.875 9.8125 C-2.625 7.6875 -2.625 7.6875 -2.875 5.8125 C-3.205 6.1425 -3.535 6.4725 -3.875 6.8125 C-5.87458364 6.85330783 -7.87545254 6.85504356 -9.875 6.8125 C-9.875 6.4825 -9.875 6.1525 -9.875 5.8125 C-8.225 5.4825 -6.575 5.1525 -4.875 4.8125 C-4.689375 3.8534375 -4.689375 3.8534375 -4.5 2.875 C-4.29375 2.194375 -4.0875 1.51375 -3.875 0.8125 C-1.875 -0.1875 -1.875 -0.1875 0 0 Z " fill="#03AA2F" transform="translate(132.875,82.1875)"/>
<path d="M0 0 C2.31 1.32 4.62 2.64 7 4 C7 4.99 7 5.98 7 7 C6.01 6.67 5.02 6.34 4 6 C3.01 6.66 2.02 7.32 1 8 C-2.1015625 8.23046875 -2.1015625 8.23046875 -5.625 8.1875 C-6.79289062 8.18105469 -7.96078125 8.17460938 -9.1640625 8.16796875 C-12 8 -12 8 -13 7 C-14.55948542 6.84313751 -16.12542668 6.74923361 -17.69140625 6.68359375 C-18.63564453 6.64169922 -19.57988281 6.59980469 -20.55273438 6.55664062 C-21.54595703 6.51732422 -22.53917969 6.47800781 -23.5625 6.4375 C-24.55958984 6.39431641 -25.55667969 6.35113281 -26.58398438 6.30664062 C-29.0558415 6.20019702 -31.5278031 6.09818072 -34 6 C-34 5.67 -34 5.34 -34 5 C-33.22285645 5.00523682 -32.44571289 5.01047363 -31.64501953 5.01586914 C-28.13835451 5.03660156 -24.63170237 5.04964821 -21.125 5.0625 C-19.90167969 5.07087891 -18.67835937 5.07925781 -17.41796875 5.08789062 C-16.25136719 5.09111328 -15.08476563 5.09433594 -13.8828125 5.09765625 C-12.80402832 5.10289307 -11.72524414 5.10812988 -10.61376953 5.11352539 C-8.01767814 5.17883106 -8.01767814 5.17883106 -6 4 C-6 4.66 -6 5.32 -6 6 C-5.34 5.67 -4.68 5.34 -4 5 C-1.6670134 4.95977609 0.66706666 4.95679753 3 5 C2.505 4.54625 2.01 4.0925 1.5 3.625 C0 2 0 2 0 0 Z " fill="#C8E1D4" transform="translate(134,96)"/>
<path d="M0 0 C3.96 0 7.92 0 12 0 C12.33 0.66 12.66 1.32 13 2 C10.03 1.67 7.06 1.34 4 1 C4.185625 2.134375 4.37125 3.26875 4.5625 4.4375 C5.16007011 9.07696797 4.69277259 13.39572681 4 18 C3.34 17.67 2.68 17.34 2 17 C2.33 16.34 2.66 15.68 3 15 C2.34 15 1.68 15 1 15 C0.67 15.66 0.34 16.32 0 17 C0 11.39 0 5.78 0 0 Z " fill="#028007" transform="translate(34,119)"/>
<path d="M0 0 C15.84 0 31.68 0 48 0 C48 0.33 48 0.66 48 1 C45.36 1.33 42.72 1.66 40 2 C40 2.99 40 3.98 40 5 C37.51517893 4.50442318 35.03140576 4.0065824 32.55151367 3.48681641 C25.46106739 2.07963449 18.52917902 1.58712529 11.3125 1.375 C10.21744141 1.33632812 9.12238281 1.29765625 7.99414062 1.2578125 C5.329582 1.16472748 2.66500978 1.07890148 0 1 C0 0.67 0 0.34 0 0 Z " fill="#2FBD66" transform="translate(40,66)"/>
<path d="M0 0 C1.09916562 3.29749685 0.89023727 4.54881363 0.22265625 7.88671875 C0.03896484 8.82451172 -0.14472656 9.76230469 -0.33398438 10.72851562 C-0.53314453 11.70498047 -0.73230469 12.68144531 -0.9375 13.6875 C-1.13279297 14.67556641 -1.32808594 15.66363281 -1.52929688 16.68164062 C-2.01275776 19.12252852 -2.50323966 21.56179009 -3 24 C-1.68 24.33 -0.36 24.66 1 25 C-0.65 25 -2.3 25 -4 25 C-5.90477819 21.19044361 -5.17565535 17.59283679 -4 13.625 C-3.67 12.75875 -3.34 11.8925 -3 11 C-3.66 11 -4.32 11 -5 11 C-5.44041451 5.62694301 -5.44041451 5.62694301 -5 3 C-2.5 1 -2.5 1 0 0 Z " fill="#C4D7CE" transform="translate(54,117)"/>
<path d="M0 0 C1.98 0 3.96 0 6 0 C6 6.27 6 12.54 6 19 C5.34 19 4.68 19 4 19 C4 13.72 4 8.44 4 3 C3.01 3 2.02 3 1 3 C1 9.93 1 16.86 1 24 C0.67 24 0.34 24 0 24 C0 16.08 0 8.16 0 0 Z " fill="#208C42" transform="translate(145,117)"/>
<path d="M0 0 C1.485 0.99 1.485 0.99 3 2 C3.99 1.67 4.98 1.34 6 1 C6 2.32 6 3.64 6 5 C6.185625 5.86625 6.37125 6.7325 6.5625 7.625 C7 10 7 10 6 12 C3.67843403 12.40729228 1.3431213 12.74438677 -1 13 C-1.02686553 11.02090602 -1.04633375 9.04171029 -1.0625 7.0625 C-1.07410156 5.96035156 -1.08570313 4.85820313 -1.09765625 3.72265625 C-1 1 -1 1 0 0 Z M3 4 C3.33 4.99 3.66 5.98 4 7 C4 6.01 4 5.02 4 4 C3.67 4 3.34 4 3 4 Z " fill="#DADBDC" transform="translate(145,105)"/>
<path d="M0 0 C0.66 0.66 1.32 1.32 2 2 C4.31765729 2.71927295 6.65095874 3.3909893 9 4 C8.67 6.31 8.34 8.62 8 11 C7.608125 10.505 7.21625 10.01 6.8125 9.5 C5.05545568 7.78158316 5.05545568 7.78158316 2.4375 7.625 C1.633125 7.74875 0.82875 7.8725 0 8 C-1.9451 10.91765 -2.45276317 12.62537285 -3 16 C-3.33 16 -3.66 16 -4 16 C-4.54330269 9.34454208 -3.77304004 5.54165256 0 0 Z " fill="#D9D9D9" transform="translate(71,139)"/>
<path d="M0 0 C0.33 0 0.66 0 1 0 C1 7.59 1 15.18 1 23 C5.95 23 10.9 23 16 23 C16 23.33 16 23.66 16 24 C13.7505194 24.33682062 11.50039296 24.66933001 9.25 25 C7.99703125 25.185625 6.7440625 25.37125 5.453125 25.5625 C2 26 2 26 -2 26 C-2 25.34 -2 24.68 -2 24 C-3.65 24 -5.3 24 -7 24 C-7 23.67 -7 23.34 -7 23 C-5.35 23 -3.7 23 -2 23 C-2.33 21.35 -2.66 19.7 -3 18 C-2.34 18 -1.68 18 -1 18 C-0.505 9.09 -0.505 9.09 0 0 Z " fill="#A4D6B7" transform="translate(144,118)"/>
<path d="M0 0 C0.33 1.32 0.66 2.64 1 4 C1.598125 4.020625 2.19625 4.04125 2.8125 4.0625 C5 5 5 5 6.8125 8.375 C8 12 8 12 7 15 C6.67 14.01 6.34 13.02 6 12 C4.35 12 2.7 12 1 12 C0.67 12.99 0.34 13.98 0 15 C-2.72774696 9.54450608 -1.62093184 5.62558699 0 0 Z " fill="#A8A7A7" transform="translate(80,142)"/>
<path d="M0 0 C0.66 0 1.32 0 2 0 C2.33 1.32 2.66 2.64 3 4 C3.391875 3.34 3.78375 2.68 4.1875 2 C6 0 6 0 8.6875 -0.25 C9.8321875 -0.12625 9.8321875 -0.12625 11 0 C11.66 1.32 12.32 2.64 13 4 C12.34 4 11.68 4 11 4 C11 3.34 11 2.68 11 2 C9.35 2 7.7 2 6 2 C5.67 4.31 5.34 6.62 5 9 C5.763125 9 6.52625 9 7.3125 9 C9.20833333 9 11.10416667 9 13 9 C12.67 9.66 12.34 10.32 12 11 C8.04 11 4.08 11 0 11 C0 7.37 0 3.74 0 0 Z " fill="#939393" transform="translate(65,146)"/>
<path d="M0 0 C0.66 0 1.32 0 2 0 C2.33 0.33 2.66 0.66 3 1 C3.99 1 4.98 1 6 1 C5.36934845 6.7809725 4.34844868 12.3443706 3 18 C2.01 17.67 1.02 17.34 0 17 C0.33 16.67 0.66 16.34 1 16 C1.33338596 12.54187831 1.33338596 12.54187831 1 9 C-2.40431947 6.73045369 -4.16524202 6.63450051 -8.1875 6.375 C-9.27417969 6.30023438 -10.36085938 6.22546875 -11.48046875 6.1484375 C-12.31191406 6.09945312 -13.14335938 6.05046875 -14 6 C-14 5.67 -14 5.34 -14 5 C-7.565 4.505 -7.565 4.505 -1 4 C-0.67 2.68 -0.34 1.36 0 0 Z " fill="#BDD9CA" transform="translate(115,112)"/>
<path d="M0 0 C0.33 0 0.66 0 1 0 C1.50227431 5.27388024 0.32894202 7.91015695 -3 12 C-6.40931897 13.13643966 -7.00335456 12.86747764 -10.1875 11.5625 C-10.90292969 11.27503906 -11.61835938 10.98757812 -12.35546875 10.69140625 C-12.89816406 10.46324219 -13.44085938 10.23507813 -14 10 C-14 9.67 -14 9.34 -14 9 C-6.57142857 6.85714286 -6.57142857 6.85714286 -3 6 C-2.67 4.68 -2.34 3.36 -2 2 C-1.34 2 -0.68 2 0 2 C0 1.34 0 0.68 0 0 Z " fill="#128728" transform="translate(182,127)"/>
<path d="M0 0 C3.63 0.33 7.26 0.66 11 1 C11 2.32 11 3.64 11 5 C6.545 5.495 6.545 5.495 2 6 C2.52268466 8.76276177 3.10869587 11.3260876 4 14 C2.68 14 1.36 14 0 14 C0 9.38 0 4.76 0 0 Z " fill="#018907" transform="translate(84,126)"/>
<path d="M0 0 C0.88365234 0.00451172 1.76730469 0.00902344 2.67773438 0.01367188 C4.84768559 0.02540134 7.01760172 0.04333505 9.1875 0.0625 C9.1875 0.7225 9.1875 1.3825 9.1875 2.0625 C9.8475 2.3925 10.5075 2.7225 11.1875 3.0625 C7.41673111 3.12049124 3.64607666 3.15609306 -0.125 3.1875 C-1.19685547 3.20425781 -2.26871094 3.22101563 -3.37304688 3.23828125 C-4.40107422 3.24472656 -5.42910156 3.25117187 -6.48828125 3.2578125 C-7.43614502 3.26828613 -8.38400879 3.27875977 -9.3605957 3.28955078 C-11.8125 3.0625 -11.8125 3.0625 -14.8125 1.0625 C-9.89747242 -0.22985715 -5.03959898 -0.04885517 0 0 Z " fill="#E6E1E5" transform="translate(94.8125,86.9375)"/>
<path d="M0 0 C3.29158865 -0.05905417 6.58303756 -0.09394375 9.875 -0.125 C10.7928125 -0.14175781 11.710625 -0.15851563 12.65625 -0.17578125 C19.00812606 -0.22051277 24.82610036 0.51148437 31 2 C31 2.33 31 2.66 31 3 C26.71 3 22.42 3 18 3 C17.67 3.66 17.34 4.32 17 5 C15.68 5 14.36 5 13 5 C13 4.34 13 3.68 13 3 C8.71 2.34 4.42 1.68 0 1 C0 0.67 0 0.34 0 0 Z " fill="#04B745" transform="translate(75,67)"/>
<path d="M0 0 C2.16874252 0.50603992 3.99967627 0.99983813 6 2 C6 2.99 6 3.98 6 5 C4.02 5 2.04 5 0 5 C0 5.66 0 6.32 0 7 C0.99 7 1.98 7 3 7 C3 9.64 3 12.28 3 15 C2.01 15.495 2.01 15.495 1 16 C1 15.34 1 14.68 1 14 C0.01 13.67 -0.98 13.34 -2 13 C-1.34 13 -0.68 13 0 13 C-0.350625 12.0925 -0.70125 11.185 -1.0625 10.25 C-1.96468779 7.12241564 -2.13381507 5.94791919 -1 3 C-3.64 3 -6.28 3 -9 3 C-9 2.67 -9 2.34 -9 2 C-5.7 2 -2.4 2 1 2 C0.67 1.34 0.34 0.68 0 0 Z " fill="#DCD8DB" transform="translate(176,141)"/>
<path d="M0 0 C1.59811523 0.00676758 1.59811523 0.00676758 3.22851562 0.01367188 C5.83990291 0.02538213 8.45117124 0.04178276 11.0625 0.0625 C7.7441923 2.05210773 5.26290301 2.2986745 1.421875 2.2578125 C0.35195312 2.25136719 -0.71796875 2.24492188 -1.8203125 2.23828125 C-2.93148437 2.22152344 -4.04265625 2.20476562 -5.1875 2.1875 C-6.31414062 2.17847656 -7.44078125 2.16945313 -8.6015625 2.16015625 C-11.38042365 2.13660658 -14.1588539 2.1037168 -16.9375 2.0625 C-16.9375 2.7225 -16.9375 3.3825 -16.9375 4.0625 C-15.6175 4.3925 -14.2975 4.7225 -12.9375 5.0625 C-13.2675 5.7225 -13.5975 6.3825 -13.9375 7.0625 C-15.875 6.3125 -15.875 6.3125 -17.9375 5.0625 C-18.6875 2.9375 -18.6875 2.9375 -18.9375 1.0625 C-12.61160373 -0.07705862 -6.41471662 -0.0517637 0 0 Z " fill="#10B256" transform="translate(88.9375,90.9375)"/>
<path d="M0 0 C0.66 0 1.32 0 2 0 C2.33 0.66 2.66 1.32 3 2 C3.99 1.67 4.98 1.34 6 1 C4.92289822 5.30840713 3.96052484 8.63576723 1 12 C0.13342884 10.90554162 -0.71792724 9.79902219 -1.5625 8.6875 C-2.03816406 8.07261719 -2.51382813 7.45773438 -3.00390625 6.82421875 C-3.33261719 6.22222656 -3.66132812 5.62023437 -4 5 C-3.67 4.01 -3.34 3.02 -3 2 C-2.01 2 -1.02 2 0 2 C0 1.34 0 0.68 0 0 Z " fill="#D7D9D8" transform="translate(118,128)"/>
<path d="M0 0 C0 5.61 0 11.22 0 17 C-0.33 16.34 -0.66 15.68 -1 15 C-1.66 15 -2.32 15 -3 15 C-3.144375 13.865625 -3.28875 12.73125 -3.4375 11.5625 C-3.61171478 8.19222799 -3.61171478 8.19222799 -5 7 C-5.04063832 5.33382885 -5.042721 3.66611905 -5 2 C-1.125 0 -1.125 0 0 0 Z " fill="#DED9DC" transform="translate(144,121)"/>
<path d="M0 0 C1.2065625 0.0309375 1.2065625 0.0309375 2.4375 0.0625 C2.4375 0.7225 2.4375 1.3825 2.4375 2.0625 C3.4275 2.0625 4.4175 2.0625 5.4375 2.0625 C5.7675 3.3825 6.0975 4.7025 6.4375 6.0625 C5.1175 6.0625 3.7975 6.0625 2.4375 6.0625 C2.4375 6.7225 2.4375 7.3825 2.4375 8.0625 C-2.4375 7.1875 -2.4375 7.1875 -3.5625 6.0625 C-3.6875 3.5625 -3.6875 3.5625 -3.5625 1.0625 C-2.5625 0.0625 -2.5625 0.0625 0 0 Z " fill="#D0D0D0" transform="translate(156.5625,147.9375)"/>
<path d="M0 0 C3.3 0 6.6 0 10 0 C10.33 0.99 10.66 1.98 11 3 C9.68942607 3.36122881 8.37646376 3.71380311 7.0625 4.0625 C6.33160156 4.25972656 5.60070312 4.45695312 4.84765625 4.66015625 C4.23792969 4.77230469 3.62820312 4.88445312 3 5 C2.67 4.67 2.34 4.34 2 4 C1.67 10.27 1.34 16.54 1 23 C0.67 23 0.34 23 0 23 C0 15.41 0 7.82 0 0 Z " fill="#049024" transform="translate(102,118)"/>
<path d="M0 0 C2.64 0 5.28 0 8 0 C8 2.64 8 5.28 8 8 C8.66 8.33 9.32 8.66 10 9 C9.67 9.66 9.34 10.32 9 11 C8.34 11 7.68 11 7 11 C7 10.01 7 9.02 7 8 C6.01 7.67 5.02 7.34 4 7 C4 6.34 4 5.68 4 5 C3.01 5.33 2.02 5.66 1 6 C0 5 0 5 -0.0625 2.4375 C-0.041875 1.633125 -0.02125 0.82875 0 0 Z " fill="#DDDEDE" transform="translate(128,112)"/>
<path d="M0 0 C1.5625 1.625 1.5625 1.625 3 4 C2.6875 7.25 2.6875 7.25 2 10 C-0.31 10 -2.62 10 -5 10 C-4.67 8.68 -4.34 7.36 -4 6 C-5.32 5.67 -6.64 5.34 -8 5 C-7.13375 4.87625 -7.13375 4.87625 -6.25 4.75 C-3.3840696 3.79468987 -2.0009236 2.21530827 0 0 Z " fill="#C7CFCB" transform="translate(59,137)"/>
<path d="M0 0 C2.97 0 5.94 0 9 0 C9 1.98 9 3.96 9 6 C8.34 6 7.68 6 7 6 C7 6.66 7 7.32 7 8 C7.66 8.66 8.32 9.32 9 10 C6.03 10 3.06 10 0 10 C0 8.35 0 6.7 0 5 C2.31 5 4.62 5 7 5 C7 3.68 7 2.36 7 1 C4.69 1 2.38 1 0 1 C0 0.67 0 0.34 0 0 Z " fill="#B0D2B9" transform="translate(39,126)"/>
<path d="M0 0 C2.97 0 5.94 0 9 0 C8.67 0.99 8.34 1.98 8 3 C6.68 3 5.36 3 4 3 C4 7.95 4 12.9 4 18 C3.67 18 3.34 18 3 18 C3 12.39 3 6.78 3 1 C2.34 1 1.68 1 1 1 C1 6.28 1 11.56 1 17 C0.67 17 0.34 17 0 17 C0 11.39 0 5.78 0 0 Z " fill="#007A00" transform="translate(164,119)"/>
<path d="M0 0 C1.29550781 -0.03867188 1.29550781 -0.03867188 2.6171875 -0.078125 C5.57524649 0.30891076 6.91701784 1.29875995 9.125 3.25 C8.073125 3.353125 7.02125 3.45625 5.9375 3.5625 C2.16760869 4.00146516 2.16760869 4.00146516 -0.5 5.875 C-2.875 7.25 -2.875 7.25 -5.6875 6.9375 C-6.409375 6.710625 -7.13125 6.48375 -7.875 6.25 C-6.885 5.92 -5.895 5.59 -4.875 5.25 C-4.875 4.59 -4.875 3.93 -4.875 3.25 C-5.535 2.59 -6.195 1.93 -6.875 1.25 C-4.43545342 0.03022671 -2.72194151 0.04846187 0 0 Z " fill="#01A22D" transform="translate(50.875,66.75)"/>
<path d="M0 0 C5.45479185 0.56820748 9.91059256 1.94637945 15 4 C11.90279155 4.87840996 10.09354597 4.99435406 7 4 C7.66 5.32 8.32 6.64 9 8 C5.7 7.01 2.4 6.02 -1 5 C-0.34 4.34 0.32 3.68 1 3 C0.67 2.01 0.34 1.02 0 0 Z " fill="#BBE5CF" transform="translate(113,88)"/>
<path d="M0 0 C1.32 0 2.64 0 4 0 C4 1.65 4 3.3 4 5 C7.3 5.33 10.6 5.66 14 6 C14 6.33 14 6.66 14 7 C1.33029613 7.738041 1.33029613 7.738041 -4 3 C-3.67 2.34 -3.34 1.68 -3 1 C-2.01 1 -1.02 1 0 1 C0 0.67 0 0.34 0 0 Z " fill="#08A02F" transform="translate(44,75)"/>
<path d="M0 0 C5.82828789 -0.19668013 10.80984807 0.39597126 16.4375 1.875 C17.15615234 2.04902344 17.87480469 2.22304687 18.61523438 2.40234375 C20.42945708 2.86489345 22.21823348 3.42496581 24 4 C24.33 4.66 24.66 5.32 25 6 C19.72796354 6.27036084 15.07476794 5.26305335 10 4 C10 3.34 10 2.68 10 2 C8.3603125 2.061875 8.3603125 2.061875 6.6875 2.125 C3 2 3 2 0 0 Z " fill="#CFD5D2" transform="translate(96,63)"/>
<path d="M0 0 C1.67542976 0.28604898 3.34385343 0.61781233 5 1 C5 2.98 5 4.96 5 7 C2.625 7.625 2.625 7.625 0 8 C-0.66 7.34 -1.32 6.68 -2 6 C-1.44444444 1.44444444 -1.44444444 1.44444444 0 0 Z " fill="#CDCDCD" transform="translate(143,148)"/>
<path d="M0 0 C0.99 0 1.98 0 3 0 C3.66 1.65 4.32 3.3 5 5 C5.99 4.34 6.98 3.68 8 3 C7.67 5.31 7.34 7.62 7 10 C6.01 10 5.02 10 4 10 C3.67 9.01 3.34 8.02 3 7 C2.67 7.99 2.34 8.98 2 10 C1.34 10 0.68 10 0 10 C0 6.7 0 3.4 0 0 Z " fill="#8C8C8C" transform="translate(31,147)"/>
<path d="M0 0 C1.66611905 -0.042721 3.33382885 -0.04063832 5 0 C6 1 6 1 6.0625 4.0625 C6.041875 5.031875 6.02125 6.00125 6 7 C4.02 7.33 2.04 7.66 0 8 C0 5.36 0 2.72 0 0 Z " fill="#D5D5D5" transform="translate(116,148)"/>
<path d="M0 0 C2.97 0.495 2.97 0.495 6 1 C6.04254356 2.99954746 6.04080783 5.00041636 6 7 C5 8 5 8 2.4375 8.0625 C1.633125 8.041875 0.82875 8.02125 0 8 C0 5.36 0 2.72 0 0 Z " fill="#CFCFCF" transform="translate(55,148)"/>
<path d="M0 0 C0.33 1.32 0.66 2.64 1 4 C4.3 4 7.6 4 11 4 C11 5.65 11 7.3 11 9 C2.7677336 8.6548316 2.7677336 8.6548316 -0.125 6.1875 C-1.14685058 3.63287356 -0.99252762 2.52643395 0 0 Z " fill="#0E8F2A" transform="translate(86,132)"/>
<path d="M0 0 C2 1 2 1 3.3125 4.1875 C4.11758821 8.65208008 3.38239333 10.24314899 1 14 C-1 13 -1 13 -2 10 C-2.66 9.67 -3.32 9.34 -4 9 C-3.01 8.67 -2.02 8.34 -1 8 C-1.020625 7.05125 -1.04125 6.1025 -1.0625 5.125 C-1 2 -1 2 0 0 Z " fill="#D8D9DA" transform="translate(63,112)"/>
<path d="M0 0 C0.33 0 0.66 0 1 0 C1.38854209 2.28940956 1.7604628 4.58164574 2.125 6.875 C2.33382812 8.15117187 2.54265625 9.42734375 2.7578125 10.7421875 C2.83773437 11.81726563 2.91765625 12.89234375 3 14 C2.34 14.66 1.68 15.32 1 16 C1 15.34 1 14.68 1 14 C-4.61 14 -10.22 14 -16 14 C-16 13.67 -16 13.34 -16 13 C-11.05 13 -6.1 13 -1 13 C-0.67 8.71 -0.34 4.42 0 0 Z " fill="#B2D1BF" transform="translate(98,128)"/>
<path d="M0 0 C4.62 0 9.24 0 14 0 C14 1.65 14 3.3 14 5 C11.03 5 8.06 5 5 5 C4.67 6.32 4.34 7.64 4 9 C4 6.69 4 4.38 4 2 C6.64 2 9.28 2 12 2 C8.04 1.67 4.08 1.34 0 1 C0 0.67 0 0.34 0 0 Z " fill="#067B19" transform="translate(34,118)"/>
<path d="M0 0 C0.99 0 1.98 0 3 0 C6.125 6.625 6.125 6.625 5 10 C4.67 9.01 4.34 8.02 4 7 C2.35 7 0.7 7 -1 7 C-1.33 7.99 -1.66 8.98 -2 10 C-3 8 -3 8 -2.44140625 6.0546875 C-2.15136719 5.33539063 -1.86132812 4.61609375 -1.5625 3.875 C-1.27503906 3.15054688 -0.98757812 2.42609375 -0.69140625 1.6796875 C-0.46324219 1.12539062 -0.23507813 0.57109375 0 0 Z " fill="#7E7E7E" transform="translate(103,147)"/>
<path d="M0 0 C5.3226134 4.81569784 6.73572622 10.17292158 8 17 C4.73539027 15.19587357 3.11070205 14.16605307 1 11 C1.99 10.67 2.98 10.34 4 10 C3.71125 9.44570312 3.4225 8.89140625 3.125 8.3203125 C2.568125 7.23363281 2.568125 7.23363281 2 6.125 C1.62875 5.40570313 1.2575 4.68640625 0.875 3.9453125 C0 2 0 2 0 0 Z " fill="#149940" transform="translate(139,88)"/>
<path d="M0 0 C0.91007813 0.00902344 1.82015625 0.01804688 2.7578125 0.02734375 C3.45648438 0.03894531 4.15515625 0.05054688 4.875 0.0625 C4.875 1.0525 4.875 2.0425 4.875 3.0625 C3.7303125 3.0315625 3.7303125 3.0315625 2.5625 3 C-0.22685786 2.93307159 -0.22685786 2.93307159 -3.125 4.0625 C-5.16796875 3.94140625 -5.16796875 3.94140625 -7.3125 3.625 C-8.570625 3.439375 -9.82875 3.25375 -11.125 3.0625 C-7.05343521 1.0267176 -4.61375072 -0.05915065 0 0 Z " fill="#D9D7D8" transform="translate(153.125,142.9375)"/>
<path d="M0 0 C3.79600054 1.40592613 7.59011555 2.81435417 11.375 4.25 C7.625 5.375 7.625 5.375 5.375 4.25 C5.375 4.91 5.375 5.57 5.375 6.25 C4.055 6.25 2.735 6.25 1.375 6.25 C1.375 5.26 1.375 4.27 1.375 3.25 C-1.595 2.755 -1.595 2.755 -4.625 2.25 C-4.625 1.59 -4.625 0.93 -4.625 0.25 C-2.625 -0.75 -2.625 -0.75 0 0 Z " fill="#C4DACE" transform="translate(44.625,80.75)"/>
<path d="M0 0 C3.3 0 6.6 0 10 0 C10 1.32 10 2.64 10 4 C6.37 4 2.74 4 -1 4 C-0.67 2.68 -0.34 1.36 0 0 Z " fill="#088118" transform="translate(150,136)"/>
<path d="M0 0 C3.3 0 6.6 0 10 0 C10.33 0.99 10.66 1.98 11 3 C13.10584438 3.80563638 13.10584438 3.80563638 15.5625 4.1875 C16.38878906 4.34605469 17.21507812 4.50460938 18.06640625 4.66796875 C18.70449219 4.77753906 19.34257812 4.88710937 20 5 C19.67 5.66 19.34 6.32 19 7 C17.741875 7.04125 16.48375 7.0825 15.1875 7.125 C14.47980469 7.14820313 13.77210938 7.17140625 13.04296875 7.1953125 C11 7 11 7 8 5 C8.33 3.68 8.66 2.36 9 1 C5.7 1.33 2.4 1.66 -1 2 C-0.67 1.34 -0.34 0.68 0 0 Z " fill="#CADCD0" transform="translate(126,138)"/>
<path d="M0 0 C0.99 0.495 0.99 0.495 2 1 C2 1.66 2 2.32 2 3 C5.96 3 9.92 3 14 3 C13 5 13 5 9.75 6.125 C6.62299365 6.85463482 4.17377095 7.19234975 1 7 C0.67 4.69 0.34 2.38 0 0 Z " fill="#B0D2BD" transform="translate(111,138)"/>
<path d="M0 0 C0.99 0 1.98 0 3 0 C3 1.32 3 2.64 3 4 C4.65 4 6.3 4 8 4 C7.67 4.99 7.34 5.98 7 7 C4.69 7.33 2.38 7.66 0 8 C-0.66 6.35 -1.32 4.7 -2 3 C-1.34 3 -0.68 3 0 3 C0 2.01 0 1.02 0 0 Z " fill="#037608" transform="translate(125,130)"/>
<path d="M0 0 C2.3125 0.1875 2.3125 0.1875 5 1 C5.99 2.65 6.98 4.3 8 6 C1.4 5.67 -5.2 5.34 -12 5 C-12 4.67 -12 4.34 -12 4 C-7.71 4 -3.42 4 1 4 C0.67 2.68 0.34 1.36 0 0 Z " fill="#2AB460" transform="translate(119,96)"/>
<path d="M0 0 C6.875 0.875 6.875 0.875 8 2 C9.34747084 2.23075082 10.70377565 2.41153063 12.0625 2.5625 C13.361875 2.706875 14.66125 2.85125 16 3 C16 3.33 16 3.66 16 4 C9.4 4 2.8 4 -4 4 C-4.33 3.34 -4.66 2.68 -5 2 C-2.36 2.33 0.28 2.66 3 3 C3 2.34 3 1.68 3 1 C2.01 0.67 1.02 0.34 0 0 Z " fill="#0EAF45" transform="translate(80,96)"/>
<path d="M0 0 C0.66 0.33 1.32 0.66 2 1 C1.67 1.66 1.34 2.32 1 3 C1.66 3 2.32 3 3 3 C3 2.01 3 1.02 3 0 C3.99 0 4.98 0 6 0 C6.33 1.65 6.66 3.3 7 5 C5 6 5 6 3.125 5.4375 C0.41764326 4.88010302 -0.68865109 5.59668102 -3 7 C-2.25 2.25 -2.25 2.25 0 0 Z " fill="#DBD5DB" transform="translate(54,112)"/>
<path d="M0 0 C1.125 5.75 1.125 5.75 0 8 C-0.99 7.34 -1.98 6.68 -3 6 C-3.33 6.33 -3.66 6.66 -4 7 C-5.99958364 7.04080783 -8.00045254 7.04254356 -10 7 C-10 6.67 -10 6.34 -10 6 C-8.35 5.67 -6.7 5.34 -5 5 C-4.814375 4.0409375 -4.814375 4.0409375 -4.625 3.0625 C-4.41875 2.381875 -4.2125 1.70125 -4 1 C-2 0 -2 0 0 0 Z " fill="#01AF33" transform="translate(133,82)"/>
<path d="M0 0 C2.40575607 2.18517099 3.79535581 4.25919671 5.1875 7.1875 C5.53167969 7.90292969 5.87585937 8.61835938 6.23046875 9.35546875 C6.48441406 9.89816406 6.73835938 10.44085938 7 11 C6.01 11.495 6.01 11.495 5 12 C4.01 10.35 3.02 8.7 2 7 C1.34 7.99 0.68 8.98 0 10 C-0.74926071 6.33694766 -1.2380014 3.57644848 0 0 Z " fill="#B1D5C0" transform="translate(57,131)"/>
<path d="M0 0 C0.66 0 1.32 0 2 0 C2 0.99 2 1.98 2 3 C3.32 3.33 4.64 3.66 6 4 C6 5.32 6 6.64 6 8 C6.66 8.33 7.32 8.66 8 9 C8 11.31 8 13.62 8 16 C5.42677675 13.42677675 4.37941674 10.74794361 2.875 7.4375 C2.33617187 6.26058594 1.79734375 5.08367187 1.2421875 3.87109375 C0 1 0 1 0 0 Z " fill="#BDDCC9" transform="translate(133,120)"/>
<path d="M0 0 C2.31 0 4.62 0 7 0 C7 0.66 7 1.32 7 2 C7.99 2.33 8.98 2.66 10 3 C10 3.66 10 4.32 10 5 C5.545 5.495 5.545 5.495 1 6 C0.67 5.01 0.34 4.02 0 3 C1.32 3 2.64 3 4 3 C4 2.34 4 1.68 4 1 C2.68 0.67 1.36 0.34 0 0 Z " fill="#E2DBE0" transform="translate(127,96)"/>
<path d="M0 0 C0.33 0 0.66 0 1 0 C1 1.98 1 3.96 1 6 C1.99 5.67 2.98 5.34 4 5 C4 5.66 4 6.32 4 7 C4.66 7 5.32 7 6 7 C6.33 6.01 6.66 5.02 7 4 C7.33 5.32 7.66 6.64 8 8 C7.34 8 6.68 8 6 8 C6 8.66 6 9.32 6 10 C4.02 10 2.04 10 0 10 C0 6.7 0 3.4 0 0 Z " fill="#A4A4A4" transform="translate(90,147)"/>
<path d="M0 0 C3.28220895 1.64110448 3.74570789 4.69322988 5 8 C5 8.99 5 9.98 5 11 C3.02 11 1.04 11 -1 11 C-0.34 9.35 0.32 7.7 1 6 C0.67 5.67 0.34 5.34 0 5 C-0.04063832 3.33382885 -0.042721 1.66611905 0 0 Z " fill="#11851F" transform="translate(137,130)"/>
<path d="M0 0 C0.66 0 1.32 0 2 0 C2.33 3.3 2.66 6.6 3 10 C2.01 10.33 1.02 10.66 0 11 C-0.99 10.01 -1.98 9.02 -3 8 C-2.690625 7.236875 -2.38125 6.47375 -2.0625 5.6875 C-1.32106407 3.81210323 -0.63771783 1.91315348 0 0 Z " fill="#107D1C" transform="translate(72,117)"/>
<path d="M0 0 C1.65 0 3.3 0 5 0 C2.29741037 4.05388445 -0.51042324 4.50347441 -5 6 C-8.1875 5.0625 -8.1875 5.0625 -11 4 C-11 3.34 -11 2.68 -11 2 C-7.37 2 -3.74 2 0 2 C0 1.34 0 0.68 0 0 Z " fill="#0FBD51" transform="translate(107,92)"/>
<path d="M0 0 C1.32 0 2.64 0 4 0 C4.33 2.97 4.66 5.94 5 9 C1 8 1 8 -0.3125 6.1875 C-1.10151327 3.67700322 -0.87324262 2.44507934 0 0 Z " fill="#DBD8DA" transform="translate(147,96)"/>
<path d="M0 0 C2.64 0 5.28 0 8 0 C8 1.32 8 2.64 8 4 C5.36 4.33 2.72 4.66 0 5 C0 3.35 0 1.7 0 0 Z " fill="#04821B" transform="translate(87,127)"/>
<path d="M0 0 C2.97 0 5.94 0 9 0 C10.26237731 2.52475462 10.09856404 4.31200466 10.0625 7.125 C10.05347656 8.03507813 10.04445313 8.94515625 10.03515625 9.8828125 C10.02355469 10.58148438 10.01195313 11.28015625 10 12 C9.67 12 9.34 12 9 12 C8.34 9.03 7.68 6.06 7 3 C4.69 2.67 2.38 2.34 0 2 C0 1.34 0 0.68 0 0 Z " fill="#E0DBDC" transform="translate(88,124)"/>
<path d="M0 0 C0 0.66 0 1.32 0 2 C2.31 2 4.62 2 7 2 C7 2.33 7 2.66 7 3 C4.37472811 3.05382106 1.75055287 3.09358313 -0.875 3.125 C-1.62136719 3.14175781 -2.36773437 3.15851563 -3.13671875 3.17578125 C-5.09194461 3.1933959 -7.04742021 3.10320189 -9 3 C-9.66 2.34 -10.32 1.68 -11 1 C-7.26562152 0.12132271 -3.83225427 -0.08912219 0 0 Z " fill="#828483" transform="translate(70,61)"/>
<path d="M0 0 C10.55808656 0.96355353 10.55808656 0.96355353 15 2 C15 2.33 15 2.66 15 3 C10.05 3 5.1 3 0 3 C0 2.01 0 1.02 0 0 Z M-3 3 C-1.68 3.33 -0.36 3.66 1 4 C-0.32 4.33 -1.64 4.66 -3 5 C-3 4.34 -3 3.68 -3 3 Z " fill="#1BBC5B" transform="translate(91,67)"/>
<path d="M0 0 C1.485 0.99 1.485 0.99 3 2 C3.1875 5.625 3.1875 5.625 3 9 C3.66 9.33 4.32 9.66 5 10 C3.35 10.66 1.7 11.32 0 12 C-0.19573608 10.56359829 -0.38127816 9.12580496 -0.5625 7.6875 C-0.66691406 6.88699219 -0.77132812 6.08648437 -0.87890625 5.26171875 C-1 3 -1 3 0 0 Z " fill="#DCDCDF" transform="translate(119,119)"/>
<path d="M0 0 C1.98 0 3.96 0 6 0 C6 0.99 6 1.98 6 3 C6.66 3.33 7.32 3.66 8 4 C7.67 4.99 7.34 5.98 7 7 C6.01 7 5.02 7 4 7 C0 2.65714286 0 2.65714286 0 0 Z " fill="#5C5B5E" transform="translate(35,46)"/>
<path d="M0 0 C1.98 0 3.96 0 6 0 C6.33 1.65 6.66 3.3 7 5 C5.02 5 3.04 5 1 5 C0.67 5.99 0.34 6.98 0 8 C0 5.36 0 2.72 0 0 Z " fill="#C9C9C9" transform="translate(168,148)"/>
<path d="M0 0 C0.66 0 1.32 0 2 0 C2.66 1.65 3.32 3.3 4 5 C3.34 4.67 2.68 4.34 2 4 C1.855625 5.11375 1.71125 6.2275 1.5625 7.375 C1 11 1 11 0 13 C-0.66 13 -1.32 13 -2 13 C-2 12.01 -2 11.02 -2 10 C-2.99 9.67 -3.98 9.34 -5 9 C-3.35 9 -1.7 9 0 9 C0 6.03 0 3.06 0 0 Z " fill="#C0DECF" transform="translate(107,133)"/>
<path d="M0 0 C0.66 1.32 1.32 2.64 2 4 C1.525625 4.433125 1.05125 4.86625 0.5625 5.3125 C-1.23686957 7.02309613 -1.23686957 7.02309613 -2 10 C-2.66 10 -3.32 10 -4 10 C-4 8.02 -4 6.04 -4 4 C-3.01 3.67 -2.02 3.34 -1 3 C-0.67 2.01 -0.34 1.02 0 0 Z " fill="#14892A" transform="translate(181,123)"/>
<path d="M0 0 C0.2475 0.61875 0.495 1.2375 0.75 1.875 C2.20628639 4.35068687 3.37812506 4.95125002 6 6 C5.34 7.65 4.68 9.3 4 11 C1.25722422 7.80009492 -0.6302836 4.99500618 -2 1 C-1.34 0.67 -0.68 0.34 0 0 Z " fill="#BBD7C7" transform="translate(61,121)"/>
<path d="M0 0 C0 1.32 0 2.64 0 4 C-0.66 4 -1.32 4 -2 4 C-2 4.66 -2 5.32 -2 6 C-4.31 5.67 -6.62 5.34 -9 5 C-6.3784932 1.13015663 -4.82784953 0 0 0 Z " fill="#737574" transform="translate(58,56)"/>
<path d="M0 0 C1.12758089 3.38274266 0.81750262 4.76778223 0.0625 8.1875 C-0.13214844 9.08855469 -0.32679687 9.98960937 -0.52734375 10.91796875 C-0.68332031 11.60503906 -0.83929688 12.29210937 -1 13 C0.32 13.33 1.64 13.66 3 14 C1.35 14 -0.3 14 -2 14 C-3.41564834 11.16870331 -3.24224495 9.14918438 -3 6 C-1.5 2.625 -1.5 2.625 0 0 Z " fill="#A7CEAE" transform="translate(52,128)"/>
<path d="M0 0 C1.98 0 3.96 0 6 0 C6 0.99 6 1.98 6 3 C4.35 3.33 2.7 3.66 1 4 C1 6.97 1 9.94 1 13 C0.67 13 0.34 13 0 13 C0 8.71 0 4.42 0 0 Z " fill="#B7D3C0" transform="translate(168,123)"/>
<path d="M0 0 C3.3 0 6.6 0 10 0 C8.68 0.99 7.36 1.98 6 3 C6 3.99 6 4.98 6 6 C2.21503862 4.48601545 1.9927802 3.9855604 0 0 Z " fill="#047F0E" transform="translate(32,68)"/>
<path d="M0 0 C0.66 0 1.32 0 2 0 C2.433125 1.36125 2.433125 1.36125 2.875 2.75 C3.76531776 5.32202908 4.71494413 7.61346766 6 10 C5.01 10.495 5.01 10.495 4 11 C2 10 2 10 0 8 C-0.36933645 5.24627091 -0.18336678 2.79634339 0 0 Z " fill="#626265" transform="translate(44,49)"/>
<path d="M0 0 C2.475 0.495 2.475 0.495 5 1 C4.67 2.65 4.34 4.3 4 6 C2.68 6 1.36 6 0 6 C0 4.02 0 2.04 0 0 Z " fill="#C9E1D1" transform="translate(107,122)"/>
<path d="M0 0 C0.66 0 1.32 0 2 0 C2 0.66 2 1.32 2 2 C2.99 2 3.98 2 5 2 C5.66 1.34 6.32 0.68 7 0 C7.6875 1.75 7.6875 1.75 8 4 C6.5625 6.25 6.5625 6.25 5 8 C4.16382818 6.8562364 3.33113541 5.70992861 2.5 4.5625 C2.0359375 3.92441406 1.571875 3.28632813 1.09375 2.62890625 C0 1 0 1 0 0 Z " fill="#B9D9C6" transform="translate(114,132)"/>
<path d="M0 0 C0.33 0 0.66 0 1 0 C1 1.98 1 3.96 1 6 C0.01 6.33 -0.98 6.66 -2 7 C-2 7.66 -2 8.32 -2 9 C-2.99 8.67 -3.98 8.34 -5 8 C-5 7.34 -5 6.68 -5 6 C-4.34 6 -3.68 6 -3 6 C-2.67 4.68 -2.34 3.36 -2 2 C-1.34 2 -0.68 2 0 2 C0 1.34 0 0.68 0 0 Z " fill="#037D0B" transform="translate(182,127)"/>
<path d="M0 0 C1.19882813 0.15275391 1.19882813 0.15275391 2.421875 0.30859375 C3.02515625 0.39238281 3.6284375 0.47617188 4.25 0.5625 C4.25 1.2225 4.25 1.8825 4.25 2.5625 C-0.04 2.5625 -4.33 2.5625 -8.75 2.5625 C-8.75 1.9025 -8.75 1.2425 -8.75 0.5625 C-5.62819599 -0.40411363 -3.22916205 -0.42738909 0 0 Z " fill="#A8D0BC" transform="translate(171.75,115.4375)"/>
<path d="M0 0 C2.50037734 2.17424117 3.43628586 3.73045798 4 7 C2.02 7 0.04 7 -2 7 C-1.125 2.25 -1.125 2.25 0 0 Z " fill="#AAD7B9" transform="translate(130,127)"/>
<path d="M0 0 C1.32 0.99 2.64 1.98 4 3 C4 2.01 4 1.02 4 0 C4.66 0.33 5.32 0.66 6 1 C5.01 2.98 4.02 4.96 3 7 C2.01 6.67 1.02 6.34 0 6 C-0.38218767 4.34385343 -0.71395102 2.67542976 -1 1 C-0.67 0.67 -0.34 0.34 0 0 Z " fill="#C9DACE" transform="translate(122,122)"/>
<path d="M0 0 C0.66 0.33 1.32 0.66 2 1 C2.40729228 3.32156597 2.74438677 5.6568787 3 8 C2.01 8 1.02 8 0 8 C-3 4.66666667 -3 4.66666667 -3 2 C-2.01 2 -1.02 2 0 2 C0 1.34 0 0.68 0 0 Z " fill="#C9E1D3" transform="translate(141,83)"/>
<path d="M0 0 C3.63 0 7.26 0 11 0 C8 2 8 2 4.375 2.5 C3.26125 2.665 2.1475 2.83 1 3 C0.67 3.66 0.34 4.32 0 5 C0 3.35 0 1.7 0 0 Z " fill="#717276" transform="translate(48,44)"/>
<path d="M0 0 C5.75 0.875 5.75 0.875 8 2 C7.67 2.99 7.34 3.98 7 5 C4.625 4.75 4.625 4.75 2 4 C0.6875 1.9375 0.6875 1.9375 0 0 Z " fill="#C8C8C8" transform="translate(129,151)"/>
<path d="M0 0 C2.64 0 5.28 0 8 0 C8 0.99 8 1.98 8 3 C5.36 3 2.72 3 0 3 C0 2.01 0 1.02 0 0 Z " fill="#D0D0D0" transform="translate(45,153)"/>
<path d="M0 0 C3 3.75 3 3.75 3 6 C1.02 6.33 -0.96 6.66 -3 7 C-3.1875 4.625 -3.1875 4.625 -3 2 C-2.01 1.34 -1.02 0.68 0 0 Z " fill="#D9D6DE" transform="translate(59,137)"/>
<path d="M0 0 C0.99 0.99 1.98 1.98 3 3 C2.67 3.66 2.34 4.32 2 5 C1.34 4.67 0.68 4.34 0 4 C0 5.65 0 7.3 0 9 C-1.32 7.35 -2.64 5.7 -4 4 C-3.01 3.67 -2.02 3.34 -1 3 C-0.67 2.01 -0.34 1.02 0 0 Z " fill="#128022" transform="translate(61,127)"/>
<path d="M0 0 C0.78375 0.04125 1.5675 0.0825 2.375 0.125 C1.385 0.62 1.385 0.62 0.375 1.125 C0.375 2.445 0.375 3.765 0.375 5.125 C-0.615 5.455 -1.605 5.785 -2.625 6.125 C-2.625 5.465 -2.625 4.805 -2.625 4.125 C-3.615 4.125 -4.605 4.125 -5.625 4.125 C-4.13829365 1.15158729 -3.39577812 0.16170372 0 0 Z " fill="#CCCCCC" transform="translate(104.625,153.875)"/>
<path d="M0 0 C0.99 1.485 0.99 1.485 2 3 C3.32 3 4.64 3 6 3 C6 4.32 6 5.64 6 7 C1.125 6.125 1.125 6.125 0 5 C-0.04063832 3.33382885 -0.042721 1.66611905 0 0 Z " fill="#CDCDCD" transform="translate(153,149)"/>
<path d="M0 0 C1.98 1.65 3.96 3.3 6 5 C5.67 6.32 5.34 7.64 5 9 C4.34 8.01 3.68 7.02 3 6 C2.01 6 1.02 6 0 6 C0 4.02 0 2.04 0 0 Z " fill="#0AA941" transform="translate(133,82)"/>
<path d="M0 0 C2.875 -0.125 2.875 -0.125 6 0 C6.66 0.66 7.32 1.32 8 2 C7.01 2.495 7.01 2.495 6 3 C6.33 3.66 6.66 4.32 7 5 C4.03 4.505 4.03 4.505 1 4 C0.67 2.68 0.34 1.36 0 0 Z " fill="#009115" transform="translate(39,73)"/>
<path d="M0 0 C0.99 0 1.98 0 3 0 C4 3 4 3 3 6 C2.01 6 1.02 6 0 6 C-1.125 2.25 -1.125 2.25 0 0 Z " fill="#A8A8A8" transform="translate(103,147)"/>
<path d="M0 0 C0.99 0.33 1.98 0.66 3 1 C2.67 1.66 2.34 2.32 2 3 C1.34 3 0.68 3 0 3 C0 4.65 0 6.3 0 8 C-1.32 6.35 -2.64 4.7 -4 3 C-2.1875 1.4375 -2.1875 1.4375 0 0 Z " fill="#C6C6C6" transform="translate(152,145)"/>
<path d="M0 0 C0.66 0.33 1.32 0.66 2 1 C2.59355614 3.64860427 2.74209269 6.29197322 3 9 C2.67 8.01 2.34 7.02 2 6 C1.01 6 0.02 6 -1 6 C-1.33 5.01 -1.66 4.02 -2 3 C-1.34 2.01 -0.68 1.02 0 0 Z " fill="#A7D3B7" transform="translate(70,132)"/>
<path d="M0 0 C2.46278801 2.46278801 2.99771255 4.70676982 4 8 C1.525 7.01 1.525 7.01 -1 6 C-0.67 4.02 -0.34 2.04 0 0 Z " fill="#02A329" transform="translate(139,90)"/>
<path d="M0 0 C1.5625 1.25 1.5625 1.25 3 3 C2.6875 5.1875 2.6875 5.1875 2 7 C1.01 7 0.02 7 -1 7 C-1.04254356 5.00045254 -1.04080783 2.99958364 -1 1 C-0.67 0.67 -0.34 0.34 0 0 Z " fill="#AEAEAE" transform="translate(83,146)"/>
<path d="M0 0 C0.33 0 0.66 0 1 0 C1.33 2.97 1.66 5.94 2 9 C0.68 9 -0.64 9 -2 9 C-1.34 6.03 -0.68 3.06 0 0 Z " fill="#0F881B" transform="translate(76,131)"/>
<path d="M0 0 C0.66 0.33 1.32 0.66 2 1 C1.43628586 4.26954202 0.50037734 5.82575883 -2 8 C-2.99 6.02 -3.98 4.04 -5 2 C-2.525 2.99 -2.525 2.99 0 4 C0 2.68 0 1.36 0 0 Z " fill="#168D2E" transform="translate(113,130)"/>
<path d="M0 0 C0.99 0 1.98 0 3 0 C3 0.66 3 1.32 3 2 C5.31 2 7.62 2 10 2 C10 2.33 10 2.66 10 3 C7.03 3 4.06 3 1 3 C0.67 4.32 0.34 5.64 0 7 C0 4.69 0 2.38 0 0 Z " fill="#35A356" transform="translate(38,120)"/>
<path d="M0 0 C0.33 0.66 0.66 1.32 1 2 C1.99 2 2.98 2 4 2 C4 1.34 4 0.68 4 0 C5.32 0.33 6.64 0.66 8 1 C7.67 1.66 7.34 2.32 7 3 C4.03 3 1.06 3 -2 3 C-2 2.34 -2 1.68 -2 1 C-1.34 0.67 -0.68 0.34 0 0 Z " fill="#D6D8D9" transform="translate(39,112)"/>
<path d="M0 0 C0.99 0.66 1.98 1.32 3 2 C3 2.99 3 3.98 3 5 C1.68 5.33 0.36 5.66 -1 6 C-1.625 4.125 -1.625 4.125 -2 2 C-1.34 1.34 -0.68 0.68 0 0 Z " fill="#D2DCD9" transform="translate(138,80)"/>
<path d="M0 0 C1.65 0.33 3.3 0.66 5 1 C5 1.99 5 2.98 5 4 C4.01 4.33 3.02 4.66 2 5 C1.34 4.34 0.68 3.68 0 3 C0 2.01 0 1.02 0 0 Z " fill="#D8D8D8" transform="translate(143,148)"/>
<path d="M0 0 C2.0625 1.75 2.0625 1.75 4 4 C3.75 6.25 3.75 6.25 3 8 C1.5 6.8125 1.5 6.8125 0 5 C-0.1875 2.3125 -0.1875 2.3125 0 0 Z " fill="#DDD4DD" transform="translate(108,136)"/>
<path d="M0 0 C0.33 0.66 0.66 1.32 1 2 C1.99 2.33 2.98 2.66 4 3 C3.01 3.99 2.02 4.98 1 6 C1 5.34 1 4.68 1 4 C0.34 4 -0.32 4 -1 4 C-1 4.66 -1 5.32 -1 6 C-1.66 5.67 -2.32 5.34 -3 5 C-2.01 3.35 -1.02 1.7 0 0 Z " fill="#C2DDCB" transform="translate(68,136)"/>
<path d="M0 0 C-0.33 0.99 -0.66 1.98 -1 3 C-3.92879371 2.37240135 -6.36095629 1.41377341 -9 0 C-5.62182575 -0.84454356 -3.32534757 -1.10844919 0 0 Z " fill="#0E831C" transform="translate(177,136)"/>
<path d="M0 0 C0.33 0 0.66 0 1 0 C1 1.65 1 3.3 1 5 C1.99 4.67 2.98 4.34 4 4 C4 5.65 4 7.3 4 9 C1.525 8.01 1.525 8.01 -1 7 C-0.67 4.69 -0.34 2.38 0 0 Z " fill="#0D781D" transform="translate(53,126)"/>
<path d="M0 0 C0 1.98 0 3.96 0 6 C-1.98 4.68 -3.96 3.36 -6 2 C-3 0 -3 0 0 0 Z " fill="#C2DCCB" transform="translate(182,117)"/>
<path d="M0 0 C2.64 0.66 5.28 1.32 8 2 C7.67 2.66 7.34 3.32 7 4 C5.02 4 3.04 4 1 4 C0.67 2.68 0.34 1.36 0 0 Z " fill="#0AB551" transform="translate(112,93)"/>
<path d="M0 0 C6.0546875 -0.1953125 6.0546875 -0.1953125 8 0 C8.66 0.66 9.32 1.32 10 2 C5.94568308 3.15837626 3.78187881 2.83691257 0 1 C0 0.67 0 0.34 0 0 Z " fill="#0FA844" transform="translate(48,82)"/>
<path d="M0 0 C0.99 0.495 0.99 0.495 2 1 C2 2.65 2 4.3 2 6 C4.475 6.99 4.475 6.99 7 8 C7 8.33 7 8.66 7 9 C5.00045254 9.04254356 2.99958364 9.04080783 1 9 C0 8 0 8 -0.09765625 6.15234375 C-0.06510417 4.1015625 -0.03255208 2.05078125 0 0 Z " fill="#7B7B7B" transform="translate(152,148)"/>
<path d="M0 0 C1.32 1.65 2.64 3.3 4 5 C3.01 6.485 3.01 6.485 2 8 C1.34 7.01 0.68 6.02 0 5 C-0.99 5.495 -0.99 5.495 -2 6 C-1.34 4.02 -0.68 2.04 0 0 Z " fill="#1C892C" transform="translate(122,133)"/>
<path d="M0 0 C1.98 0.66 3.96 1.32 6 2 C6 2.99 6 3.98 6 5 C4.02 4.34 2.04 3.68 0 3 C0 2.01 0 1.02 0 0 Z " fill="#16AC4B" transform="translate(129,91)"/>
<path d="M0 0 C0 0.66 0 1.32 0 2 C-0.66 2 -1.32 2 -2 2 C-2.33 2.66 -2.66 3.32 -3 4 C-4.32 2.68 -5.64 1.36 -7 0 C-4.3333581 -1.33332095 -2.83319697 -0.67102033 0 0 Z " fill="#CAE8DA" transform="translate(136,78)"/>
<path d="M0 0 C2.475 0.99 2.475 0.99 5 2 C5 2.66 5 3.32 5 4 C4.401875 3.79375 3.80375 3.5875 3.1875 3.375 C0.71549154 2.69328085 0.71549154 2.69328085 -2 5 C-1.125 1.125 -1.125 1.125 0 0 Z " fill="#242424" transform="translate(113,52)"/>
<path d="M0 0 C2.15377564 2.62198774 3.40072174 4.64404172 4 8 C2.68 8 1.36 8 0 8 C0 5.36 0 2.72 0 0 Z " fill="#C0C0C0" transform="translate(116,148)"/>
<path d="M0 0 C1.32 0 2.64 0 4 0 C3.67 1.65 3.34 3.3 3 5 C2.01 4.67 1.02 4.34 0 4 C0 2.68 0 1.36 0 0 Z " fill="#D8D8D8" transform="translate(154,148)"/>
<path d="M0 0 C1.65 0 3.3 0 5 0 C5 0.99 5 1.98 5 3 C3.02 3 1.04 3 -1 3 C-0.67 2.01 -0.34 1.02 0 0 Z " fill="#047D07" transform="translate(40,128)"/>
</svg>
