<?xml version="1.0" encoding="UTF-8"?>
<svg version="1.1" xmlns="http://www.w3.org/2000/svg" width="240" height="210">
<path d="M0 0 C79.2 0 158.4 0 240 0 C240 69.3 240 138.6 240 210 C160.8 210 81.6 210 0 210 C0 140.7 0 71.4 0 0 Z " fill="#FCFCFC" transform="translate(0,0)"/>
<path d="M0 0 C2.86419664 2.11898711 4.41232771 4.82465542 6 8 C6 10.31 6 12.62 6 15 C0.06 15 -5.88 15 -12 15 C-10.5 19 -10.5 19 -8 20 C-2.39296787 20.21377721 -2.39296787 20.21377721 3 19 C3.66 20.32 4.32 21.64 5 23 C1.08284944 26.03263269 -2.05803098 26.4802922 -6.85546875 26.2734375 C-10.02676766 25.86908245 -11.62633763 25.1702056 -14 23 C-16.95447171 18.5974484 -18.93461032 14.37400933 -18 9 C-13.7196962 1.20373237 -8.85598554 -1.81991936 0 0 Z " fill="#1C6716" transform="translate(65,79)"/>
<path d="M0 0 C2.475 0.495 2.475 0.495 5 1 C5.66 0.67 6.32 0.34 7 0 C13.53333333 -0.23333333 13.53333333 -0.23333333 16 1 C16 1.66 16 2.32 16 3 C16.495 2.505 16.99 2.01 17.5 1.5 C20.87783744 -0.52670246 24.15106474 -0.95471636 28 0 C30.234375 1.35546875 30.234375 1.35546875 32 4 C32.49214375 7.59517124 32.37532223 11.13011567 32.25 14.75 C32.23195312 15.73355469 32.21390625 16.71710938 32.1953125 17.73046875 C32.14824126 20.15463783 32.08250742 22.57682059 32 25 C30.68 25 29.36 25 28 25 C27.505 15.1 27.505 15.1 27 5 C25.02 5 23.04 5 21 5 C18.64641749 7.35358251 18.72128096 7.92968394 18.5859375 11.1328125 C18.54726562 11.93847656 18.50859375 12.74414062 18.46875 13.57421875 C18.42234375 14.83685547 18.42234375 14.83685547 18.375 16.125 C18.33632812 16.97449219 18.29765625 17.82398437 18.2578125 18.69921875 C18.16343506 20.79911684 18.08062414 22.89952891 18 25 C16.68 25 15.36 25 14 25 C13.67 18.4 13.34 11.8 13 5 C11.02 5 9.04 5 7 5 C5.45049732 6.54950268 5.78344807 8.09990594 5.68359375 10.25390625 C5.64169922 11.10791016 5.59980469 11.96191406 5.55664062 12.84179688 C5.49766602 14.18854492 5.49766602 14.18854492 5.4375 15.5625 C5.39431641 16.46419922 5.35113281 17.36589844 5.30664062 18.29492188 C5.20021858 20.52978485 5.09820012 22.76476308 5 25 C3.35 25 1.7 25 0 25 C0 16.75 0 8.5 0 0 Z " fill="#13630F" transform="translate(77,79)"/>
<path d="M0 0 C1.216875 0.12375 2.43375 0.2475 3.6875 0.375 C3.6875 1.695 3.6875 3.015 3.6875 4.375 C1.7075 4.705 -0.2725 5.035 -2.3125 5.375 C-2.9725 8.015 -3.6325 10.655 -4.3125 13.375 C-1.6725 13.375 0.9675 13.375 3.6875 13.375 C3.6875 15.025 3.6875 16.675 3.6875 18.375 C1.0475 18.375 -1.5925 18.375 -4.3125 18.375 C-4.3125 25.305 -4.3125 32.235 -4.3125 39.375 C-5.9625 39.375 -7.6125 39.375 -9.3125 39.375 C-9.3125 32.445 -9.3125 25.515 -9.3125 18.375 C-10.6325 18.375 -11.9525 18.375 -13.3125 18.375 C-13.3125 17.055 -13.3125 15.735 -13.3125 14.375 C-11.9925 14.045 -10.6725 13.715 -9.3125 13.375 C-9.415625 12.34375 -9.51875 11.3125 -9.625 10.25 C-9.12764653 4.08281698 -6.44475681 0.01144717 0 0 Z " fill="#266C21" transform="translate(128.3125,65.625)"/>
<path d="M0 0 C3.63 0 7.26 0 11 0 C11 8.25 11 16.5 11 25 C5.59552487 23.91910497 4.49533798 22.98080159 1 19 C-0.65497356 15.69005287 -0.10084335 12.00877 -0.0625 8.375 C-0.05798828 7.57320313 -0.05347656 6.77140625 -0.04882812 5.9453125 C-0.03703168 3.96350994 -0.01909605 1.98174567 0 0 Z " fill="#196513" transform="translate(143,81)"/>
<path d="M0 0 C3.63 0 7.26 0 11 0 C11.0816082 2.37570543 11.14077222 4.74855841 11.1875 7.125 C11.21263672 7.79015625 11.23777344 8.4553125 11.26367188 9.140625 C11.33330395 13.8756064 10.47025426 16.97684319 8 21 C5.23002009 23.59127153 3.81466271 24.04633432 0 25 C0 16.75 0 8.5 0 0 Z " fill="#1C6617" transform="translate(165,81)"/>
<path d="M0 0 C2.97 0.495 2.97 0.495 6 1 C6.5625 2.9375 6.5625 2.9375 7 5 C6.67 5.33 6.34 5.66 6 6 C5.84379445 7.41327947 5.74943827 8.8335459 5.68359375 10.25390625 C5.64169922 11.10791016 5.59980469 11.96191406 5.55664062 12.84179688 C5.49766602 14.18854492 5.49766602 14.18854492 5.4375 15.5625 C5.39431641 16.46419922 5.35113281 17.36589844 5.30664062 18.29492188 C5.20021858 20.52978485 5.09820012 22.76476308 5 25 C3.35 25 1.7 25 0 25 C0 16.75 0 8.5 0 0 Z " fill="#266D1F" transform="translate(77,79)"/>
<path d="M0 0 C3.96 0 7.92 0 12 0 C12 3.3 12 6.6 12 10 C8.04 10 4.08 10 0 10 C0 6.7 0 3.4 0 0 Z " fill="#21681B" transform="translate(164,64)"/>
<path d="M0 0 C3.96 0 7.92 0 12 0 C12 3.3 12 6.6 12 10 C8.04 10 4.08 10 0 10 C0 6.7 0 3.4 0 0 Z " fill="#14610F" transform="translate(142,64)"/>
<path d="M0 0 C3.125 0.375 3.125 0.375 6 1 C6.625 4.375 6.625 4.375 7 8 C5 10 5 10 2 10.3125 C1.01 10.209375 0.02 10.10625 -1 10 C-3 7 -3 7 -2.75 4.4375 C-2 2 -2 2 0 0 Z " fill="#20681A" transform="translate(167,52)"/>
<path d="M0 0 C2.4375 0.75 2.4375 0.75 4.4375 2.75 C4.0625 5.875 4.0625 5.875 3.4375 8.75 C0.0625 9.375 0.0625 9.375 -3.5625 9.75 C-5.5625 7.75 -5.5625 7.75 -5.875 4.75 C-5.771875 3.76 -5.66875 2.77 -5.5625 1.75 C-2.5625 -0.25 -2.5625 -0.25 0 0 Z " fill="#22691C" transform="translate(149.5625,52.25)"/>
<path d="M0 0 C2.375 0.6875 2.375 0.6875 3.375 1.6875 C3.41592937 4.02047433 3.41741723 6.35455225 3.375 8.6875 C0 9.3125 0 9.3125 -3.625 9.6875 C-5.625 7.6875 -5.625 7.6875 -5.9375 4.6875 C-5.834375 3.6975 -5.73125 2.7075 -5.625 1.6875 C-2.625 -0.3125 -2.625 -0.3125 0 0 Z " fill="#1D6717" transform="translate(159.625,42.3125)"/>
<path d="M0 0 C3.4375 0.8125 3.4375 0.8125 5.4375 3.8125 C5.4375 4.8025 5.4375 5.7925 5.4375 6.8125 C1.1475 6.8125 -3.1425 6.8125 -7.5625 6.8125 C-7.2325 5.1625 -6.9025 3.5125 -6.5625 1.8125 C-3.5625 -0.1875 -3.5625 -0.1875 0 0 Z " fill="#E2E9E2" transform="translate(60.5625,83.1875)"/>
<path d="M0 0 C1.32 0.66 2.64 1.32 4 2 C3.67 3.65 3.34 5.3 3 7 C1.35 6.67 -0.3 6.34 -2 6 C-1.125 1.125 -1.125 1.125 0 0 Z " fill="#8F8F8F" transform="translate(139,114)"/>
<path d="M0 0 C2.475 0.495 2.475 0.495 5 1 C5 2.65 5 4.3 5 6 C3.35 6.33 1.7 6.66 0 7 C0 4.69 0 2.38 0 0 Z " fill="#868686" transform="translate(118,114)"/>
<path d="M0 0 C1.32 0.33 2.64 0.66 4 1 C4.33 2.65 4.66 4.3 5 6 C3.35 6.33 1.7 6.66 0 7 C0 4.69 0 2.38 0 0 Z " fill="#8F8F8F" transform="translate(65,114)"/>
<path d="M0 0 C2.31 0 4.62 0 7 0 C7 0.99 7 1.98 7 3 C3.71023192 4.09658936 2.28696233 3.79953138 -1 3 C-0.67 2.01 -0.34 1.02 0 0 Z " fill="#A8A8A8" transform="translate(116,139)"/>
<path d="M0 0 C0.66 0 1.32 0 2 0 C2.66 1.98 3.32 3.96 4 6 C3.34 6 2.68 6 2 6 C2 5.34 2 4.68 2 4 C1.01 4 0.02 4 -1 4 C-1 4.66 -1 5.32 -1 6 C-1.66 5.67 -2.32 5.34 -3 5 C-1.625 2.5 -1.625 2.5 0 0 Z " fill="#595959" transform="translate(88,115)"/>
<path d="M0 0 C1.98 0 3.96 0 6 0 C5.67 0.99 5.34 1.98 5 3 C3.02 3 1.04 3 -1 3 C-0.67 2.01 -0.34 1.02 0 0 Z " fill="#A4A4A4" transform="translate(156,139)"/>
<path d="M0 0 C1.98 0 3.96 0 6 0 C6 0.99 6 1.98 6 3 C4.35 3 2.7 3 1 3 C0.67 2.01 0.34 1.02 0 0 Z " fill="#FFD2AE" transform="translate(83,127)"/>
</svg>
