<?xml version="1.0" encoding="UTF-8"?>
<svg version="1.1" xmlns="http://www.w3.org/2000/svg" width="318" height="159">
<path d="M0 0 C104.94 0 209.88 0 318 0 C318 52.47 318 104.94 318 159 C213.06 159 108.12 159 0 159 C0 106.53 0 54.06 0 0 Z " fill="#FEFEFE" transform="translate(0,0)"/>
<path d="M0 0 C13.0055448 9.59352794 22.70894797 23.38321913 25.66796875 39.44140625 C26.77571236 49.9377995 26.45258373 60.51293578 22.66796875 70.44140625 C22.40113281 71.26382813 22.13429688 72.08625 21.859375 72.93359375 C16.81985784 87.31301605 5.85790319 98.30499489 -7.33203125 105.44140625 C-23.5284917 112.53699845 -40.00281143 114.07108043 -56.70703125 107.921875 C-72.38955357 101.51705177 -83.63023695 91.42765996 -90.9375 76.06640625 C-97.98157576 58.54917385 -98.16800618 41.38892194 -90.859375 23.921875 C-82.95874151 8.17664089 -70.4458636 -2.32656264 -54.20703125 -8.62109375 C-35.77515045 -14.14490402 -15.91599152 -10.63732097 0 0 Z " fill="#8DBDE5" transform="translate(194.33203125,15.55859375)"/>
<path d="M0 0 C13.0055448 9.59352794 22.70894797 23.38321913 25.66796875 39.44140625 C26.77571236 49.9377995 26.45258373 60.51293578 22.66796875 70.44140625 C22.40113281 71.26382813 22.13429688 72.08625 21.859375 72.93359375 C16.81985784 87.31301605 5.85790319 98.30499489 -7.33203125 105.44140625 C-23.5284917 112.53699845 -40.00281143 114.07108043 -56.70703125 107.921875 C-72.38955357 101.51705177 -83.63023695 91.42765996 -90.9375 76.06640625 C-97.98157576 58.54917385 -98.16800618 41.38892194 -90.859375 23.921875 C-82.95874151 8.17664089 -70.4458636 -2.32656264 -54.20703125 -8.62109375 C-35.77515045 -14.14490402 -15.91599152 -10.63732097 0 0 Z M-77.20703125 13.62890625 C-79.53297561 16.11985833 -79.53297561 16.11985833 -79.33203125 18.44140625 C-79.99203125 18.44140625 -80.65203125 18.44140625 -81.33203125 18.44140625 C-87.73931123 29.79888498 -87.73931123 29.79888498 -89.33203125 42.44140625 C-85.79538051 47.84512133 -81.40028197 52.16581223 -75.33203125 54.44140625 C-77.52042393 54.44140625 -79.70916331 54.36892562 -81.89453125 54.25390625 C-83.02890625 54.31578125 -84.16328125 54.37765625 -85.33203125 54.44140625 C-87.53305029 57.27552469 -87.53305029 57.27552469 -87.76953125 60.50390625 C-87.95515625 61.47328125 -88.14078125 62.44265625 -88.33203125 63.44140625 C-89.81703125 64.43140625 -89.81703125 64.43140625 -91.33203125 65.44140625 C-90.24134457 69.21686013 -89.42372215 71.91184097 -86.33203125 74.44140625 C-86.33203125 73.78140625 -86.33203125 73.12140625 -86.33203125 72.44140625 C-84.87280432 72.55550218 -83.41462527 72.68306169 -81.95703125 72.81640625 C-81.14492187 72.88601562 -80.3328125 72.955625 -79.49609375 73.02734375 C-77.33203125 73.44140625 -77.33203125 73.44140625 -75.33203125 75.44140625 C-76.32203125 75.93640625 -76.32203125 75.93640625 -77.33203125 76.44140625 C-77.33203125 77.43140625 -77.33203125 78.42140625 -77.33203125 79.44140625 C-78.98203125 79.11140625 -80.63203125 78.78140625 -82.33203125 78.44140625 C-78.21323871 87.84959553 -68.79302972 96.09764489 -59.51953125 100.31640625 C-56.42390347 101.60781631 -56.42390347 101.60781631 -53.33203125 101.44140625 C-53.33203125 102.10140625 -53.33203125 102.76140625 -53.33203125 103.44140625 C-38.86176069 107.72889382 -22.76600941 106.61877263 -9.24609375 99.91015625 C-6.818692 98.52306954 -4.50847254 97.19660084 -2.33203125 95.44140625 C-2.33203125 94.78140625 -2.33203125 94.12140625 -2.33203125 93.44140625 C-1.65140625 93.27640625 -0.97078125 93.11140625 -0.26953125 92.94140625 C4.138839 90.69032357 6.69873011 87.33726378 9.66796875 83.44140625 C10.18230469 82.78140625 10.69664062 82.12140625 11.2265625 81.44140625 C15.69380242 74.75952898 15.7229983 67.2134573 14.66796875 59.44140625 C12.09125038 54.14688119 8.31191665 50.7633802 3.04296875 48.12890625 C-3.53762284 46.78841537 -10.3108573 46.23094628 -16.33203125 49.44140625 C-18.33203125 49.6796875 -18.33203125 49.6796875 -20.33203125 49.75390625 C-23.66200216 50.10116579 -24.19081161 50.30742865 -26.76953125 52.75390625 C-28.15372207 55.13471446 -28.71988676 56.81792987 -29.33203125 59.44140625 C-30.312235 60.46081815 -31.31006133 61.46386981 -32.33203125 62.44140625 C-32.33203125 63.10140625 -32.33203125 63.76140625 -32.33203125 64.44140625 C-32.99203125 64.44140625 -33.65203125 64.44140625 -34.33203125 64.44140625 C-33.01203125 62.13140625 -31.69203125 59.82140625 -30.33203125 57.44140625 C-31.65203125 57.11140625 -32.97203125 56.78140625 -34.33203125 56.44140625 C-34.22503906 55.75433594 -34.11804688 55.06726563 -34.0078125 54.359375 C-33.88792969 53.45832031 -33.76804688 52.55726562 -33.64453125 51.62890625 C-33.51691406 50.73558594 -33.38929688 49.84226563 -33.2578125 48.921875 C-33.07037091 46.37448777 -33.07037091 46.37448777 -34.828125 44.73828125 C-35.32441406 44.3103125 -35.82070312 43.88234375 -36.33203125 43.44140625 C-36.08203125 41.50390625 -36.08203125 41.50390625 -35.33203125 39.44140625 C-34.77451197 37.33522229 -34.33203125 35.62256089 -34.33203125 33.44140625 C-33.34203125 32.78140625 -32.35203125 32.12140625 -31.33203125 31.44140625 C-31.66203125 30.45140625 -31.99203125 29.46140625 -32.33203125 28.44140625 C-30.35203125 28.44140625 -28.37203125 28.44140625 -26.33203125 28.44140625 C-26.66203125 27.45140625 -26.99203125 26.46140625 -27.33203125 25.44140625 C-27.99203125 25.11140625 -28.65203125 24.78140625 -29.33203125 24.44140625 C-15.3624056 16.82161044 -3.53679588 17.76071395 11.66796875 21.44140625 C11.66796875 20.78140625 11.66796875 20.12140625 11.66796875 19.44140625 C11.00796875 19.44140625 10.34796875 19.44140625 9.66796875 19.44140625 C9.27351563 18.32185547 9.27351563 18.32185547 8.87109375 17.1796875 C4.85421216 8.03736934 -5.52816416 2.31868915 -14.33203125 -1.55859375 C-21.12459943 -4.14770856 -27.39920348 -5.08096047 -34.64453125 -4.99609375 C-35.55952393 -4.98852051 -36.4745166 -4.98094727 -37.41723633 -4.97314453 C-52.96489402 -4.59717964 -66.95345819 1.833013 -77.20703125 13.62890625 Z " fill="#2065AB" transform="translate(194.33203125,15.55859375)"/>
<path d="M0 0 C9.2199327 7.84224161 9.2199327 7.84224161 10 13 C10.66 13 11.32 13 12 13 C12 13.66 12 14.32 12 15 C11.10539062 14.7834375 10.21078125 14.566875 9.2890625 14.34375 C-3.88412141 11.31026629 -16.44386049 10.24248092 -28.625 17.375 C-34.62211495 21.72073547 -38.67741598 28.08450395 -43 34 C-48.57251052 41.45821907 -55.10352042 46.03450681 -64 49 C-71.41304572 49.75643324 -77.70133361 47.67360063 -83.453125 43.01171875 C-87.05165563 39.36915016 -88.91952605 37.26746472 -89.25 32.0625 C-88.7578125 30.10546875 -88.7578125 30.10546875 -88 28 C-87.70867187 27.17113281 -87.41734375 26.34226563 -87.1171875 25.48828125 C-85.3566568 20.85129292 -83.30902802 16.38715323 -81 12 C-80.34 12 -79.68 12 -79 12 C-78.7525 11.443125 -78.505 10.88625 -78.25 10.3125 C-72.46268804 -0.39402712 -60.54486208 -6.67971815 -49.265625 -10.1484375 C-31.66140782 -14.22766731 -14.61146917 -10.2761981 0 0 Z " fill="#A5CCEB" transform="translate(194,22)"/>
<path d="M0 0 C1.9375 0.3125 1.9375 0.3125 4 1 C4.495 2.485 4.495 2.485 5 4 C3.02 4 1.04 4 -1 4 C-0.505 5.98 -0.505 5.98 0 8 C-1.98 8.99 -1.98 8.99 -4 10 C-3.505 12.475 -3.505 12.475 -3 15 C-3.66 15.33 -4.32 15.66 -5 16 C-5 16.99 -5 17.98 -5 19 C-4.49855469 19.44988281 -3.99710938 19.89976563 -3.48046875 20.36328125 C-2 22 -2 22 -1.92578125 24.48046875 C-2.11720703 25.82044922 -2.11720703 25.82044922 -2.3125 27.1875 C-2.43238281 28.08855469 -2.55226562 28.98960938 -2.67578125 29.91796875 C-2.78277344 30.60503906 -2.88976562 31.29210937 -3 32 C-1.68 32.33 -0.36 32.66 1 33 C-0.32 35.31 -1.64 37.62 -3 40 C-2.34 40 -1.68 40 -1 40 C-0.814375 39.0409375 -0.814375 39.0409375 -0.625 38.0625 C-0.41875 37.381875 -0.2125 36.70125 0 36 C0.66 35.67 1.32 35.34 2 35 C2.474375 33.865625 2.94875 32.73125 3.4375 31.5625 C5 28 5 28 8 26 C10.1875 25.375 10.1875 25.375 12 25 C12 29.31618166 9.86729652 30.92789659 7 34 C6.34 34 5.68 34 5 34 C4.67 35.32 4.34 36.64 4 38 C3.34 38 2.68 38 2 38 C1.71125 38.78375 1.4225 39.5675 1.125 40.375 C0 43 0 43 -2 45 C-2.19142578 45.96679688 -2.19142578 45.96679688 -2.38671875 46.953125 C-3.20884411 49.69703385 -4.38980718 50.29368744 -6.8125 51.75 C-7.49957031 52.17796875 -8.18664062 52.6059375 -8.89453125 53.046875 C-11 54 -11 54 -15 54 C-15 54.66 -15 55.32 -15 56 C-24.4168794 57.84064658 -33.53342835 59.11685412 -43 57 C-43 56.34 -43 55.68 -43 55 C-43.66 55 -44.32 55 -45 55 C-45.33 53.68 -45.66 52.36 -46 51 C-45.34 51 -44.68 51 -44 51 C-46.39763185 48.60236815 -47.33273498 48.65719414 -50.625 48.375 C-51.44226563 48.30023438 -52.25953125 48.22546875 -53.1015625 48.1484375 C-53.72804688 48.09945312 -54.35453125 48.05046875 -55 48 C-55.33 48.66 -55.66 49.32 -56 50 C-59.22265625 44.82421875 -59.22265625 44.82421875 -60 43 C-59.67 42.01 -59.34 41.02 -59 40 C-58.01 39.505 -58.01 39.505 -57 39 C-56.2833793 36.68152126 -55.61757973 34.34680297 -55 32 C-54.67 31.34 -54.34 30.68 -54 30 C-46.25 29.875 -46.25 29.875 -44 31 C-43.443125 30.855625 -42.88625 30.71125 -42.3125 30.5625 C-40 30 -40 30 -36.8125 30.1875 C-29.41899264 29.82388488 -21.7066477 25.80628877 -16.546875 20.5078125 C-13.07477797 16.54231221 -9.89564998 12.32985464 -6.6796875 8.15625 C-4.51722361 5.38024985 -2.27281706 2.68605653 0 0 Z " fill="#7690C7" transform="translate(163,40)"/>
<path d="M0 0 C2.35098257 3.52647386 2.38204378 5.73065672 2.65625 9.84375 C2.89274238 12.29063757 2.89274238 12.29063757 5 15 C5.66 14.01 6.32 13.02 7 12 C7.66 12 8.32 12 9 12 C9.39480778 13.53671335 9.76490538 15.07978384 10.125 16.625 C10.33382812 17.48351562 10.54265625 18.34203125 10.7578125 19.2265625 C11.05752213 22.65872115 10.17233899 24.76814657 9 28 C8.36773747 30.77550208 7.87165802 33.57242977 7.375 36.375 C7.2409375 37.11105469 7.106875 37.84710938 6.96875 38.60546875 C6.64193673 40.40294172 6.32041989 42.20137633 6 44 C5.67 44 5.34 44 5 44 C4.67 42.35 4.34 40.7 4 39 C3.34 39 2.68 39 2 39 C1.566875 38.2575 1.13375 37.515 0.6875 36.75 C-1.71763382 32.83052266 -4.45295067 30.75465821 -8.5625 28.75 C-15.13775905 27.31539803 -21.96949897 26.77873858 -28 30 C-30.03515625 30.2734375 -30.03515625 30.2734375 -32.0625 30.375 C-35.93641769 30.6136354 -35.93641769 30.6136354 -37.875 32.75 C-39.06336536 35.12673072 -40.09742712 37.50056741 -41 40 C-41.66 40 -42.32 40 -43 40 C-43.33 41.32 -43.66 42.64 -44 44 C-44.66 44 -45.32 44 -46 44 C-44.125 39.25 -44.125 39.25 -43 37 C-43.99 36.67 -44.98 36.34 -46 36 C-46 32.04 -46 28.08 -46 24 C-46.99 23.67 -47.98 23.34 -49 23 C-48.45276317 19.62537285 -47.9451 17.91765 -46 15 C-46.66 14.67 -47.32 14.34 -48 14 C-44.34782609 8.95652174 -44.34782609 8.95652174 -42 7 C-41.01 7 -40.02 7 -39 7 C-39 6.34 -39 5.68 -39 5 C-39.99 4.67 -40.98 4.34 -42 4 C-30.27776499 -5.44291154 -13.57700479 -4.43442495 0 0 Z " fill="#3E71B4" transform="translate(206,36)"/>
<path d="M0 0 C16.19942102 0.14210018 31.01502112 7.15149787 42.44140625 18.41015625 C54.39242196 31.26826992 60.05428247 45.73873311 59.77001953 63.16699219 C59.52195988 69.55730496 58.59925473 75.3134811 56.3125 81.3125 C56.04566406 82.13492188 55.77882813 82.95734375 55.50390625 83.8046875 C50.46048573 98.19524738 39.50058826 109.15933773 26.3125 116.3125 C20.06826045 119.12453169 14.13479903 120.79760951 7.3125 121.3125 C7.8075 120.69375 8.3025 120.075 8.8125 119.4375 C10.50472773 117.47369096 10.50472773 117.47369096 10.3125 115.3125 C11.16972656 114.99796875 12.02695313 114.6834375 12.91015625 114.359375 C24.06903994 110.42399459 24.06903994 110.42399459 33.3125 103.3125 C34.67375 102.3225 34.67375 102.3225 36.0625 101.3125 C41.08838051 97.21873768 44.44291403 91.05167194 47.3125 85.3125 C47.5447646 82.59987884 47.73186235 79.90476874 47.875 77.1875 C47.93977539 76.05634766 47.93977539 76.05634766 48.00585938 74.90234375 C48.1119832 73.03928112 48.21275001 71.17591476 48.3125 69.3125 C49.3025 70.3025 50.2925 71.2925 51.3125 72.3125 C51.51746094 71.13171875 51.72242188 69.9509375 51.93359375 68.734375 C52.20565305 67.17707003 52.47779268 65.6197791 52.75 64.0625 C52.88470703 63.28519531 53.01941406 62.50789063 53.15820312 61.70703125 C53.29033203 60.95292969 53.42246094 60.19882813 53.55859375 59.421875 C53.73926392 58.38498535 53.73926392 58.38498535 53.92358398 57.32714844 C54.19172179 55.93815083 54.50958831 54.55815143 54.8671875 53.18945312 C55.39261444 50.97482467 55.21143206 49.30538037 54.875 47.0625 C54.689375 45.825 54.50375 44.5875 54.3125 43.3125 C52.6625 44.6325 51.0125 45.9525 49.3125 47.3125 C46.84394598 43.60966896 47.3125 41.69364761 47.3125 37.3125 C46.29569508 33.24528031 45.26475137 31.16491678 42.3125 28.3125 C41.28949774 27.06427443 40.26882974 25.81413359 39.25 24.5625 C27.31149007 10.9506006 10.96273283 6.73027519 -6.4140625 5.4609375 C-7.16429687 5.41195313 -7.91453125 5.36296875 -8.6875 5.3125 C-7.3675 4.9825 -6.0475 4.6525 -4.6875 4.3125 C-4.6875 3.6525 -4.6875 2.9925 -4.6875 2.3125 C-5.3475 1.9825 -6.0075 1.6525 -6.6875 1.3125 C-4.90471136 -0.47028864 -2.41706183 0.05539707 0 0 Z " fill="#285F9F" transform="translate(160.6875,4.6875)"/>
<path d="M0 0 C3.63 0 7.26 0 11 0 C10.67 2.31 10.34 4.62 10 7 C10.66 7.33 11.32 7.66 12 8 C6.25 7.125 6.25 7.125 4 6 C11.7245422 16.60187884 20.25300999 25.04594453 33 29 C33 29.66 33 30.32 33 31 C39.73184413 31.87686585 46.2785368 32.12387197 53.0625 32.0625 C54.50399414 32.05573242 54.50399414 32.05573242 55.97460938 32.04882812 C58.31647422 32.03717706 60.65820181 32.02082025 63 32 C63.495 33.98 63.495 33.98 64 36 C62.68 36.33 61.36 36.66 60 37 C60 37.66 60 38.32 60 39 C41.42751237 39.96731706 25.16158842 36.5518134 10.375 24.4375 C6.79208468 21.05001643 3.69815951 17.37796961 0.75 13.4375 C-0.03890625 12.38433594 -0.8278125 11.33117187 -1.640625 10.24609375 C-3 7 -3 7 -2.56054688 5.03955078 C-1.734375 3.09765625 -1.734375 3.09765625 0 0 Z " fill="#3269A8" transform="translate(108,88)"/>
<path d="M0 0 C2.14376674 -0.71458891 3.41224417 -1.41224417 5 -3 C6.51928038 -3.07179964 8.04167482 -3.08392007 9.5625 -3.0625 C10.38878906 -3.05347656 11.21507812 -3.04445312 12.06640625 -3.03515625 C12.70449219 -3.02355469 13.34257812 -3.01195312 14 -3 C14 -1.02 14 0.96 14 3 C13.4121875 2.01 13.4121875 2.01 12.8125 1 C11.15526007 -1.25469591 11.15526007 -1.25469591 8.4375 -1.375 C5.82471891 -1.21896136 5.82471891 -1.21896136 4 1 C3.49033587 6.88336903 3.49033587 6.88336903 6 12 C8.56282742 12.72965366 8.56282742 12.72965366 11 13 C11 13.33 11 13.66 11 14 C7.06225823 14.36630156 5.43460229 14.30233203 2.125 12 C1.42375 11.34 0.7225 10.68 0 10 C-0.61875 10.66 -1.2375 11.32 -1.875 12 C-6.24240721 14.79514062 -9.95182061 14.35288244 -15 14 C-15 12.68 -15 11.36 -15 10 C-15.66 10 -16.32 10 -17 10 C-17 9.34 -17 8.68 -17 8 C-17.99 8.33 -18.98 8.66 -20 9 C-20.33 8.01 -20.66 7.02 -21 6 C-22.32 6 -23.64 6 -25 6 C-25 8.31 -25 10.62 -25 13 C-24.34 13.33 -23.68 13.66 -23 14 C-25.31 14 -27.62 14 -30 14 C-29.34 13.67 -28.68 13.34 -28 13 C-28 8.05 -28 3.1 -28 -2 C-28.66 -2.33 -29.32 -2.66 -30 -3 C-7.99546279 -5.08802178 -7.99546279 -5.08802178 0 0 Z " fill="#C8C8C8" transform="translate(127,138)"/>
<path d="M0 0 C3.23199781 1.64538071 4.71037931 2.61959376 6.4375 5.75 C6.1075 6.41 5.7775 7.07 5.4375 7.75 C4.4475 7.42 3.4575 7.09 2.4375 6.75 C1.4475 6.75 0.4575 6.75 -0.5625 6.75 C-0.5625 6.09 -0.5625 5.43 -0.5625 4.75 C-8.81628129 4.11599689 -15.08219768 3.84040858 -21.79296875 9.08203125 C-23.96654662 11.13085631 -25.7946736 13.3457561 -27.5625 15.75 C-28.2225 15.75 -28.8825 15.75 -29.5625 15.75 C-29.8409375 16.74 -29.8409375 16.74 -30.125 17.75 C-33.22600468 24.22166194 -38.32988527 29.27133131 -44.5625 32.75 C-45.2225 32.75 -45.8825 32.75 -46.5625 32.75 C-46.5625 33.41 -46.5625 34.07 -46.5625 34.75 C-51.70982905 36.19486429 -56.16068554 37.18214516 -61.5625 36.75 C-62.2225 36.09 -62.8825 35.43 -63.5625 34.75 C-63.2325 34.09 -62.9025 33.43 -62.5625 32.75 C-59.83984375 32.3359375 -59.83984375 32.3359375 -56.5 32.125 C-55.39527344 32.05023438 -54.29054687 31.97546875 -53.15234375 31.8984375 C-52.29769531 31.84945312 -51.44304687 31.80046875 -50.5625 31.75 C-50.5625 31.09 -50.5625 30.43 -50.5625 29.75 C-49.510625 29.29625 -48.45875 28.8425 -47.375 28.375 C-46.42173828 27.95734375 -46.42173828 27.95734375 -45.44921875 27.53125 C-43.5625 26.75 -43.5625 26.75 -40.6875 25.875 C-39.98625 25.50375 -39.285 25.1325 -38.5625 24.75 C-37.94817131 22.43149993 -37.94817131 22.43149993 -37.5625 19.75 C-35.625 16.4375 -35.625 16.4375 -33.5625 13.75 C-32.9025 13.75 -32.2425 13.75 -31.5625 13.75 C-31.2325 12.43 -30.9025 11.11 -30.5625 9.75 C-29.9025 9.75 -29.2425 9.75 -28.5625 9.75 C-28.35625 9.193125 -28.15 8.63625 -27.9375 8.0625 C-21.94635255 -2.0135207 -10.39198866 -3.52826331 0 0 Z " fill="#83B3DF" transform="translate(198.5625,64.25)"/>
<path d="M0 0 C0.96550781 0.00902344 1.93101562 0.01804687 2.92578125 0.02734375 C5.28412099 0.05069365 7.64192286 0.08343953 10 0.125 C9 3.125 9 3.125 7.234375 4.3046875 C4.74281777 5.21942005 2.89383164 5.32775975 0.25 5.25 C-0.54921875 5.23195313 -1.3484375 5.21390625 -2.171875 5.1953125 C-2.77515625 5.17210937 -3.3784375 5.14890625 -4 5.125 C-4 4.465 -4 3.805 -4 3.125 C-5.32 3.125 -6.64 3.125 -8 3.125 C-8 3.785 -8 4.445 -8 5.125 C-8.58007812 5.10179687 -9.16015625 5.07859375 -9.7578125 5.0546875 C-16.27980959 4.9040143 -21.21246591 6.00863549 -27 9.125 C-26.01 9.455 -25.02 9.785 -24 10.125 C-24.33 11.115 -24.66 12.105 -25 13.125 C-25.928125 13.0425 -26.85625 12.96 -27.8125 12.875 C-31.09105222 12.77196955 -31.09105222 12.77196955 -32.875 15.125 C-33.24625 15.785 -33.6175 16.445 -34 17.125 C-33.34 18.115 -32.68 19.105 -32 20.125 C-32.70125 20.24875 -33.4025 20.3725 -34.125 20.5 C-37.18037413 21.16421177 -40.04838839 22.09835248 -43 23.125 C-43.99 23.455 -44.98 23.785 -46 24.125 C-45.938125 25.300625 -45.938125 25.300625 -45.875 26.5 C-46 29.125 -46 29.125 -48 31.125 C-47.979375 31.95 -47.95875 32.775 -47.9375 33.625 C-47.958125 34.45 -47.97875 35.275 -48 36.125 C-48.99 36.785 -49.98 37.445 -51 38.125 C-51.16666667 41.125 -51.16666667 41.125 -51 44.125 C-51.33 44.785 -51.66 45.445 -52 46.125 C-50.68 45.135 -49.36 44.145 -48 43.125 C-48.020625 44.218125 -48.04125 45.31125 -48.0625 46.4375 C-47.99421225 50.46647716 -47.86299506 52.26200494 -45 55.125 C-48 55.125 -48 55.125 -49.859375 53.65625 C-54.94853768 48.18855456 -54.94853768 48.18855456 -55.1875 43.25 C-53.53714472 36.20478585 -50.35700387 29.50330735 -47 23.125 C-46.34 23.125 -45.68 23.125 -45 23.125 C-44.7525 22.568125 -44.505 22.01125 -44.25 21.4375 C-38.45477968 10.7163424 -26.57183206 4.51526054 -15.3125 0.9609375 C-10.23398439 -0.22404948 -5.187039 -0.09300898 0 0 Z " fill="#7DB4E4" transform="translate(160,10.875)"/>
<path d="M0 0 C0.61875 0.639375 1.2375 1.27875 1.875 1.9375 C2.91500512 2.96002604 3.95699249 3.98053668 5 5 C5.70511719 5.71285156 6.41023438 6.42570312 7.13671875 7.16015625 C13.19855735 13.00724372 19.04627211 16.28042637 27 19 C27 19.66 27 20.32 27 21 C33.73184413 21.87686585 40.2785368 22.12387197 47.0625 22.0625 C48.02349609 22.05798828 48.98449219 22.05347656 49.97460938 22.04882812 C52.31647422 22.03717706 54.65820181 22.02082025 57 22 C57.495 23.98 57.495 23.98 58 26 C51.18738456 29.40630772 38.44634163 27.33781731 31 26 C29.64979349 25.36820526 28.31474426 24.70261636 27 24 C24.6756398 23.30269194 22.34326294 22.63087848 20 22 C20.33 21.01 20.66 20.02 21 19 C19.02 19.33 17.04 19.66 15 20 C15 19.34 15 18.68 15 18 C14.236875 17.9175 13.47375 17.835 12.6875 17.75 C9.44026046 16.84379362 8.71429638 15.82858903 7 13 C6.67 12.34 6.34 11.68 6 11 C5.175 10.71125 4.35 10.4225 3.5 10.125 C1 9 1 9 0.25 7.125 C0.1675 6.42375 0.085 5.7225 0 5 C-0.20625 4.278125 -0.4125 3.55625 -0.625 2.8125 C-0.74875 2.214375 -0.8725 1.61625 -1 1 C-0.67 0.67 -0.34 0.34 0 0 Z " fill="#3C71B3" transform="translate(114,98)"/>
<path d="M0 0 C0.33 0.66 0.66 1.32 1 2 C1.66 2 2.32 2 3 2 C3 6.95 3 11.9 3 17 C2.34 16.67 1.68 16.34 1 16 C1 15.34 1 14.68 1 14 C0.34 14 -0.32 14 -1 14 C-1 13.34 -1 12.68 -1 12 C-1.99 12.33 -2.98 12.66 -4 13 C-4.33 12.01 -4.66 11.02 -5 10 C-6.32 10 -7.64 10 -9 10 C-9 12.31 -9 14.62 -9 17 C-8.34 17.33 -7.68 17.66 -7 18 C-9.31 18 -11.62 18 -14 18 C-13.34 17.67 -12.68 17.34 -12 17 C-12 12.05 -12 7.1 -12 2 C-12.66 1.67 -13.32 1.34 -14 1 C-9.38 0.67 -4.76 0.34 0 0 Z " fill="#F5F5F5" transform="translate(111,134)"/>
<path d="M0 0 C0.66 0 1.32 0 2 0 C2 5.61 2 11.22 2 17 C2.66 17.33 3.32 17.66 4 18 C2.18757948 18.02687279 0.37504767 18.04633715 -1.4375 18.0625 C-2.44683594 18.07410156 -3.45617187 18.08570313 -4.49609375 18.09765625 C-7 18 -7 18 -8 17 C-8.07271741 14.64686445 -8.08370868 12.29166332 -8.0625 9.9375 C-8.05347656 8.64714844 -8.04445312 7.35679687 -8.03515625 6.02734375 C-8.02355469 5.02832031 -8.01195312 4.02929688 -8 3 C-7.34 3 -6.68 3 -6 3 C-6 3.99 -6 4.98 -6 6 C-4.02 6 -2.04 6 0 6 C0 4.02 0 2.04 0 0 Z " fill="#A9A9A9" transform="translate(210,134)"/>
<path d="M0 0 C0.515625 0.70125 1.03125 1.4025 1.5625 2.125 C6.0041479 7.36386675 10.66691177 11.2196198 17 14 C14 16 14 16 11.5625 15.6875 C10.716875 15.460625 9.87125 15.23375 9 15 C7.6670931 14.66496554 6.33383158 14.33133396 5 14 C4.90203125 14.62648438 4.8040625 15.25296875 4.703125 15.8984375 C4.55359375 16.71570313 4.4040625 17.53296875 4.25 18.375 C4.11078125 19.18710938 3.9715625 19.99921875 3.828125 20.8359375 C3 23 3 23 0.921875 24.2890625 C0.28765625 24.52367188 -0.3465625 24.75828125 -1 25 C-1.9976761 19.51278143 -1.87366942 15.63035179 -0.48046875 10.25390625 C0.2576254 6.79146459 0.12831795 3.52874366 0 0 Z " fill="#2A68A9" transform="translate(104,56)"/>
<path d="M0 0 C0.34646501 8.7899456 0.11447996 16.68934105 -3 25 C-3.33 25.33 -3.66 25.66 -4 26 C-5.65 26 -7.3 26 -9 26 C-9 21.38 -9 16.76 -9 12 C-8.01 12.99 -7.02 13.98 -6 15 C-5.89042969 14.16855469 -5.78085938 13.33710937 -5.66796875 12.48046875 C-5.50941406 11.39378906 -5.35085937 10.30710937 -5.1875 9.1875 C-5.03667969 8.10855469 -4.88585937 7.02960938 -4.73046875 5.91796875 C-4.11261101 3.44984184 -3.14660375 0 0 0 Z " fill="#1F61AA" transform="translate(218,62)"/>
<path d="M0 0 C7.18316361 3.37931338 13.00978271 7.77336726 18 14 C18.75 16.27734375 18.75 16.27734375 19 18 C19.66 18 20.32 18 21 18 C21 18.66 21 19.32 21 20 C18.68547078 19.5520266 16.37339961 19.09133539 14.0625 18.625 C12.13083984 18.24214844 12.13083984 18.24214844 10.16015625 17.8515625 C9.11730469 17.57054688 8.07445312 17.28953125 7 17 C5.72320197 14.44640395 6.30339105 13.7090348 7 11 C7.03786901 9.33376361 7.04627845 7.66602403 7 6 C6.236875 6.20625 5.47375 6.4125 4.6875 6.625 C2 7 2 7 -1 5 C-0.67 3.35 -0.34 1.7 0 0 Z " fill="#7AB3E4" transform="translate(185,17)"/>
<path d="M0 0 C4.43095881 1.18158902 6.50904032 2.1390125 9 6 C9.66 6.33 10.32 6.66 11 7 C11 7.66 11 8.32 11 9 C11.99 9 12.98 9 14 9 C14 9.66 14 10.32 14 11 C15.98 10.67 17.96 10.34 20 10 C20.33 10.99 20.66 11.98 21 13 C22.11375 13.12375 23.2275 13.2475 24.375 13.375 C28 14 28 14 30 16 C32.41936028 16.46380081 32.41936028 16.46380081 35.2265625 16.6328125 C36.7734375 16.75849609 36.7734375 16.75849609 38.3515625 16.88671875 C39.97191406 17.00466797 39.97191406 17.00466797 41.625 17.125 C42.71296875 17.21136719 43.8009375 17.29773438 44.921875 17.38671875 C47.61405877 17.59925957 50.30661828 17.80332432 53 18 C53 18.66 53 19.32 53 20 C33.33932982 21.02399324 16.46576608 16.9535073 1.36328125 3.515625 C0 2 0 2 0 0 Z " fill="#4A6FA1" transform="translate(115,107)"/>
<path d="M0 0 C1.98 0 3.96 0 6 0 C5.67 2.31 5.34 4.62 5 7 C7.31 7 9.62 7 12 7 C12 5.02 12 3.04 12 1 C11.34 0.67 10.68 0.34 10 0 C12.31 0 14.62 0 17 0 C16.01 0.495 16.01 0.495 15 1 C15 5.95 15 10.9 15 16 C15.66 16.33 16.32 16.66 17 17 C14.69 17 12.38 17 10 17 C10.66 16.67 11.32 16.34 12 16 C12 13.69 12 11.38 12 9 C9.69 9 7.38 9 5 9 C5.33 11.64 5.66 14.28 6 17 C4.02 17 2.04 17 0 17 C0.66 16.67 1.32 16.34 2 16 C2 11.05 2 6.1 2 1 C1.34 0.67 0.68 0.34 0 0 Z " fill="#5E5E5E" transform="translate(149,135)"/>
<path d="M0 0 C0.66 0 1.32 0 2 0 C3.27367424 3.60025252 2.68436593 5.88454929 1.625 9.5 C-0.03637023 15.65996633 -0.67309992 21.64235716 -1 28 C-0.34 28 0.32 28 1 28 C1.33 27.34 1.66 26.68 2 26 C2.03738281 26.58007812 2.07476562 27.16015625 2.11328125 27.7578125 C2.44932569 31.75081117 2.80889538 34.61779077 4.625 38.25 C6.20642073 41.41284146 6.06784172 42.69939831 5 46 C1.78383319 43.39949941 1.01799894 40.5889964 -0.125 36.6875 C-0.45757812 35.57761719 -0.79015625 34.46773437 -1.1328125 33.32421875 C-4.11416015 21.89571943 -3.76429737 11.18085945 0 0 Z " fill="#2D6399" transform="translate(101,48)"/>
<path d="M0 0 C0.66 0.33 1.32 0.66 2 1 C1.34 2.98 0.68 4.96 0 7 C-2.33333333 7 -4.66666667 7 -7 7 C-6.34 8.65 -5.68 10.3 -5 12 C-6.11375 12.433125 -7.2275 12.86625 -8.375 13.3125 C-12.19079158 15.08881677 -13.16159005 16.23863457 -14.9296875 19.953125 C-16.09623492 22.1840405 -17.45943172 23.86718369 -19.125 25.75 C-19.93324219 26.67039062 -19.93324219 26.67039062 -20.7578125 27.609375 C-21.16773438 28.06828125 -21.57765625 28.5271875 -22 29 C-22.99 28.67 -23.98 28.34 -25 28 C-25.66 28.33 -26.32 28.66 -27 29 C-25.43068387 25.14804223 -22.94959682 22.88256053 -20 20 C-16.07976236 15.79649668 -16.07976236 15.79649668 -13 11 C-12.34 11 -11.68 11 -11 11 C-10.690625 10.1646875 -10.690625 10.1646875 -10.375 9.3125 C-7.91347925 5.17266965 -3.95245689 2.63497126 0 0 Z M-5 10 C-3 11 -3 11 -3 11 Z " fill="#B6D9F4" transform="translate(182,69)"/>
<path d="M0 0 C0.66 0 1.32 0 2 0 C1.835 0.5775 1.67 1.155 1.5 1.75 C0.85537969 4.26664369 0.85537969 4.26664369 1 8 C-0.609375 10.7265625 -0.609375 10.7265625 -2.75 13.625 C-3.79414063 15.06746094 -3.79414063 15.06746094 -4.859375 16.5390625 C-7 19 -7 19 -11 21 C-11 16.38 -11 11.76 -11 7 C-8.69 7 -6.38 7 -4 7 C-2.68 4.69 -1.36 2.38 0 0 Z " fill="#F0F5FB" transform="translate(155,41)"/>
<path d="M0 0 C4.29 0.99 8.58 1.98 13 3 C13 3.33 13 3.66 13 4 C15.64 4.33 18.28 4.66 21 5 C20.360625 5.226875 19.72125 5.45375 19.0625 5.6875 C16.72806339 6.85250896 16.72806339 6.85250896 16.25 9.625 C16.1675 10.40875 16.085 11.1925 16 12 C15.34 12 14.68 12 14 12 C13.67 12.99 13.34 13.98 13 15 C8.20520488 10.97855893 3.74644758 7.03428893 0 2 C0 1.34 0 0.68 0 0 Z " fill="#7FB4E0" transform="translate(112,94)"/>
<path d="M0 0 C2.31 0 4.62 0 7 0 C2.27755669 5.55581566 -5.10745438 8.26075952 -12 10 C-15.0625 10.1875 -15.0625 10.1875 -17 10 C-17 7.36 -17 4.72 -17 2 C-11.72 2 -6.44 2 -1 2 C-0.67 1.34 -0.34 0.68 0 0 Z " fill="#7DB5E3" transform="translate(185,110)"/>
<path d="M0 0 C1.98 0 3.96 0 6 0 C6.20625 0.78375 6.4125 1.5675 6.625 2.375 C7.78871514 5.31138444 7.78871514 5.31138444 11.0625 6.125 C12.5165625 6.558125 12.5165625 6.558125 14 7 C14.33 7.99 14.66 8.98 15 10 C15.66 10 16.32 10 17 10 C17.66 11.98 18.32 13.96 19 16 C18.5875 15.60167969 18.175 15.20335938 17.75 14.79296875 C8.84103949 6.61979292 0.48543071 6.59621533 -11 7 C-8.65408148 4.2289312 -6.85223799 3.47940716 -3.3125 2.8125 C-2.50425781 2.65394531 -1.69601563 2.49539062 -0.86328125 2.33203125 C0.05904297 2.16767578 0.05904297 2.16767578 1 2 C0.67 1.34 0.34 0.68 0 0 Z " fill="#2765A7" transform="translate(190,57)"/>
<path d="M0 0 C7.66721877 -0.3155715 14.04602549 -0.47698725 21 3 C21.33 3.66 21.66 4.32 22 5 C19.1875 5.6875 19.1875 5.6875 16 6 C14.125 4.5625 14.125 4.5625 13 3 C12.2575 3.33 11.515 3.66 10.75 4 C8 5 8 5 4 5 C3.01 5.66 2.02 6.32 1 7 C0.34 6.67 -0.32 6.34 -1 6 C-2.32860925 5.64830932 -3.66158328 5.31229724 -5 5 C-4.34 5 -3.68 5 -3 5 C-2.67 4.01 -2.34 3.02 -2 2 C-1.34 2 -0.68 2 0 2 C0 1.34 0 0.68 0 0 Z " fill="#2262A4" transform="translate(184,34)"/>
<path d="M0 0 C0.33 0.66 0.66 1.32 1 2 C3.01669827 3.13350534 3.01669827 3.13350534 5 4 C-1.75784393 12.22204344 -1.75784393 12.22204344 -5 14 C-7.75 14.1875 -7.75 14.1875 -10 14 C-10.375 11.75 -10.375 11.75 -10 9 C-7.25 7 -7.25 7 -4 5 C-1.67722584 2.3908613 -1.67722584 2.3908613 0 0 Z " fill="#225DAB" transform="translate(202,100)"/>
<path d="M0 0 C4.29 0 8.58 0 13 0 C12.67 1.32 12.34 2.64 12 4 C11.67 3.34 11.34 2.68 11 2 C7.97065509 1.34227572 7.97065509 1.34227572 5 1 C5 2.98 5 4.96 5 7 C6.98 6.34 8.96 5.68 11 5 C11 7.31 11 9.62 11 12 C10.34 11.67 9.68 11.34 9 11 C9 10.34 9 9.68 9 9 C7.68 9 6.36 9 5 9 C5 11.31 5 13.62 5 16 C5.66 16.33 6.32 16.66 7 17 C4.69 17 2.38 17 0 17 C0.66 16.67 1.32 16.34 2 16 C2 11.05 2 6.1 2 1 C1.34 0.67 0.68 0.34 0 0 Z " fill="#606060" transform="translate(97,135)"/>
<path d="M0 0 C1.62463842 -0.05395478 3.24978541 -0.09277195 4.875 -0.125 C5.77992187 -0.14820313 6.68484375 -0.17140625 7.6171875 -0.1953125 C10 0 10 0 12 2 C11.625 4.625 11.625 4.625 11 7 C10.34 6.67 9.68 6.34 9 6 C9.33 4.68 9.66 3.36 10 2 C7.03 1.505 7.03 1.505 4 1 C4.33 5.62 4.66 10.24 5 15 C6.32 15 7.64 15 9 15 C9.33 13.02 9.66 11.04 10 9 C10.99 9.33 11.98 9.66 13 10 C13.1875 12.375 13.1875 12.375 13 15 C9.68629 17.20914 8.6553979 17.22481553 4.8125 17.125 C3.91144531 17.10695312 3.01039062 17.08890625 2.08203125 17.0703125 C1.39496094 17.04710937 0.70789063 17.02390625 0 17 C0.66 16.67 1.32 16.34 2 16 C2 11.05 2 6.1 2 1 C1.34 0.67 0.68 0.34 0 0 Z " fill="#141414" transform="translate(112,135)"/>
<path d="M0 0 C1.9375 0.3125 1.9375 0.3125 4 1 C4.33 1.99 4.66 2.98 5 4 C3.02 4 1.04 4 -1 4 C-0.67 5.32 -0.34 6.64 0 8 C-1.98 8.99 -1.98 8.99 -4 10 C-3.67 11.65 -3.34 13.3 -3 15 C-4.65 14.67 -6.3 14.34 -8 14 C-8.268125 14.598125 -8.53625 15.19625 -8.8125 15.8125 C-9.98493467 17.97224808 -11.19369282 19.35790256 -13 21 C-13.66 20.34 -14.32 19.68 -15 19 C-10.18885672 12.48891943 -5.37363799 6.06256594 0 0 Z " fill="#758BBF" transform="translate(163,40)"/>
<path d="M0 0 C0.66 0.99 1.32 1.98 2 3 C-1.98513835 9.80743997 -5.67650911 15.22511913 -12 20 C-12.66 19.67 -13.32 19.34 -14 19 C-14 17 -14 17 -12 15 C-10.47867646 12.65233081 -9.00360563 10.27950376 -7.53515625 7.8984375 C-7.02855469 7.27195312 -6.52195313 6.64546875 -6 6 C-5.01 6 -4.02 6 -3 6 C-2.01 4.02 -1.02 2.04 0 0 Z " fill="#7BB4E0" transform="translate(206,89)"/>
<path d="M0 0 C0.94875 0.04125 1.8975 0.0825 2.875 0.125 C-1.92276656 4.3412191 -6.41714914 6.94447661 -12.875 7.375 C-16.125 7.125 -16.125 7.125 -19.125 6.125 C-19.125 4.475 -19.125 2.825 -19.125 1.125 C-16.485 1.125 -13.845 1.125 -11.125 1.125 C-11.125 1.785 -11.125 2.445 -11.125 3.125 C-10.135 3.455 -9.145 3.785 -8.125 4.125 C-7.795 3.465 -7.465 2.805 -7.125 2.125 C-6.465 2.125 -5.805 2.125 -5.125 2.125 C-3.125 0.125 -3.125 0.125 0 0 Z " fill="#B3D0F2" transform="translate(139.125,63.875)"/>
<path d="M0 0 C1.32 0.66 2.64 1.32 4 2 C2.79655911 5.61032268 1.84607474 5.98859218 -1.3125 7.9375 C-4.59481484 10.03337301 -7.40023725 12.06113776 -10 15 C-10.66 14.01 -11.32 13.02 -12 12 C-11.360625 11.278125 -10.72125 10.55625 -10.0625 9.8125 C-8.01326465 7.01808816 -7.38667054 5.38336726 -7 2 C-4.69 2 -2.38 2 0 2 C0 1.34 0 0.68 0 0 Z " fill="#C9DDF8" transform="translate(167,32)"/>
<path d="M0 0 C1.66611905 -0.042721 3.33382885 -0.04063832 5 0 C6 1 6 1 6.09765625 3.28515625 C6.08605469 4.20167969 6.07445312 5.11820313 6.0625 6.0625 C6.05347656 6.98160156 6.04445312 7.90070313 6.03515625 8.84765625 C6.02355469 9.55792969 6.01195312 10.26820313 6 11 C6.66 11.33 7.32 11.66 8 12 C5.03 12 2.06 12 -1 12 C-1.33 10.35 -1.66 8.7 -2 7 C-1.195625 6.566875 -0.39125 6.13375 0.4375 5.6875 C3.27846354 4.19525998 3.27846354 4.19525998 4 1 C3.01 1 2.02 1 1 1 C1 1.99 1 2.98 1 4 C0.01 4 -0.98 4 -2 4 C-1.34 2.68 -0.68 1.36 0 0 Z " fill="#515151" transform="translate(183,140)"/>
<path d="M0 0 C0.33 1.32 0.66 2.64 1 4 C3.64 4.33 6.28 4.66 9 5 C9 5.33 9 5.66 9 6 C0.585 6.495 0.585 6.495 -8 7 C-8.99 5.35 -9.98 3.7 -11 2 C-7.36576791 -0.32590854 -4.22911669 -0.16265833 0 0 Z " fill="#2E6DAF" transform="translate(155,5)"/>
<path d="M0 0 C0.268125 0.639375 0.53625 1.27875 0.8125 1.9375 C1.88667752 4.33131686 1.88667752 4.33131686 5 5 C6.4477922 7.89558441 7 9.74188938 7 13 C4.5 15.1875 4.5 15.1875 2 17 C-0.46383986 13.3042402 -0.07533051 11.36916956 0 7 C-0.185625 6.071875 -0.37125 5.14375 -0.5625 4.1875 C-1 2 -1 2 0 0 Z " fill="#1F62AC" transform="translate(208,35)"/>
<path d="M0 0 C0.66 0.33 1.32 0.66 2 1 C1.855625 1.64324219 1.71125 2.28648438 1.5625 2.94921875 C-1.15513696 16.17882647 0.19230046 27.98096461 3 41 C2.01 40.67 1.02 40.34 0 40 C-5.56470047 28.87059905 -3.38620519 11.52402088 0 0 Z " fill="#D6EBF7" transform="translate(99,47)"/>
<path d="M0 0 C0.99 0.495 0.99 0.495 2 1 C1.01 1.495 1.01 1.495 0 2 C0 1.34 0 0.68 0 0 Z M-2 1 C-1.34 1.33 -0.68 1.66 0 2 C-0.125 3.875 -0.125 3.875 -1 6 C-2.99117408 6.69258229 -4.9921136 7.35747635 -7 8 C-8.87310888 9.993252 -8.87310888 9.993252 -10 12 C-9.34 12 -8.68 12 -8 12 C-8 12.66 -8 13.32 -8 14 C-10.31 13.34 -12.62 12.68 -15 12 C-15 11.01 -15 10.02 -15 9 C-13.42578125 7.71875 -13.42578125 7.71875 -11.3125 6.5 C-10.58417969 6.07460937 -9.85585937 5.64921875 -9.10546875 5.2109375 C-8.41066406 4.81132813 -7.71585938 4.41171875 -7 4 C-5.576875 3.071875 -5.576875 3.071875 -4.125 2.125 C-3.42375 1.75375 -2.7225 1.3825 -2 1 Z " fill="#9FAACD" transform="translate(152,58)"/>
<path d="M0 0 C0.66 0.33 1.32 0.66 2 1 C1.67 1.33 1.34 1.66 1 2 C0.95875 3.093125 0.9175 4.18625 0.875 5.3125 C0 9 0 9 -1.55078125 10.38671875 C-3.4375 11.5 -3.4375 11.5 -7 13 C-7.66 12.67 -8.32 12.34 -9 12 C-8.67 11.01 -8.34 10.02 -8 9 C-7.34 9 -6.68 9 -6 9 C-6.33 8.01 -6.66 7.02 -7 6 C-4.84656811 2.76985216 -3.72940389 1.24313463 0 0 Z " fill="#869CCD" transform="translate(160,80)"/>
<path d="M0 0 C0.50789063 0.39832031 1.01578125 0.79664063 1.5390625 1.20703125 C5.53903498 4.28566175 9.36879143 6.91595614 14 9 C11 11 11 11 8.5625 10.6875 C7.716875 10.460625 6.87125 10.23375 6 10 C5.236875 9.814375 4.47375 9.62875 3.6875 9.4375 C3.130625 9.293125 2.57375 9.14875 2 9 C1.67 9.66 1.34 10.32 1 11 C0.01 10.01 -0.98 9.02 -2 8 C-0.68 8 0.64 8 2 8 C2 7.34 2 6.68 2 6 C1.34 6 0.68 6 0 6 C0 4.02 0 2.04 0 0 Z " fill="#4273AF" transform="translate(107,61)"/>
<path d="M0 0 C0.66 0 1.32 0 2 0 C1.835 0.5775 1.67 1.155 1.5 1.75 C0.85537969 4.26664369 0.85537969 4.26664369 1 8 C-0.625 10.3125 -0.625 10.3125 -3 12 C-6.125 12 -6.125 12 -9 11 C-10.375 8.9375 -10.375 8.9375 -11 7 C-8.69 7 -6.38 7 -4 7 C-2.68 4.69 -1.36 2.38 0 0 Z " fill="#E8F2F8" transform="translate(155,41)"/>
<path d="M0 0 C0.99 0 1.98 0 3 0 C3.33 5.94 3.66 11.88 4 18 C2.35 18 0.7 18 -1 18 C-0.505 9.09 -0.505 9.09 0 0 Z " fill="#646464" transform="translate(194,134)"/>
<path d="M0 0 C0 1.98 0 3.96 0 6 C-0.391875 5.34 -0.78375 4.68 -1.1875 4 C-2.84473993 1.74530409 -2.84473993 1.74530409 -5.5625 1.625 C-8.17528109 1.78103864 -8.17528109 1.78103864 -10 4 C-10.50966413 9.88336903 -10.50966413 9.88336903 -8 15 C-5.43717258 15.72965366 -5.43717258 15.72965366 -3 16 C-3 16.33 -3 16.66 -3 17 C-6.41756151 17.31068741 -8.40106977 17.3625104 -11.375 15.5625 C-13.78279652 11.76559011 -13.76230036 8.37319679 -13 4 C-10.0569781 -1.24625643 -5.35967538 -0.41228272 0 0 Z " fill="#121212" transform="translate(141,135)"/>
<path d="M0 0 C0.33 0.66 0.66 1.32 1 2 C0.06553465 4.03144641 -0.93224776 6.03533587 -2 8 C-2.66 8 -3.32 8 -4 8 C-4 8.66 -4 9.32 -4 10 C-4.99 10.33 -5.98 10.66 -7 11 C-8.22969878 14.51190809 -8.22969878 14.51190809 -9 18 C-9.66 18 -10.32 18 -11 18 C-11 17.34 -11 16.68 -11 16 C-12.65 16 -14.3 16 -16 16 C-13.45967066 13.3538236 -10.78573111 10.94284487 -8 8.5625 C-4.96025637 5.93108014 -2.37534934 3.26610534 0 0 Z " fill="#E5F8FC" transform="translate(208,102)"/>
<path d="M0 0 C0.66 1.65 1.32 3.3 2 5 C-2.95 6.485 -2.95 6.485 -8 8 C-8.33 6.02 -8.66 4.04 -9 2 C-5.62902617 0.50178941 -3.79557881 0 0 0 Z " fill="#2162A1" transform="translate(145,7)"/>
<path d="M0 0 C0.99 0.33 1.98 0.66 3 1 C3 1.66 3 2.32 3 3 C2.34 3 1.68 3 1 3 C0.67 3.66 0.34 4.32 0 5 C-0.99 5.66 -1.98 6.32 -3 7 C-2.67 8.65 -2.34 10.3 -2 12 C-3.32 12.33 -4.64 12.66 -6 13 C-6.66 15.31 -7.32 17.62 -8 20 C-8.66 20 -9.32 20 -10 20 C-9.45714121 15.51810484 -8.32932899 12.2441017 -6.125 8.3125 C-5.61195312 7.38050781 -5.09890625 6.44851562 -4.5703125 5.48828125 C-3.19909545 3.31548209 -1.90285901 1.70345761 0 0 Z " fill="#295E96" transform="translate(112,27)"/>
<path d="M0 0 C-2.68075421 2.77214356 -5.43868695 5.21933744 -8.5 7.5625 C-9.2528125 8.14128906 -10.005625 8.72007813 -10.78125 9.31640625 C-12.848621 10.88513319 -14.92159937 12.44592317 -17 14 C-17 13.01 -17 12.02 -17 11 C-15.3524116 9.64316249 -13.68083079 8.31543279 -12 7 C-10.42001789 5.20277035 -8.91562863 3.36377992 -7.4296875 1.48828125 C-4.89139437 -1.15404028 -3.39012539 -1.1300418 0 0 Z " fill="#DEF2F9" transform="translate(129,12)"/>
<path d="M0 0 C0.99 0 1.98 0 3 0 C4.39835636 7.3413709 6.2377554 17.64336691 2 24 C1.93941406 22.85402344 1.87882813 21.70804688 1.81640625 20.52734375 C1.73193011 18.99738703 1.64728573 17.46743959 1.5625 15.9375 C1.52318359 15.18533203 1.48386719 14.43316406 1.44335938 13.65820312 C1.18419281 9.05301259 0.7200579 4.55633276 0 0 Z " fill="#E3F6FB" transform="translate(218,48)"/>
<path d="M0 0 C0.66 0.33 1.32 0.66 2 1 C1.67 1.99 1.34 2.98 1 4 C2.65 4 4.3 4 6 4 C6.33 2.68 6.66 1.36 7 0 C9 2 9 2 9 5 C6.36 5 3.72 5 1 5 C1.66 6.32 2.32 7.64 3 9 C4.65 9 6.3 9 8 9 C7.67 9.66 7.34 10.32 7 11 C4.125 11.1875 4.125 11.1875 1 11 C-1.30441554 7.54337669 -1.25860135 6.05142119 -1 2 C-0.67 1.34 -0.34 0.68 0 0 Z " fill="#343434" transform="translate(170,141)"/>
<path d="M0 0 C3.875 1.875 3.875 1.875 5 3 C5.37086093 8.8410596 5.37086093 8.8410596 5 11 C4.01 11.66 3.02 12.32 2 13 C1.896875 12.401875 1.79375 11.80375 1.6875 11.1875 C0.91123545 8.71756736 -0.07088921 7.67748765 -2 6 C-1.34 5.67 -0.68 5.34 0 5 C0 3.35 0 1.7 0 0 Z " fill="#F2F2F2" transform="translate(123,136)"/>
<path d="M0 0 C1.65 0 3.3 0 5 0 C4.67 2.31 4.34 4.62 4 7 C4.66 7.33 5.32 7.66 6 8 C1.545 7.01 1.545 7.01 -3 6 C-3 5.01 -3 4.02 -3 3 C-2.34 3 -1.68 3 -1 3 C-0.67 2.01 -0.34 1.02 0 0 Z " fill="#4473B3" transform="translate(114,88)"/>
<path d="M0 0 C0.33 0 0.66 0 1 0 C0.979375 1.093125 0.95875 2.18625 0.9375 3.3125 C1.00578775 7.34147716 1.13700494 9.13700494 4 12 C1 12 1 12 -0.859375 10.35546875 C-1.48328125 9.64003906 -2.1071875 8.92460938 -2.75 8.1875 C-3.38421875 7.47980469 -4.0184375 6.77210937 -4.671875 6.04296875 C-5.11015625 5.36878906 -5.5484375 4.69460937 -6 4 C-5.67 3.01 -5.34 2.02 -5 1 C-3.02 1.495 -3.02 1.495 -1 2 C-0.67 1.34 -0.34 0.68 0 0 Z " fill="#84B9E7" transform="translate(111,54)"/>
<path d="M0 0 C1.65 0.33 3.3 0.66 5 1 C3.54331217 3.96783129 1.98767914 6.86415313 0.375 9.75 C-0.29402344 10.94882812 -0.29402344 10.94882812 -0.9765625 12.171875 C-1.48316406 13.07679687 -1.48316406 13.07679687 -2 14 C-2.33 14 -2.66 14 -3 14 C-2.88512252 12.41590006 -2.75765492 10.83271037 -2.625 9.25 C-2.55539063 8.36828125 -2.48578125 7.4865625 -2.4140625 6.578125 C-2.00149945 4.00933618 -1.28839043 2.24158985 0 0 Z " fill="#E0F5FB" transform="translate(107,25)"/>
<path d="M0 0 C0.66 0 1.32 0 2 0 C3.3805087 3.76668598 2.59568159 6.44789173 1.5625 10.25 C1.27503906 11.32765625 0.98757812 12.4053125 0.69140625 13.515625 C0.46324219 14.33546875 0.23507813 15.1553125 0 16 C-1.98376188 12.7317333 -2.1540383 10.64103206 -1.6875 6.875 C-1.58824219 6.00617187 -1.48898438 5.13734375 -1.38671875 4.2421875 C-1 2 -1 2 0 0 Z " fill="#225E9D" transform="translate(101,48)"/>
<path d="M0 0 C2.31 0 4.62 0 7 0 C6.01 0.495 6.01 0.495 5 1 C5 5.95 5 10.9 5 16 C4.34 16 3.68 16 3 16 C2.95101562 15.01257813 2.90203125 14.02515625 2.8515625 13.0078125 C2.77679688 11.72648438 2.70203125 10.44515625 2.625 9.125 C2.55539063 7.84882813 2.48578125 6.57265625 2.4140625 5.2578125 C2.32758894 1.91938301 2.32758894 1.91938301 0 0 Z " fill="#343434" transform="translate(159,135)"/>
<path d="M0 0 C0.66 0.33 1.32 0.66 2 1 C1.34 2.98 0.68 4.96 0 7 C-2.33333333 7 -4.66666667 7 -7 7 C-6.67 8.32 -6.34 9.64 -6 11 C-6.99 10.67 -7.98 10.34 -9 10 C-8.66522875 6.87546835 -8.02559449 6.02290033 -5.625 3.875 C-3.77225419 2.55161013 -1.8944504 1.26296693 0 0 Z " fill="#B7DCF6" transform="translate(182,69)"/>
<path d="M0 0 C3.875 0.875 3.875 0.875 5 2 C5.23287008 3.68183948 5.41264166 5.3712416 5.5625 7.0625 C5.64628906 7.98160156 5.73007813 8.90070313 5.81640625 9.84765625 C5.87699219 10.55792969 5.93757812 11.26820313 6 12 C4.35 12 2.7 12 1 12 C1.33 8.37 1.66 4.74 2 1 C1.34 0.67 0.68 0.34 0 0 Z " fill="#555555" transform="translate(215,140)"/>
<path d="M0 0 C0.99 0.495 0.99 0.495 2 1 C2.6328125 3.94140625 2.6328125 3.94140625 3.125 7.5625 C3.29257813 8.76003906 3.46015625 9.95757812 3.6328125 11.19140625 C3.75398437 12.11824219 3.87515625 13.04507813 4 14 C2.68 14 1.36 14 0 14 C0 9.38 0 4.76 0 0 Z " fill="#2E6BAD" transform="translate(209,74)"/>
<path d="M0 0 C1.32 0.66 2.64 1.32 4 2 C3 5 3 5 0.5625 6.25 C-2 7 -2 7 -4 6 C-4 5.34 -4 4.68 -4 4 C-4.99 4 -5.98 4 -7 4 C-6.67 3.34 -6.34 2.68 -6 2 C-4.02 2 -2.04 2 0 2 C0 1.34 0 0.68 0 0 Z " fill="#B5D5F3" transform="translate(167,32)"/>
<path d="M0 0 C1.65 0 3.3 0 5 0 C5 1.98 5 3.96 5 6 C3.35 6.33 1.7 6.66 0 7 C0 4.69 0 2.38 0 0 Z " fill="#F5F5F5" transform="translate(117,144)"/>
<path d="M0 0 C0.66 0 1.32 0 2 0 C2 0.99 2 1.98 2 3 C2.99 3.33 3.98 3.66 5 4 C4.01 4 3.02 4 2 4 C2 7.3 2 10.6 2 14 C2.66 14.33 3.32 14.66 4 15 C2.68 14.67 1.36 14.34 0 14 C0 9.38 0 4.76 0 0 Z " fill="#2C2C2C" transform="translate(202,137)"/>
<path d="M0 0 C0.33 1.65 0.66 3.3 1 5 C-5.28571429 7.42857143 -5.28571429 7.42857143 -9 6 C-8.505 5.54625 -8.01 5.0925 -7.5 4.625 C-5.77390663 3.12364481 -5.77390663 3.12364481 -6 1 C-4 0 -4 0 0 0 Z " fill="#29619A" transform="translate(177,119)"/>
<path d="M0 0 C2.31 0 4.62 0 7 0 C4.1791285 3.31867235 0.89719789 5.1539589 -3 7 C-5.4375 6.25 -5.4375 6.25 -7 5 C-5 3 -5 3 -2.9375 2.5 C-2.298125 2.335 -1.65875 2.17 -1 2 C-0.67 1.34 -0.34 0.68 0 0 Z " fill="#75ADDB" transform="translate(185,110)"/>
<path d="M0 0 C3.87511727 0.54984772 5.59576506 2.27555331 8.25 5.0625 C8.95640625 5.79597656 9.6628125 6.52945312 10.390625 7.28515625 C10.92171875 7.85105469 11.4528125 8.41695312 12 9 C11.34 9.66 10.68 10.32 10 11 C9.34 11 8.68 11 8 11 C7.62875 10.071875 7.2575 9.14375 6.875 8.1875 C4.69057041 4.4739697 2.93281241 3.57312496 -1 2 C-0.67 1.34 -0.34 0.68 0 0 Z " fill="#306198" transform="translate(195,18)"/>
<path d="M0 0 C2.125 0.375 2.125 0.375 4 1 C2.64486335 5.06540996 0.69203082 5.97300269 -3 8 C-5.375 7.75 -5.375 7.75 -7 7 C-4.66666667 4.66666667 -2.33333333 2.33333333 0 0 Z " fill="#1F62A6" transform="translate(128,15)"/>
<path d="M0 0 C0.94875 0.04125 1.8975 0.0825 2.875 0.125 C1.6684375 1.0840625 1.6684375 1.0840625 0.4375 2.0625 C-1.4000504 3.53103502 -1.4000504 3.53103502 -3.125 5.125 C-4.81108966 5.19705511 -6.50000659 5.20886068 -8.1875 5.1875 C-9.10660156 5.17847656 -10.02570313 5.16945313 -10.97265625 5.16015625 C-11.68292969 5.14855469 -12.39320312 5.13695313 -13.125 5.125 C-13.125 4.795 -13.125 4.465 -13.125 4.125 C-11.475 4.125 -9.825 4.125 -8.125 4.125 C-7.795 3.465 -7.465 2.805 -7.125 2.125 C-6.465 2.125 -5.805 2.125 -5.125 2.125 C-3.125 0.125 -3.125 0.125 0 0 Z " fill="#D4E7FA" transform="translate(139.125,63.875)"/>
<path d="M0 0 C0.66 0.33 1.32 0.66 2 1 C-0.39452357 4.99087261 -2.69295516 5.59552886 -7 7 C-7.33 7.99 -7.66 8.98 -8 10 C-9.32 9.67 -10.64 9.34 -12 9 C-10.9296491 7.82141137 -9.84316035 6.6574639 -8.75 5.5 C-8.14671875 4.8503125 -7.5434375 4.200625 -6.921875 3.53125 C-5 2 -5 2 -1 2 C-0.67 1.34 -0.34 0.68 0 0 Z " fill="#376A9D" transform="translate(124,17)"/>
<path d="M0 0 C0.99 0.33 1.98 0.66 3 1 C3.1875 3.375 3.1875 3.375 3 6 C-0.31371 8.20914 -1.3446021 8.22481553 -5.1875 8.125 C-6.08855469 8.10695312 -6.98960938 8.08890625 -7.91796875 8.0703125 C-8.60503906 8.04710937 -9.29210937 8.02390625 -10 8 C-6.78360346 6.25434889 -4.67986596 5.795563 -1 6 C-0.67 4.02 -0.34 2.04 0 0 Z " fill="#404040" transform="translate(122,144)"/>
<path d="M0 0 C0.33 0 0.66 0 1 0 C1.84681133 5.08086796 2.09038099 9.84828377 2 15 C2.66 15.33 3.32 15.66 4 16 C1.69 16 -0.62 16 -3 16 C-2.34 15.34 -1.68 14.68 -1 14 C-0.69940057 11.63490639 -0.50484988 9.25558119 -0.375 6.875 C-0.30023438 5.59367188 -0.22546875 4.31234375 -0.1484375 2.9921875 C-0.09945312 2.00476563 -0.05046875 1.01734375 0 0 Z " fill="#2C2C2C" transform="translate(100,136)"/>
<path d="M0 0 C0 0.99 0 1.98 0 3 C-3.21451269 4.60725635 -6.43612536 4.05748185 -10 4 C-8.68 3.34 -7.36 2.68 -6 2 C-7.32 1.34 -8.64 0.68 -10 0 C-6.33694766 -0.74926071 -3.57644848 -1.2380014 0 0 Z " fill="#2F69AA" transform="translate(172,121)"/>
<path d="M0 0 C0.66 0.66 1.32 1.32 2 2 C0.85675161 3.0029542 -0.28967191 4.00229027 -1.4375 5 C-2.39462891 5.8353125 -2.39462891 5.8353125 -3.37109375 6.6875 C-5 8 -5 8 -6 8 C-6.1875 5.625 -6.1875 5.625 -6 3 C-3 1 -3 1 0 0 Z " fill="#6487C0" transform="translate(174,65)"/>
<path d="M0 0 C3.3 0 6.6 0 10 0 C10 0.99 10 1.98 10 3 C7.875 4.1875 7.875 4.1875 5 5 C1.6875 3.625 1.6875 3.625 -1 2 C-0.67 1.34 -0.34 0.68 0 0 Z " fill="#2867AA" transform="translate(181,13)"/>
<path d="M0 0 C0.33 0 0.66 0 1 0 C1.103125 0.94875 1.20625 1.8975 1.3125 2.875 C1.68539295 6.29107501 1.68539295 6.29107501 5 8 C4.2884375 8.556875 4.2884375 8.556875 3.5625 9.125 C1.47794198 11.62646962 1.35378509 13.81593418 1 17 C0.67 17 0.34 17 0 17 C0 11.39 0 5.78 0 0 Z " fill="#CFCFCF" transform="translate(212,134)"/>
<path d="M0 0 C0 0.66 0 1.32 0 2 C-0.69867188 2.27714844 -1.39734375 2.55429688 -2.1171875 2.83984375 C-3.02726563 3.20207031 -3.93734375 3.56429688 -4.875 3.9375 C-5.77992188 4.29714844 -6.68484375 4.65679688 -7.6171875 5.02734375 C-9.96137667 5.94901262 -9.96137667 5.94901262 -12 7 C-12.33 6.01 -12.66 5.02 -13 4 C-11.39850114 3.32694982 -9.79368971 2.66177773 -8.1875 2 C-7.29417969 1.62875 -6.40085938 1.2575 -5.48046875 0.875 C-3 0 -3 0 0 0 Z " fill="#71ABDE" transform="translate(147,12)"/>
<path d="M0 0 C2 1.375 2 1.375 4 3 C4 3.66 4 4.32 4 5 C2.54207116 5.05399736 1.08357288 5.09279177 -0.375 5.125 C-1.18710938 5.14820312 -1.99921875 5.17140625 -2.8359375 5.1953125 C-5 5 -5 5 -7 3 C-4.69 2.01 -2.38 1.02 0 0 Z " fill="#2663B0" transform="translate(185,114)"/>
<path d="M0 0 C0.99 0.33 1.98 0.66 3 1 C2.835 1.9075 2.67 2.815 2.5 3.75 C1.89862854 7.11087503 1.89862854 7.11087503 2 11 C1.731875 10.360625 1.46375 9.72125 1.1875 9.0625 C0.11332248 6.66868314 0.11332248 6.66868314 -3 6 C-2.01 4.02 -1.02 2.04 0 0 Z " fill="#286AAE" transform="translate(108,88)"/>
<path d="M0 0 C1.66611905 -0.042721 3.33382885 -0.04063832 5 0 C6 1 6 1 6.09765625 3.28515625 C6.08605469 4.20167969 6.07445312 5.11820313 6.0625 6.0625 C6.05347656 6.98160156 6.04445312 7.90070313 6.03515625 8.84765625 C6.02355469 9.55792969 6.01195312 10.26820313 6 11 C6.66 11.33 7.32 11.66 8 12 C7.01 12 6.02 12 5 12 C4.67 8.7 4.34 5.4 4 2 C3.01 1.67 2.02 1.34 1 1 C1 1.99 1 2.98 1 4 C0.01 4 -0.98 4 -2 4 C-1.34 2.68 -0.68 1.36 0 0 Z " fill="#393939" transform="translate(183,140)"/>
<path d="M0 0 C0.66 1.32 1.32 2.64 2 4 C1.01 5.32 0.02 6.64 -1 8 C-1.99 7.67 -2.98 7.34 -4 7 C-4.99 7.495 -4.99 7.495 -6 8 C-4.55746343 4.63408134 -2.66735273 2.48952921 0 0 Z " fill="#A4CEEF" transform="translate(161,90)"/>
<path d="M0 0 C0.66 0 1.32 0 2 0 C1.835 0.5775 1.67 1.155 1.5 1.75 C0.85537969 4.26664369 0.85537969 4.26664369 1 8 C0.34 8.66 -0.32 9.32 -1 10 C-1 9.34 -1 8.68 -1 8 C-1.66 8 -2.32 8 -3 8 C-2.37240135 5.07120629 -1.41377341 2.63904371 0 0 Z " fill="#DDEEFA" transform="translate(155,41)"/>
<path d="M0 0 C3.3 0.33 6.6 0.66 10 1 C9.67 1.66 9.34 2.32 9 3 C4.71 3 0.42 3 -4 3 C-2.68 2.67 -1.36 2.34 0 2 C0 1.34 0 0.68 0 0 Z " fill="#1560A8" transform="translate(156,7)"/>
<path d="M0 0 C2.31 0 4.62 0 7 0 C7.33 1.32 7.66 2.64 8 4 C5.03 3.67 2.06 3.34 -1 3 C-0.67 2.01 -0.34 1.02 0 0 Z " fill="#3269A5" transform="translate(148,5)"/>
<path d="M0 0 C0.61875 0.28875 1.2375 0.5775 1.875 0.875 C2.205 1.865 2.535 2.855 2.875 3.875 C0.895 3.875 -1.085 3.875 -3.125 3.875 C-3.125 4.535 -3.125 5.195 -3.125 5.875 C-5.105 6.865 -5.105 6.865 -7.125 7.875 C-4.26985981 -0.25116822 -4.26985981 -0.25116822 0 0 Z " fill="#6880B6" transform="translate(165.125,40.125)"/>
<path d="M0 0 C-0.99 0.495 -0.99 0.495 -2 1 C-1.34 1.66 -0.68 2.32 0 3 C-0.99 3.66 -1.98 4.32 -3 5 C-3.66 4.67 -4.32 4.34 -5 4 C-6.32860925 3.64830932 -7.66158328 3.31229724 -9 3 C-8.34 3 -7.68 3 -7 3 C-6.67 2.01 -6.34 1.02 -6 0 C-3.50907189 -1.24546405 -2.58919267 -0.7767578 0 0 Z " fill="#2966B0" transform="translate(188,36)"/>
<path d="M0 0 C0 1.66666667 0 3.33333333 0 5 C-0.99 4.67 -1.98 4.34 -3 4 C-2.01 2.68 -1.02 1.36 0 0 Z M-5 4 C-2.03 4.99 0.94 5.98 4 7 C-0.40767604 8.10191901 -1.8922935 7.58706842 -6 6 C-5.67 5.34 -5.34 4.68 -5 4 Z " fill="#80B8EC" transform="translate(197,27)"/>
<path d="M0 0 C-0.33 0.99 -0.66 1.98 -1 3 C-5.29 2.67 -9.58 2.34 -14 2 C-14 1.67 -14 1.34 -14 1 C-9.27616037 0.34843591 -4.78025483 -0.11950637 0 0 Z " fill="#7EAFD9" transform="translate(170,11)"/>
<path d="M0 0 C0 1.32 0 2.64 0 4 C-2.3125 5.125 -2.3125 5.125 -5 6 C-5.99 5.34 -6.98 4.68 -8 4 C-2.25 0 -2.25 0 0 0 Z " fill="#5679AE" transform="translate(172,36)"/>
<path d="M0 0 C0.78375 0.04125 1.5675 0.0825 2.375 0.125 C0.74087557 1.83340281 -0.49406094 3.05953047 -2.625 4.125 C-2.955 5.115 -3.285 6.105 -3.625 7.125 C-4.285 7.125 -4.945 7.125 -5.625 7.125 C-4.53409091 0.21590909 -4.53409091 0.21590909 0 0 Z " fill="#ECECEC" transform="translate(135.625,135.875)"/>
<path d="M0 0 C1.22853597 4.91414388 0.38965954 6.63269119 -2 11 C-3.32 11.33 -4.64 11.66 -6 12 C-4.02 8.04 -2.04 4.08 0 0 Z " fill="#D6EDF8" transform="translate(215,89)"/>
<path d="M0 0 C1.32 0 2.64 0 4 0 C4 1.65 4 3.3 4 5 C2.35 5 0.7 5 -1 5 C-0.67 3.35 -0.34 1.7 0 0 Z " fill="#CACACA" transform="translate(172,140)"/>
<path d="M0 0 C-1 3 -1 3 -4.3125 4.75 C-7.93653994 5.97848812 -8.6258971 6.10235591 -12 5 C-10.37750059 4.16180842 -8.75191503 3.3295884 -7.125 2.5 C-6.22007812 2.0359375 -5.31515625 1.571875 -4.3828125 1.09375 C-2 0 -2 0 0 0 Z " fill="#D4EFF8" transform="translate(192,118)"/>
<path d="M0 0 C0.66 1.32 1.32 2.64 2 4 C0.35 5.65 -1.3 7.3 -3 9 C-3.66 8.34 -4.32 7.68 -5 7 C-3.35 4.69 -1.7 2.38 0 0 Z " fill="#8E9BBE" transform="translate(153,52)"/>
<path d="M0 0 C0.99 0 1.98 0 3 0 C3.33 1.32 3.66 2.64 4 4 C4.66 4 5.32 4 6 4 C6.33 5.65 6.66 7.3 7 9 C6.01 9.495 6.01 9.495 5 10 C3.35 6.7 1.7 3.4 0 0 Z " fill="#E2F2FB" transform="translate(210,32)"/>
<path d="M0 0 C1.69752187 0.25245197 3.38471545 0.57645775 5.0625 0.9375 C5.98160156 1.13214844 6.90070313 1.32679687 7.84765625 1.52734375 C8.91306641 1.76130859 8.91306641 1.76130859 10 2 C9.67 2.66 9.34 3.32 9 4 C7.72125 4.061875 6.4425 4.12375 5.125 4.1875 C4.40570313 4.22230469 3.68640625 4.25710937 2.9453125 4.29296875 C2.30335938 4.19628906 1.66140625 4.09960938 1 4 C0.34 3.01 -0.32 2.02 -1 1 C-0.67 0.67 -0.34 0.34 0 0 Z " fill="#E4F1FA" transform="translate(136,123)"/>
<path d="M0 0 C1.65 0.33 3.3 0.66 5 1 C4.67 1.99 4.34 2.98 4 4 C4.33 4.66 4.66 5.32 5 6 C2.69 5.34 0.38 4.68 -2 4 C-1.34 2.68 -0.68 1.36 0 0 Z " fill="#4A75B8" transform="translate(136,116)"/>
<path d="M0 0 C1.98 0.66 3.96 1.32 6 2 C6 2.99 6 3.98 6 5 C3.69 4.67 1.38 4.34 -1 4 C-0.67 2.68 -0.34 1.36 0 0 Z " fill="#79ABDB" transform="translate(142,115)"/>
<path d="M0 0 C4.875 4.75 4.875 4.75 6 7 C5.34 7 4.68 7 4 7 C3.67 7.66 3.34 8.32 3 9 C0.90250005 6.64031256 0.03094296 5.45383006 -0.1875 2.25 C-0.125625 1.5075 -0.06375 0.765 0 0 Z " fill="#E6F7FC" transform="translate(112,105)"/>
<path d="M0 0 C0.33 0.66 0.66 1.32 1 2 C3.01669827 3.13350534 3.01669827 3.13350534 5 4 C4.34 4.66 3.68 5.32 3 6 C2.67 5.67 2.34 5.34 2 5 C1.67 5.66 1.34 6.32 1 7 C0.34 7 -0.32 7 -1 7 C-1.625 5.1875 -1.625 5.1875 -2 3 C-1.34 2.01 -0.68 1.02 0 0 Z " fill="#3668B5" transform="translate(202,100)"/>
<path d="M0 0 C-2.6860286 1.79068573 -4.6626589 2.66055791 -7.6875 3.625 C-8.49574219 3.88539062 -9.30398437 4.14578125 -10.13671875 4.4140625 C-10.75160156 4.60742188 -11.36648437 4.80078125 -12 5 C-11 2 -11 2 -9.375 0.8125 C-6.19617272 -0.27499354 -3.33338467 -0.1282071 0 0 Z " fill="#DBF0FB" transform="translate(144,6)"/>
<path d="M0 0 C0.33 0.99 0.66 1.98 1 3 C-1.97 5.475 -1.97 5.475 -5 8 C-5 6.02 -5 4.04 -5 2 C-3.68 2.33 -2.36 2.66 -1 3 C-0.67 2.01 -0.34 1.02 0 0 Z " fill="#2F6099" transform="translate(204,104)"/>
<path d="M0 0 C2 4 2 4 1.5390625 6.359375 C1.23742187 7.14828125 0.93578125 7.9371875 0.625 8.75 C0.32851562 9.54921875 0.03203125 10.3484375 -0.2734375 11.171875 C-0.51320312 11.77515625 -0.75296875 12.3784375 -1 13 C-1.66 13 -2.32 13 -3 13 C-2.01 8.71 -1.02 4.42 0 0 Z " fill="#CAE4F6" transform="translate(219,75)"/>
<path d="M0 0 C3.3 0 6.6 0 10 0 C10 1.32 10 2.64 10 4 C9.34 4 8.68 4 8 4 C8 3.34 8 2.68 8 2 C5.36 1.67 2.72 1.34 0 1 C0 0.67 0 0.34 0 0 Z " fill="#9ECAEE" transform="translate(184,68)"/>
<path d="M0 0 C0 2.31 0 4.62 0 7 C-0.66 6.67 -1.32 6.34 -2 6 C-2 5.34 -2 4.68 -2 4 C-3.32 4 -4.64 4 -6 4 C-6 3.34 -6 2.68 -6 2 C-1.125 0 -1.125 0 0 0 Z " fill="#868686" transform="translate(108,140)"/>
<path d="M0 0 C2.97 0 5.94 0 9 0 C9 1.98 9 3.96 9 6 C8.608125 5.34 8.21625 4.68 7.8125 4 C6.15762272 1.73564864 6.15762272 1.73564864 3.4375 1.6875 C0.99668261 1.8642238 0.99668261 1.8642238 -1 3 C-0.67 2.01 -0.34 1.02 0 0 Z " fill="#3F3F3F" transform="translate(132,135)"/>
<path d="M0 0 C0.66 0 1.32 0 2 0 C2.268125 0.598125 2.53625 1.19625 2.8125 1.8125 C3.98493467 3.97224808 5.19369282 5.35790256 7 7 C6.67 7.99 6.34 8.98 6 10 C4.99421411 8.71283353 3.99553202 7.42011342 3 6.125 C2.443125 5.40570313 1.88625 4.68640625 1.3125 3.9453125 C0 2 0 2 0 0 Z " fill="#356190" transform="translate(106,95)"/>
<path d="M0 0 C0.66 0 1.32 0 2 0 C0.4169423 4.2742558 -2.50568404 6.26531794 -6 9 C-6 8.01 -6 7.02 -6 6 C-4.37064759 4.62131719 -2.70250393 3.28725907 -1 2 C-0.67 1.34 -0.34 0.68 0 0 Z " fill="#E6FAFF" transform="translate(118,17)"/>
<path d="M0 0 C1.98 0 3.96 0 6 0 C5.67 0.99 5.34 1.98 5 3 C4.34 3 3.68 3 3 3 C2.67 3.66 2.34 4.32 2 5 C1.34 4.34 0.68 3.68 0 3 C0 2.01 0 1.02 0 0 Z " fill="#F5F5F5" transform="translate(171,146)"/>
<path d="M0 0 C3.875 1.875 3.875 1.875 5 3 C5.14115161 5.67058851 5.04247107 8.32432238 5 11 C4.67 11 4.34 11 4 11 C4 9.02 4 7.04 4 5 C3.01 4.67 2.02 4.34 1 4 C0.3125 1.9375 0.3125 1.9375 0 0 Z " fill="#D5D5D5" transform="translate(123,136)"/>
<path d="M0 0 C0.66 0.99 1.32 1.98 2 3 C2.99 3.66 3.98 4.32 5 5 C2.53721199 6.231394 0.7204945 6.07159196 -2 6 C-2 4.35 -2 2.7 -2 1 C-1.34 0.67 -0.68 0.34 0 0 Z " fill="#396DB2" transform="translate(194,108)"/>
<path d="M0 0 C0.763125 0.20625 1.52625 0.4125 2.3125 0.625 C1.3225 1.12 1.3225 1.12 0.3125 1.625 C-0.0175 2.615 -0.3475 3.605 -0.6875 4.625 C-2.3375 3.635 -3.9875 2.645 -5.6875 1.625 C-2.6875 -0.375 -2.6875 -0.375 0 0 Z " fill="#9DC5EF" transform="translate(119.6875,65.375)"/>
<path d="M0 0 C1.65 0.33 3.3 0.66 5 1 C3.35 2.98 1.7 4.96 0 7 C-0.93423645 3.98968256 -1.04449911 3.13349732 0 0 Z " fill="#266AB4" transform="translate(119,22)"/>
<path d="M0 0 C0 0.99 0 1.98 0 3 C-0.639375 3.103125 -1.27875 3.20625 -1.9375 3.3125 C-2.618125 3.539375 -3.29875 3.76625 -4 4 C-4.33 4.99 -4.66 5.98 -5 7 C-5.99 6.67 -6.98 6.34 -8 6 C-5.36 4.02 -2.72 2.04 0 0 Z " fill="#2C5D8B" transform="translate(128,13)"/>
<path d="M0 0 C1.32 0.33 2.64 0.66 4 1 C1.69 2.65 -0.62 4.3 -3 6 C-3.33 5.34 -3.66 4.68 -4 4 C-3.34 4 -2.68 4 -2 4 C-1.34 2.68 -0.68 1.36 0 0 Z " fill="#295D92" transform="translate(193,113)"/>
<path d="M0 0 C2.64 0.66 5.28 1.32 8 2 C7.01 2.495 7.01 2.495 6 3 C5.67 3.66 5.34 4.32 5 5 C2.5 3.625 2.5 3.625 0 2 C0 1.34 0 0.68 0 0 Z " fill="#77ADDF" transform="translate(112,94)"/>
<path d="M0 0 C1.5 1.375 1.5 1.375 3 3 C3 3.66 3 4.32 3 5 C2.34 5 1.68 5 1 5 C0.67 5.99 0.34 6.98 0 8 C-0.66 8 -1.32 8 -2 8 C-1.34 5.36 -0.68 2.72 0 0 Z " fill="#7192C7" transform="translate(167,69)"/>
<path d="M0 0 C0.33 0.66 0.66 1.32 1 2 C1.66 2 2.32 2 3 2 C2.67 2.99 2.34 3.98 2 5 C0.35 5.33 -1.3 5.66 -3 6 C-2 4 -1 2 0 0 Z " fill="#2262A2" transform="translate(111,30)"/>
<path d="M0 0 C1.98 0.66 3.96 1.32 6 2 C6 2.99 6 3.98 6 5 C5.01 4.67 4.02 4.34 3 4 C2.01 4 1.02 4 0 4 C-0.33 3.34 -0.66 2.68 -1 2 C-0.67 1.34 -0.34 0.68 0 0 Z " fill="#225797" transform="translate(202,27)"/>
<path d="M0 0 C4.875 2.625 4.875 2.625 6 6 C5.67 6.66 5.34 7.32 5 8 C4.34 7.67 3.68 7.34 3 7 C3.33 6.01 3.66 5.02 4 4 C3.01 4 2.02 4 1 4 C1 3.34 1 2.68 1 2 C0.34 1.67 -0.32 1.34 -1 1 C-0.67 0.67 -0.34 0.34 0 0 Z " fill="#2567AF" transform="translate(197,21)"/>
<path d="M0 0 C-0.33 1.65 -0.66 3.3 -1 5 C-1.99 5 -2.98 5 -4 5 C-4 3.68 -4 2.36 -4 1 C-2 0 -2 0 0 0 Z " fill="#F1F1F1" transform="translate(187,146)"/>
<path d="M0 0 C0.99 0.66 1.98 1.32 3 2 C3 2.99 3 3.98 3 5 C0.36 5 -2.28 5 -5 5 C-5 4.67 -5 4.34 -5 4 C-3.35 4 -1.7 4 0 4 C0 2.68 0 1.36 0 0 Z " fill="#616161" transform="translate(176,141)"/>
<path d="M0 0 C-0.99 1.485 -0.99 1.485 -2 3 C-4.64 2.67 -7.28 2.34 -10 2 C-3.24137931 -1.62068966 -3.24137931 -1.62068966 0 0 Z " fill="#D6EAF8" transform="translate(178,125)"/>
<path d="M0 0 C0.99 0.495 0.99 0.495 2 1 C1.01 1.495 1.01 1.495 0 2 C0 1.34 0 0.68 0 0 Z M-2 1 C-1.34 1.33 -0.68 1.66 0 2 C-0.33 3.32 -0.66 4.64 -1 6 C-1.99 6 -2.98 6 -4 6 C-4 5.01 -4 4.02 -4 3 C-3.34 3 -2.68 3 -2 3 C-2 2.34 -2 1.68 -2 1 Z " fill="#97A6D2" transform="translate(152,58)"/>
<path d="M0 0 C1.98 0.66 3.96 1.32 6 2 C5.67 3.65 5.34 5.3 5 7 C3.5 5.625 3.5 5.625 2 4 C2 3.34 2 2.68 2 2 C1.34 2 0.68 2 0 2 C0 1.34 0 0.68 0 0 Z " fill="#306CAA" transform="translate(101,46)"/>
<path d="M0 0 C0.33 0.66 0.66 1.32 1 2 C2.65 2 4.3 2 6 2 C6.33 2.66 6.66 3.32 7 4 C5.02 4.99 5.02 4.99 3 6 C1.5 4.6875 1.5 4.6875 0 3 C0 2.01 0 1.02 0 0 Z " fill="#276CAF" transform="translate(129,12)"/>
<path d="M0 0 C3.3 0.33 6.6 0.66 10 1 C10.33 1.99 10.66 2.98 11 4 C7.37 3.01 3.74 2.02 0 1 C0 0.67 0 0.34 0 0 Z " fill="#C0DFF0" transform="translate(173,6)"/>
</svg>
