<?xml version="1.0" encoding="UTF-8"?>
<svg version="1.1" xmlns="http://www.w3.org/2000/svg" width="225" height="225">
<path d="M0 0 C74.25 0 148.5 0 225 0 C225 74.25 225 148.5 225 225 C150.75 225 76.5 225 0 225 C0 150.75 0 76.5 0 0 Z " fill="#FEFDFD" transform="translate(0,0)"/>
<path d="M0 0 C3.0625 0.1875 3.0625 0.1875 5.0625 2.1875 C5.0625 3.5075 5.0625 4.8275 5.0625 6.1875 C15.9525 5.8575 26.8425 5.5275 38.0625 5.1875 C38.5575 7.1675 38.5575 7.1675 39.0625 9.1875 C40.40336135 13.55749245 42.11071751 17.57488868 44.1015625 21.6875 C44.68798211 22.91643673 45.27390478 24.14561069 45.859375 25.375 C46.77379836 27.28643979 47.69161694 29.19596717 48.61816406 31.1015625 C49.51902178 32.95868595 50.40500831 34.82233105 51.2890625 36.6875 C51.82096191 37.7909375 52.35286133 38.894375 52.90087891 40.03125 C54.1300153 43.37094635 54.48240544 45.66205699 54.0625 49.1875 C51.625 51.4375 51.625 51.4375 49.0625 53.1875 C48.5675 54.1775 48.5675 54.1775 48.0625 55.1875 C40.4725 55.1875 32.8825 55.1875 25.0625 55.1875 C24.0725 53.2075 24.0725 53.2075 23.0625 51.1875 C21.5775 50.1975 21.5775 50.1975 20.0625 49.1875 C19.42122059 43.77257487 20.71253384 39.84719618 23.08984375 35.08203125 C23.39821671 34.43554123 23.70658966 33.78905121 24.02430725 33.12297058 C25.00358049 31.07561302 26.00081395 29.03770254 27 27 C27.99208437 24.95007766 28.98028222 22.89837433 29.96498108 20.84489441 C30.57649371 19.57252488 31.19284478 18.30246614 31.81468201 17.03511047 C33.26196744 14.05120421 34.25111582 11.43303673 35.0625 8.1875 C24.8325 8.1875 14.6025 8.1875 4.0625 8.1875 C3.5675 5.7125 3.5675 5.7125 3.0625 3.1875 C1.4125 3.1875 -0.2375 3.1875 -1.9375 3.1875 C-2.2675 4.8375 -2.5975 6.4875 -2.9375 8.1875 C-18.7775 8.6825 -18.7775 8.6825 -34.9375 9.1875 C-32.33429926 16.99943682 -32.33429926 16.99943682 -29.01953125 24.32421875 C-28.48779297 25.39607422 -27.95605469 26.46792969 -27.40820312 27.57226562 C-26.29567353 29.78815202 -25.17842241 32.00167371 -24.05664062 34.21289062 C-23.26483398 35.81487305 -23.26483398 35.81487305 -22.45703125 37.44921875 C-21.97339111 38.40787842 -21.48975098 39.36653809 -20.99145508 40.35424805 C-19.8281487 43.4814592 -19.74019328 45.8779475 -19.9375 49.1875 C-20.55625 49.249375 -21.175 49.31125 -21.8125 49.375 C-22.51375 49.643125 -23.215 49.91125 -23.9375 50.1875 C-25.09081568 52.69554892 -25.09081568 52.69554892 -25.9375 55.1875 C-29.70793032 55.33246508 -33.47764742 55.42145607 -37.25 55.5 C-38.32185547 55.54189453 -39.39371094 55.58378906 -40.49804688 55.62695312 C-41.52607422 55.64306641 -42.55410156 55.65917969 -43.61328125 55.67578125 C-44.56114502 55.70196533 -45.50900879 55.72814941 -46.4855957 55.75512695 C-48.9375 55.1875 -48.9375 55.1875 -50.64526367 52.71948242 C-51.07170166 51.88392822 -51.49813965 51.04837402 -51.9375 50.1875 C-52.5975 49.8575 -53.2575 49.5275 -53.9375 49.1875 C-54.27376769 43.70932186 -53.28934197 39.80309167 -50.9453125 34.93359375 C-50.48631058 33.93767967 -50.48631058 33.93767967 -50.01803589 32.92164612 C-49.04521346 30.81675221 -48.05474977 28.72079569 -47.0625 26.625 C-46.08098821 24.52413992 -45.1032825 22.42158054 -44.12838745 20.31764221 C-43.52308179 19.01432954 -42.91341187 17.71303153 -42.2986145 16.41416931 C-40.55221296 12.68872825 -39.25078053 9.12734158 -37.9375 5.1875 C-21.6025 5.6825 -21.6025 5.6825 -4.9375 6.1875 C-4.6075 4.5375 -4.2775 2.8875 -3.9375 1.1875 C-2.9375 0.1875 -2.9375 0.1875 0 0 Z " fill="#D95970" transform="translate(113.9375,30.8125)"/>
<path d="M0 0 C5.86191589 0.40427006 9.2945653 1.19083858 14 5 C16.61077615 8.91616423 15.8586661 11.61213747 15 16 C14.65629208 17.33606762 14.30226479 18.66952698 13.9375 20 C12.85661664 24.15976325 12.64177128 27.70125533 13 32 C13.96873032 33.35622245 14.96434215 34.69417053 16 36 C15.74303831 38.69809776 15.20824654 40.58350693 14 43 C13.76827173 45.54615009 13.58105471 48.07396225 13.4375 50.625 C13.39431641 51.33140625 13.35113281 52.0378125 13.30664062 52.765625 C13.20055249 54.51018537 13.09977111 56.25506697 13 58 C16.63 58 20.26 58 24 58 C23.91277063 55.58164103 23.80588627 53.16686684 23.6875 50.75 C23.66494141 50.06808594 23.64238281 49.38617188 23.61914062 48.68359375 C23.39273237 44.44358461 22.71650018 42.21927784 20 39 C20.85071899 35.82913833 22.17094266 33.743586 24 31 C24.0982046 26.31891389 23.22869001 21.79368885 21.9375 17.3125 C20.87411916 13.55522104 20.42555764 10.87748591 21 7 C24.71451601 3.20106318 28.34751265 0.12056761 33.75 -0.125 C34.4925 -0.08375 35.235 -0.0425 36 0 C33 2 33 2 29.9375 3.5 C26.96887524 4.82567342 26.96887524 4.82567342 25 7 C24.50560238 11.94397625 25.46168229 15.15598253 27.3203125 19.6875 C28.95816487 25.25996324 29.22563304 31.69643841 26.4765625 36.86328125 C25.98929688 37.56839844 25.50203125 38.27351563 25 39 C25.639375 40.051875 26.27875 41.10375 26.9375 42.1875 C28.31746961 44.56277871 29.01178402 46.06628511 29.5 48.8125 C29.7475 49.8953125 29.7475 49.8953125 30 51 C31.32 51.66 32.64 52.32 34 53 C34 58.28 34 63.56 34 69 C23.44 69 12.88 69 2 69 C2 54 2 54 4 52 C4.99 52 5.98 52 7 52 C7.12117188 51.32453125 7.24234375 50.6490625 7.3671875 49.953125 C7.53476563 49.06109375 7.70234375 48.1690625 7.875 47.25 C8.11863281 45.92742187 8.11863281 45.92742187 8.3671875 44.578125 C8.96796264 42.13052256 9.77997117 40.19400143 11 38 C10.34 37.01 9.68 36.02 9 35 C8.3729694 27.66005361 8.72326563 20.97249901 11 14 C11.57856414 9.39173004 11.57856414 9.39173004 9.7421875 5.40234375 C7.81711723 3.85279167 6.14283638 3.11474695 3.8125 2.3125 C3.09707031 2.06113281 2.38164063 1.80976562 1.64453125 1.55078125 C1.10183594 1.36902344 0.55914062 1.18726563 0 1 C0 0.67 0 0.34 0 0 Z " fill="#D1304C" transform="translate(96,41)"/>
<path d="M0 0 C3.02743773 2.59324614 4.42627584 5.56289983 6.13671875 9.12890625 C6.42102249 9.71921127 6.70532623 10.3095163 6.99824524 10.91770935 C7.59536122 12.16105778 8.18939418 13.40589098 8.78051758 14.65209961 C9.68769597 16.56291277 10.60573848 18.46821093 11.52539062 20.37304688 C16 29.71709092 16 29.71709092 16 32 C6.1 32 -3.8 32 -14 32 C-10.62218891 21.86656672 -10.62218891 21.86656672 -8.5546875 17.34375 C-8.11769531 16.3846875 -7.68070313 15.425625 -7.23046875 14.4375 C-6.78316406 13.468125 -6.33585938 12.49875 -5.875 11.5 C-5.41996094 10.4996875 -4.96492187 9.499375 -4.49609375 8.46875 C-1.14074248 1.14074248 -1.14074248 1.14074248 0 0 Z " fill="#FEFBFC" transform="translate(150,43)"/>
<path d="M0 0 C2.40786594 2.98969719 4.04423896 5.97337911 5.62890625 9.46484375 C6.10650391 10.51220703 6.58410156 11.55957031 7.07617188 12.63867188 C7.56666016 13.72728516 8.05714844 14.81589844 8.5625 15.9375 C9.05685547 17.02224609 9.55121094 18.10699219 10.06054688 19.22460938 C12.13419533 23.79000319 14.13702968 28.3425742 16 33 C5.77 33 -4.46 33 -15 33 C-10.05034625 21.9757712 -5.09830879 10.95636556 0 0 Z " fill="#FEFBFC" transform="translate(76,42)"/>
<path d="M0 0 C5.86191589 0.40427006 9.2945653 1.19083858 14 5 C16.61077615 8.91616423 15.8586661 11.61213747 15 16 C14.65629208 17.33606762 14.30226479 18.66952698 13.9375 20 C12.85661664 24.15976325 12.64177128 27.70125533 13 32 C13.96873032 33.35622245 14.96434215 34.69417053 16 36 C15.74303831 38.69809776 15.20824654 40.58350693 14 43 C13.7677354 45.71262116 13.58063765 48.40773126 13.4375 51.125 C13.39431641 51.87910156 13.35113281 52.63320312 13.30664062 53.41015625 C13.2005168 55.27321888 13.09974999 57.13658524 13 59 C14.98 59 16.96 59 19 59 C19 61.97 19 64.94 19 68 C10.585 68.495 10.585 68.495 2 69 C1.95875 66.56625 1.9175 64.1325 1.875 61.625 C1.85679199 60.86010254 1.83858398 60.09520508 1.81982422 59.30712891 C1.8051883 57.53712725 1.90071486 55.76727545 2 54 C2.66 53.34 3.32 52.68 4 52 C4.99 52 5.98 52 7 52 C7.12117188 51.32453125 7.24234375 50.6490625 7.3671875 49.953125 C7.53476563 49.06109375 7.70234375 48.1690625 7.875 47.25 C8.11863281 45.92742187 8.11863281 45.92742187 8.3671875 44.578125 C8.96796264 42.13052256 9.77997117 40.19400143 11 38 C10.34 37.01 9.68 36.02 9 35 C8.3729694 27.66005361 8.72326563 20.97249901 11 14 C11.57856414 9.39173004 11.57856414 9.39173004 9.7421875 5.40234375 C7.81711723 3.85279167 6.14283638 3.11474695 3.8125 2.3125 C3.09707031 2.06113281 2.38164063 1.80976562 1.64453125 1.55078125 C1.10183594 1.36902344 0.55914062 1.18726563 0 1 C0 0.67 0 0.34 0 0 Z " fill="#D33B55" transform="translate(96,41)"/>
<path d="M0 0 C12.2920399 -0.40523208 12.2920399 -0.40523208 17 3 C19.56588452 5.56588452 19.3554254 6.74466869 19.4375 10.3125 C19.37668529 14.53082937 19.26283806 15.65416045 16.625 19.125 C12.6802176 21.94270171 10.70503291 22.11388333 5.875 22.0625 C2.966875 22.0315625 2.966875 22.0315625 0 22 C0 14.74 0 7.48 0 0 Z " fill="#D43F58" transform="translate(35,132)"/>
<path d="M0 0 C0.33 0.66 0.66 1.32 1 2 C-0.32 4.97 -1.64 7.94 -3 11 C6.9 11 16.8 11 27 11 C26.01 9.02 25.02 7.04 24 5 C24.33 4.34 24.66 3.68 25 3 C30.02857143 10.85714286 30.02857143 10.85714286 29 16 C26.5625 18.25 26.5625 18.25 24 20 C23.67 20.66 23.34 21.32 23 22 C15.41 22 7.82 22 0 22 C-0.66 20.68 -1.32 19.36 -2 18 C-2.99 17.34 -3.98 16.68 -5 16 C-6.06198057 9.49536899 -3.36237593 5.29574209 0 0 Z " fill="#D23450" transform="translate(139,64)"/>
<path d="M0 0 C0.33 0.66 0.66 1.32 1 2 C0.34 3.32 -0.32 4.64 -1 6 C8.9 6.33 18.8 6.66 29 7 C29.33 6.34 29.66 5.68 30 5 C31 6 31 6 31.0625 9.0625 C31.041875 10.031875 31.02125 11.00125 31 12 C30.38125 12.061875 29.7625 12.12375 29.125 12.1875 C28.42375 12.455625 27.7225 12.72375 27 13 C25.84668432 15.50804892 25.84668432 15.50804892 25 18 C21.22956968 18.14496508 17.45985258 18.23395607 13.6875 18.3125 C12.61564453 18.35439453 11.54378906 18.39628906 10.43945312 18.43945312 C9.41142578 18.45556641 8.38339844 18.47167969 7.32421875 18.48828125 C6.37635498 18.51446533 5.42849121 18.54064941 4.4519043 18.56762695 C2 18 2 18 0.29223633 15.53198242 C-0.13420166 14.69642822 -0.56063965 13.86087402 -1 13 C-1.66 12.67 -2.32 12.34 -3 12 C-3.2954439 6.97745369 -2.98514628 4.10457614 0 0 Z " fill="#D2334F" transform="translate(63,68)"/>
<path d="M0 0 C5.28 0 10.56 0 16 0 C16 1.32 16 2.64 16 4 C12.37 4 8.74 4 5 4 C5 5.65 5 7.3 5 9 C8.3 9 11.6 9 15 9 C15 10.32 15 11.64 15 13 C11.7 13 8.4 13 5 13 C5 14.65 5 16.3 5 18 C8.63 18 12.26 18 16 18 C16 19.32 16 20.64 16 22 C10.72 22 5.44 22 0 22 C0 14.74 0 7.48 0 0 Z " fill="#D4435C" transform="translate(59,132)"/>
<path d="M0 0 C5.28 0 10.56 0 16 0 C16 0.99 16 1.98 16 3 C12.37 3 8.74 3 5 3 C5 4.98 5 6.96 5 9 C8.3 9 11.6 9 15 9 C15 10.32 15 11.64 15 13 C11.7 13 8.4 13 5 13 C5 14.65 5 16.3 5 18 C8.63 18 12.26 18 16 18 C16 19.32 16 20.64 16 22 C10.72 22 5.44 22 0 22 C0 14.74 0 7.48 0 0 Z " fill="#D23853" transform="translate(206,132)"/>
<path d="M0 0 C5.28 0 10.56 0 16 0 C16 1.32 16 2.64 16 4 C12.37 4 8.74 4 5 4 C5 5.65 5 7.3 5 9 C8.3 9 11.6 9 15 9 C15 10.32 15 11.64 15 13 C11.7 13 8.4 13 5 13 C5 15.97 5 18.94 5 22 C3.35 22 1.7 22 0 22 C0 14.74 0 7.48 0 0 Z " fill="#D23250" transform="translate(5,132)"/>
<path d="M0 0 C1.65 0 3.3 0 5 0 C6.32 2.31 7.64 4.62 9 7 C10.74271938 4.702779 12.39911152 2.40133271 14 0 C16.625 -0.1875 16.625 -0.1875 19 0 C17.90063163 3.02326302 16.69639262 5.4692114 14.9375 8.1875 C12.3531385 12.52999591 12.19952939 17.04169469 12 22 C10.35 22 8.7 22 7 22 C6.938125 20.1128125 6.938125 20.1128125 6.875 18.1875 C6.32035479 12.81170797 4.0170461 8.86851713 1.27734375 4.28515625 C0 2 0 2 0 0 Z " fill="#D33652" transform="translate(128,132)"/>
<path d="M0 0 C4.95 0 9.9 0 15 0 C15 0.99 15 1.98 15 3 C11.7 3.33 8.4 3.66 5 4 C4.67 5.65 4.34 7.3 4 9 C7.3 9 10.6 9 14 9 C14 10.32 14 11.64 14 13 C10.7 13 7.4 13 4 13 C4 15.97 4 18.94 4 22 C2.68 22 1.36 22 0 22 C0 14.74 0 7.48 0 0 Z " fill="#D1314E" transform="translate(187,132)"/>
<path d="M0 0 C6.27 0 12.54 0 19 0 C19 0.99 19 1.98 19 3 C16.69 3 14.38 3 12 3 C12 9.27 12 15.54 12 22 C10.35 22 8.7 22 7 22 C7 16.06 7 10.12 7 4 C4.69 4 2.38 4 0 4 C0 2.68 0 1.36 0 0 Z " fill="#D33A55" transform="translate(107,132)"/>
<path d="M0 0 C1.65 0 3.3 0 5 0 C5 5.94 5 11.88 5 18 C8.63 18 12.26 18 16 18 C16 19.32 16 20.64 16 22 C10.72 22 5.44 22 0 22 C0 14.74 0 7.48 0 0 Z " fill="#D33A55" transform="translate(79,132)"/>
<path d="M0 0 C-3 2 -3 2 -6.0625 3.5 C-9.03112476 4.82567342 -9.03112476 4.82567342 -11 7 C-11.49439762 11.94397625 -10.53831771 15.15598253 -8.6796875 19.6875 C-7.32087029 24.31060223 -7.33205069 29.25232106 -8 34 C-8.97412319 35.68192205 -9.96961138 37.35194749 -11 39 C-10.67 39.66 -10.34 40.32 -10 41 C-11.98 41.495 -11.98 41.495 -14 42 C-15.25 39.875 -15.25 39.875 -16 37 C-15.360625 36.113125 -14.72125 35.22625 -14.0625 34.3125 C-11.15807516 29.64781768 -11.94162325 26.23354803 -13 21 C-13.5259375 19.1746875 -13.5259375 19.1746875 -14.0625 17.3125 C-15.12588084 13.55522104 -15.57444236 10.87748591 -15 7 C-10.41227227 2.30800573 -6.58625645 -0.36590314 0 0 Z " fill="#D2314E" transform="translate(132,41)"/>
<path d="M0 0 C1.32 0 2.64 0 4 0 C4 5.94 4 11.88 4 18 C7.96 18 11.92 18 16 18 C16 19.32 16 20.64 16 22 C10.72 22 5.44 22 0 22 C0 14.74 0 7.48 0 0 Z " fill="#D2334F" transform="translate(157,132)"/>
<path d="M0 0 C0.06058594 0.93199219 0.12117188 1.86398438 0.18359375 2.82421875 C0.96150853 8.27236617 3.62004988 12.94439791 6.0625 17.8125 C6.99417902 19.69238168 7.92273235 21.57381679 8.84765625 23.45703125 C9.26023682 24.28178955 9.67281738 25.10654785 10.09790039 25.95629883 C11 28 11 28 11 30 C10.34 30 9.68 30 9 30 C5.37 22.41 1.74 14.82 -2 7 C-3.57021751 9.35532627 -4.7603962 11.46988217 -5.9453125 14.01171875 C-6.29980469 14.76904297 -6.65429688 15.52636719 -7.01953125 16.30664062 C-7.38433594 17.09232422 -7.74914062 17.87800781 -8.125 18.6875 C-8.49753906 19.48478516 -8.87007812 20.28207031 -9.25390625 21.10351562 C-10.1714476 23.06799519 -11.08601264 25.0338644 -12 27 C-12.66 27 -13.32 27 -14 27 C-12.32243897 21.54581918 -9.97888133 16.58618731 -7.47851562 11.47851562 C-5.75149273 7.87413451 -4.79660271 4.98301357 -4 1 C-13.57 1 -23.14 1 -33 1 C-33 0.67 -33 0.34 -33 0 C-28.78271077 -0.16777849 -24.56522682 -0.32832034 -20.34741211 -0.48217773 C-18.91276652 -0.53552897 -17.47819286 -0.5908529 -16.04370117 -0.64819336 C-13.98111481 -0.730297 -11.91837332 -0.80528996 -9.85546875 -0.87890625 C-8.61434326 -0.9260376 -7.37321777 -0.97316895 -6.09448242 -1.02172852 C-3 -1 -3 -1 0 0 Z " fill="#DB6176" transform="translate(153,37)"/>
<path d="M0 0 C3.63 0 7.26 0 11 0 C10.01 1.485 10.01 1.485 9 3 C7.68 3 6.36 3 5 3 C5 7.95 5 12.9 5 18 C6.98 18 8.96 18 11 18 C10.67 18.66 10.34 19.32 10 20 C5.05 20.495 5.05 20.495 0 21 C0 14.07 0 7.14 0 0 Z " fill="#D23450" transform="translate(35,132)"/>
<path d="M0 0 C2.31 0 4.62 0 7 0 C9.54014875 3.81022313 9.58606955 6.53470816 9 11 C7.875 13 7.875 13 6 14 C4.02 14 2.04 14 0 14 C0 9.38 0 4.76 0 0 Z " fill="#FDF9FA" transform="translate(40,136)"/>
<path d="M0 0 C1.65 0 3.3 0 5 0 C5 7.26 5 14.52 5 22 C3.35 22 1.7 22 0 22 C0 14.74 0 7.48 0 0 Z " fill="#D5435D" transform="translate(177,132)"/>
<path d="M0 0 C1.65 0 3.3 0 5 0 C5 7.26 5 14.52 5 22 C3.35 22 1.7 22 0 22 C0 14.74 0 7.48 0 0 Z " fill="#D33C56" transform="translate(99,132)"/>
<path d="M0 0 C3 0.25 3 0.25 5 2.25 C5.495 4.23 5.495 4.23 6 6.25 C15.57 6.58 25.14 6.91 35 7.25 C35 7.58 35 7.91 35 8.25 C24.77 8.25 14.54 8.25 4 8.25 C3.505 5.775 3.505 5.775 3 3.25 C1.35 3.25 -0.3 3.25 -2 3.25 C-2.33 4.9 -2.66 6.55 -3 8.25 C-13.56 8.25 -24.12 8.25 -35 8.25 C-35 7.92 -35 7.59 -35 7.25 C-25.1 7.25 -15.2 7.25 -5 7.25 C-5 5.6 -5 3.95 -5 2.25 C-3 0.25 -3 0.25 0 0 Z " fill="#CF153D" transform="translate(114,30.75)"/>
<path d="M0 0 C5.86191589 0.40427006 9.2945653 1.19083858 14 5 C16.61514428 8.92271643 15.84728768 11.60809597 15 16 C14.39303927 18.68796895 13.71328378 21.3370739 13 24 C11.68 23.67 10.36 23.34 9 23 C9.144375 22.43152344 9.28875 21.86304687 9.4375 21.27734375 C10.59777209 16.45093414 11.49958129 11.99581292 11 7 C8.94689591 4.40492744 6.90566043 3.37735851 3.8125 2.3125 C3.09707031 2.06113281 2.38164063 1.80976562 1.64453125 1.55078125 C1.10183594 1.36902344 0.55914062 1.18726563 0 1 C0 0.67 0 0.34 0 0 Z " fill="#D6465F" transform="translate(96,41)"/>
<path d="M0 0 C1.32 0.33 2.64 0.66 4 1 C4.33 1.99 4.66 2.98 5 4 C5.66 2.68 6.32 1.36 7 0 C8.32 0 9.64 0 11 0 C11 3.3 11 6.6 11 10 C8.69 10 6.38 10 4 10 C3.67 9.01 3.34 8.02 3 7 C2.67 7.99 2.34 8.98 2 10 C1.34 10 0.68 10 0 10 C0 6.7 0 3.4 0 0 Z " fill="#5D5B5C" transform="translate(30,174)"/>
<path d="M0 0 C3.375 -0.125 3.375 -0.125 7 0 C9 2 9 2 9.25 5 C9 8 9 8 7 10 C3.375 10.125 3.375 10.125 0 10 C0 6.7 0 3.4 0 0 Z " fill="#575556" transform="translate(119,174)"/>
<path d="M0 0 C3.375 -0.125 3.375 -0.125 7 0 C9 2 9 2 9.25 5 C9 8 9 8 7 10 C3.375 10.125 3.375 10.125 0 10 C0 6.7 0 3.4 0 0 Z " fill="#767575" transform="translate(53,174)"/>
<path d="M0 0 C1.32 0 2.64 0 4 0 C4 6.93 4 13.86 4 21 C2.68 21 1.36 21 0 21 C0 14.07 0 7.14 0 0 Z " fill="#D12C49" transform="translate(25,132)"/>
<path d="M0 0 C0.625 2.8125 0.625 2.8125 1 6 C0.01 7.485 0.01 7.485 -1 9 C-4 9.3125 -4 9.3125 -7 9 C-7.66 8.34 -8.32 7.68 -9 7 C-8.75 3.4375 -8.75 3.4375 -8 0 C-5.13822943 -1.43088528 -3.06624227 -0.59991697 0 0 Z " fill="#464344" transform="translate(152,175)"/>
<path d="M0 0 C0.33 0 0.66 0 1 0 C1.08160748 1.89510699 1.13946459 3.79124504 1.1875 5.6875 C1.22230469 6.74324219 1.25710937 7.79898438 1.29296875 8.88671875 C0.9656897 12.36460416 -0.1464484 14.10033435 -2 17 C-1.67 17.66 -1.34 18.32 -1 19 C-2.32 19.33 -3.64 19.66 -5 20 C-6.25 17.875 -6.25 17.875 -7 15 C-5.25 12.125 -5.25 12.125 -3 9 C-2.26739841 6.68652128 -1.588562 4.354248 -1 2 C-0.67 1.34 -0.34 0.68 0 0 Z " fill="#D4405A" transform="translate(123,63)"/>
<path d="M0 0 C2.64 0 5.28 0 8 0 C8 0.66 8 1.32 8 2 C6.35 2 4.7 2 3 2 C3 2.66 3 3.32 3 4 C4.32 4 5.64 4 7 4 C7 4.66 7 5.32 7 6 C5.68 6 4.36 6 3 6 C3 6.66 3 7.32 3 8 C4.65 8 6.3 8 8 8 C8 8.66 8 9.32 8 10 C5.36 10 2.72 10 0 10 C0 6.7 0 3.4 0 0 Z " fill="#605E5E" transform="translate(171,174)"/>
<path d="M0 0 C4.95 0 9.9 0 15 0 C15 0.99 15 1.98 15 3 C11.37 3 7.74 3 4 3 C4 2.34 4 1.68 4 1 C3.01 1 2.02 1 1 1 C1 7.6 1 14.2 1 21 C0.67 21 0.34 21 0 21 C0 14.07 0 7.14 0 0 Z " fill="#D02344" transform="translate(59,132)"/>
<path d="M0 0 C1.32 0.33 2.64 0.66 4 1 C4.66 3.97 5.32 6.94 6 10 C5.34 10 4.68 10 4 10 C3.67 9.34 3.34 8.68 3 8 C2.01 8 1.02 8 0 8 C-0.33 8.66 -0.66 9.32 -1 10 C-1.66 10 -2.32 10 -3 10 C-2.01 6.7 -1.02 3.4 0 0 Z " fill="#3D3A3B" transform="translate(106,174)"/>
<path d="M0 0 C2.31 0 4.62 0 7 0 C7 0.66 7 1.32 7 2 C5.35 2 3.7 2 2 2 C2 2.66 2 3.32 2 4 C3.65 4 5.3 4 7 4 C7 4.66 7 5.32 7 6 C5.35 6 3.7 6 2 6 C2 6.66 2 7.32 2 8 C3.65 8 5.3 8 7 8 C7 8.66 7 9.32 7 10 C4.69 10 2.38 10 0 10 C0 6.7 0 3.4 0 0 Z " fill="#535151" transform="translate(44,174)"/>
<path d="M0 0 C0.99 0 1.98 0 3 0 C3.99 3.3 4.98 6.6 6 10 C5.01 9.67 4.02 9.34 3 9 C3 8.34 3 7.68 3 7 C1.68 7 0.36 7 -1 7 C-1 7.99 -1 8.98 -1 10 C-1.66 10 -2.32 10 -3 10 C-2.69201674 8.51988629 -2.378482 7.04092675 -2.0625 5.5625 C-1.88847656 4.73878906 -1.71445313 3.91507813 -1.53515625 3.06640625 C-1 1 -1 1 0 0 Z " fill="#504D4E" transform="translate(83,174)"/>
<path d="M0 0 C0.33 0.66 0.66 1.32 1 2 C-1.97 1.505 -1.97 1.505 -5 1 C-4.67 2.98 -4.34 4.96 -4 7 C-2.35 6.67 -0.7 6.34 1 6 C0.67 6.99 0.34 7.98 0 9 C-2.875 9.125 -2.875 9.125 -6 9 C-6.66 8.34 -7.32 7.68 -8 7 C-7.75 3.4375 -7.75 3.4375 -7 0 C-4.30234372 -1.34882814 -2.84835666 -0.80338265 0 0 Z " fill="#4E4B4C" transform="translate(77,175)"/>
<path d="M0 0 C1.2065625 0.0309375 1.2065625 0.0309375 2.4375 0.0625 C3.0975 1.3825 3.7575 2.7025 4.4375 4.0625 C3.7775 4.0625 3.1175 4.0625 2.4375 4.0625 C2.4375 3.4025 2.4375 2.7425 2.4375 2.0625 C1.1175 2.3925 -0.2025 2.7225 -1.5625 3.0625 C-1.2325 4.7125 -0.9025 6.3625 -0.5625 8.0625 C1.0875 7.7325 2.7375 7.4025 4.4375 7.0625 C3.4475 8.5475 3.4475 8.5475 2.4375 10.0625 C-0.0625 10.375 -0.0625 10.375 -2.5625 10.0625 C-3.2225 9.4025 -3.8825 8.7425 -4.5625 8.0625 C-3.86352916 0.09423242 -3.86352916 0.09423242 0 0 Z " fill="#454142" transform="translate(159.5625,173.9375)"/>
<path d="M0 0 C1.65 0 3.3 0 5 0 C5.33 0.99 5.66 1.98 6 3 C4.35 2.67 2.7 2.34 1 2 C1 2.66 1 3.32 1 4 C2.32 4.33 3.64 4.66 5 5 C5.5625 6.9375 5.5625 6.9375 6 9 C5 10 5 10 2.4375 10.0625 C1.633125 10.041875 0.82875 10.02125 0 10 C-0.33 9.34 -0.66 8.68 -1 8 C1.475 8.495 1.475 8.495 4 9 C4 8.01 4 7.02 4 6 C2.35 5.67 0.7 5.34 -1 5 C-0.67 3.35 -0.34 1.7 0 0 Z " fill="#444142" transform="translate(135,174)"/>
<path d="M0 0 C10.23 0 20.46 0 31 0 C31 0.33 31 0.66 31 1 C26.38 1 21.76 1 17 1 C17 1.66 17 2.32 17 3 C11.39 2.34 5.78 1.68 0 1 C0 0.67 0 0.34 0 0 Z " fill="#F0CACF" transform="translate(118,39)"/>
<path d="M0 0 C10.56 0 21.12 0 32 0 C32 0.33 32 0.66 32 1 C31.19175781 1.06058594 30.38351563 1.12117188 29.55078125 1.18359375 C27.94783203 1.30927734 27.94783203 1.30927734 26.3125 1.4375 C25.25675781 1.51871094 24.20101562 1.59992187 23.11328125 1.68359375 C20.34913703 1.96451681 17.71054259 2.40156852 15 3 C15 2.34 15 1.68 15 1 C10.05 1 5.1 1 0 1 C0 0.67 0 0.34 0 0 Z " fill="#F0CACF" transform="translate(79,39)"/>
<path d="M0 0 C4 2 4 2 5 3 C5.33 2.01 5.66 1.02 6 0 C6.99 0.33 7.98 0.66 9 1 C8.01 3.97 7.02 6.94 6 10 C5.01 10 4.02 10 3 10 C2.01 6.7 1.02 3.4 0 0 Z " fill="#585556" transform="translate(190,174)"/>
<path d="M0 0 C2.97 0 5.94 0 9 0 C9 0.66 9 1.32 9 2 C8.01 2 7.02 2 6 2 C6 4.64 6 7.28 6 10 C5.34 10 4.68 10 4 10 C4 7.36 4 4.72 4 2 C2.68 2 1.36 2 0 2 C0 1.34 0 0.68 0 0 Z " fill="#585657" transform="translate(180,174)"/>
<path d="M0 0 C1.67542976 0.28604898 3.34385343 0.61781233 5 1 C4.67 2.65 4.34 4.3 4 6 C2.68 6 1.36 6 0 6 C-0.38218767 4.34385343 -0.71395102 2.67542976 -1 1 C-0.67 0.67 -0.34 0.34 0 0 Z " fill="#E3E3E3" transform="translate(146,176)"/>
<path d="M0 0 C2.33294775 -0.04241723 4.66702567 -0.04092937 7 0 C8 1 8 1 8.0625 4.0625 C8.041875 5.031875 8.02125 6.00125 8 7 C6.68 7.33 5.36 7.66 4 8 C4.33 6.02 4.66 4.04 5 2 C3.68 1.67 2.36 1.34 1 1 C1 3.31 1 5.62 1 8 C0.67 8 0.34 8 0 8 C0 5.36 0 2.72 0 0 Z " fill="#373334" transform="translate(54,175)"/>
<path d="M0 0 C0.99 0 1.98 0 3 0 C3 3.3 3 6.6 3 10 C2.01 10 1.02 10 0 10 C0 6.7 0 3.4 0 0 Z " fill="#6F6D6D" transform="translate(114,174)"/>
<path d="M0 0 C0.99 0 1.98 0 3 0 C3 3.3 3 6.6 3 10 C2.01 10 1.02 10 0 10 C0 6.7 0 3.4 0 0 Z " fill="#6B696A" transform="translate(166,174)"/>
<path d="M0 0 C0.66 0 1.32 0 2 0 C2 2.64 2 5.28 2 8 C3.65 8 5.3 8 7 8 C7 8.66 7 9.32 7 10 C4.69 10 2.38 10 0 10 C0 6.7 0 3.4 0 0 Z " fill="#403D3E" transform="translate(91,174)"/>
<path d="M0 0 C-3 2 -3 2 -5.9375 3.375 C-8.91456198 4.95466554 -10.68560524 6.60294829 -13 9 C-13.66 9 -14.32 9 -15 9 C-12.55938505 3.14252412 -6.47770748 -1.01214179 0 0 Z " fill="#D5435D" transform="translate(132,41)"/>
<path d="M0 0 C0.99 0 1.98 0 3 0 C2.67 3.3 2.34 6.6 2 10 C1.34 10 0.68 10 0 10 C0 6.7 0 3.4 0 0 Z " fill="#353133" transform="translate(30,174)"/>
<path d="M0 0 C0.99 0.33 1.98 0.66 3 1 C2.67 2.65 2.34 4.3 2 6 C1.34 6 0.68 6 0 6 C-0.33 6.99 -0.66 7.98 -1 9 C-2.60031344 5.79937313 -1.03173691 3.27728194 0 0 Z " fill="#D5425C" transform="translate(150,36)"/>
<path d="M0 0 C1.32 0.33 2.64 0.66 4 1 C3.67 2.65 3.34 4.3 3 6 C2.01 6 1.02 6 0 6 C0 4.02 0 2.04 0 0 Z " fill="#F2F2F2" transform="translate(122,176)"/>
<path d="M0 0 C1.32 0.33 2.64 0.66 4 1 C3.67 2.65 3.34 4.3 3 6 C2.01 6 1.02 6 0 6 C0 4.02 0 2.04 0 0 Z " fill="#EFEFEF" transform="translate(56,176)"/>
<path d="M0 0 C1.98 0.495 1.98 0.495 4 1 C3.67 2.65 3.34 4.3 3 6 C2.01 6 1.02 6 0 6 C-1.125 2.25 -1.125 2.25 0 0 Z " fill="#6B6969" transform="translate(106,174)"/>
<path d="M0 0 C0.99 0 1.98 0 3 0 C2.50639991 4.27786748 1.95216435 7.09567131 0 11 C0 7.37 0 3.74 0 0 Z " fill="#D02747" transform="translate(105,64)"/>
<path d="M0 0 C1.32 0.66 2.64 1.32 4 2 C3.01 2.33 2.02 2.66 1 3 C0.67 4.65 0.34 6.3 0 8 C-0.66 7.67 -1.32 7.34 -2 7 C-2.125 4.625 -2.125 4.625 -2 2 C-1.34 1.34 -0.68 0.68 0 0 Z " fill="#D85269" transform="translate(111,31)"/>
</svg>
