<?xml version="1.0" encoding="UTF-8"?>
<svg version="1.1" xmlns="http://www.w3.org/2000/svg" width="225" height="225">
<path d="M0 0 C74.25 0 148.5 0 225 0 C225 74.25 225 148.5 225 225 C150.75 225 76.5 225 0 225 C0 150.75 0 76.5 0 0 Z " fill="#FDFCFC" transform="translate(0,0)"/>
<path d="M0 0 C1.98 0 3.96 0 6 0 C5.67 0.66 5.34 1.32 5 2 C4.92883618 4.37402501 4.91590915 6.75000677 4.9375 9.125 C4.94652344 10.40632813 4.95554688 11.68765625 4.96484375 13.0078125 C4.97644531 13.99523437 4.98804688 14.98265625 5 16 C8.62885324 16.15149298 8.62885324 16.15149298 12 15 C11.67 16.32 11.34 17.64 11 19 C7.04 19 3.08 19 -1 19 C-1 19.66 -1 20.32 -1 21 C5.93 21.495 5.93 21.495 13 22 C13 22.99 13 23.98 13 25 C-52.67 25 -118.34 25 -186 25 C-186 24.01 -186 23.02 -186 22 C-126.93 21.67 -67.86 21.34 -7 21 C-6.92302493 15.79257899 -6.92302493 15.79257899 -8 11.125 C-8.33 10.09375 -8.66 9.0625 -9 8 C-9.66 8 -10.32 8 -11 8 C-11.185625 9.0828125 -11.185625 9.0828125 -11.375 10.1875 C-11.9904931 12.95721894 -12.88444374 15.3970354 -14 18 C-15.32 17.67 -16.64 17.34 -18 17 C-15.69 11.72 -13.38 6.44 -11 1 C-10.34 1 -9.68 1 -9 1 C-8.43732422 2.39025391 -8.43732422 2.39025391 -7.86328125 3.80859375 C-7.35152344 5.00613281 -6.83976563 6.20367187 -6.3125 7.4375 C-5.56419922 9.22994141 -5.56419922 9.22994141 -4.80078125 11.05859375 C-4.20652344 12.02925781 -3.61226562 12.99992187 -3 14 C-1.35 14.33 0.3 14.66 2 15 C2 10.38 2 5.76 2 1 C1.01 0.505 1.01 0.505 0 0 Z " fill="#C70D16" transform="translate(201,78)"/>
<path d="M0 0 C1.98 0 3.96 0 6 0 C5.67 0.66 5.34 1.32 5 2 C4.92883618 4.37402501 4.91590915 6.75000677 4.9375 9.125 C4.94652344 10.40632813 4.95554688 11.68765625 4.96484375 13.0078125 C4.97644531 13.99523437 4.98804688 14.98265625 5 16 C8.62885324 16.15149298 8.62885324 16.15149298 12 15 C11.67 16.32 11.34 17.64 11 19 C7.04 19 3.08 19 -1 19 C-1 19.66 -1 20.32 -1 21 C5.93 21.495 5.93 21.495 13 22 C13 22.33 13 22.66 13 23 C-52.67 23 -118.34 23 -186 23 C-186 22.67 -186 22.34 -186 22 C-126.93 21.67 -67.86 21.34 -7 21 C-6.92302493 15.79257899 -6.92302493 15.79257899 -8 11.125 C-8.33 10.09375 -8.66 9.0625 -9 8 C-9.66 8 -10.32 8 -11 8 C-11.185625 9.0828125 -11.185625 9.0828125 -11.375 10.1875 C-11.9904931 12.95721894 -12.88444374 15.3970354 -14 18 C-15.32 17.67 -16.64 17.34 -18 17 C-15.69 11.72 -13.38 6.44 -11 1 C-10.34 1 -9.68 1 -9 1 C-8.43732422 2.39025391 -8.43732422 2.39025391 -7.86328125 3.80859375 C-7.35152344 5.00613281 -6.83976563 6.20367187 -6.3125 7.4375 C-5.56419922 9.22994141 -5.56419922 9.22994141 -4.80078125 11.05859375 C-4.20652344 12.02925781 -3.61226562 12.99992187 -3 14 C-1.35 14.33 0.3 14.66 2 15 C2 10.38 2 5.76 2 1 C1.01 0.505 1.01 0.505 0 0 Z " fill="#F1C6CC" transform="translate(201,78)"/>
<path d="M0 0 C1.4370809 -0.05422947 2.87475462 -0.09289723 4.3125 -0.125 C5.11300781 -0.14820312 5.91351563 -0.17140625 6.73828125 -0.1953125 C9 0 9 0 12 2 C12.1875 4.875 12.1875 4.875 12 8 C12 12.25809375 12.2332241 13.02827774 15 16 C15.99 16.33 16.98 16.66 18 17 C18.33 16.01 18.66 15.02 19 14 C19.33 14.66 19.66 15.32 20 16 C21.32 16 22.64 16 24 16 C23.63769165 12.73922481 23.3375917 11.32736165 20.9375 9 C19 7 19 7 18.625 4.375 C19 2 19 2 21 0 C24.125 -0.125 24.125 -0.125 27 0 C26.67 0.99 26.34 1.98 26 3 C26 2.34 26 1.68 26 1 C24.68 1.33 23.36 1.66 22 2 C22 3.32 22 4.64 22 6 C23.2065625 6.9590625 23.2065625 6.9590625 24.4375 7.9375 C27 10 27 10 27.9375 12.5625 C28 15 28 15 26 18 C21.61973603 18.77087865 17.38740908 18.6976253 13 18 C10.49814912 16.23768994 9.63626737 14.67257003 8 12 C7.01 11.67 6.02 11.34 5 11 C5 13.31 5 15.62 5 18 C3.68 17.67 2.36 17.34 1 17 C1.33 11.72 1.66 6.44 2 1 C1.34 0.67 0.68 0.34 0 0 Z " fill="#242424" transform="translate(43,78)"/>
<path d="M0 0 C0.66 0 1.32 0 2 0 C4.64 5.61 7.28 11.22 10 17 C12.64 11.39 15.28 5.78 18 0 C18.66 0 19.32 0 20 0 C20.3383344 2.37438249 20.67079002 4.74934959 21 7.125 C21.09539062 7.79015625 21.19078125 8.4553125 21.2890625 9.140625 C21.83611453 13.12628981 22.10022182 16.97859938 22 21 C22.99 21.33 23.98 21.66 25 22 C23.02 22 21.04 22 19 22 C18.34 17.38 17.68 12.76 17 8 C14.69 12.62 12.38 17.24 10 22 C5.84023697 17.84023697 4.3457862 13.38896829 2 8 C1.34 12.29 0.68 16.58 0 21 C0.66 21.33 1.32 21.66 2 22 C0.02 22 -1.96 22 -4 22 C-3.34 21.67 -2.68 21.34 -2 21 C-1.71108894 18.39086507 -1.53196301 15.86731658 -1.4375 13.25 C-1.24761393 8.75737638 -1.04625825 4.39255529 0 0 Z " fill="#1C1C1C" transform="translate(102,74)"/>
<path d="M0 0 C1.98 0 3.96 0 6 0 C5.98839844 1.07121094 5.97679687 2.14242187 5.96484375 3.24609375 C5.95546701 4.64322743 5.94636669 6.04036299 5.9375 7.4375 C5.92912109 8.14455078 5.92074219 8.85160156 5.91210938 9.58007812 C5.90346412 11.38693559 5.94779989 13.19387603 6 15 C6.33 15.33 6.66 15.66 7 16 C9.31 16 11.62 16 14 16 C14.33 11.05 14.66 6.1 15 1 C14.34 0.67 13.68 0.34 13 0 C14.65 0 16.3 0 18 0 C17.9127395 2.25071906 17.80455885 4.50063388 17.6875 6.75 C17.62949219 8.00296875 17.57148438 9.2559375 17.51171875 10.546875 C16.98953824 14.07059695 16.53043037 15.55253456 14 18 C10.625 19.0625 10.625 19.0625 7 19 C4.0625 17.375 4.0625 17.375 2 14 C1.58826776 9.63458258 1.71203411 5.37068228 2 1 C1.34 0.67 0.68 0.34 0 0 Z " fill="#313131" transform="translate(164,78)"/>
<path d="M0 0 C1.98 0 3.96 0 6 0 C5.98839844 1.07121094 5.97679687 2.14242187 5.96484375 3.24609375 C5.95546701 4.64322743 5.94636669 6.04036299 5.9375 7.4375 C5.92912109 8.14455078 5.92074219 8.85160156 5.91210938 9.58007812 C5.90346412 11.38693559 5.94779989 13.19387603 6 15 C6.33 15.33 6.66 15.66 7 16 C9.31 16 11.62 16 14 16 C14.33 11.05 14.66 6.1 15 1 C14.34 0.67 13.68 0.34 13 0 C14.65 0 16.3 0 18 0 C17.93981983 2.25073828 17.85098794 4.50072325 17.75 6.75 C17.68039063 8.62945312 17.68039063 8.62945312 17.609375 10.546875 C16.92004215 14.45309449 16.12073478 15.64375966 13 18 C10.0625 19.0625 10.0625 19.0625 7 19 C4.125 17.375 4.125 17.375 2 14 C1.58302259 9.63493272 1.71203283 5.37070171 2 1 C1.34 0.67 0.68 0.34 0 0 Z " fill="#2E2E2E" transform="translate(128,78)"/>
<path d="M0 0 C4.29 0 8.58 0 13 0 C13 1.32 13 2.64 13 4 C12.34 4 11.68 4 11 4 C11 3.34 11 2.68 11 2 C9.02 2 7.04 2 5 2 C5 4.64 5 7.28 5 10 C8.465 9.505 8.465 9.505 12 9 C11.67 10.32 11.34 11.64 11 13 C9.02 12.34 7.04 11.68 5 11 C5 14.3 5 17.6 5 21 C5.66 21.33 6.32 21.66 7 22 C5.02 22 3.04 22 1 22 C1.33 15.07 1.66 8.14 2 1 C1.34 0.67 0.68 0.34 0 0 Z " fill="#080808" transform="translate(16,74)"/>
<path d="M0 0 C0.66 0 1.32 0 2 0 C4.31 5.28 6.62 10.56 9 16 C8.01 16.33 7.02 16.66 6 17 C5.32845067 15.71086513 4.66291141 14.41859796 4 13.125 C3.62875 12.40570313 3.2575 11.68640625 2.875 10.9453125 C2 9 2 9 2 7 C1.34 7 0.68 7 0 7 C-0.12375 7.721875 -0.2475 8.44375 -0.375 9.1875 C-0.9904931 11.95721894 -1.88444374 14.3970354 -3 17 C-4.32 16.67 -5.64 16.34 -7 16 C-4.69 10.72 -2.38 5.44 0 0 Z " fill="#CA1620" transform="translate(190,79)"/>
<path d="M0 0 C4.95 0 9.9 0 15 0 C14.67 0.99 14.34 1.98 14 3 C12.35 2.67 10.7 2.34 9 2 C9.33 7.28 9.66 12.56 10 18 C8.35 18 6.7 18 5 18 C5.33 12.72 5.66 7.44 6 2 C4.02 2 2.04 2 0 2 C0 1.34 0 0.68 0 0 Z " fill="#2D2D2D" transform="translate(148,78)"/>
<path d="M0 0 C4.95 0 9.9 0 15 0 C14.67 0.99 14.34 1.98 14 3 C12.35 2.67 10.7 2.34 9 2 C9.33 7.28 9.66 12.56 10 18 C8.68 18 7.36 18 6 18 C6 12.72 6 7.44 6 2 C4.02 2.33 2.04 2.66 0 3 C0 2.01 0 1.02 0 0 Z " fill="#323232" transform="translate(73,78)"/>
<path d="M0 0 C1.4370809 -0.05422947 2.87475462 -0.09289723 4.3125 -0.125 C5.11300781 -0.14820312 5.91351563 -0.17140625 6.73828125 -0.1953125 C9 0 9 0 12 2 C12.1875 5.125 12.1875 5.125 12 8 C11.34 8 10.68 8 10 8 C9.7525 7.030625 9.505 6.06125 9.25 5.0625 C8.8375 4.051875 8.425 3.04125 8 2 C6.68 1.67 5.36 1.34 4 1 C4.33 6.61 4.66 12.22 5 18 C3.68 17.67 2.36 17.34 1 17 C1.33 11.72 1.66 6.44 2 1 C1.34 0.67 0.68 0.34 0 0 Z " fill="#010101" transform="translate(43,78)"/>
<path d="M0 0 C2.34765625 -0.328125 2.34765625 -0.328125 5.0625 -0.25 C5.96097656 -0.23453125 6.85945313 -0.2190625 7.78515625 -0.203125 C10 0 10 0 11 1 C11.04063832 2.66617115 11.042721 4.33388095 11 6 C7.33333333 6 3.66666667 6 0 6 C-0.66 6.66 -1.32 7.32 -2 8 C-2.20086443 4.28400809 -2.1519437 3.22791555 0 0 Z " fill="#B8B8B8" transform="translate(118,128)"/>
<path d="M0 0 C1.98 0 3.96 0 6 0 C5.01 0.495 5.01 0.495 4 1 C4.33 6.61 4.66 12.22 5 18 C3.68 18 2.36 18 1 18 C0.67 12.06 0.34 6.12 0 0 Z " fill="#2B2B2B" transform="translate(33,78)"/>
<path d="M0 0 C1.98 0 3.96 0 6 0 C5.67 0.66 5.34 1.32 5 2 C4.92883618 4.37402501 4.91590915 6.75000677 4.9375 9.125 C4.94652344 10.40632813 4.95554688 11.68765625 4.96484375 13.0078125 C4.97644531 13.99523437 4.98804688 14.98265625 5 16 C8.62885324 16.15149298 8.62885324 16.15149298 12 15 C12 15.99 12 16.98 12 18 C8.7 18 5.4 18 2 18 C2 12.39 2 6.78 2 1 C1.34 0.67 0.68 0.34 0 0 Z " fill="#131313" transform="translate(201,78)"/>
<path d="M0 0 C1.65 0 3.3 0 5 0 C5.12375 0.721875 5.2475 1.44375 5.375 2.1875 C5.9904931 4.95721894 6.88444374 7.3970354 8 10 C4.125 8.125 4.125 8.125 3 7 C2.67 7.99 2.34 8.98 2 10 C1.34 10 0.68 10 0 10 C0 6.7 0 3.4 0 0 Z " fill="#626262" transform="translate(57,109)"/>
<path d="M0 0 C1.66666667 0 3.33333333 0 5 0 C5.33 0.66 5.66 1.32 6 2 C6.33 1.67 6.66 1.34 7 1 C8.66617115 0.95936168 10.33388095 0.957279 12 1 C11.67 1.99 11.34 2.98 11 4 C9.68 3.67 8.36 3.34 7 3 C6.67 3.99 6.34 4.98 6 6 C4.34385343 6.38218767 2.67542976 6.71395102 1 7 C0 6 0 6 -0.0625 2.9375 C-0.041875 1.968125 -0.02125 0.99875 0 0 Z " fill="#B0B0B0" transform="translate(104,127)"/>
<path d="M0 0 C1.65 0 3.3 0 5 0 C5 0.99 5 1.98 5 3 C7.97 3 10.94 3 14 3 C14 3.33 14 3.66 14 4 C10.04 4 6.08 4 2 4 C1.67 4.99 1.34 5.98 1 7 C-0.65 7 -2.3 7 -4 7 C-3.67 5.35 -3.34 3.7 -3 2 C-2.01 2 -1.02 2 0 2 C0 1.34 0 0.68 0 0 Z " fill="#DED6D6" transform="translate(198,93)"/>
<path d="M0 0 C0.94875 0.04125 1.8975 0.0825 2.875 0.125 C2.545 1.115 2.215 2.105 1.875 3.125 C1.875 2.465 1.875 1.805 1.875 1.125 C0.555 1.455 -0.765 1.785 -2.125 2.125 C-2.125 3.445 -2.125 4.765 -2.125 6.125 C0.29380929 8.39377535 0.29380929 8.39377535 2.875 10.125 C2.545 11.445 2.215 12.765 1.875 14.125 C-4.92971172 8.10144141 -4.92971172 8.10144141 -5.6875 4.3125 C-4.75171543 0.67333777 -3.71434174 0.14857367 0 0 Z " fill="#121212" transform="translate(67.125,77.875)"/>
<path d="M0 0 C2.475 0.495 2.475 0.495 5 1 C5.125 3.375 5.125 3.375 5 6 C4.34 6.66 3.68 7.32 3 8 C2.01 8 1.02 8 0 8 C0 5.36 0 2.72 0 0 Z " fill="#EFEFEF" transform="translate(48,80)"/>
<path d="M0 0 C2 4 2 4 1.1875 6.5625 C0.795625 7.366875 0.40375 8.17125 0 9 C-0.33 9.99 -0.66 10.98 -1 12 C-2.32 11.67 -3.64 11.34 -5 11 C-3.35 7.37 -1.7 3.74 0 0 Z " fill="#C8222A" transform="translate(188,84)"/>
<path d="M0 0 C0.33 0 0.66 0 1 0 C1.18451025 9.41002278 1.18451025 9.41002278 0 14 C0.66 14.33 1.32 14.66 2 15 C0.02 15 -1.96 15 -4 15 C-3.34 14.67 -2.68 14.34 -2 14 C-1.56846183 11.77865558 -1.56846183 11.77865558 -1.4375 9.1875 C-1.20718875 6.00544462 -0.86713747 3.0743965 0 0 Z " fill="#151515" transform="translate(102,81)"/>
<path d="M0 0 C1.98 0 3.96 0 6 0 C5.67 0.66 5.34 1.32 5 2 C4.34 1.67 3.68 1.34 3 1 C3 1.99 3 2.98 3 4 C3.99 4.33 4.98 4.66 6 5 C5.01 5.495 5.01 5.495 4 6 C3.34786708 8.02463255 3.34786708 8.02463255 3 10 C2.34 10 1.68 10 1 10 C0.67 6.7 0.34 3.4 0 0 Z " fill="#747474" transform="translate(68,109)"/>
<path d="M0 0 C1.65 0 3.3 0 5 0 C4.67 0.66 4.34 1.32 4 2 C3.34 1.67 2.68 1.34 2 1 C2 1.99 2 2.98 2 4 C2.99 4 3.98 4 5 4 C5 4.66 5 5.32 5 6 C4.34 6 3.68 6 3 6 C2.67 7.32 2.34 8.64 2 10 C1.34 10 0.68 10 0 10 C0 6.7 0 3.4 0 0 Z " fill="#6F6F6F" transform="translate(172,109)"/>
<path d="M0 0 C1.32 0.33 2.64 0.66 4 1 C3.01 1 2.02 1 1 1 C1 3.64 1 6.28 1 9 C2.98 8.34 4.96 7.68 7 7 C6.34 8.32 5.68 9.64 5 11 C3.68 10.67 2.36 10.34 1 10 C1 11.98 1 13.96 1 16 C0.67 16 0.34 16 0 16 C0 10.72 0 5.44 0 0 Z " fill="#606060" transform="translate(47,79)"/>
<path d="M0 0 C1.98 0.495 1.98 0.495 4 1 C3.01 1 2.02 1 1 1 C1.99 1.33 2.98 1.66 4 2 C4 3.65 4 5.3 4 7 C2.68 6.67 1.36 6.34 0 6 C-1.125 2.25 -1.125 2.25 0 0 Z " fill="#A8A8A8" transform="translate(91,127)"/>
<path d="M0 0 C1.4370809 -0.05422947 2.87475462 -0.09289723 4.3125 -0.125 C5.11300781 -0.14820312 5.91351563 -0.17140625 6.73828125 -0.1953125 C9 0 9 0 12 2 C12.1875 5.125 12.1875 5.125 12 8 C11.34 8 10.68 8 10 8 C9.34 6.02 8.68 4.04 8 2 C5.36 1.67 2.72 1.34 0 1 C0 0.67 0 0.34 0 0 Z " fill="#1A1A1A" transform="translate(43,78)"/>
<path d="M0 0 C4.29 0 8.58 0 13 0 C13 1.32 13 2.64 13 4 C12.34 4 11.68 4 11 4 C11 3.34 11 2.68 11 2 C7.37 1.67 3.74 1.34 0 1 C0 0.67 0 0.34 0 0 Z " fill="#414141" transform="translate(16,74)"/>
<path d="M0 0 C0.99 0 1.98 0 3 0 C4.125 3.75 4.125 3.75 3 6 C1.68 5.67 0.36 5.34 -1 5 C-0.67 3.35 -0.34 1.7 0 0 Z " fill="#BABABA" transform="translate(97,128)"/>
<path d="M0 0 C0.99 0.33 1.98 0.66 3 1 C4.125 3.9375 4.125 3.9375 5 7 C5.33 7.66 5.66 8.32 6 9 C3.53199953 7.84826645 1.95216435 6.95216435 0 5 C-0.125 2.375 -0.125 2.375 0 0 Z " fill="#A0A0A0" transform="translate(59,110)"/>
</svg>
