<?xml version="1.0" encoding="UTF-8"?>
<svg version="1.1" xmlns="http://www.w3.org/2000/svg" width="1024" height="1024">
<path d="M0 0 C337.92 0 675.84 0 1024 0 C1024 337.92 1024 675.84 1024 1024 C686.08 1024 348.16 1024 0 1024 C0 686.08 0 348.16 0 0 Z " fill="#FDFDFD" transform="translate(0,0)"/>
<path d="M0 0 C23.76 0 47.52 0 72 0 C76.62 7.26 81.24 14.52 86 22 C90.38135117 28.59802098 90.38135117 28.59802098 94.79296875 35.17578125 C97.62646639 39.40519669 100.38762998 43.68001838 103.1484375 47.95703125 C106.9667687 53.87199544 110.8085566 59.77045831 114.68359375 65.6484375 C115.15259094 66.3599144 115.62158813 67.0713913 116.10479736 67.8044281 C117.06054723 69.25395622 118.0163888 70.70342386 118.97232056 72.15283203 C125.96017751 82.75098228 132.92621 93.35337836 139.63867188 104.12890625 C144.29920776 111.56693322 149.21595525 118.83259571 154.10842896 126.11883545 C159.84614959 134.67235766 165.40969734 143.31544522 170.76538086 152.11474609 C174.05326715 157.5158349 177.48459029 162.72688543 181 168 C181.33 115.53 181.66 63.06 182 9 C202.13 9 222.26 9 243 9 C243 87.87 243 166.74 243 248 C220.89 248 198.78 248 176 248 C170.41666667 239.625 164.83333333 231.25 159.25 222.875 C158.7969751 222.1958252 158.3439502 221.51665039 157.87719727 220.81689453 C155.52770593 217.29444479 153.1822156 213.76937591 150.83984375 210.2421875 C141.82746566 196.68375361 132.73419234 183.18101644 123.625 169.6875 C113.34040734 154.45246206 103.09187145 139.19527392 92.91845703 123.88574219 C89.78380751 119.17060382 86.64161409 114.46049953 83.5 109.75 C82.37756732 108.06643082 81.25517004 106.38283803 80.1328125 104.69921875 C79.60719727 103.9107959 79.08158203 103.12237305 78.54003906 102.31005859 C73.36002604 94.54003906 68.18001302 86.77001953 63 79 C62.67 134.77 62.34 190.54 62 248 C41.54 248 21.08 248 0 248 C0 166.16 0 84.32 0 0 Z " fill="#1C1653" transform="translate(443,303)"/>
<path d="M0 0 C20.13 0 40.26 0 61 0 C61.33 38.61 61.66 77.22 62 117 C71.22602807 101.43107764 80.40575887 85.87121708 89.42578125 70.1875 C93.21331152 63.61499109 97.06492467 57.08173028 100.93505859 50.55761719 C104.07582446 45.2613486 107.20083005 39.9563027 110.30859375 34.640625 C110.8677951 33.68456108 110.8677951 33.68456108 111.43829346 32.70918274 C112.9183963 30.17835047 114.39844986 27.64749554 115.87542725 25.11483765 C116.21801575 24.52739777 116.56060425 23.93995789 116.91357422 23.3347168 C117.25040222 22.75400421 117.58723022 22.17329163 117.93426514 21.57498169 C118.61577124 20.41879643 119.31220423 19.2712803 120.02325439 18.13302612 C121.83860719 15.19934561 123.14381515 12.55936075 124.21826172 9.26733398 C125.80041425 5.17551219 127.12105685 2.1548214 131 0 C140.20780198 -2.08329356 149.98632386 -1.2813154 159.36303711 -0.89263916 C162.92853437 -0.75892792 166.49521118 -0.70013108 170.0625 -0.63476562 C177.04459732 -0.495909 184.02195245 -0.27447408 191 0 C188.18125652 12.42612743 178.74022612 24.82927815 172.49609375 35.828125 C168.94951643 42.07870608 165.44188025 48.35069336 161.9375 54.625 C157.21883209 63.06845466 152.44846988 71.47972786 147.63110352 79.8671875 C142.63143894 88.59678705 137.76022672 97.397573 132.89868164 106.20458984 C132.29016357 107.30496582 131.68164551 108.4053418 131.0546875 109.5390625 C130.24233643 111.01173584 130.24233643 111.01173584 129.41357422 112.51416016 C128.34894861 114.38635669 127.19467376 116.20798936 126 118 C126.04551441 124.06251972 129.5035637 128.4717197 132.6875 133.375 C133.88688304 135.26517324 135.08339608 137.15717002 136.27734375 139.05078125 C136.89593262 140.03127441 137.51452148 141.01176758 138.15185547 142.02197266 C141.12235206 146.80851393 143.93541711 151.6831871 146.75 156.5625 C151.79141065 165.27359519 156.94509821 173.90847483 162.1875 182.5 C168.63154202 193.06361204 174.99841327 203.67067459 181.3125 214.3125 C181.72100189 215.00053711 182.12950378 215.68857422 182.55038452 216.39746094 C185.04112816 220.59388347 187.5310584 224.79070305 190 229 C190.37434174 229.62764252 190.74868347 230.25528503 191.1343689 230.90194702 C194 235.77500566 194 235.77500566 194 238 C186.31646467 238.3022237 178.63354943 238.53268413 170.94541168 238.67355824 C167.37422255 238.74120953 163.80711803 238.83278024 160.23828125 238.98071289 C137.41111897 239.90134629 137.41111897 239.90134629 132.03485107 236.90463257 C128.61573693 233.63148555 127.44685108 229.37985113 126 225 C124.66119605 222.66868589 123.30434348 220.42217374 121.8515625 218.16796875 C121.15089731 217.01914145 120.45388973 215.86807566 119.76049805 214.71484375 C114.07677177 205.32558059 108.38059541 195.94763087 102.52905273 186.66162109 C98.81873734 180.75431548 95.24903719 174.7650099 91.67285156 168.77587891 C87.98252222 162.60768981 84.22841223 156.48183133 80.4375 150.375 C79.90189453 149.51132812 79.36628906 148.64765625 78.81445312 147.7578125 C76.66368907 144.29052015 74.51225208 140.82365384 72.35742188 137.35888672 C70.79647377 134.84606081 69.24135353 132.32971727 67.6875 129.8125 C67.21304443 129.05179199 66.73858887 128.29108398 66.24975586 127.50732422 C63 122.22791982 63 122.22791982 63 120 C62.34 120 61.68 120 61 120 C61 158.94 61 197.88 61 238 C40.87 238 20.74 238 0 238 C0 159.46 0 80.92 0 0 Z " fill="#1B1552" transform="translate(706,313)"/>
<path d="M0 0 C19.8 0 39.6 0 60 0 C60 62.37 60 124.74 60 189 C83.1 189 106.2 189 130 189 C130 205.17 130 221.34 130 238 C87.1 238 44.2 238 0 238 C0 159.46 0 80.92 0 0 Z " fill="#1B1552" transform="translate(128,313)"/>
<path d="M0 0 C0 56.76 0 113.52 0 172 C-22.11 172 -44.22 172 -67 172 C-67 118.87 -67 65.74 -67 11 C-63 12.33333333 -59 13.66666667 -55 15 C-55 15.66 -55 16.32 -55 17 C-36.04981877 17.42320504 -18.26574213 14.34732634 -3.53125 1.25 C-2 0 -2 0 0 0 Z " fill="#1A1452" transform="translate(356,379)"/>
<path d="M0 0 C4.57248702 3.34572221 7.15898675 8.25149167 10.08984375 13.01171875 C12.65694077 17.02772943 15.50865633 20.80188735 18.3984375 24.58984375 C20.91085363 28.37072363 21.53651212 32.23205964 21.46875 36.7890625 C20.01130371 43.66335084 13.44997106 48.6252674 8.3046875 52.9296875 C1.66577018 58.89346069 -4.40792382 65.73593252 -9.75 72.875 C-17.59622226 83.12815518 -17.59622226 83.12815518 -23.2265625 84.5703125 C-28.84654715 84.86000243 -33.48435028 83.29406538 -38 80 C-40.58129055 77.59051613 -43.03513436 75.08642675 -45.48828125 72.546875 C-52.96610872 64.78282622 -52.96610872 64.78282622 -62.8828125 61.53125 C-68.51239718 62.77765251 -73.43347245 66.87716747 -76.79296875 71.4296875 C-78.20312612 74.43254689 -78.56642153 75.72522676 -78 79 C-76.7109041 81.78366724 -75.15486986 84.38068448 -73.5625 87 C-68.47036978 95.45309213 -68.47036978 95.45309213 -68 100 C-67.8865625 100.96035156 -67.773125 101.92070312 -67.65625 102.91015625 C-67.16096062 112.90261942 -70.19932291 119.43076903 -76.68359375 126.953125 C-85.79975327 135.64291625 -103.14018196 147.76183709 -115.75 148.75 C-124.52254284 147.98102934 -130.1329305 139.87082523 -135.62573242 133.76123047 C-138.31879807 130.77142369 -140.99915778 127.98907475 -144.125 125.4375 C-147.81658129 122.30768108 -148.84297665 120.41321012 -149.375 115.625 C-148.62263545 108.3521427 -143.61529053 104.14867057 -138.30859375 99.53515625 C-126.0621629 89.80611106 -111.39445635 83.07335545 -97.53979492 76.01879883 C-89.48861685 71.88028883 -82.2484463 67.39706296 -75 62 C-73.33728918 60.97273606 -71.67089722 59.95139395 -70 58.9375 C-66.36241805 56.52346834 -64.38574971 54.08751923 -62.29394531 50.28466797 C-57.35122988 41.55751117 -50.92340179 34.4733632 -43.82226562 27.48608398 C-42.25732762 25.94471725 -40.70612521 24.39048089 -39.15625 22.83398438 C-12.68106468 -3.56495794 -12.68106468 -3.56495794 0 0 Z " fill="#F0EFF3" transform="translate(427,238)"/>
<path d="M0 0 C5.96792664 3.81408845 10.36025563 8.98037437 12.57421875 15.7578125 C14.16433043 24.13142813 14.27614419 32.94813832 9.39453125 40.15625 C8.93433594 40.7646875 8.47414063 41.373125 8 42 C7.34 43.010625 6.68 44.02125 6 45.0625 C-0.22436952 52.05768928 -10.20249708 56.23778181 -18.4375 60.5 C-19.09919189 60.85046387 -19.76088379 61.20092773 -20.44262695 61.56201172 C-24.45624223 63.57923575 -27.51508732 64.61272751 -32 64 C-40.17146435 59.9536294 -52.87677808 48.24644384 -57 40 C-57.89164574 33.42411264 -57.89164574 33.42411264 -55.89453125 30.234375 C-54.05088632 28.28602925 -52.1119667 26.65561209 -50 25 C-49.15824219 24.33484375 -48.31648438 23.6696875 -47.44921875 22.984375 C-37.81819154 15.89185695 -27.15305582 10.69982156 -16.51098633 5.30737305 C-14.30520847 4.15891019 -12.16007392 2.95194248 -10.01953125 1.6875 C-6.19359907 -0.4506665 -4.31881548 -0.83345562 0 0 Z " fill="#F4F4F7" transform="translate(341,316)"/>
<path d="M0 0 C4.57248702 3.34572221 7.15898675 8.25149167 10.08984375 13.01171875 C12.65694077 17.02772943 15.50865633 20.80188735 18.3984375 24.58984375 C20.91085363 28.37072363 21.53651212 32.23205964 21.46875 36.7890625 C20.01130371 43.66335084 13.44997106 48.6252674 8.3046875 52.9296875 C1.66577018 58.89346069 -4.40792382 65.73593252 -9.75 72.875 C-17.59622226 83.12815518 -17.59622226 83.12815518 -23.2265625 84.5703125 C-28.84654715 84.86000243 -33.48435028 83.29406538 -38 80 C-40.58129055 77.59051613 -43.03513436 75.08642675 -45.48828125 72.546875 C-52.96610872 64.78282622 -52.96610872 64.78282622 -62.8828125 61.53125 C-68.51239718 62.77765251 -73.43347245 66.87716747 -76.79296875 71.4296875 C-78.20312612 74.43254689 -78.56642153 75.72522676 -78 79 C-76.7109041 81.78366724 -75.15486986 84.38068448 -73.5625 87 C-68.47036978 95.45309213 -68.47036978 95.45309213 -68 100 C-67.8865625 100.96035156 -67.773125 101.92070312 -67.65625 102.91015625 C-67.16096062 112.90261942 -70.19932291 119.43076903 -76.68359375 126.953125 C-85.79975327 135.64291625 -103.14018196 147.76183709 -115.75 148.75 C-124.52254284 147.98102934 -130.1329305 139.87082523 -135.62573242 133.76123047 C-138.31879807 130.77142369 -140.99915778 127.98907475 -144.125 125.4375 C-147.81658129 122.30768108 -148.84297665 120.41321012 -149.375 115.625 C-148.62263545 108.3521427 -143.61529053 104.14867057 -138.30859375 99.53515625 C-126.0621629 89.80611106 -111.39445635 83.07335545 -97.53979492 76.01879883 C-89.48861685 71.88028883 -82.2484463 67.39706296 -75 62 C-73.33728918 60.97273606 -71.67089722 59.95139395 -70 58.9375 C-66.36241805 56.52346834 -64.38574971 54.08751923 -62.29394531 50.28466797 C-57.35122988 41.55751117 -50.92340179 34.4733632 -43.82226562 27.48608398 C-42.25732762 25.94471725 -40.70612521 24.39048089 -39.15625 22.83398438 C-12.68106468 -3.56495794 -12.68106468 -3.56495794 0 0 Z M-13.5625 7.875 C-14.42230469 8.51695312 -15.28210938 9.15890625 -16.16796875 9.8203125 C-17.10253906 10.53960937 -18.03710938 11.25890625 -19 12 C-20.54107422 13.14082031 -20.54107422 13.14082031 -22.11328125 14.3046875 C-44.34743324 30.44714081 -44.34743324 30.44714081 -56.5625 53.75 C-56.38736385 58.27852046 -54.56051378 60.58551763 -51.4765625 63.77734375 C-41.10509429 73.81512485 -41.10509429 73.81512485 -28.6875 79.375 C-17.81224365 78.26904173 -9.67603156 65.7911816 -3 58 C4.25538871 49.58876241 4.25538871 49.58876241 7.6875 46.875 C9.72222502 45.22522295 11.24161543 43.71468688 12.875 41.6875 C13.30554688 41.15511719 13.73609375 40.62273437 14.1796875 40.07421875 C15.48225508 36.78058359 14.80491689 34.40095513 14 31 C12.36636109 27.76796214 12.36636109 27.76796214 10.25 24.6875 C7.16789705 19.94886982 4.50382919 15.1914372 2.203125 10.0234375 C0.72803244 7.54260001 -0.4642909 6.39198017 -3 5 C-7.56910934 4.43412875 -9.9258206 5.13009764 -13.5625 7.875 Z M-105.0625 83.9375 C-106.7343335 84.82949097 -106.7343335 84.82949097 -108.43994141 85.73950195 C-129.06862055 95.75424046 -129.06862055 95.75424046 -143.921875 112.12890625 C-144.24288512 115.28344805 -143.50938207 117.20050629 -141.8203125 119.8515625 C-140.00186174 122.04998805 -138.04004482 124.00437827 -136 126 C-135.02249865 127.00824889 -134.04739214 128.01882308 -133.07421875 129.03125 C-132.02997461 130.10545997 -130.9843985 131.17837673 -129.9375 132.25 C-129.4434668 132.75756836 -128.94943359 133.26513672 -128.44042969 133.78808594 C-123.05545042 139.51450168 -123.05545042 139.51450168 -115.97241211 142.20068359 C-109.53162429 141.82285423 -104.49232636 139.05209956 -99 135.875 C-98.16210938 135.41351563 -97.32421875 134.95203125 -96.4609375 134.4765625 C-88.86650533 130.19734685 -80.72402101 125.58298113 -76.5 117.6875 C-76.0359375 116.84574219 -75.571875 116.00398438 -75.09375 115.13671875 C-71.70309635 108.51283466 -71.7295905 98.78552228 -74 91.625 C-76.32798001 86.5079425 -80.93398929 80.53300535 -86 78 C-93.35108762 76.88983575 -98.74757186 80.51207842 -105.0625 83.9375 Z " fill="#231E5A" transform="translate(427,238)"/>
<path d="M0 0 C0.80759766 -0.00773438 1.61519531 -0.01546875 2.44726562 -0.0234375 C12.70433239 0.00962315 21.54229722 2.79333218 29.2734375 9.80078125 C31.95566378 12.8008436 33.28399123 15.25804092 33.5625 19.25 C33.64757812 19.9203125 33.73265625 20.590625 33.8203125 21.28125 C34.25481152 26.79749846 33.17552405 30.17297524 29.5859375 34.39453125 C22.74488283 40.66769914 14.6709848 43.45058511 5.5625 44.25 C4.469375 44.35570312 3.37625 44.46140625 2.25 44.5703125 C-7.85386282 45.0890376 -16.65018581 42.61200871 -24.80078125 36.46875 C-29.56182969 31.97384713 -31.70762679 27.55593289 -31.9375 20.9375 C-31.82037839 15.8185965 -30.69217685 12.82259978 -27.34375 8.96875 C-19.50226693 1.89856034 -10.28227178 -0.09800418 0 0 Z " fill="#949393" transform="translate(162.4375,570.75)"/>
<path d="M0 0 C0.81700882 0.00141495 1.63401764 0.0028299 2.4757843 0.00428772 C5.08415393 0.00988331 7.69243759 0.02243496 10.30078125 0.03515625 C12.06966022 0.04017182 13.83854053 0.04473463 15.60742188 0.04882812 C19.94274144 0.05985129 24.27799677 0.07711287 28.61328125 0.09765625 C28.61328125 4.38765625 28.61328125 8.67765625 28.61328125 13.09765625 C21.02328125 13.09765625 13.43328125 13.09765625 5.61328125 13.09765625 C5.61328125 13.75765625 5.61328125 14.41765625 5.61328125 15.09765625 C6.28230469 15.18402344 6.95132813 15.27039063 7.640625 15.359375 C11.50440955 16.31897458 14.69036943 18.02179645 18.17578125 19.91015625 C18.83513672 20.25369141 19.49449219 20.59722656 20.17382812 20.95117188 C23.84618591 22.91837459 26.95783035 24.80146223 29.61328125 28.09765625 C30.17654139 31.47721712 30.36059075 33.81981405 28.58984375 36.84765625 C26.4384801 39.55967831 24.92315777 40.99436408 21.61328125 42.09765625 C18.73633454 42.18295755 15.88427943 42.2135127 13.0078125 42.1953125 C12.16860764 42.19389755 11.32940277 42.1924826 10.46476746 42.19102478 C7.78506909 42.1854284 5.10545435 42.1728766 2.42578125 42.16015625 C0.60872517 42.15514078 -1.20833223 42.15057796 -3.02539062 42.14648438 C-7.47919888 42.13546016 -11.93294464 42.11819803 -16.38671875 42.09765625 C-16.38671875 37.47765625 -16.38671875 32.85765625 -16.38671875 28.09765625 C-9.12671875 27.76765625 -1.86671875 27.43765625 5.61328125 27.09765625 C-0.49908512 23.9760984 -0.49908512 23.9760984 -6.62231445 20.87597656 C-7.38632568 20.47991211 -8.15033691 20.08384766 -8.9375 19.67578125 C-9.71778564 19.2777832 -10.49807129 18.87978516 -11.30200195 18.46972656 C-13.65576661 16.9205806 -14.92241501 15.49736852 -16.38671875 13.09765625 C-16.88671875 9.66015625 -16.88671875 9.66015625 -16.38671875 6.09765625 C-11.5296326 0.05911671 -7.3165168 -0.04756922 0 0 Z " fill="#909090" transform="translate(865.38671875,570.90234375)"/>
<path d="M0 0 C5.61 0 11.22 0 17 0 C17.0919129 4.91223385 17.17151843 9.82147752 17.21972656 14.73388672 C17.23982393 16.40423702 17.26710683 18.07451713 17.30175781 19.74462891 C17.35036119 22.1476372 17.37298656 24.54971434 17.390625 26.953125 C17.41127014 27.69806213 17.43191528 28.44299927 17.45318604 29.21051025 C17.45470069 32.72199023 17.28570971 34.62543178 15.1262207 37.45654297 C11.75421214 39.90433699 9.0959586 39.91371854 5.015625 39.77734375 C-3.4222641 37.60229203 -9.71853516 28.56614548 -15 22 C-15.33 27.94 -15.66 33.88 -16 40 C-21.28 40 -26.56 40 -32 40 C-32.09182581 35.06946398 -32.17145725 30.1418915 -32.21972656 25.21118164 C-32.23984565 23.53399608 -32.26714451 21.85688069 -32.30175781 20.17993164 C-32.35026569 17.769518 -32.37296464 15.36003128 -32.390625 12.94921875 C-32.41127014 12.19912033 -32.43191528 11.44902191 -32.45318604 10.67619324 C-32.45542812 5.47773262 -32.45542812 5.47773262 -30.13061523 3.0390625 C-25.82398134 0.93879507 -21.63050654 1.02614856 -17 2 C-13.43754719 4.17799247 -10.78266875 6.909306 -8 10 C-7.30261719 10.763125 -6.60523438 11.52625 -5.88671875 12.3125 C-4.22386479 14.17862869 -2.60685917 16.08544439 -1 18 C-0.67 12.06 -0.34 6.12 0 0 Z " fill="#929191" transform="translate(779,573)"/>
<path d="M0 0 C4.12344511 0.39648511 5.2850398 1.44303698 8.25 4.3125 C9.8114749 6.79481729 11.0302245 9.39879566 12.25 12.0625 C14.3711386 16.54683359 16.43623763 20.81298045 19.3125 24.875 C21.25 28.3125 21.25 28.3125 21.5 31.8125 C19.02338551 38.74702057 13.52846135 43.18607401 7.984375 47.7734375 C5.50595809 49.9727534 3.42144143 52.44359353 1.2734375 54.9609375 C-1.23039464 57.87079647 -3.79303091 60.72198812 -6.375 63.5625 C-7.05804199 64.32361084 -7.05804199 64.32361084 -7.75488281 65.10009766 C-15.87282878 74.00982298 -15.87282878 74.00982298 -21.98046875 74.65234375 C-26.44936197 74.24944871 -28.7534875 72.67509088 -32.0625 69.875 C-32.61647461 69.42705078 -33.17044922 68.97910156 -33.74121094 68.51757812 C-49.39848666 55.72915418 -49.39848666 55.72915418 -50.25 49.875 C-50.02501107 39.45051308 -39.54549934 29.97204054 -32.52441406 22.99609375 C-24.33385922 15.22475828 -15.3616725 8.30671116 -5.69140625 2.484375 C-1.9410406 0.2205728 -1.9410406 0.2205728 0 0 Z M-33.625 28.375 C-38.27118617 34.01294749 -40.42871766 38.53716401 -40.15234375 45.921875 C-39.32101909 50.86139628 -36.29935377 53.15930324 -32.51953125 55.97265625 C-25.82281735 60.59371657 -20.8887833 62.00621669 -12.75 61.3125 C-7.04964314 59.82449898 -2.33145518 56.55946995 1.05078125 51.75390625 C5.47119295 43.33570619 7.10056955 35.79396339 4.44140625 26.48046875 C3.49115054 24.0142409 2.43659382 21.67292857 1.25 19.3125 C0.94191406 18.66925781 0.63382812 18.02601563 0.31640625 17.36328125 C-0.34746807 16.00059185 -1.04402127 14.65385959 -1.75 13.3125 C-15.56610012 12.39819926 -24.43700638 18.25853544 -33.625 28.375 Z " fill="#F6F6F8" transform="translate(420.75,242.6875)"/>
<path d="M0 0 C3.16057956 2.57836753 3.99830941 5.1352117 5.375 8.9375 C5.931875 9.68 6.48875 10.4225 7.0625 11.1875 C9.18599703 15.63673188 8.90225847 20.09954729 8.375 24.9375 C7.125 28.3125 7.125 28.3125 5.375 30.9375 C4.6015625 32.2059375 4.6015625 32.2059375 3.8125 33.5 C-1.52342951 38.83592951 -9.2424488 42.03444255 -16.75 42.3125 C-23.45718837 42.26802262 -28.53690529 39.88084027 -33.375 35.26953125 C-33.7875 34.82996094 -34.2 34.39039063 -34.625 33.9375 C-34.295 33.2775 -33.965 32.6175 -33.625 31.9375 C-33.09132813 32.28683594 -32.55765625 32.63617188 -32.0078125 32.99609375 C-26.30389745 36.47962664 -21.35353643 38.10753522 -14.625 37.9375 C-13.14 37.4425 -13.14 37.4425 -11.625 36.9375 C-12.27726562 36.85113281 -12.92953125 36.76476562 -13.6015625 36.67578125 C-19.80293571 35.67880532 -23.31022883 34.56046911 -27.625 29.9375 C-29.14073541 27.65442353 -30.37616363 25.38714058 -31.625 22.9375 C-34.08778801 25.40028801 -34.62271255 27.64426982 -35.625 30.9375 C-36.285 30.6075 -36.945 30.2775 -37.625 29.9375 C-38.43201802 22.91345427 -37.46732989 18.23493967 -33.53515625 12.33203125 C-24.62416456 1.16140159 -14.28416235 -4.18673724 0 0 Z " fill="#F4F4F7" transform="translate(336.625,327.0625)"/>
<path d="M0 0 C3.95983963 2.23715349 6.37885415 4.42796033 8.6875 8.375 C9.61279841 12.97670726 9.11217581 16.39639923 7.25 20.6875 C2.66981464 25.49110903 -1.59392339 27.20711977 -8.234375 27.6171875 C-11.93215221 27.66348068 -15.61853484 27.55020783 -19.3125 27.375 C-19.3125 31.665 -19.3125 35.955 -19.3125 40.375 C-24.5925 40.375 -29.8725 40.375 -35.3125 40.375 C-35.52040222 35.81655142 -35.6989209 31.2747661 -35.80688477 26.71533203 C-35.85189461 25.16886469 -35.91313085 23.62277504 -35.99145508 22.07763672 C-36.62360022 9.27773048 -36.62360022 9.27773048 -33.37451172 4.5625 C-24.93909214 -3.09518586 -10.59739468 -4.33611565 0 0 Z " fill="#929291" transform="translate(277.3125,572.625)"/>
<path d="M0 0 C0.95648437 0.01353516 1.91296875 0.02707031 2.8984375 0.04101562 C5.22420926 0.0759022 7.54968515 0.1296883 9.875 0.1875 C9.875 4.4775 9.875 8.7675 9.875 13.1875 C8.40546875 13.28546875 6.9359375 13.3834375 5.421875 13.484375 C3.48950892 13.63446169 1.55722092 13.78555602 -0.375 13.9375 C-1.82712891 14.0303125 -1.82712891 14.0303125 -3.30859375 14.125 C-8.89599954 14.54687392 -8.89599954 14.54687392 -13.796875 17.04296875 C-15.43761801 19.27187198 -15.43761801 19.27187198 -15.125 22.75 C-14.41828926 26.1758413 -14.41828926 26.1758413 -12.3125 28.0625 C-7.63103883 30.4701086 -3.04316098 30.30935167 2.125 30.25 C2.87007812 30.24548828 3.61515625 30.24097656 4.3828125 30.23632812 C6.2135764 30.22459246 8.04429873 30.2066585 9.875 30.1875 C9.875 34.1475 9.875 38.1075 9.875 42.1875 C0.85460219 44.44259945 -11.96821299 45.20869905 -20.26953125 40.51953125 C-31.05861394 32.77410557 -31.05861394 32.77410557 -33.125 26.1875 C-33.75529707 21.31267077 -33.73685885 17.48770007 -31.625 13 C-22.33468619 2.54839697 -13.95092081 -0.3820828 0 0 Z " fill="#939393" transform="translate(516.125,570.8125)"/>
<path d="M0 0 C4.59746887 0.13266836 7.22004415 0.89812557 10.44921875 4.0859375 C13.31920496 7.29483735 15.92493905 10.70287785 18.52099609 14.13476562 C20.99818814 17.30496816 23.73556702 20.20604432 26.5 23.125 C27.48550034 24.18384956 28.46991896 25.2437072 29.453125 26.3046875 C30.33484375 27.25601563 31.2165625 28.20734375 32.125 29.1875 C33.50799955 30.70106244 34.88438352 32.22073526 36.25 33.75 C37.02730469 34.61818359 37.02730469 34.61818359 37.8203125 35.50390625 C39.21626612 37.30527154 40.17532943 39.12083596 41.125 41.1875 C35.97321077 41.7912253 31.25792595 42.08087228 26.125 41.1875 C24.05078125 38.99609375 24.05078125 38.99609375 22.4375 36.25 C20.57767671 33.27344308 19.32892726 31.48996703 15.84912109 30.61572266 C9.94935209 29.91453397 4.05438116 29.99513458 -1.875 30.1875 C-2.535 33.8175 -3.195 37.4475 -3.875 41.1875 C-7.835 41.1875 -11.795 41.1875 -15.875 41.1875 C-15.70484375 40.34832031 -15.5346875 39.50914062 -15.359375 38.64453125 C-14.99585938 36.84048828 -14.99585938 36.84048828 -14.625 35 C-14.49222656 34.34668701 -14.35945312 33.69337402 -14.22265625 33.02026367 C-13.39421251 28.90702148 -12.61932283 24.78839533 -11.890625 20.65625 C-11.72208008 19.71934326 -11.55353516 18.78243652 -11.37988281 17.81713867 C-11.04742623 15.96210169 -10.7236273 14.10548891 -10.40917969 12.24731445 C-10.25352539 11.388396 -10.09787109 10.52947754 -9.9375 9.64453125 C-9.80472656 8.88116455 -9.67195312 8.11779785 -9.53515625 7.33129883 C-7.91093513 2.05678489 -5.3833912 0.45410024 0 0 Z " fill="#929191" transform="translate(660.875,571.8125)"/>
<path d="M0 0 C2.86633686 1.75352373 4.83561068 3.64477121 6.9921875 6.21875 C7.4871875 6.71375 7.4871875 6.71375 7.9921875 7.21875 C8.60892926 12.85244875 8.31215428 17.46013095 4.9921875 22.21875 C-3.43952163 28.9641173 -12.72828428 29.06065272 -23.0078125 28.21875 C-28.51233267 26.71456059 -32.33119434 23.56384419 -36.0078125 19.21875 C-37.37667852 15.11215194 -37.74811535 11.50396456 -37.0078125 7.21875 C-30.08376925 -5.68964492 -11.81239159 -5.56813072 0 0 Z " fill="#909090" transform="translate(535.0078125,630.78125)"/>
<path d="M0 0 C4.73505293 2.16830213 8.83541349 5.74819778 11.30859375 10.3515625 C12.36476101 15.01494719 11.77341191 18.36614799 9.74609375 22.6640625 C5.73581279 27.08565433 0.69164702 30.1952547 -5.32421875 30.58984375 C-15.33826748 30.83739462 -21.73718185 30.67333272 -29.62890625 23.7890625 C-32.67459842 20.18960812 -33.05048159 17.07741867 -32.96484375 12.41015625 C-32.49786669 8.89448608 -31.0120839 6.96976292 -28.69140625 4.3515625 C-20.25925531 -1.52652936 -9.95326683 -2.39802945 0 0 Z " fill="#211C59" transform="translate(692.69140625,628.6484375)"/>
<path d="M0 0 C15.18 0 30.36 0 46 0 C46 4.29 46 8.58 46 13 C41.05 13 36.1 13 31 13 C31 22.57 31 32.14 31 42 C25.72 42 20.44 42 15 42 C15 32.43 15 22.86 15 13 C10.05 13 5.1 13 0 13 C0 8.71 0 4.42 0 0 Z " fill="#939292" transform="translate(328,571)"/>
<path d="M0 0 C13 0 13 0 16.9375 3.625 C17.96973274 5.075287 18.99084009 6.5335645 20 8 C21.1182492 9.19313196 22.26231758 10.3629022 23.4375 11.5 C24.283125 12.325 25.12875 13.15 26 14 C26.33 9.71 26.66 5.42 27 1 C31.29 1 35.58 1 40 1 C40 10.57 40 20.14 40 30 C27 30 27 30 22.88671875 27.15625 C21.78477156 25.96953764 20.71757917 24.74960424 19.6875 23.5 C19.12611328 22.87996094 18.56472656 22.25992188 17.98632812 21.62109375 C16.62545443 20.10901187 15.30779177 18.55821998 14 17 C13.67 21.29 13.34 25.58 13 30 C8.71 30 4.42 30 0 30 C0 20.1 0 10.2 0 0 Z " fill="#26205D" transform="translate(547,628)"/>
<path d="M0 0 C11 0 11 0 14.48046875 2.5546875 C15.41505832 3.6343672 16.317902 4.74231945 17.1875 5.875 C17.66251953 6.43058594 18.13753906 6.98617187 18.62695312 7.55859375 C22 11.5984623 22 11.5984623 22 14 C22.66 14 23.32 14 24 14 C24 9.71 24 5.42 24 1 C27.96 1 31.92 1 36 1 C36 10.57 36 20.14 36 30 C24 30 24 30 19.5 26.25 C18.3159472 24.84783221 17.14900264 23.43103057 16 22 C14.68 20.68 13.36 19.36 12 18 C12 21.96 12 25.92 12 30 C8.04 30 4.08 30 0 30 C0 20.1 0 10.2 0 0 Z " fill="#1F1957" transform="translate(707,628)"/>
<path d="M0 0 C3.67125 -0.061875 7.3425 -0.12375 11.125 -0.1875 C12.84420654 -0.22846802 12.84420654 -0.22846802 14.59814453 -0.27026367 C21.14490734 -0.32364338 25.95129474 0.05291825 30.875 4.8125 C32.4320063 7.84001225 32.54907201 9.63693396 32 13 C29.53856432 15.9271127 27.17875822 17.88082786 24 20 C24.6496875 20.62648438 25.299375 21.25296875 25.96875 21.8984375 C26.8040625 22.71570313 27.639375 23.53296875 28.5 24.375 C29.3353125 25.18710937 30.170625 25.99921875 31.03125 26.8359375 C33 29 33 29 33 31 C29.16049142 31.64589864 25.82113987 31.83004195 22 31 C18.43382127 28.0665304 15.82207427 24.6283812 13 21 C12.34 20.67 11.68 20.34 11 20 C11 23.63 11 27.26 11 31 C7.37 31 3.74 31 0 31 C0 20.77 0 10.54 0 0 Z " fill="#969595" transform="translate(329,628)"/>
<path d="M0 0 C1.20205078 0.01289062 2.40410156 0.02578125 3.64257812 0.0390625 C4.88845703 0.07257812 6.13433594 0.10609375 7.41796875 0.140625 C8.68318359 0.15867187 9.94839844 0.17671875 11.25195312 0.1953125 C14.3705621 0.24238584 17.48762848 0.30813406 20.60546875 0.390625 C20.60546875 3.690625 20.60546875 6.990625 20.60546875 10.390625 C14.17046875 10.885625 14.17046875 10.885625 7.60546875 11.390625 C10.23515625 13.0303125 10.23515625 13.0303125 12.91796875 14.703125 C19.72815503 18.94947645 19.72815503 18.94947645 21.60546875 21.390625 C21.60546875 24.890625 21.60546875 24.890625 20.60546875 28.390625 C16.82459149 31.36317384 13.94514749 31.75090479 9.2109375 31.68359375 C8.00888672 31.67392578 6.80683594 31.66425781 5.56835938 31.65429688 C4.32248047 31.62916016 3.07660156 31.60402344 1.79296875 31.578125 C-0.10485352 31.55782227 -0.10485352 31.55782227 -2.04101562 31.53710938 C-5.15928768 31.50180818 -8.27669167 31.45249319 -11.39453125 31.390625 C-11.39453125 28.090625 -11.39453125 24.790625 -11.39453125 21.390625 C-6.44453125 21.060625 -1.49453125 20.730625 3.60546875 20.390625 C1.68734375 19.318125 -0.23078125 18.245625 -2.20703125 17.140625 C-6.0985391 14.96472814 -9.08403529 13.27036566 -11.39453125 9.390625 C-11.89453125 6.890625 -11.89453125 6.890625 -11.39453125 4.390625 C-7.6632231 0.65888949 -5.21720911 -0.09890444 0 0 Z " fill="#929292" transform="translate(456.39453125,627.609375)"/>
<path d="M0 0 C1.06669922 0.00322266 2.13339844 0.00644531 3.23242188 0.00976562 C4.88661133 0.02233398 4.88661133 0.02233398 6.57421875 0.03515625 C7.69634766 0.03966797 8.81847656 0.04417969 9.97460938 0.04882812 C12.73703385 0.06058312 15.49934873 0.07701548 18.26171875 0.09765625 C18.26171875 3.39765625 18.26171875 6.69765625 18.26171875 10.09765625 C11.82671875 10.59265625 11.82671875 10.59265625 5.26171875 11.09765625 C6.10476563 11.57976563 6.9478125 12.061875 7.81640625 12.55859375 C8.91210938 13.19023438 10.0078125 13.821875 11.13671875 14.47265625 C12.22726562 15.09914063 13.3178125 15.725625 14.44140625 16.37109375 C17.26171875 18.09765625 17.26171875 18.09765625 19.26171875 20.09765625 C19.82171875 26.25765625 19.82171875 26.25765625 18.01171875 28.97265625 C14.3028401 31.35693538 10.49322916 31.21643816 6.18359375 31.1953125 C5.0234375 31.19208984 3.86328125 31.18886719 2.66796875 31.18554688 C1.46140625 31.17716797 0.25484375 31.16878906 -0.98828125 31.16015625 C-2.2103125 31.15564453 -3.43234375 31.15113281 -4.69140625 31.14648438 C-7.70708071 31.1347044 -10.72265623 31.11825478 -13.73828125 31.09765625 C-13.73828125 27.79765625 -13.73828125 24.49765625 -13.73828125 21.09765625 C-8.45828125 20.76765625 -3.17828125 20.43765625 2.26171875 20.09765625 C0.54984375 19.21078125 -1.16203125 18.32390625 -2.92578125 17.41015625 C-7.26014112 15.03072673 -10.77628646 13.08102856 -13.73828125 9.09765625 C-14.3043793 6.12564149 -14.24973958 4.85138432 -12.55078125 2.34765625 C-8.82276003 -0.22339286 -4.39127699 -0.02348276 0 0 Z " fill="#26205C" transform="translate(621.73828125,627.90234375)"/>
<path d="M0 0 C3.650625 -0.0825 7.30125 -0.165 11.0625 -0.25 C12.19953369 -0.28641602 13.33656738 -0.32283203 14.50805664 -0.36035156 C20.90573738 -0.43009331 24.83077295 0.12845685 30 4 C31.60847182 7.21694364 31.61309149 10.52137222 31 14 C28.82425584 16.69105198 27.08934144 18.45532928 24 20 C21.7927077 20.07092842 19.58332548 20.08415025 17.375 20.0625 C16.18648438 20.05347656 14.99796875 20.04445313 13.7734375 20.03515625 C12.85820312 20.02355469 11.94296875 20.01195312 11 20 C11 23.3 11 26.6 11 30 C7.37 30 3.74 30 0 30 C0 20.1 0 10.2 0 0 Z " fill="#949494" transform="translate(295,628)"/>
<path d="M0 0 C5.28 0 10.56 0 16 0 C16 13.86 16 27.72 16 42 C10.72 42 5.44 42 0 42 C0 28.14 0 14.28 0 0 Z " fill="#939292" transform="translate(577,571)"/>
<path d="M0 0 C5.28 0 10.56 0 16 0 C16 13.86 16 27.72 16 42 C10.72 42 5.44 42 0 42 C0 28.14 0 14.28 0 0 Z " fill="#969594" transform="translate(416,571)"/>
<path d="M0 0 C3.16057956 2.57836753 3.99830941 5.1352117 5.375 8.9375 C5.931875 9.68 6.48875 10.4225 7.0625 11.1875 C9.18599703 15.63673188 8.90225847 20.09954729 8.375 24.9375 C7.125 28.3125 7.125 28.3125 5.375 30.9375 C4.6015625 32.2059375 4.6015625 32.2059375 3.8125 33.5 C-1.52342951 38.83592951 -9.2424488 42.03444255 -16.75 42.3125 C-23.45718837 42.26802262 -28.53690529 39.88084027 -33.375 35.26953125 C-33.7875 34.82996094 -34.2 34.39039063 -34.625 33.9375 C-34.295 33.2775 -33.965 32.6175 -33.625 31.9375 C-33.09132813 32.28683594 -32.55765625 32.63617188 -32.0078125 32.99609375 C-26.30389745 36.47962664 -21.35353643 38.10753522 -14.625 37.9375 C-13.14 37.4425 -13.14 37.4425 -11.625 36.9375 C-12.27726562 36.85113281 -12.92953125 36.76476562 -13.6015625 36.67578125 C-19.80293571 35.67880532 -23.31022883 34.56046911 -27.625 29.9375 C-29.14073541 27.65442353 -30.37616363 25.38714058 -31.625 22.9375 C-34.08778801 25.40028801 -34.62271255 27.64426982 -35.625 30.9375 C-36.285 30.6075 -36.945 30.2775 -37.625 29.9375 C-38.43201802 22.91345427 -37.46732989 18.23493967 -33.53515625 12.33203125 C-24.62416456 1.16140159 -14.28416235 -4.18673724 0 0 Z M-25.625 10.6875 C-28.24453849 14.94425005 -28.54530706 18.06425502 -27.625 22.9375 C-25.07680948 28.45857947 -21.06405921 31.49233002 -15.625 33.9375 C-11.55380305 35.28746059 -8.34803632 35.73898205 -4.3828125 33.89453125 C0.30732234 30.69046478 2.83764128 27.51042538 4.375 21.9375 C5.03006965 17.66710925 4.71668019 14.59555074 2.6875 10.6875 C-1.08657568 6.19941 -4.3466603 3.17319031 -10.25 2.5625 C-16.58164305 2.65442948 -21.29557491 6.32148822 -25.625 10.6875 Z " fill="#29245C" transform="translate(336.625,327.0625)"/>
<path d="M0 0 C0 2.97 0 5.94 0 9 C-0.88042969 9.02578125 -1.76085937 9.0515625 -2.66796875 9.078125 C-4.41013672 9.16320312 -4.41013672 9.16320312 -6.1875 9.25 C-7.91033203 9.31960938 -7.91033203 9.31960938 -9.66796875 9.390625 C-13.48260114 10.08826 -15.20961189 11.37251591 -18 14 C-17.72965366 16.43717258 -17.72965366 16.43717258 -17 19 C-13.2632157 21.49118953 -11.25548181 21.2065226 -6.8125 21.125 C-5.54019531 21.10695313 -4.26789063 21.08890625 -2.95703125 21.0703125 C-1.98121094 21.04710937 -1.00539063 21.02390625 0 21 C0.02689216 22.47906892 0.04634621 23.95827483 0.0625 25.4375 C0.07410156 26.26121094 0.08570313 27.08492187 0.09765625 27.93359375 C0 30 0 30 -1 31 C-10.53057548 31.68075539 -18.84170756 31.40227799 -26.9375 26.0625 C-30.06135797 22.93864203 -31.31196777 20.09842276 -31.5 15.6875 C-31.39343563 11.06717328 -29.91124847 8.67923733 -26.70703125 5.4375 C-18.99543491 -1.05647587 -9.50400076 -0.14045321 0 0 Z " fill="#939393" transform="translate(425,628)"/>
<path d="M0 0 C8.91 0 17.82 0 27 0 C27 2.31 27 4.62 27 7 C21.06 7 15.12 7 9 7 C9 8.65 9 10.3 9 12 C14.28 12 19.56 12 25 12 C25 13.98 25 15.96 25 18 C19.72 18 14.44 18 9 18 C9 19.98 9 21.96 9 24 C14.61 24 20.22 24 26 24 C26 25.98 26 27.96 26 30 C17.42 30 8.84 30 0 30 C0 20.1 0 10.2 0 0 Z " fill="#919191" transform="translate(365,628)"/>
<path d="M0 0 C0.66 0 1.32 0 2 0 C2 56.76 2 113.52 2 172 C-20.11 172 -42.22 172 -65 172 C-65 171.34 -65 170.68 -65 170 C-43.55 170 -22.1 170 0 170 C0 113.9 0 57.8 0 0 Z " fill="#363265" transform="translate(354,379)"/>
<path d="M0 0 C2.64 0 5.28 0 8 0 C8.98414433 1.91411557 9.96213349 3.8313967 10.9375 5.75 C11.48277344 6.81734375 12.02804687 7.8846875 12.58984375 8.984375 C16.00943059 16.29717566 16.40684929 24.60294704 13.94140625 32.30859375 C10.94288992 38.81756823 7.47342999 43.68466035 1 47 C-4.8542465 48.88088241 -11.49965875 49.0389424 -17.125 46.4375 C-21.84922941 43.75306007 -27.52780302 39.94439396 -30 35 C-31.00155315 27.43111979 -29.46712393 22.13324042 -25 16 C-23.41446754 14.16592461 -21.82030362 12.61226892 -20 11 C-19.34 11.33 -18.68 11.66 -18 12 C-19.33463542 13.46484375 -20.66927083 14.9296875 -22.00390625 16.39453125 C-22.49697266 17.18923828 -22.49697266 17.18923828 -23 18 C-22.67 18.99 -22.34 19.98 -22 21 C-22.33 21.66 -22.66 22.32 -23 23 C-23.5872737 28.64686248 -23.35421348 33.23918087 -20 38 C-16.72118297 41.20256548 -14.07550302 42.84635671 -9.5 43.5 C-3.72264051 42.67466293 1.35483219 40.91827251 5.06640625 36.16015625 C7.22581323 31.16370411 6.91912454 25.36718936 7 20 C7.66 20.33 8.32 20.66 9 21 C9 23.64 9 26.28 9 29 C9.66 29 10.32 29 11 29 C11.5845278 19.98528234 11.63521499 12.44081359 6 5 C4.05785265 3.29436708 2.29749962 2.22889514 0 1 C0 0.67 0 0.34 0 0 Z " fill="#201C5A" transform="translate(411,256)"/>
<path d="M0 0 C5.10418993 0.34604677 10.34698079 1.37336748 14.421875 4.640625 C15.6875 6.25 15.6875 6.25 16.1875 9.6875 C15.6875 13.25 15.6875 13.25 13.6875 15.5625 C6.28493729 19.72644153 -1.08460798 20.01311972 -9.3125 18.25 C-12.33185501 16.89746365 -13.18794663 15.96470709 -15.3125 13.25 C-16.0625 9.75 -16.0625 9.75 -15.3125 6.25 C-10.54558924 1.02909774 -6.71901674 0.5070956 0 0 Z " fill="#FBFBFB" transform="translate(163.3125,582.75)"/>
<path d="M0 0 C4.29 0 8.58 0 13 0 C13 10.23 13 20.46 13 31 C8.71 31 4.42 31 0 31 C0 20.77 0 10.54 0 0 Z " fill="#2A245F" transform="translate(644,628)"/>
<path d="M0 0 C-0.33 0.66 -0.66 1.32 -1 2 C-0.236875 2.680625 0.52625 3.36125 1.3125 4.0625 C6.32397119 9.54015456 7.33894799 14.4806687 7.203125 21.66796875 C7.01043928 23.88014906 6.60769242 25.86817577 6 28 C5.34 28 4.68 28 4 28 C3.505 24.04 3.505 24.04 3 20 C2.34 20.99 1.68 21.98 1 23 C0.46375 21.9275 -0.0725 20.855 -0.625 19.75 C-2.85462528 15.93331506 -4.90276131 13.89686976 -9 12 C-13.15975604 11.28186622 -17.12364933 10.95801018 -20.90625 13.05859375 C-22.72821434 14.51027364 -22.72821434 14.51027364 -25 17 C-25.66 17.66 -26.32 18.32 -27 19 C-27.66 18.01 -28.32 17.02 -29 16 C-20.99201088 6.16161336 -13.18285371 -1.91364005 0 0 Z " fill="#2C255F" transform="translate(416,257)"/>
<path d="M0 0 C3.96 0 7.92 0 12 0 C12 9.57 12 19.14 12 29 C8.04 29 4.08 29 0 29 C0 19.43 0 9.86 0 0 Z " fill="#1D1753" transform="translate(592,629)"/>
<path d="M0 0 C3.96 0 7.92 0 12 0 C12 9.57 12 19.14 12 29 C8.04 29 4.08 29 0 29 C0 19.43 0 9.86 0 0 Z " fill="#8A8A8B" transform="translate(428,629)"/>
<path d="M0 0 C3.96 0 7.92 0 12 0 C12 9.57 12 19.14 12 29 C8.04 29 4.08 29 0 29 C0 19.43 0 9.86 0 0 Z " fill="#8E8E8E" transform="translate(482,629)"/>
<path d="M0 0 C0 0.66 0 1.32 0 2 C0.66 2.66 1.32 3.32 2 4 C1.20335937 4.45439453 1.20335937 4.45439453 0.390625 4.91796875 C-5.71528037 8.50087554 -5.71528037 8.50087554 -10 14 C-10.80827735 18.53814054 -10.42008898 22.00706241 -8.625 26.25 C-3.85087275 31.25146664 2.22374313 33.87264421 9 35 C5.29176559 37.47215628 3.68038564 37.26162568 -0.5859375 36.6640625 C-6.37570937 35.07140681 -10.53142335 31.24970075 -13.5 26.125 C-13.995 25.09375 -14.49 24.0625 -15 23 C-17.46278801 25.46278801 -17.99771255 27.70676982 -19 31 C-19.66 30.67 -20.32 30.34 -21 30 C-21.80679682 22.97787954 -20.83962295 18.30420653 -16.91796875 12.3984375 C-13.03714136 7.54542729 -6.78085859 0 0 0 Z " fill="#241D57" transform="translate(320,327)"/>
<path d="M0 0 C1 1 1 1 1.3125 3.8125 C1 7 1 7 -0.4375 9.3125 C-4.13925451 11.75024078 -7.61498506 12.07844392 -12 12 C-15.41211653 11.10988264 -17.99055043 9.9612941 -20 7 C-20.4375 4.0625 -20.4375 4.0625 -20 1 C-18.2422253 -1.32277371 -16.84274387 -2.62221827 -14.1875 -3.8125 C-8.71008429 -4.28199278 -4.4652336 -3.1519296 0 0 Z " fill="#F9F9F9" transform="translate(530,639)"/>
<path d="M0 0 C3.0625 1.625 3.0625 1.625 5 4 C5.62163712 7.65211807 5.25069768 9.48720929 3.625 12.8125 C2 15 2 15 0 16 C-4.25561995 16.50114443 -7.80908635 16.69712018 -11.5625 14.5 C-13.60389013 10.9497563 -13.77813307 7.99714672 -13 4 C-10.07851762 -1.08083892 -5.29312493 -0.92300043 0 0 Z " fill="#28255F" transform="translate(408,274)"/>
<path d="M0 0 C3.1875 2.0625 3.1875 2.0625 5 5 C5.1875 8.625 5.1875 8.625 4 12 C-0.1707028 15.07837587 -3.90638459 15.72765934 -9 15 C-11.82814413 13.6285939 -12.86565023 12.50786099 -15 10 C-15.125 6.375 -15.125 6.375 -14 3 C-9.84260354 -0.9638148 -5.45929138 -0.92455741 0 0 Z " fill="#F2F2F6" transform="translate(687,636)"/>
<path d="M0 0 C3.32961021 0.55493503 5.30091917 1.49496853 8 3.5 C9.55024464 6.60048928 9.28992015 9.07894218 9 12.5 C7.5625 15.4375 7.5625 15.4375 5 17.5 C1.85341686 18.21014629 -0.85341686 18.21014629 -4 17.5 C-7.31578076 14.83120085 -7.89008359 13.18392436 -8.5625 9 C-8 5.5 -8 5.5 -5.875 2.5625 C-3 0.5 -3 0.5 0 0 Z " fill="#2D2666" transform="translate(323,337.5)"/>
<path d="M0 0 C4.17041763 4.61953953 6.14358483 9.75804337 6.125 15.9375 C6.12886719 17.21947266 6.12886719 17.21947266 6.1328125 18.52734375 C6.00930254 20.82680852 5.64420687 22.79640348 5 25 C4.34 25 3.68 25 3 25 C2.91363281 24.34773438 2.82726562 23.69546875 2.73828125 23.0234375 C1.74632592 16.85329334 0.5533442 13.33651829 -4 9 C-7.3541265 6.65211145 -10.98999433 6.46269296 -15 6 C-10.73149965 1.28218382 -6.47970981 -1.27280014 0 0 Z " fill="#ECECF2" transform="translate(417,260)"/>
<path d="M0 0 C14.60538321 -0.58508212 14.60538321 -0.58508212 19 3 C20.6875 6.375 20.6875 6.375 22 10 C22.556875 10.78375 23.11375 11.5675 23.6875 12.375 C25.60204595 16.20409191 25.24730598 19.79579835 25 24 C24.01 23.67 23.02 23.34 22 23 C21.67 23.66 21.34 24.32 21 25 C20.97421875 24.34773438 20.9484375 23.69546875 20.921875 23.0234375 C20.45067346 15.76265016 18.97336677 11.68328221 13.4375 6.6875 C8.70529121 4.36441568 4.21409237 4.18555489 -1 4 C-0.67 2.68 -0.34 1.36 0 0 Z " fill="#211C5A" transform="translate(320,326)"/>
<path d="M0 0 C0.86367188 -0.01675781 1.72734375 -0.03351562 2.6171875 -0.05078125 C5.55596692 0.37492979 6.92333799 1.37196534 9.125 3.3125 C8.875 5.6875 8.875 5.6875 8.125 8.3125 C5.25631093 10.18033533 2.88958634 10.60799539 -0.5 10.625 C-1.27601563 10.64175781 -2.05203125 10.65851562 -2.8515625 10.67578125 C-3.85316406 10.49595703 -3.85316406 10.49595703 -4.875 10.3125 C-7.02415785 7.08876323 -7.25786803 6.04546326 -6.875 2.3125 C-4.37490913 -0.18759087 -3.4537141 0.01537261 0 0 Z " fill="#F6F6F6" transform="translate(263.875,579.6875)"/>
<path d="M0 0 C1.135132 1.702698 2.25653447 3.41526987 3.33203125 5.15625 C7.06035589 11.30018208 7.06035589 11.30018208 13 15 C15.99433748 15.50074225 18.9710109 15.80862596 22 16 C21.67 16.66 21.34 17.32 21 18 C13.95626845 20.27838242 8.36888158 18.10361742 2 15 C1.35160156 14.690625 0.70320313 14.38125 0.03515625 14.0625 C-1.32163606 13.39846988 -2.66326919 12.70354253 -4 12 C-2.68 8.04 -1.36 4.08 0 0 Z " fill="#E6E5ED" transform="translate(304,347)"/>
<path d="M0 0 C1.423125 -0.061875 2.84625 -0.12375 4.3125 -0.1875 C5.51326172 -0.23970703 5.51326172 -0.23970703 6.73828125 -0.29296875 C9 0 9 0 10.80078125 1.3515625 C12 3 12 3 11.875 5.5625 C11 8 11 8 8 10 C5.95703125 10.1953125 5.95703125 10.1953125 3.8125 10.125 C1.9253125 10.063125 1.9253125 10.063125 0 10 C0 6.7 0 3.4 0 0 Z " fill="#F3F3F3" transform="translate(340,633)"/>
<path d="M0 0 C8.625 -0.25 8.625 -0.25 12 2 C12.375 4.5 12.375 4.5 12 7 C7.7975546 9.80163026 4.99895065 9.14489712 0 9 C0 6.03 0 3.06 0 0 Z " fill="#F6F6F6" transform="translate(306,633)"/>
<path d="M0 0 C1.66666667 1.66666667 3.33333333 3.33333333 5 5 C5.928125 5.886875 6.85625 6.77375 7.8125 7.6875 C10 10 10 10 10 12 C5.71 12 1.42 12 -3 12 C-2.49202991 7.6822542 -1.80317221 3.96697886 0 0 Z " fill="#F3F3F3" transform="translate(663,583)"/>
<path d="M0 0 C6.46153846 0.46153846 6.46153846 0.46153846 9 3 C8.82229322 5.75445516 8.17311088 6.82070659 6.25 8.8125 C4 10 4 10 1.375 9.875 C-1 9 -1 9 -3 6 C-2.64111965 3.03923709 -2.15341979 2.15341979 0 0 Z " fill="#E9E9EE" transform="translate(401,276)"/>
<path d="M0 0 C5.94 0.33 11.88 0.66 18 1 C18 1.33 18 1.66 18 2 C12.72 2 7.44 2 2 2 C2 3.98 2 5.96 2 8 C10.25 8 18.5 8 27 8 C26.67 8.66 26.34 9.32 26 10 C17.42 10 8.84 10 0 10 C0 6.7 0 3.4 0 0 Z " fill="#302B61" transform="translate(608,649)"/>
<path d="M0 0 C0.33 0 0.66 0 1 0 C1.226875 1.216875 1.45375 2.43375 1.6875 3.6875 C2.98554763 8.76331385 5.40417931 11.44460946 9.9296875 14.15625 C13.54900801 16.06834386 16.89724086 17.48715511 21 18 C17.29236423 20.47175718 15.68364157 20.25640439 11.41796875 19.671875 C6.12968796 18.20243349 2.45836792 14.62994062 -1.125 10.625 C-2.45869537 6.62391388 -1.2792744 3.97248368 0 0 Z " fill="#453E6C" transform="translate(308,344)"/>
<path d="M0 0 C0.99 0.33 1.98 0.66 3 1 C3 1.66 3 2.32 3 3 C3.66 3.33 4.32 3.66 5 4 C-0.28535947 7.72377599 -3.65637718 9.13918836 -10.0625 9.1875 C-11.34833984 9.20876953 -11.34833984 9.20876953 -12.66015625 9.23046875 C-15 9 -15 9 -18 7 C-16.02 7 -14.04 7 -12 7 C-12 6.34 -12 5.68 -12 5 C-11.38511719 4.80664062 -10.77023437 4.61328125 -10.13671875 4.4140625 C-9.32847656 4.15367187 -8.52023437 3.89328125 -7.6875 3.625 C-6.88699219 3.36976563 -6.08648437 3.11453125 -5.26171875 2.8515625 C-2.77275472 2.01168189 -2.77275472 2.01168189 0 0 Z " fill="#2D2961" transform="translate(413,295)"/>
<path d="M0 0 C2.625 0.25 2.625 0.25 4.5 1.4375 C5.625 3.25 5.625 3.25 5.4375 5.8125 C4.625 8.25 4.625 8.25 2.625 10.25 C0.125 10.0625 0.125 10.0625 -2.375 9.25 C-4.375 6.25 -4.375 6.25 -4.0625 3.625 C-3.10785714 0.32714286 -3.10785714 0.32714286 0 0 Z " fill="#F0EFF3" transform="translate(321.375,342.75)"/>
<path d="M0 0 C-0.36825187 5.08942973 -3.16460208 7.82127655 -6.5625 11.3125 C-7.34270508 12.13717773 -7.34270508 12.13717773 -8.13867188 12.97851562 C-9.41708817 14.32730346 -10.70739433 15.66480436 -12 17 C-12.99 16.34 -13.98 15.68 -15 15 C-4.2 0 -4.2 0 0 0 Z " fill="#1A1656" transform="translate(390,261)"/>
<path d="M0 0 C0.66 0.33 1.32 0.66 2 1 C1.649375 1.70125 1.29875 2.4025 0.9375 3.125 C-0.1639193 6.50268586 0.20483859 8.58080593 1 12 C3.35367713 12.6878236 3.35367713 12.6878236 6 13 C6.99 12.34 7.98 11.68 9 11 C9.66 12.32 10.32 13.64 11 15 C9.43081508 16.56918492 7.85914841 16.28258943 5.6875 16.375 C2.14679609 16.32425743 1.29680393 16.23889097 -1.5625 13.9375 C-3.34447773 10.29606724 -3.51042042 8.01044618 -3 4 C-1.5 1.5625 -1.5 1.5625 0 0 Z " fill="#38356A" transform="translate(318,339)"/>
<path d="M0 0 C0.66 0.33 1.32 0.66 2 1 C2 1.99 2 2.98 2 4 C0.42578125 5.46484375 0.42578125 5.46484375 -1.6875 6.9375 C-2.78384766 7.71673828 -2.78384766 7.71673828 -3.90234375 8.51171875 C-4.59457031 9.00285156 -5.28679687 9.49398438 -6 10 C-6.9075 10.7425 -7.815 11.485 -8.75 12.25 C-10.77733473 13.8268159 -12.66122184 14.96054304 -15 16 C-11.96900954 9.20998706 -5.68240917 4.57364641 0 0 Z " fill="#CCCADA" transform="translate(397,258)"/>
<path d="M0 0 C0.66 0 1.32 0 2 0 C2 1.98 2 3.96 2 6 C1.34 6 0.68 6 0 6 C-0.99 8.64 -1.98 11.28 -3 14 C-3.66 13.67 -4.32 13.34 -5 13 C-5.05395478 11.37536158 -5.09277195 9.75021459 -5.125 8.125 C-5.14820313 7.22007812 -5.17140625 6.31515625 -5.1953125 5.3828125 C-5 3 -5 3 -3 1 C-2.01 1.33 -1.02 1.66 0 2 C0 1.34 0 0.68 0 0 Z " fill="#4D4B84" transform="translate(304,344)"/>
<path d="M0 0 C0.66 0.33 1.32 0.66 2 1 C0.66536458 2.46484375 -0.66927083 3.9296875 -2.00390625 5.39453125 C-2.33261719 5.92433594 -2.66132813 6.45414062 -3 7 C-2.67 7.99 -2.34 8.98 -2 10 C-3.4375 13.1875 -3.4375 13.1875 -5 16 C-5.99 15.67 -6.98 15.34 -8 15 C-7.85562749 8.07011948 -4.77744657 4.80239407 0 0 Z " fill="#181352" transform="translate(391,267)"/>
<path d="M0 0 C0.33 1.32 0.66 2.64 1 4 C-1.31 5.98 -3.62 7.96 -6 10 C-7.32 9.34 -8.64 8.68 -10 8 C-9.04578192 6.85073734 -8.08647955 5.70569459 -7.125 4.5625 C-6.59132813 3.92441406 -6.05765625 3.28632813 -5.5078125 2.62890625 C-3.68057607 0.65492285 -2.70796331 0 0 0 Z " fill="#1C194F" transform="translate(292,337)"/>
<path d="M0 0 C-0.33 0.99 -0.66 1.98 -1 3 C-0.34 3.66 0.32 4.32 1 5 C-0.28524261 5.86380259 -1.57842419 6.71580369 -2.875 7.5625 C-3.59429687 8.03816406 -4.31359375 8.51382812 -5.0546875 9.00390625 C-5.69664062 9.33261719 -6.33859375 9.66132813 -7 10 C-7.66 9.67 -8.32 9.34 -9 9 C-9 7.68 -9 6.36 -9 5 C-7.1875 3.375 -7.1875 3.375 -5 2 C-2 0 -2 0 0 0 Z " fill="#2A255D" transform="translate(338,368)"/>
<path d="M0 0 C0.94359375 0.50660156 0.94359375 0.50660156 1.90625 1.0234375 C7.24533348 3.80555028 12.09961692 5.79807011 18 7 C17.01 8.485 17.01 8.485 16 10 C10.49998892 9.58749917 6.19744358 7.50732335 2 4 C0.765625 1.83203125 0.765625 1.83203125 0 0 Z " fill="#363157" transform="translate(302,359)"/>
<path d="M0 0 C0.33 0 0.66 0 1 0 C1.32215416 4.6175429 0.92900057 7.33874929 -2 11 C-4.1875 11.8125 -4.1875 11.8125 -6 12 C-6.33 10.35 -6.66 8.7 -7 7 C-6.030625 6.401875 -5.06125 5.80375 -4.0625 5.1875 C-0.76947958 3.28872491 -0.76947958 3.28872491 0 0 Z " fill="#323068" transform="translate(412,278)"/>
<path d="M0 0 C-2.37417093 2.62408366 -4.84911879 4.38613402 -8 6 C-9.32 6 -10.64 6 -12 6 C-12 4.68 -12 3.36 -12 2 C-8.09971775 -0.60018816 -4.52565431 -0.15085514 0 0 Z " fill="#221C58" transform="translate(333,316)"/>
<path d="M0 0 C2.42130331 3.63195496 2.21022785 5.38349348 2.125 9.6875 C2.10695313 10.86699219 2.08890625 12.04648437 2.0703125 13.26171875 C2.03550781 14.61716797 2.03550781 14.61716797 2 16 C0.68 15.34 -0.64 14.68 -2 14 C-1.85970581 11.8537974 -1.71261836 9.70803782 -1.5625 7.5625 C-1.48128906 6.36753906 -1.40007812 5.17257812 -1.31640625 3.94140625 C-1 1 -1 1 0 0 Z " fill="#0F0B4A" transform="translate(356,334)"/>
<path d="M0 0 C0.66 0.33 1.32 0.66 2 1 C1.54625 1.7425 1.0925 2.485 0.625 3.25 C-0.99207827 5.85216344 -0.99207827 5.85216344 -1.9375 8.1875 C-3.26757334 10.45644863 -4.59686711 11.03874684 -7 12 C-7.74609375 10.265625 -7.74609375 10.265625 -8 8 C-6.34765625 5.859375 -6.34765625 5.859375 -4.0625 3.75 C-3.31097656 3.04359375 -2.55945313 2.3371875 -1.78515625 1.609375 C-1.19605469 1.07828125 -0.60695313 0.5471875 0 0 Z " fill="#29225B" transform="translate(397,252)"/>
<path d="M0 0 C0.99 0.33 1.98 0.66 3 1 C2.2884375 1.61875 2.2884375 1.61875 1.5625 2.25 C-0.14475903 3.86146339 -0.14475903 3.86146339 -0.375 5.9375 C-1.30935302 9.02086495 -3.45226747 10.1708587 -6 12 C-6.66 11.34 -7.32 10.68 -8 10 C-6.85500893 8.52018126 -5.708983 7.04116318 -4.5625 5.5625 C-3.60537109 4.32693359 -3.60537109 4.32693359 -2.62890625 3.06640625 C-1 1 -1 1 0 0 Z " fill="#1C1857" transform="translate(403,247)"/>
<path d="M0 0 C1.54296875 1.390625 1.54296875 1.390625 3.1875 3.25 C3.73792969 3.85328125 4.28835938 4.4565625 4.85546875 5.078125 C6 7 6 7 5.67578125 9.234375 C5.45277344 9.81703125 5.22976563 10.3996875 5 11 C4.52949219 10.59007812 4.05898438 10.18015625 3.57421875 9.7578125 C2.95160156 9.21898437 2.32898438 8.68015625 1.6875 8.125 C1.07261719 7.59132813 0.45773437 7.05765625 -0.17578125 6.5078125 C-2.13498212 4.8359553 -2.13498212 4.8359553 -5 3 C-2.25 0 -2.25 0 0 0 Z " fill="#2C285E" transform="translate(372,296)"/>
<path d="M0 0 C8.19256018 -0.4726477 8.19256018 -0.4726477 11.5625 1.5 C12.036875 1.995 12.51125 2.49 13 3 C12.67 4.65 12.34 6.3 12 8 C11.319375 7.175 10.63875 6.35 9.9375 5.5 C7.15521993 2.63931296 7.15521993 2.63931296 3.1875 2.6875 C2.135625 2.790625 1.08375 2.89375 0 3 C0 2.01 0 1.02 0 0 Z " fill="#1F1A51" transform="translate(399,274)"/>
<path d="M0 0 C6.93 0.495 6.93 0.495 14 1 C13.67 1.66 13.34 2.32 13 3 C11.07421875 3.44921875 11.07421875 3.44921875 8.6875 3.6875 C7.51767578 3.81705078 7.51767578 3.81705078 6.32421875 3.94921875 C4.00712895 3.99984424 2.20712606 3.67173402 0 3 C0 2.01 0 1.02 0 0 Z " fill="#EDEEF1" transform="translate(312,362)"/>
<path d="M0 0 C3.63 0 7.26 0 11 0 C9 3 9 3 6.6171875 3.51171875 C5.71226562 3.56972656 4.80734375 3.62773437 3.875 3.6875 C2.50988281 3.78611328 2.50988281 3.78611328 1.1171875 3.88671875 C0.06917969 3.94279297 0.06917969 3.94279297 -1 4 C-0.67 2.68 -0.34 1.36 0 0 Z " fill="#18134E" transform="translate(320,326)"/>
<path d="M0 0 C1.5625 1.75 1.5625 1.75 3 4 C2.6875 6.25 2.6875 6.25 2 8 C1.67 7.34 1.34 6.68 1 6 C0.67 9.96 0.34 13.92 0 18 C-0.33 18 -0.66 18 -1 18 C-1.22119939 15.37549914 -1.42746669 12.75129514 -1.625 10.125 C-1.68945312 9.37863281 -1.75390625 8.63226563 -1.8203125 7.86328125 C-1.96087365 5.9129953 -1.98759849 3.95530533 -2 2 C-1.34 1.34 -0.68 0.68 0 0 Z " fill="#4F4B7E" transform="translate(355,329)"/>
<path d="M0 0 C1.65 0 3.3 0 5 0 C5 0.66 5 1.32 5 2 C5.99 2.33 6.98 2.66 8 3 C6.34346314 4.65653686 4.39349204 4.17106165 2.125 4.1875 C1.24070312 4.20167969 0.35640625 4.21585937 -0.5546875 4.23046875 C-3 4 -3 4 -6 2 C-4.02 2 -2.04 2 0 2 C0 1.34 0 0.68 0 0 Z " fill="#373269" transform="translate(401,300)"/>
<path d="M0 0 C0 0.99 0 1.98 0 3 C0.66 3.33 1.32 3.66 2 4 C-1.465 5.485 -1.465 5.485 -5 7 C-5 6.01 -5 5.02 -5 4 C-5.66 3.67 -6.32 3.34 -7 3 C-2.25 0 -2.25 0 0 0 Z " fill="#322D62" transform="translate(321,319)"/>
<path d="M0 0 C0.99 0.33 1.98 0.66 3 1 C1.35 2.32 -0.3 3.64 -2 5 C-1.67 5.99 -1.34 6.98 -1 8 C-1.99 8.33 -2.98 8.66 -4 9 C-4.99 7.68 -5.98 6.36 -7 5 C-6.030625 4.360625 -5.06125 3.72125 -4.0625 3.0625 C-1.23963731 1.3034741 -1.23963731 1.3034741 0 0 Z " fill="#322C68" transform="translate(362,293)"/>
<path d="M0 0 C-0.33 0.99 -0.66 1.98 -1 3 C-7.625 3.25 -7.625 3.25 -11 1 C-3.57142857 -1.42857143 -3.57142857 -1.42857143 0 0 Z " fill="#262057" transform="translate(326,366)"/>
<path d="M0 0 C3.63 0 7.26 0 11 0 C11 0.66 11 1.32 11 2 C9.72125 2.144375 8.4425 2.28875 7.125 2.4375 C4.74307106 2.70642746 3.15547309 2.92226346 1 4 C0.67 2.68 0.34 1.36 0 0 Z " fill="#4B4574" transform="translate(707,628)"/>
<path d="M0 0 C1.32 0.66 2.64 1.32 4 2 C3.67 4.64 3.34 7.28 3 10 C2.67 10 2.34 10 2 10 C1.67 8.35 1.34 6.7 1 5 C0.01 4.67 -0.98 4.34 -2 4 C-1.34 2.68 -0.68 1.36 0 0 Z " fill="#302D5F" transform="translate(281,345)"/>
<path d="M0 0 C0.66 0.33 1.32 0.66 2 1 C-0.64 3.97 -3.28 6.94 -6 10 C-6.66 9.67 -7.32 9.34 -8 9 C-5.36 6.03 -2.72 3.06 0 0 Z " fill="#2F2A5F" transform="translate(432,286)"/>
<path d="M0 0 C4.455 0.99 4.455 0.99 9 2 C8.01 3.485 8.01 3.485 7 5 C1.25 4.25 1.25 4.25 -1 2 C-0.67 1.34 -0.34 0.68 0 0 Z " fill="#4F486E" transform="translate(311,364)"/>
<path d="M0 0 C1.32 0.66 2.64 1.32 4 2 C3 3.5625 3 3.5625 1 5 C-1.76614782 4.96726452 -4.26030547 4.49404328 -7 4 C-7 3.67 -7 3.34 -7 3 C-5.5459375 2.5359375 -5.5459375 2.5359375 -4.0625 2.0625 C-1.15934208 1.30476658 -1.15934208 1.30476658 0 0 Z " fill="#2B255A" transform="translate(331,326)"/>
<path d="M0 0 C0.89203125 0.20367187 1.7840625 0.40734375 2.703125 0.6171875 C3.37859375 0.78476562 4.0540625 0.95234375 4.75 1.125 C4.75 1.455 4.75 1.785 4.75 2.125 C3.99074219 2.18558594 3.23148437 2.24617188 2.44921875 2.30859375 C1.45535156 2.39238281 0.46148437 2.47617187 -0.5625 2.5625 C-2.04169922 2.68431641 -2.04169922 2.68431641 -3.55078125 2.80859375 C-6.34375599 3.04312559 -6.34375599 3.04312559 -9.25 4.125 C-9.25 3.135 -9.25 2.145 -9.25 1.125 C-5.82794357 -1.03377391 -3.8855015 -0.92025036 0 0 Z " fill="#C2C0D1" transform="translate(326.25,323.875)"/>
<path d="M0 0 C-1.13474948 3.40424844 -1.96811304 4.21653709 -5 6 C-5.99 5.67 -6.98 5.34 -8 5 C-8 4.34 -8 3.68 -8 3 C-2.25 0 -2.25 0 0 0 Z " fill="#E5E4EC" transform="translate(317,326)"/>
<path d="M0 0 C0.33 0 0.66 0 1 0 C0.67 2.31 0.34 4.62 0 7 C-1.32 7 -2.64 7 -4 7 C-3.67 5.35 -3.34 3.7 -3 2 C-2.67 2.66 -2.34 3.32 -2 4 C-1.34 4 -0.68 4 0 4 C0 2.68 0 1.36 0 0 Z " fill="#1B175B" transform="translate(331,345)"/>
<path d="M0 0 C0.99 0.33 1.98 0.66 3 1 C2.67 1.66 2.34 2.32 2 3 C3.32 3.33 4.64 3.66 6 4 C5.67 4.66 5.34 5.32 5 6 C4.67 5.67 4.34 5.34 4 5 C2.00041636 4.95919217 -0.00045254 4.95745644 -2 5 C-1.125 1.125 -1.125 1.125 0 0 Z " fill="#1F1A56" transform="translate(320,339)"/>
<path d="M0 0 C0.99 1.32 1.98 2.64 3 4 C2 5 2 5 -1.5625 5.0625 C-2.696875 5.041875 -3.83125 5.02125 -5 5 C-3.35 3.35 -1.7 1.7 0 0 Z " fill="#2C2966" transform="translate(326,350)"/>
<path d="M0 0 C0.33 0 0.66 0 1 0 C1.66 2.97 2.32 5.94 3 9 C1.68 9.33 0.36 9.66 -1 10 C-2.46726798 6.18510326 -1.43336419 3.70988378 0 0 Z " fill="#484075" transform="translate(308,344)"/>
<path d="M0 0 C0.33 0.66 0.66 1.32 1 2 C1.66 2 2.32 2 3 2 C3 2.66 3 3.32 3 4 C2.34 4 1.68 4 1 4 C1 4.66 1 5.32 1 6 C0.01 6.33 -0.98 6.66 -2 7 C-1.125 1.125 -1.125 1.125 0 0 Z " fill="#2E2A66" transform="translate(303,340)"/>
<path d="M0 0 C2.64 0.33 5.28 0.66 8 1 C7.67 1.99 7.34 2.98 7 4 C4.69 3.67 2.38 3.34 0 3 C0 2.01 0 1.02 0 0 Z " fill="#312E70" transform="translate(408,256)"/>
<path d="M0 0 C0.66 0.33 1.32 0.66 2 1 C1.67 3.31 1.34 5.62 1 8 C0.34 7.67 -0.32 7.34 -1 7 C-1.04254356 5.00045254 -1.04080783 2.99958364 -1 1 C-0.67 0.67 -0.34 0.34 0 0 Z " fill="#3B397D" transform="translate(300,350)"/>
<path d="M0 0 C0.66 0 1.32 0 2 0 C1.67 2.31 1.34 4.62 1 7 C0.01 6.01 -0.98 5.02 -2 4 C-1 1 -1 1 0 0 Z " fill="#332E6F" transform="translate(424,280)"/>
<path d="M0 0 C0.33 0 0.66 0 1 0 C1 1.98 1 3.96 1 6 C-1.49064888 6.68707555 -3.37886292 7 -6 7 C-5.195625 6.401875 -4.39125 5.80375 -3.5625 5.1875 C-0.77672016 3.19052724 -0.77672016 3.19052724 0 0 Z " fill="#3E3A6F" transform="translate(412,278)"/>
<path d="M0 0 C1.74627478 2.61941217 2.38722388 4.03824877 3 7 C2.01 7.33 1.02 7.66 0 8 C-0.66 6.02 -1.32 4.04 -2 2 C-1.34 2 -0.68 2 0 2 C0 1.34 0 0.68 0 0 Z " fill="#2B2463" transform="translate(422,263)"/>
<path d="M0 0 C0.66 0.33 1.32 0.66 2 1 C2 1.99 2 2.98 2 4 C-1 6 -1 6 -4 6 C-2.84826645 3.53199953 -1.95216435 1.95216435 0 0 Z " fill="#DFDEE8" transform="translate(397,258)"/>
<path d="M0 0 C0.99 0.33 1.98 0.66 3 1 C3.33 2.65 3.66 4.3 4 6 C1.525 5.01 1.525 5.01 -1 4 C-0.67 2.68 -0.34 1.36 0 0 Z " fill="#161153" transform="translate(336,328)"/>
<path d="M0 0 C1.65 0.99 3.3 1.98 5 3 C3.02 3.99 3.02 3.99 1 5 C0.01 4.01 -0.98 3.02 -2 2 C-1.34 1.34 -0.68 0.68 0 0 Z " fill="#39326C" transform="translate(410,267)"/>
<path d="M0 0 C1.32 0 2.64 0 4 0 C2.25 3.875 2.25 3.875 0 5 C0 4.34 0 3.68 0 3 C-0.66 2.67 -1.32 2.34 -2 2 C-1.34 1.34 -0.68 0.68 0 0 Z " fill="#110D4B" transform="translate(382,267)"/>
<path d="M0 0 C1.98 0.495 1.98 0.495 4 1 C4 1.99 4 2.98 4 4 C2.35 4.33 0.7 4.66 -1 5 C-0.67 3.35 -0.34 1.7 0 0 Z " fill="#231F5B" transform="translate(406,257)"/>
</svg>
