<?xml version="1.0" encoding="UTF-8"?>
<svg version="1.1" xmlns="http://www.w3.org/2000/svg" width="1121" height="333">
<path d="M0 0 C369.93 0 739.86 0 1121 0 C1121 109.89 1121 219.78 1121 333 C751.07 333 381.14 333 0 333 C0 223.11 0 113.22 0 0 Z " fill="#FEFEFE" transform="translate(0,0)"/>
<path d="M0 0 C0.87760986 -0.00315216 1.75521973 -0.00630432 2.65942383 -0.009552 C3.61357178 -0.00752777 4.56771973 -0.00550354 5.55078125 -0.00341797 C6.52362061 -0.00437469 7.49645996 -0.00533142 8.4987793 -0.00631714 C10.56005925 -0.00699905 12.62134133 -0.00514399 14.68261719 -0.00097656 C17.84965813 0.00437153 21.01655725 -0.00092119 24.18359375 -0.00732422 C26.1809899 -0.00666344 28.17838596 -0.00538228 30.17578125 -0.00341797 C31.1299292 -0.0054422 32.08407715 -0.00746643 33.06713867 -0.009552 C34.38355347 -0.00482376 34.38355347 -0.00482376 35.7265625 0 C36.50298096 0.00079559 37.27939941 0.00159119 38.0793457 0.00241089 C39.86328125 0.12939453 39.86328125 0.12939453 40.86328125 1.12939453 C41.20909292 2.70012691 41.49986166 4.28302668 41.76782227 5.86889648 C42.02970337 7.39981178 42.02970337 7.39981178 42.296875 8.96165466 C42.48507813 10.08564163 42.67328125 11.2096286 42.8671875 12.36767578 C43.16580688 14.1198214 43.16580688 14.1198214 43.47045898 15.90736389 C44.01284053 19.09106334 44.55196609 22.27529604 45.09013748 25.45970917 C46.09984339 31.42265099 47.12298477 37.38331572 48.14453125 43.34423828 C48.25857363 44.01036888 48.372616 44.67649948 48.49011421 45.36281586 C50.72713736 58.42370862 53.04904945 71.46824511 55.42578125 84.50439453 C55.59522247 85.43700104 55.7646637 86.36960754 55.9392395 87.33047485 C56.41342186 89.93826013 56.88973264 92.54564413 57.3671875 95.15283203 C57.50527832 95.91056412 57.64336914 96.6682962 57.78564453 97.44898987 C58.38533274 100.70296274 58.99825494 103.93425232 59.86328125 107.12939453 C60.18377441 106.60845215 60.50426758 106.08750977 60.83447266 105.55078125 C68.84410143 92.54328012 76.97810769 79.62117027 85.19628906 66.74462891 C92.95772706 54.56821945 100.62136384 42.33060903 108.26586914 30.08056641 C112.90581705 22.64896354 117.57441692 15.23596945 122.27148438 7.84033203 C122.96274414 6.74978516 122.96274414 6.74978516 123.66796875 5.63720703 C124.06999512 5.00443848 124.47202148 4.37166992 124.88623047 3.71972656 C125.91924694 2.09009624 125.91924694 2.09009624 126.86328125 0.12939453 C144.02328125 0.12939453 161.18328125 0.12939453 178.86328125 0.12939453 C178.86328125 7.94505833 178.86328125 7.94505833 177.98046875 12.23095703 C176.74143251 18.62647451 175.85665739 25.04943579 174.98828125 31.50439453 C174.73328857 33.37297119 174.73328857 33.37297119 174.47314453 35.27929688 C173.93420887 39.2290173 173.39824739 43.17913508 172.86328125 47.12939453 C172.15788518 52.3381307 171.44898562 57.54637987 170.73828125 62.75439453 C170.50069092 64.52049072 170.50069092 64.52049072 170.25830078 66.32226562 C169.4331061 72.36705476 168.47709111 78.35835391 167.35443115 84.35443115 C166.43465145 89.55112361 165.76045953 94.78243571 165.05859375 100.01220703 C164.7187596 102.50569792 164.37891552 104.99918746 164.0390625 107.49267578 C163.51624873 111.35079825 162.99440725 115.20905049 162.47314453 119.06738281 C160.41333293 134.28721094 158.22267562 149.46979663 155.75146484 164.62841797 C154.61094226 171.6368684 153.59565253 178.65967696 152.61328125 185.69189453 C152.03578125 189.79626953 151.45828125 193.90064453 150.86328125 198.12939453 C134.69328125 198.12939453 118.52328125 198.12939453 101.86328125 198.12939453 C104.86328125 174.12939453 104.86328125 174.12939453 106.86328125 165.12939453 C107.15603569 163.26961425 107.42154607 161.40507371 107.64453125 159.53564453 C107.76441406 158.56755859 107.88429687 157.59947266 108.0078125 156.60205078 C108.18376953 155.13058594 108.18376953 155.13058594 108.36328125 153.62939453 C109.10036605 147.46542163 109.959586 141.45609736 111.38134766 135.41259766 C112.3068022 131.02817471 112.76741733 126.57534498 113.30078125 122.12939453 C114.29185866 114.15639864 115.44098793 106.25010778 116.94897461 98.35791016 C117.54811054 95.18075951 117.86328125 92.38599495 117.86328125 89.12939453 C117.48220215 89.84144043 117.10112305 90.55348633 116.70849609 91.28710938 C92.3094991 136.87029677 92.3094991 136.87029677 81.48950195 156.62695312 C78.60374491 161.90637476 75.75041191 167.20198658 72.921875 172.51220703 C72.58487076 173.14424042 72.24786652 173.7762738 71.90065002 174.42745972 C70.24234289 177.53807864 68.58729988 180.65035642 66.93774414 183.765625 C66.33567139 184.89629395 65.73359863 186.02696289 65.11328125 187.19189453 C64.5821875 188.19349609 64.05109375 189.19509766 63.50390625 190.22705078 C62.9625 191.18482422 62.42109375 192.14259766 61.86328125 193.12939453 C61.26612305 194.22977051 60.66896484 195.33014648 60.05371094 196.46386719 C57.86328125 199.12939453 57.86328125 199.12939453 54.93066406 199.81054688 C53.82045898 199.77912598 52.71025391 199.74770508 51.56640625 199.71533203 C50.36113281 199.69599609 49.15585938 199.67666016 47.9140625 199.65673828 C46.65980469 199.60646484 45.40554687 199.55619141 44.11328125 199.50439453 C42.84355469 199.47732422 41.57382813 199.45025391 40.265625 199.42236328 C37.12980219 199.35163044 33.99739462 199.25295945 30.86328125 199.12939453 C28.29366533 189.87336578 26.02271042 180.63206761 24.14099121 171.20812988 C23.57024324 168.35058389 22.98881391 165.49523465 22.40820312 162.63967896 C22.08806106 161.06496783 21.76841066 159.49015668 21.44921875 157.91525269 C19.4289118 147.95800805 17.35238985 138.01244474 15.27789307 128.06637573 C14.62710486 124.94568223 13.97728404 121.8247886 13.32763672 118.70385742 C11.20335493 108.50569121 9.06487246 98.31120457 6.86328125 88.12939453 C6.65491135 88.6514296 6.44654144 89.17346466 6.2318573 89.71131897 C3.50638324 96.53879752 0.77904341 103.36552966 -1.94921875 110.19189453 C-2.616082 111.86051041 -2.616082 111.86051041 -3.29641724 113.56283569 C-10.79924744 132.33125849 -18.35373739 151.07833883 -25.9543457 169.80737305 C-26.33303802 170.7417218 -26.71173035 171.67607056 -27.10189819 172.63873291 C-27.79501803 174.34881155 -28.48902229 176.0585322 -29.18423462 177.76776123 C-31.92204771 184.52530657 -34.51787377 191.32039758 -37.13671875 198.12939453 C-52.64671875 198.12939453 -68.15671875 198.12939453 -84.13671875 198.12939453 C-82.29423583 192.60194576 -80.46949428 187.27602811 -78.30859375 181.89501953 C-78.04346985 181.23291977 -77.77834595 180.57082001 -77.50518799 179.88865662 C-76.63502585 177.71782364 -75.7609866 175.54857691 -74.88671875 173.37939453 C-74.25896855 171.81670905 -73.63136774 170.25396354 -73.00390625 168.69116211 C-71.05282504 163.83536161 -69.09563085 158.9820404 -67.13671875 154.12939453 C-66.84047607 153.39533386 -66.5442334 152.66127319 -66.23901367 151.90496826 C-57.53744203 130.34824711 -48.75369401 108.82492998 -39.9777832 87.29840088 C-33.17338135 70.60592901 -26.39124207 53.90461312 -19.63671875 37.19189453 C-19.04993347 35.74027924 -19.04993347 35.74027924 -18.45129395 34.25933838 C-17.33558957 31.49874904 -16.22042067 28.7379441 -15.10546875 25.97705078 C-14.58928986 24.69967041 -14.58928986 24.69967041 -14.06268311 23.39648438 C-12.46746373 19.44470629 -10.88020749 15.49012426 -9.3125 11.52734375 C-9.03281372 10.82177841 -8.75312744 10.11621307 -8.46496582 9.38926697 C-7.72371815 7.51635073 -6.98574872 5.64213797 -6.24804688 3.76782227 C-4.61093536 -0.118879 -4.04717252 0.00414712 0 0 Z " fill="#E21B22" transform="translate(124.13671875,35.87060546875)"/>
<path d="M0 0 C16.5 0 33 0 50 0 C55.27967071 23.28711904 60.16329187 46.59068019 64.66079712 70.03871155 C67.92713916 87.0627057 71.38311874 104.04713196 75 121 C79.29 121.33 83.58 121.66 88 122 C94.51936219 146.00683371 94.51936219 146.00683371 96 158 C91.71 158 87.42 158 83 158 C83.40992188 159.77246094 83.81984375 161.54492188 84.2421875 163.37109375 C84.78647803 165.72655795 85.33074776 168.08202695 85.875 170.4375 C86.14441406 171.60216797 86.41382813 172.76683594 86.69140625 173.96679688 C87.22045298 176.25718213 87.74750884 178.54802826 88.27246094 180.83935547 C88.72103833 182.78810814 89.17604795 184.73540883 89.64160156 186.68017578 C89.82432617 187.45731934 90.00705078 188.23446289 90.1953125 189.03515625 C90.35273926 189.69008057 90.51016602 190.34500488 90.67236328 191.01977539 C91 193 91 193 91 198 C73.84 198 56.68 198 39 198 C35.96049088 185.08208626 33.37393251 172.0566288 31 159 C15.16 158.67 -0.68 158.34 -17 158 C-15.16852251 152.50556752 -13.51262078 147.63061562 -11.1171875 142.46875 C-10.58996094 141.32921875 -10.06273437 140.1896875 -9.51953125 139.015625 C-8.70548828 137.27539062 -8.70548828 137.27539062 -7.875 135.5 C-7.04935547 133.71335938 -7.04935547 133.71335938 -6.20703125 131.890625 C-2.14259062 123.14259062 -2.14259062 123.14259062 -1 122 C0.85369611 121.91262355 2.71067541 121.89301847 4.56640625 121.90234375 C5.69111328 121.90556641 6.81582031 121.90878906 7.97460938 121.91210938 C9.15861328 121.92048828 10.34261719 121.92886719 11.5625 121.9375 C12.75037109 121.94201172 13.93824219 121.94652344 15.16210938 121.95117188 C18.10812226 121.96300325 21.05403681 121.97948713 24 122 C23.65388672 120.23076172 23.65388672 120.23076172 23.30078125 118.42578125 C21.17206944 107.44919607 19.16742036 96.45286324 17.25 85.4375 C17.02739502 84.17139893 16.80479004 82.90529785 16.57543945 81.60083008 C16.37007568 80.41126709 16.16471191 79.2217041 15.953125 77.99609375 C15.76911133 76.93575928 15.58509766 75.8754248 15.39550781 74.78295898 C15 72 15 72 15 68 C14.34 68 13.68 68 13 68 C12.92378418 68.64662598 12.84756836 69.29325195 12.76904297 69.95947266 C11.69674216 74.19897558 9.72239401 77.79022221 7.6953125 81.6484375 C7.26027908 82.48937454 6.82524567 83.33031158 6.37702942 84.19673157 C5.44668972 85.9943271 4.5137111 87.79055888 3.57833862 89.58554077 C1.14705513 94.25201428 -1.26519388 98.92827812 -3.67578125 103.60546875 C-4.14727097 104.51970108 -4.61876068 105.43393341 -5.10453796 106.37586975 C-8.55608579 113.08804038 -11.86978624 119.84790986 -15.0625 126.6875 C-19.35985913 135.86080594 -24.11599337 144.72644564 -29.0234375 153.5859375 C-32.39998627 159.69012176 -35.62635284 165.86945673 -38.8203125 172.07080078 C-43.36027775 180.82878663 -48.20038644 189.3606956 -53 198 C-70.16 198 -87.32 198 -105 198 C-103.4140422 193.2421266 -101.63677403 189.12098212 -99.2890625 184.75 C-98.92517426 184.06397705 -98.56128601 183.3779541 -98.18637085 182.67114258 C-97.00383914 180.44494976 -95.81458421 178.22243105 -94.625 176 C-93.79789364 174.44676549 -92.97107289 172.89337885 -92.14453125 171.33984375 C-87.35735526 162.35374944 -82.51509721 153.39907329 -77.61303711 144.47509766 C-73.05379329 136.15275452 -68.61958454 127.76548823 -64.1875 119.375 C-56.78293105 105.3577243 -49.32580303 91.37029766 -41.82666016 77.40332031 C-39.34190757 72.77388286 -36.86101034 68.14238473 -34.38037109 63.51074219 C-33.1322869 61.18050968 -31.88391703 58.85043015 -30.63525391 56.52050781 C-27.77359652 51.18064464 -24.91347498 45.83999412 -22.06039429 40.49554443 C-20.75098033 38.04301188 -19.44046506 35.59106855 -18.12988281 33.13916016 C-17.23527231 31.46443076 -16.34220194 29.78887892 -15.44921875 28.11328125 C-10.40516632 18.67861046 -5.198103 9.3565854 0 0 Z " fill="#E21B22" transform="translate(984,36)"/>
<path d="M0 0 C37.93113092 -3.62716136 37.93113092 -3.62716136 47.26464844 1.95117188 C52.11531242 7.10991041 54.50928027 13.35443617 56.83691406 19.95703125 C58.57522952 24.50496656 61.15232051 28.30360891 63.875 32.3125 C64.86136815 33.85300941 65.84169451 35.39740152 66.81640625 36.9453125 C67.32445801 37.7487207 67.83250977 38.55212891 68.35595703 39.37988281 C72.23075572 45.55516341 76.02790815 51.77878287 79.84033203 57.99267578 C85.21873868 66.75142711 90.65456964 75.47304179 96.12817383 84.17260742 C96.70978271 85.09920166 97.2913916 86.0257959 97.890625 86.98046875 C98.39625977 87.78379639 98.90189453 88.58712402 99.42285156 89.41479492 C101.34990039 92.57354415 103.17569843 95.78083292 105 99 C106.3489012 90.93023327 107.69681114 82.86030176 109.04360485 74.79018307 C109.66965496 71.0390023 110.29599145 67.28786993 110.9230957 63.53686523 C111.53006308 59.90611594 112.13633235 56.27525081 112.74194717 52.64427567 C112.98437826 51.19082121 113.22693969 49.7373885 113.4696312 48.28397751 C114.82152648 40.18330018 116.15386484 32.0800229 117.44384766 23.96923828 C117.55927194 23.24525754 117.67469622 22.5212768 117.7936182 21.77535725 C118.34348427 18.32462205 118.88985194 14.87340065 119.42997742 11.42112732 C119.71854362 9.60307335 119.71854362 9.60307335 120.01293945 7.74829102 C120.18018021 6.6824025 120.34742096 5.61651398 120.51972961 4.51832581 C121 2 121 2 122 0 C135.86 0 149.72 0 164 0 C164 5.23890676 163.68326326 9.84452765 162.8125 14.9375 C162.53838992 16.60535835 162.26501129 18.27333701 161.9921875 19.94140625 C161.83717773 20.88129395 161.68216797 21.82118164 161.52246094 22.78955078 C160.57532017 28.60959801 159.67353735 34.43681625 158.76644897 40.26321411 C158.44565626 42.32263848 158.12398695 44.38192385 157.80200195 46.44116211 C156.83958814 52.59876052 155.88303326 58.75715274 154.94140625 64.91796875 C154.17150701 69.93252007 153.35281323 74.93649199 152.5 79.9375 C151.40653905 86.41625611 150.42944116 92.90163525 149.52734375 99.41015625 C148.93658916 103.43166345 148.25256479 107.4321335 147.5625 111.4375 C146.22456305 119.22743421 145.16940044 127.03821051 144.26586914 134.89038086 C143.03119866 145.0139356 140.9655654 154.99820747 139 165 C101.73986703 168.14778872 101.73986703 168.14778872 92.97900391 163.34326172 C88.67238651 158.94585126 86.82184242 153.52733302 84.98291016 147.74853516 C83.40938669 143.34845389 80.85827631 139.72148548 78.25 135.875 C77.24946712 134.31355981 76.25484704 132.74831788 75.265625 131.1796875 C74.74548828 130.35823242 74.22535156 129.53677734 73.68945312 128.69042969 C70.42041653 123.48453615 67.21419571 118.23986002 64 113 C58.32361762 103.75019593 52.58680369 94.54311605 46.7734375 85.37890625 C42.47894685 78.60892896 38.24310371 71.80224223 34 65 C33.84442627 65.9386792 33.68885254 66.8773584 33.52856445 67.84448242 C32.791027 72.29234631 32.05197123 76.73995724 31.3125 81.1875 C31.17783325 81.99777649 31.0431665 82.80805298 30.90441895 83.6428833 C28.87173882 95.86520968 26.79981343 108.07969848 24.6496582 120.28198242 C23.6718269 125.88122573 22.77564303 131.47939146 21.9921875 137.109375 C21.1344149 143.23887503 20.06955614 149.30326198 18.875 155.375 C18.25625 158.55125 17.6375 161.7275 17 165 C3.14 165 -10.72 165 -25 165 C-23.92435231 151.01658005 -23.92435231 151.01658005 -22.49511719 145.20849609 C-21.54311398 140.96203605 -21.13625618 136.62998057 -20.625 132.3125 C-19.68762633 124.75741302 -18.5669126 117.28722586 -17.125 109.8125 C-14.87424425 98.09843951 -13.31466849 86.29523767 -11.75048828 74.47387695 C-10.08661253 62.00062712 -10.08661253 62.00062712 -9.00390625 57.51953125 C-7.26182699 50.30569206 -6.53825419 42.84952268 -5.5625 35.5 C-3.98208751 23.60892163 -2.17683858 11.79754517 0 0 Z " fill="#E21B22" transform="translate(372,68)"/>
<path d="M0 0 C0.67830872 -0.0049649 1.35661743 -0.00992981 2.05548096 -0.01504517 C4.31548058 -0.02972607 6.57540958 -0.03648532 8.83544922 -0.04199219 C10.41234335 -0.04774725 11.98923748 -0.05350494 13.56613159 -0.05926514 C16.88686448 -0.06979763 20.20757306 -0.07562277 23.52832031 -0.07910156 C27.74305022 -0.08453292 31.95744823 -0.10843403 36.17207527 -0.13707352 C39.4393296 -0.15590626 42.70650814 -0.16091673 45.9738121 -0.16243744 C47.52444104 -0.16542804 49.07506983 -0.17333185 50.62564468 -0.18662262 C67.52419307 -0.32089649 85.09258063 1.3670777 98.05810547 13.54394531 C106.22559551 22.60920235 108.19639287 33.10420451 107.79638672 44.99707031 C106.8715669 61.51281083 100.96142343 74.23172361 89.51513672 86.16113281 C82.71639393 92.16668894 72.80825976 98.16113281 63.51513672 98.16113281 C72.52032052 113.66445185 81.60491154 129.10365358 91.07177734 144.33056641 C103.51513672 164.36620683 103.51513672 164.36620683 103.51513672 166.16113281 C86.02513672 166.16113281 68.53513672 166.16113281 50.51513672 166.16113281 C45.62078845 156.37243627 40.74829314 146.58882772 36.01513672 136.72363281 C35.18429565 134.99318726 35.18429565 134.99318726 34.33666992 133.2277832 C32.72762371 129.87312448 31.12122248 126.51720962 29.51513672 123.16113281 C29.06444824 122.22237305 28.61375977 121.28361328 28.14941406 120.31640625 C26.99620473 117.91249513 25.84820887 115.50619059 24.70263672 113.09863281 C24.37134766 112.40906494 24.04005859 111.71949707 23.69873047 111.0090332 C21.51513672 106.39224083 21.51513672 106.39224083 21.51513672 104.16113281 C20.85513672 104.16113281 20.19513672 104.16113281 19.51513672 104.16113281 C19.47775391 104.79535156 19.44037109 105.42957031 19.40185547 106.08300781 C17.98229125 126.23525286 13.86014399 146.27190038 10.51513672 166.16113281 C-3.67486328 166.16113281 -17.86486328 166.16113281 -32.48486328 166.16113281 C-31.86669889 159.36132453 -31.21320694 152.74573314 -30.10986328 146.03613281 C-29.97902344 145.22047852 -29.84818359 144.40482422 -29.71337891 143.56445312 C-28.97606444 139.01180087 -28.18583263 134.47149821 -27.35522461 129.93505859 C-25.795446 121.41128493 -24.6077693 112.86964083 -23.57470703 104.265625 C-23.05187469 100.01909755 -22.46905542 95.85929606 -21.48876953 91.69238281 C-20.24620179 86.39955046 -19.62976519 81.05421358 -18.98486328 75.66113281 C-18.24912677 69.50843514 -17.39144365 63.51151407 -15.97119141 57.47949219 C-15.01460708 52.91938937 -14.53770542 48.28435112 -13.98486328 43.66113281 C-13.24943264 37.51099308 -12.39644446 31.51292176 -10.97558594 25.48339844 C-9.80223359 19.93069818 -9.24851859 14.25699453 -8.54150391 8.62988281 C-8.41839844 7.68113281 -8.29529297 6.73238281 -8.16845703 5.75488281 C-8.06073975 4.89572266 -7.95302246 4.0365625 -7.84204102 3.15136719 C-7.06481959 -1.17939772 -3.81756052 0.02116445 0 0 Z " fill="#E21B22" transform="translate(667.48486328125,67.8388671875)"/>
<path d="M0 0 C15.18 0 30.36 0 46 0 C48.06435661 6.19306982 49.86208951 12.17249979 51.3125 18.5 C51.74705035 20.35945577 52.1819616 22.21882723 52.6171875 24.078125 C52.95508301 25.52928711 52.95508301 25.52928711 53.29980469 27.00976562 C54.49058261 32.09506829 55.71542864 37.17214446 56.9375 42.25 C57.44404112 44.36066972 57.95055128 46.47134686 58.45703125 48.58203125 C59.49243615 52.89281744 60.531987 57.20257829 61.57421875 61.51171875 C64.50569124 73.64905953 67.35073207 85.79778358 70 98 C79.16366009 82.08989634 88.10589286 66.06198878 97 50 C106.25883851 33.29030366 115.57906756 16.61894824 125 0 C140.51 0 156.02 0 172 0 C162.90418199 18.19163603 162.90418199 18.19163603 158.4375 26.25 C153.7804149 34.72207539 149.18288621 43.22416468 144.625 51.75 C143.34778453 54.13808946 142.0704007 56.52608884 140.79296875 58.9140625 C140.47661469 59.50551056 140.16026062 60.09695862 139.83432007 60.70632935 C134.8211752 70.07588573 129.77515931 79.42778619 124.73388672 88.78222656 C122.40547175 93.10333461 120.07839623 97.42516321 117.75146484 101.74707031 C116.58658094 103.91056532 115.42154261 106.07397718 114.25634766 108.23730469 C111.29964028 113.7270323 108.345132 119.21792502 105.39453125 124.7109375 C99.85871631 135.01297423 94.31055827 145.30775613 88.6875 155.5625 C88.22512939 156.40796387 87.76275879 157.25342773 87.28637695 158.12451172 C86.86573975 158.88908691 86.44510254 159.65366211 86.01171875 160.44140625 C85.64522217 161.10857666 85.27872559 161.77574707 84.90112305 162.46313477 C84 164 84 164 83 165 C80.04294679 165.08868299 77.10934944 165.11520296 74.15234375 165.09765625 C72.82270348 165.09553383 72.82270348 165.09553383 71.46620178 165.09336853 C68.62326746 165.08775215 65.78041069 165.07519691 62.9375 165.0625 C61.01497509 165.05748711 59.09244896 165.05292384 57.16992188 165.04882812 C52.44658451 165.03777741 47.72330542 165.02050183 43 165 C41.65969437 161.08778591 40.47621679 157.18123846 39.44921875 153.17578125 C39.16546387 152.07427734 38.88170898 150.97277344 38.58935547 149.83789062 C38.29174316 148.67451172 37.99413086 147.51113281 37.6875 146.3125 C37.05886248 143.87102454 36.42995506 141.42961856 35.80078125 138.98828125 C35.33986084 137.19704834 35.33986084 137.19704834 34.86962891 135.36962891 C33.7185445 130.90941921 32.55044512 126.45384248 31.375 122 C31.17600098 121.24533447 30.97700195 120.49066895 30.77197266 119.71313477 C30.37761268 118.21821653 29.98308414 116.72334274 29.58837891 115.22851562 C26.4503241 103.34297028 23.33307663 91.45212346 20.23291016 79.55664062 C17.83704432 70.36710257 15.42089394 61.18297088 13 52 C12.18716811 48.91675401 11.37472083 45.83340702 10.5625 42.75 C10.36092285 41.9856665 10.1593457 41.22133301 9.95166016 40.43383789 C8.76439962 35.92605973 7.58847786 31.41551498 6.421875 26.90234375 C6.02053345 25.35305176 6.02053345 25.35305176 5.61108398 23.77246094 C5.09060937 21.76184728 4.57180916 19.7507992 4.05493164 17.73925781 C3.07810447 13.96918659 2.09174095 10.2666888 0.82421875 6.58203125 C0 4 0 4 0 0 Z " fill="#E21B22" transform="translate(778,69)"/>
<path d="M0 0 C30.69 0 61.38 0 93 0 C91.26736374 12.70599921 89.3632405 25.39605067 87 38 C70.17 38 53.34 38 36 38 C35.01 44.93 34.02 51.86 33 59 C32.67 61.31 32.34 63.62 32 66 C47.84 66 63.68 66 80 66 C75.2 99.6 75.2 99.6 74 102 C58.16 102 42.32 102 26 102 C25.34 106.62 24.68 111.24 24 116 C23.34 120.62 22.68 125.24 22 130 C38.5 130 55 130 72 130 C72 134.58108474 71.98734568 137.93753614 71.16015625 142.25 C70.98419922 143.1884375 70.80824219 144.126875 70.62695312 145.09375 C70.44068359 146.0528125 70.25441406 147.011875 70.0625 148 C69.6980161 149.91643833 69.33470797 151.8331007 68.97265625 153.75 C68.81031494 154.59046875 68.64797363 155.4309375 68.48071289 156.296875 C67.9078539 159.51815216 67.46270496 162.76106529 67 166 C36.31 166 5.62 166 -26 166 C-26 155.8753347 -26 155.8753347 -25.25317383 151.42138672 C-25.08892914 150.41976501 -24.92468445 149.41814331 -24.75546265 148.38616943 C-24.57448029 147.3280304 -24.39349792 146.26989136 -24.20703125 145.1796875 C-24.02089264 144.05612854 -23.83475403 142.93256958 -23.64297485 141.77496338 C-23.0394227 138.14050597 -22.42595989 134.50779689 -21.8125 130.875 C-21.39189401 128.35152721 -20.97205722 125.8279261 -20.55297852 123.30419922 C-19.73324111 118.37092382 -18.9104583 113.43817409 -18.08496094 108.50585938 C-16.83897983 101.05027166 -15.62969152 93.58936375 -14.4375 86.125 C-12.98423997 77.06361032 -11.51178016 68.00554633 -10.02734375 58.94921875 C-9.85095871 57.8722876 -9.67457367 56.79535645 -9.49284363 55.68579102 C-8.61457666 50.32363022 -7.73507598 44.96167784 -6.85327148 39.60009766 C-6.52427635 37.59412478 -6.19557704 35.58810336 -5.8671875 33.58203125 C-5.70825516 32.61177002 -5.54932281 31.64150879 -5.38557434 30.6418457 C-4.16395586 23.1308942 -3.02494087 15.60906619 -1.95724487 8.07466125 C-1.10745409 2.21490818 -1.10745409 2.21490818 0 0 Z " fill="#E21B22" transform="translate(552,68)"/>
<path d="M0 0 C14.85 0 29.7 0 45 0 C43.92123541 16.18146879 43.92123541 16.18146879 42.56201172 22.99267578 C41.86384372 26.72857215 41.33301134 30.48181856 40.81640625 34.24609375 C40.71514938 34.98292892 40.61389252 35.7197641 40.50956726 36.47892761 C40.3001153 38.01084364 40.09142521 39.54286402 39.88345337 41.07498169 C39.33944218 45.07941513 38.78666248 49.08263851 38.234375 53.0859375 C38.12688431 53.86608719 38.01939362 54.64623688 37.90864563 55.45002747 C37.07449275 61.49220272 36.21515107 67.53013422 35.3125 73.5625 C35.20558838 74.28429443 35.09867676 75.00608887 34.98852539 75.74975586 C34.4217329 79.4951879 33.77480144 83.21547938 33.0703125 86.9375 C31.78104797 93.94995948 30.84249837 101.00999593 29.88372803 108.07333374 C29.3384915 112.08615234 28.78412584 116.09771101 28.23046875 120.109375 C28.12277161 120.8907634 28.01507446 121.67215179 27.90411377 122.47721863 C27.08860826 128.38476158 26.25411762 134.28904232 25.375 140.1875 C25.27646729 140.859021 25.17793457 141.53054199 25.07641602 142.22241211 C23.87612581 150.17759898 22.39891879 158.07279353 21 166 C6.81 166 -7.38 166 -22 166 C-21.16682827 157.6682827 -20.22535831 149.36931645 -19.1875 141.0625 C-19.10040771 140.3627002 -19.01331543 139.66290039 -18.92358398 138.94189453 C-17.59915006 128.33441555 -16.1063174 117.76211841 -14.49633789 107.19384766 C-13.23027422 98.79061827 -12.15010896 90.37323775 -11.125 81.9375 C-9.33901347 67.26709017 -7.2679922 52.64422948 -5.15429688 38.01782227 C-3.32607492 25.35744711 -1.60867278 12.69064081 0 0 Z " fill="#E21B22" transform="translate(312,68)"/>
<path d="M0 0 C20.42428886 -0.7352744 20.42428886 -0.7352744 28.0625 5.5 C31.93514672 10.49696351 31.44048482 15.94125603 31 22 C29.76938453 28.51435896 26.24441539 33.04571079 21 37 C12.67865408 41.54345487 3.20454166 41.15228102 -6 41 C-4.57836555 27.23259265 -2.36559439 13.63401889 0 0 Z " fill="#FEFBFB" transform="translate(698,102)"/>
<path d="M0 0 C4.41026006 2.45014448 7.08812558 5.30125117 9.375 9.875 C9.8822965 15.43031248 10.13760422 20.29330236 7.6875 25.375 C3.72624361 29.65743934 0.60977282 32.72348998 -5.3125 33.125 C-9.64173152 33.0542866 -12.81015061 32.00251216 -16.625 29.875 C-20.59595032 25.68940372 -22.90847157 21.87455548 -23 16.0625 C-22.86841569 11.09153722 -21.99829964 7.59791332 -18.625 3.875 C-12.61557888 -1.26103453 -7.66942227 -2.38016553 0 0 Z " fill="#2D292A" transform="translate(996.625,252.125)"/>
<path d="M0 0 C18.63560732 -0.58236273 18.63560732 -0.58236273 25 4 C29.22460992 8.4971654 29.40650035 13.273217 29.34375 19.203125 C28.82669285 23.41009002 27.21060628 26.25231834 24 29 C18.8382568 32.33492144 14.54495352 32.3701747 8.625 32.1875 C4.355625 32.0946875 4.355625 32.0946875 0 32 C0 21.44 0 10.88 0 0 Z " fill="#2E2A2B" transform="translate(835,252)"/>
<path d="M0 0 C15 0 15 0 20 3 C21.56977574 4.56977574 21.20737081 6.14196387 21.25 8.3125 C21.22052834 11.39720018 21.10835875 12.79805869 19.625 15.5625 C18 17 18 17 16 17 C16.5053125 17.83144531 17.010625 18.66289062 17.53125 19.51953125 C18.50578125 21.14955078 18.50578125 21.14955078 19.5 22.8125 C20.1496875 23.89144531 20.799375 24.97039062 21.46875 26.08203125 C23 29 23 29 23 32 C20.03 32.495 20.03 32.495 17 33 C16.54109375 32.07316406 16.0821875 31.14632813 15.609375 30.19140625 C14.99030319 28.98140226 14.37047172 27.77178673 13.75 26.5625 C13.44964844 25.95083984 13.14929688 25.33917969 12.83984375 24.70898438 C11.83355002 22.69960437 11.83355002 22.69960437 10 20 C8.68 19.67 7.36 19.34 6 19 C6 23.29 6 27.58 6 32 C4.02 32 2.04 32 0 32 C0 21.44 0 10.88 0 0 Z " fill="#282425" transform="translate(638,252)"/>
<path d="M0 0 C15 0 15 0 20 3 C21.5121867 6.02437339 21.17263369 8.66241534 21 12 C19.98263229 14.76142665 19.63829259 15.68085371 17 17 C17.65094798 20.2771864 18.87604293 22.75177684 20.5625 25.625 C23 29.78186969 23 29.78186969 23 32 C19.535 32.495 19.535 32.495 16 33 C15.41992188 31.60974609 15.41992188 31.60974609 14.828125 30.19140625 C14.30734375 28.99386719 13.7865625 27.79632813 13.25 26.5625 C12.73953125 25.36753906 12.2290625 24.17257812 11.703125 22.94140625 C11.14109375 21.97074219 10.5790625 21.00007813 10 20 C8.68 19.67 7.36 19.34 6 19 C6 23.29 6 27.58 6 32 C4.02 32 2.04 32 0 32 C0 21.44 0 10.88 0 0 Z " fill="#272324" transform="translate(1022,252)"/>
<path d="M0 0 C1.2065625 0.0309375 1.2065625 0.0309375 2.4375 0.0625 C5.43992385 6.61792678 8.12970997 13.25974959 10.6875 20 C11.05101562 20.94423828 11.41453125 21.88847656 11.7890625 22.86132812 C12.13195312 23.76173828 12.47484375 24.66214844 12.828125 25.58984375 C13.13782227 26.40187256 13.44751953 27.21390137 13.76660156 28.05053711 C14.4375 30.0625 14.4375 30.0625 14.4375 32.0625 C12.1275 32.0625 9.8175 32.0625 7.4375 32.0625 C6.18085022 29.15649739 5.4375 27.26645416 5.4375 24.0625 C1.1475 24.0625 -3.1425 24.0625 -7.5625 24.0625 C-7.871875 25.196875 -8.18125 26.33125 -8.5 27.5 C-9.5625 31.0625 -9.5625 31.0625 -10.5625 32.0625 C-12.22867115 32.10313832 -13.89638095 32.105221 -15.5625 32.0625 C-13.32899321 25.08819493 -10.72793271 18.33154966 -7.9375 11.5625 C-7.53015625 10.5621875 -7.1228125 9.561875 -6.703125 8.53125 C-3.23490535 0.07890013 -3.23490535 0.07890013 0 0 Z " fill="#2F2B2C" transform="translate(807.5625,251.9375)"/>
<path d="M0 0 C2.31 0 4.62 0 7 0 C7 3.96 7 7.92 7 12 C7.66 12 8.32 12 9 12 C9.39832031 11.14148438 9.39832031 11.14148438 9.8046875 10.265625 C11.05676891 7.8923988 12.4936352 5.87786714 14.125 3.75 C14.93324219 2.69039062 14.93324219 2.69039062 15.7578125 1.609375 C16.16773438 1.07828125 16.57765625 0.5471875 17 0 C19.97 0.495 19.97 0.495 23 1 C20.83320223 4.97246258 18.23755217 8.02890455 15.109375 11.25390625 C13.77616894 12.93038049 13.77616894 12.93038049 14.2878418 14.90698242 C15.45418753 18.33484735 17.82871045 20.95392229 20.0625 23.75 C20.77116211 24.65298828 20.77116211 24.65298828 21.49414062 25.57421875 C22.65690401 27.05409943 23.8276766 28.52768096 25 30 C23.68 30.99 22.36 31.98 21 33 C16.37766153 31.46642041 14.3643469 27.71292205 11.75 23.875 C11.06164062 22.88693359 11.06164062 22.88693359 10.359375 21.87890625 C9.23178769 20.2579995 8.11483609 18.62970314 7 17 C6.67 21.95 6.34 26.9 6 32 C4.02 32 2.04 32 0 32 C0 21.44 0 10.88 0 0 Z " fill="#2C2829" transform="translate(733,252)"/>
<path d="M0 0 C2.69990662 1.79993774 4.5418865 3.083773 6 6 C7.07638267 17.2712642 7.07638267 17.2712642 3.9375 22.3125 C0.20490287 24.45675792 -1.75999003 24.75714464 -6 24 C-8.63016161 21.8272578 -10.47336894 20.05326212 -12 17 C-12.40375602 11.04459864 -11.84378651 7.26627131 -9 2 C-5.48746854 -0.34168764 -4.13530644 -0.49623677 0 0 Z " fill="#FAFAFA" transform="translate(993,256)"/>
<path d="M0 0 C2.31 0 4.62 0 7 0 C10.00727783 7.23026373 12.59326535 14.54936402 15 22 C18.06404952 14.69148844 21.08208171 7.36815121 24 0 C25.98 0 27.96 0 30 0 C24 16 24 16 18 32 C16.02 32 14.04 32 12 32 C8.95127874 24.83480257 6.03039713 17.6239889 3.1875 10.375 C2.87353271 9.58109863 2.55956543 8.78719727 2.23608398 7.96923828 C0 2.23489482 0 2.23489482 0 0 Z " fill="#2C2829" transform="translate(875,252)"/>
<path d="M0 0 C1.17755859 0.13535156 1.17755859 0.13535156 2.37890625 0.2734375 C4.4375 0.625 4.4375 0.625 6.4375 1.625 C6.1075 2.945 5.7775 4.265 5.4375 5.625 C2.4675 5.625 -0.5025 5.625 -3.5625 5.625 C-3.24262914 8.89796438 -2.81277544 10.3578791 -0.53125 12.79296875 C0.69078125 13.79263672 0.69078125 13.79263672 1.9375 14.8125 C7.27760203 19.23160342 7.27760203 19.23160342 7.875 24.4375 C7.80878421 28.07274681 7.46319291 28.59337796 5 31.625 C1.06273455 34.39601383 -2.93004265 34.29772818 -7.5625 33.625 C-10.625 32.625 -10.625 32.625 -12.5625 31.625 C-12.1875 29.6875 -12.1875 29.6875 -11.5625 27.625 C-10.9025 27.295 -10.2425 26.965 -9.5625 26.625 C-8.9025 26.955 -8.2425 27.285 -7.5625 27.625 C-5.2295134 27.66522391 -2.89543334 27.66820247 -0.5625 27.625 C0.42000714 25.39690787 0.42000714 25.39690787 0.4375 22.625 C-1.3243091 20.60588201 -2.88149251 19.09484262 -4.9375 17.4375 C-11.41354595 11.99537722 -11.41354595 11.99537722 -11.875 7.75 C-11.5625 4.625 -11.5625 4.625 -9.75 2.3125 C-6.39072718 -0.27893903 -4.06862871 -0.49601075 0 0 Z " fill="#302C2D" transform="translate(709.5625,251.375)"/>
<path d="M0 0 C-0.33 1.32 -0.66 2.64 -1 4 C-3.97 4 -6.94 4 -10 4 C-9.65975871 7.04646814 -9.33788887 8.63611968 -7.22265625 10.9140625 C-6.50980469 11.47867187 -5.79695312 12.04328125 -5.0625 12.625 C-1.36990017 15.58712182 0.80040901 17.46029804 1.4375 22.375 C0.88897827 26.91989433 -0.46556427 28.20532989 -4 31 C-7.69375878 32.23125293 -11.15487401 32.46420032 -15 32 C-17.5 30.5 -17.5 30.5 -19 29 C-18.67 27.68 -18.34 26.36 -18 25 C-17.01 25.33 -16.02 25.66 -15 26 C-13.60560336 26.06665376 -12.20830125 26.08538199 -10.8125 26.0625 C-9.554375 26.041875 -8.29625 26.02125 -7 26 C-6.91335674 21.84112364 -7.13448677 19.92531837 -10.03515625 16.82421875 C-11.65489731 15.4201009 -13.29925392 14.04379708 -14.96875 12.69921875 C-17.61099154 10.48888208 -17.93919022 9.55944997 -18.3125 6.125 C-18 3 -18 3 -16.1875 0.6875 C-11.05316073 -3.27327601 -5.61758158 -2.6435678 0 0 Z " fill="#302C2D" transform="translate(959,253)"/>
<path d="M0 0 C-0.66 1.32 -1.32 2.64 -2 4 C-4.64 4 -7.28 4 -10 4 C-10.33 4.99 -10.66 5.98 -11 7 C-10.319375 7.66 -9.63875 8.32 -8.9375 9 C-7.9549456 9.99667156 -6.97625826 10.99716045 -6 12 C-5.37609375 12.62777344 -4.7521875 13.25554687 -4.109375 13.90234375 C0.78467357 19.08486266 0.78467357 19.08486266 1.75 23.1875 C0.74229225 26.96640408 -0.99865009 28.55704077 -4 31 C-7.70338204 32.23446068 -11.14660418 32.44981274 -15 32 C-18 30.5 -18 30.5 -20 29 C-19.34 27.68 -18.68 26.36 -18 25 C-17.01 25.33 -16.02 25.66 -15 26 C-13.60560336 26.06665376 -12.20830125 26.08538199 -10.8125 26.0625 C-9.554375 26.041875 -8.29625 26.02125 -7 26 C-6.40802387 23.80085503 -6.40802387 23.80085503 -7 21 C-9.75559491 17.59915559 -13.06224423 14.76944063 -16.4375 12 C-18 10 -18 10 -18.5 6.5 C-18 3 -18 3 -16.1875 0.625 C-10.99577412 -3.23171065 -5.62189988 -2.64559995 0 0 Z " fill="#2F2C2D" transform="translate(1077,253)"/>
<path d="M0 0 C9.17647059 0 9.17647059 0 14 4 C15.96276475 7.9255295 15.34092987 12.71048231 15 17 C13.68823621 20.38296977 12.85031826 21.50398102 9.75 23.3125 C7 24 7 24 0 24 C0 16.08 0 8.16 0 0 Z " fill="#FAFAFA" transform="translate(842,256)"/>
<path d="M0 0 C2.31 0 4.62 0 7 0 C7 10.89 7 21.78 7 33 C4.69 33 2.38 33 0 33 C0 22.11 0 11.22 0 0 Z " fill="#231F20" transform="translate(918,252)"/>
<path d="M0 0 C2.31 0 4.62 0 7 0 C7 10.89 7 21.78 7 33 C4.69 33 2.38 33 0 33 C0 22.11 0 11.22 0 0 Z " fill="#231F20" transform="translate(675,252)"/>
<path d="M0 0 C5.3820598 -0.35880399 5.3820598 -0.35880399 7.9375 1.125 C9 3 9 3 8.875 6.0625 C8 9 8 9 5 11 C3.35 11 1.7 11 0 11 C0 7.37 0 3.74 0 0 Z " fill="#F2F2F2" transform="translate(1028,256)"/>
<path d="M0 0 C5.3820598 -0.35880399 5.3820598 -0.35880399 7.9375 1.125 C9 3 9 3 8.875 6.0625 C8 9 8 9 5 11 C3.35 11 1.7 11 0 11 C0 7.37 0 3.74 0 0 Z " fill="#F0EFEF" transform="translate(644,256)"/>
<path d="M0 0 C2 1 2 1 2.8515625 3.50390625 C3.10679687 4.51324219 3.36203125 5.52257812 3.625 6.5625 C3.88539063 7.57441406 4.14578125 8.58632813 4.4140625 9.62890625 C4.60742188 10.41136719 4.80078125 11.19382812 5 12 C2.03 12 -0.94 12 -4 12 C-3.52309796 10.37433394 -3.04340334 8.74948689 -2.5625 7.125 C-2.29566406 6.22007812 -2.02882813 5.31515625 -1.75390625 4.3828125 C-1 2 -1 2 0 0 Z " fill="#DFDFDF" transform="translate(806,260)"/>
</svg>
