<?xml version="1.0" encoding="UTF-8"?>
<svg version="1.1" xmlns="http://www.w3.org/2000/svg" width="610" height="389">
<path d="M0 0 C2.28147632 1.99629178 2.81603442 3.51380525 3.875 6.3125 C4.05352727 10.15083636 2.77527769 12.63965294 1 16 C-2.74183875 18.49455917 -4.56243036 18.37606522 -9 18 C-11 17 -13 16 -15 15 C-18.75073204 14.74855688 -18.75073204 14.74855688 -22 15 C-23.7499106 18.03239028 -24.2490336 20.20683247 -24.24291992 23.69482422 C-24.24599655 24.62455048 -24.24907318 25.55427673 -24.25224304 26.51217651 C-24.24505753 27.51620514 -24.23787201 28.52023376 -24.23046875 29.5546875 C-24.23001053 30.60665314 -24.22955231 31.65861877 -24.2290802 32.74246216 C-24.22605618 34.98017497 -24.21816545 37.21788565 -24.20581055 39.45556641 C-24.18790223 42.79988509 -24.18529874 46.1439203 -24.18554688 49.48828125 C-24.16850907 60.06915335 -24.0174496 70.63527894 -23.5625 81.20703125 C-23.52557541 82.09836761 -23.48865082 82.98970398 -23.4506073 83.90805054 C-22.78730138 97.62353446 -19.04751729 107.81034152 -8.9765625 117.37109375 C3.52951688 127.67748723 18.15299043 130.26889497 34 129 C44.14930518 127.64240505 52.88558025 124.38243436 61 118 C61.98033203 117.24976563 61.98033203 117.24976563 62.98046875 116.484375 C70.90016172 109.56119969 75.52871651 98.20748332 77 88 C77.28640443 82.72193869 77.28217204 77.45161842 77.265625 72.16796875 C77.26697458 70.64341673 77.26891756 69.11886513 77.27142334 67.59431458 C77.27435634 64.41643125 77.27013312 61.2386611 77.26074219 58.06079102 C77.24929984 53.99099157 77.25594866 49.92145457 77.26788712 45.85166454 C77.27511372 42.71096313 77.27281495 39.57032403 77.26763153 36.42962074 C77.26629977 34.92853069 77.26792615 33.42743494 77.27259064 31.92635155 C77.27767449 29.83250271 77.26992213 27.73908073 77.25878906 25.64526367 C77.25719788 24.45551437 77.25560669 23.26576508 77.25396729 22.03996277 C77.01038981 19.124365 76.52614198 17.45819255 75 15 C71.076357 14.76458142 68.55595259 14.72202371 65 16.5 C61.31680908 18.34159546 59.06686124 18.60249796 55 18 C52.28417963 15.84127099 51.17814061 14.2672788 50.69140625 10.8046875 C50.57475655 6.64646881 50.77290685 3.6091545 53 0 C56.19198081 -1.5959904 59.52584953 -1.38090875 63 -1 C65.0088485 -0.01789629 67.00787329 0.98440599 69 2 C70.80895141 2.25567246 72.62213941 2.48222081 74.4375 2.6875 C79.98804397 3.56589441 82.35668638 5.67422778 85.7578125 10.02734375 C88.21847953 13.9350068 88.136437 17.30594668 88.16113281 21.81958008 C88.16858017 22.85452103 88.16858017 22.85452103 88.17617798 23.91036987 C88.19079626 26.19676719 88.19760572 28.48309483 88.203125 30.76953125 C88.20888256 32.36838277 88.21464021 33.96723429 88.22039795 35.56608582 C88.230911 38.92614055 88.23674975 42.28617137 88.24023438 45.64624023 C88.2456795 49.91481662 88.26961963 54.1830676 88.29820633 58.45154285 C88.31701208 61.7607865 88.32204802 65.06995515 88.32357025 68.37924767 C88.32656382 69.95024048 88.33447821 71.52123306 88.34775543 73.09217262 C88.44846825 85.93954816 87.5628748 98.55636154 81.5 110.1875 C81.15888184 110.85185059 80.81776367 111.51620117 80.46630859 112.20068359 C73.1249775 125.70599327 61.14778599 133.68621458 46.76171875 138.23828125 C41.68372178 139.63886033 37.28363984 140.03902359 32 140 C32.04444906 146.06538018 32.11459027 152.12974856 32.20751953 158.19458008 C32.2355704 160.25341699 32.2568631 162.31235841 32.27099609 164.37133789 C32.38161003 179.58075359 32.70972609 192.55353653 44 204 C51.95339921 210.75595434 60.88394276 213.62206533 71.26953125 213.28515625 C82.561289 212.10590258 90.95925481 207.02834602 98.23828125 198.4765625 C102.64583027 192.2805845 105.11978706 184.82426927 105.13130188 177.23388672 C105.13531006 176.27810226 105.13931824 175.32231781 105.14344788 174.33757019 C105.14291916 173.2954689 105.14239044 172.25336761 105.1418457 171.1796875 C105.14532013 170.07671829 105.14879456 168.97374908 105.15237427 167.83735657 C105.15972822 165.44035344 105.16507553 163.04334351 105.16866493 160.64633179 C105.17583729 156.84530135 105.19151159 153.04439949 105.21000671 149.2434082 C105.26242746 138.43523536 105.31084313 127.62714353 105.32592773 116.81884766 C105.33525016 110.20699955 105.36545619 103.59543835 105.40724754 96.98370361 C105.41951741 94.47050417 105.42468619 91.95725916 105.42244911 89.44403076 C105.42008111 85.91416416 105.44237905 82.38521132 105.4699707 78.85546875 C105.46336929 77.82956131 105.45676788 76.80365387 105.44996643 75.74665833 C105.59390359 64.4518354 108.62970733 55.28268764 116.578125 47.19140625 C125.2930681 39.30578838 134.40962016 35.31815174 146.27734375 35.71875 C156.46148233 36.77077005 165.81771247 41.30147692 172.875 48.75 C181.87803041 59.91375771 182.19584359 74.21596798 182.65893555 87.9152832 C182.69027588 88.80046631 182.72161621 89.68564941 182.75390625 90.59765625 C182.77783447 91.39695557 182.8017627 92.19625488 182.82641602 93.01977539 C182.88438047 95.07492793 182.88438047 95.07492793 184 97 C185.8489154 97.96820175 187.73001616 98.87539207 189.625 99.75 C199.3592138 104.53050357 204.7350836 110.00375057 209.3125 119.8125 C211.53667943 130.12460463 209.82733699 139.83222588 204.25 148.75 C199.0095448 156.03269141 192.84891098 160.90544394 184 163 C172.04117225 164.26289345 162.28446636 162.38427074 152.8203125 154.8359375 C146.41203973 148.3726581 142.97337302 140.23784777 142.6875 131.25 C142.87259372 121.30429761 145.67118913 113.78447517 152.375 106.375 C156.37559367 102.75541525 160.23989399 100.186645 165.3125 98.375 C169.05585591 97.45646484 169.05585591 97.45646484 170 95 C170.30072676 90.67285308 170.27830167 86.33634877 170.3125 82 C170.34150391 80.80503906 170.37050781 79.61007813 170.40039062 78.37890625 C170.46154311 69.7893337 169.58332385 62.46102058 164.0703125 55.59765625 C156.39917963 49.54393091 149.96305655 46.33579623 140 47 C132.55741876 48.58238664 125.86284748 51.90818822 121.42578125 58.25 C118.44089051 63.45003888 116.87785025 67.73589851 116.86869812 73.75938416 C116.86468994 74.71372345 116.86068176 75.66806274 116.85655212 76.65132141 C116.85708084 77.69185165 116.85760956 78.7323819 116.8581543 79.80444336 C116.85467987 80.90580627 116.85120544 82.00716919 116.84762573 83.14190674 C116.84027156 85.53563367 116.83492437 87.92936741 116.83133507 90.32310295 C116.82416139 94.12020745 116.80848569 97.91718333 116.78999329 101.71424866 C116.73758171 112.51138927 116.6891668 123.30844918 116.67407227 134.10571289 C116.66474333 140.71108165 116.63451919 147.31616375 116.59275246 153.92141914 C116.58049128 156.43100099 116.5753122 158.94062839 116.57755089 161.45023918 C116.59001559 179.99228768 116.0718007 196.39380066 102.75 210.75 C92.72042063 220.07728935 80.40578248 224.63227216 66.79370117 224.40234375 C53.23687672 223.82899253 41.59761532 217.69709489 32.30078125 207.92578125 C24.58557832 198.11476768 21.90262886 188.16238604 21.68359375 175.88671875 C21.66281265 174.91716751 21.64203156 173.94761627 21.62062073 172.94868469 C21.55541059 169.86169293 21.4963732 166.77461848 21.4375 163.6875 C21.39428763 161.59048636 21.35067248 159.49348097 21.30664062 157.39648438 C21.19975849 152.26440693 21.09841104 147.13224659 21 142 C20.39625046 141.83297073 19.79250092 141.66594147 19.17045593 141.49385071 C16.40773581 140.72635948 13.64724083 139.95113951 10.88671875 139.17578125 C9.93696167 138.91317505 8.98720459 138.65056885 8.00866699 138.38000488 C-7.11937746 134.11261515 -19.53617249 125.49462294 -28 112 C-34.65404193 99.09894531 -35.32256809 86.24021909 -35.3359375 72.01953125 C-35.3423795 70.39531848 -35.34910886 68.77110682 -35.35610962 67.14689636 C-35.36800983 63.76237292 -35.37179748 60.37795105 -35.37060547 56.9934082 C-35.37040152 52.67277745 -35.3978143 48.35279877 -35.43214989 44.03232288 C-35.45445032 40.68557272 -35.45844222 37.33897954 -35.45738602 33.9921627 C-35.45973297 32.39945902 -35.46850504 30.80675041 -35.48405075 29.21412086 C-35.62160602 13.68225159 -35.62160602 13.68225159 -31 7 C-23.17352556 0.73882045 -9.66180369 -2.57648099 0 0 Z M157.44140625 116.08203125 C153.85523547 120.85387366 152.45431303 126.05092425 152.7109375 131.98828125 C153.7572938 139.2703555 157.01778823 144.73092583 162.875 149.1875 C169.20212618 152.85723319 175.1704054 154.10644559 182.3359375 152.46484375 C188.2789532 150.65824595 192.06866078 148.20724482 196.1875 143.5 C199.63351911 136.84561826 200.87150987 129.86121642 198.875 122.5625 C196.28226627 115.56658917 192.65722842 112.49945921 186.21875 109.015625 C175.53209744 104.12384742 165.10432534 107.74349516 157.44140625 116.08203125 Z " fill="#8DC63F" transform="translate(61,57)"/>
<path d="M0 0 C12.83856123 7.55818524 22.00355146 24.7994514 30.8125 36.5625 C35.90109963 32.56038516 40.1294854 29.22407463 41.125 22.4296875 C41.37898187 17.7468968 40.81123321 14.01920873 38.203125 10.0703125 C35.06575651 6.66855902 31.20724495 4.90522618 26.65625 4.25390625 C22.78440664 4.13110525 20.16796739 4.76492818 16.8125 6.5625 C14.5625 6.1875 14.5625 6.1875 12.8125 5.5625 C12.8125 4.5725 12.8125 3.5825 12.8125 2.5625 C19.21587472 -1.30368851 24.34667993 -2.49470372 31.8125 -1.4375 C38.04985328 0.37680758 42.251163 4.2204945 45.8125 9.5625 C48.38346433 14.9381527 48.90175235 20.97484518 47.16221619 26.70433044 C44.56996105 32.82446967 41.08572185 37.02283461 36.37890625 41.66015625 C35.66395493 42.3798912 34.9490036 43.09962616 34.21238708 43.84117126 C32.70981986 45.34711954 31.20100566 46.84685849 29.6862793 48.34057617 C27.36738238 50.63252911 25.07657729 52.95017407 22.78710938 55.27148438 C21.31931019 56.73598223 19.84996219 58.19892977 18.37890625 59.66015625 C17.35368614 60.70055809 17.35368614 60.70055809 16.30775452 61.76197815 C15.66035812 62.39361374 15.01296173 63.02524933 14.34594727 63.67602539 C13.78287369 64.235121 13.21980011 64.79421661 12.6396637 65.37025452 C10.1692377 66.9822361 8.710456 66.98854704 5.8125 66.5625 C3.94064331 65.3188324 3.94064331 65.3188324 2.17138672 63.55249023 C1.50074188 62.89437851 0.83009705 62.23626678 0.13912964 61.55821228 C-0.56936127 60.83646317 -1.27785217 60.11471405 -2.0078125 59.37109375 C-2.74828827 58.63302994 -3.48876404 57.89496613 -4.25167847 57.13453674 C-5.81594787 55.56928772 -7.37400547 53.99780982 -8.92626953 52.4206543 C-11.29494444 50.01780881 -13.68650977 47.63971957 -16.08203125 45.26367188 C-17.60039392 43.73840692 -19.11736744 42.21175758 -20.6328125 40.68359375 C-21.70162155 39.6222245 -21.70162155 39.6222245 -22.79202271 38.53941345 C-23.45636322 37.8592366 -24.12070374 37.17905975 -24.80517578 36.47827148 C-25.38743927 35.88980942 -25.96970276 35.30134735 -26.5696106 34.6950531 C-28.70725479 31.87740701 -29.83516694 28.81718543 -31.1875 25.5625 C-66.3394654 25.47093258 -101.49140666 25.40045525 -136.64346623 25.35823868 C-140.7940493 25.35323589 -144.94463213 25.3480586 -149.09521484 25.34277344 C-149.92151665 25.3417242 -150.74781846 25.34067495 -151.59915972 25.33959392 C-164.97626823 25.32219152 -178.35330794 25.29065474 -191.73037565 25.25388882 C-205.45780063 25.21647479 -219.18518959 25.19426317 -232.91266346 25.18614602 C-241.38239555 25.1806592 -249.85193316 25.16333333 -258.32160538 25.13083413 C-264.13059889 25.10968053 -269.93949193 25.10330186 -275.74852115 25.10849449 C-279.09951214 25.11105504 -282.44988977 25.10495626 -285.80086708 25.0856781 C-289.43734009 25.06578236 -293.07298046 25.07056044 -296.70947266 25.08148193 C-297.7639626 25.06983057 -298.81845255 25.0581792 -299.90489674 25.04617476 C-306.17165565 25.09705997 -310.96908015 25.93512442 -316.1875 29.5625 C-319.47265973 33.15564346 -319.66348723 36.66175731 -319.4609375 41.3515625 C-319.0391735 44.7618257 -318.24730722 46.79463404 -316.1875 49.5625 C-309.44647364 53.84067184 -303.8895852 54.13574808 -296.02612305 54.08148193 C-294.8146397 54.08898319 -293.60315636 54.09648444 -292.3549614 54.104213 C-289.00927236 54.12094957 -285.664455 54.11993952 -282.31879306 54.11130548 C-278.70467316 54.10634864 -275.09065858 54.12446038 -271.47657776 54.13972473 C-265.2206478 54.16301123 -258.96483367 54.17178641 -252.7088623 54.17061615 C-243.66388365 54.16894528 -234.6190592 54.18929824 -225.57412171 54.21497145 C-210.89821756 54.25603203 -196.22234119 54.27936018 -181.54638672 54.29150391 C-167.29277884 54.30333621 -153.03922323 54.32354031 -138.78564453 54.35498047 C-137.46705167 54.35788462 -137.46705167 54.35788462 -136.12182057 54.36084744 C-131.71168431 54.37061218 -127.30154844 54.38054126 -122.89141273 54.39055204 C-86.32346615 54.47334692 -49.75552188 54.52734984 -13.1875 54.5625 C-13.1875 55.5525 -13.1875 56.5425 -13.1875 57.5625 C-50.88734657 57.65405918 -88.58717638 57.72454058 -126.28711164 57.76676132 C-130.73812018 57.77176413 -135.1891285 57.77694142 -139.64013672 57.78222656 C-140.52625082 57.7832758 -141.41236493 57.78432505 -142.32533097 57.78540608 C-156.67241597 57.80281043 -171.01943685 57.83434829 -185.36648381 57.87111118 C-200.08831999 57.90851977 -214.81012259 57.93073568 -229.53200436 57.93885398 C-238.61591998 57.94434192 -247.69965437 57.96167394 -256.7835142 57.99416587 C-263.01300192 58.01531274 -269.24239597 58.02169966 -275.47191697 58.01650551 C-279.06585527 58.01394398 -282.65947688 58.01786538 -286.25335884 58.0393219 C-290.15242115 58.06243008 -294.05107203 58.05444417 -297.95019531 58.04351807 C-299.08250422 58.05516943 -300.21481314 58.0668208 -301.38143444 58.07882524 C-308.54398657 58.02452336 -314.56012853 57.20147682 -319.79765701 51.94719148 C-323.43688735 47.63665007 -324.35518981 43.1159921 -324.1875 37.5625 C-323.23414971 31.93773327 -321.26401372 28.54842453 -317.1875 24.5625 C-311.07426953 21.15752802 -305.65235658 21.14514231 -298.75379944 21.20173645 C-297.60850736 21.19917318 -296.46321527 21.1966099 -295.28321737 21.19396895 C-291.44916599 21.18903127 -287.61550919 21.20552438 -283.78149414 21.22192383 C-281.03172558 21.22444139 -278.2819647 21.22242702 -275.53219604 21.22059631 C-269.61399826 21.21902521 -263.6958999 21.22841736 -257.77772713 21.24530983 C-249.2211174 21.26971737 -240.66455562 21.27750689 -232.10791486 21.2812738 C-218.2245039 21.28783554 -204.34114589 21.30778915 -190.45776367 21.33618164 C-176.97339136 21.36372941 -163.48903345 21.38495948 -150.00463867 21.39770508 C-149.17310597 21.39849325 -148.34157327 21.39928142 -147.48484261 21.40009347 C-143.31318126 21.40400866 -139.14151981 21.40779976 -134.96985829 21.41152918 C-100.37570111 21.44261643 -65.78160545 21.49544466 -31.1875 21.5625 C-31.20047119 20.45334229 -31.21344238 19.34418457 -31.22680664 18.20141602 C-31.16714781 12.67834266 -29.29641353 8.82633372 -25.5390625 4.79296875 C-18.35431946 -1.65447533 -9.18293281 -3.97443139 0 0 Z " fill="#5BAD63" transform="translate(528.1875,267.4375)"/>
<path d="M0 0 C4.29 0 8.58 0 13 0 C15.64775676 2.92777388 16.55621909 4.49396179 18 8 C19.02890398 9.99157965 20.06730894 11.97826889 21.11328125 13.9609375 C22.1838726 16.09686576 23.25021002 18.23493099 24.3125 20.375 C25.13717773 22.01275391 25.13717773 22.01275391 25.97851562 23.68359375 C26.49736328 24.72386719 27.01621094 25.76414063 27.55078125 26.8359375 C28.02169189 27.78001465 28.49260254 28.7240918 28.9777832 29.69677734 C30 32 30 32 30 34 C30.66 34 31.32 34 32 34 C32.34611328 32.82050781 32.34611328 32.82050781 32.69921875 31.6171875 C34.38599997 26.9266187 36.56967104 22.57102029 38.8125 18.125 C39.23853516 17.26519531 39.66457031 16.40539062 40.10351562 15.51953125 C40.95843363 13.81486872 41.83475357 12.12075891 42.73291016 10.43847656 C44.02783885 8.03871669 44.02783885 8.03871669 44.98193359 5.58496094 C46.01171875 3.3671875 46.01171875 3.3671875 49 0 C53.29 0 57.58 0 62 0 C62 18.81 62 37.62 62 57 C58.37 57 54.74 57 51 57 C50.505 39.675 50.505 39.675 50 22 C45.43543761 31.16871345 45.43543761 31.16871345 40.87524414 40.33959961 C40.30926514 41.47405518 39.74328613 42.60851074 39.16015625 43.77734375 C38.57886963 44.94515381 37.99758301 46.11296387 37.39868164 47.31616211 C36 50 36 50 35 51 C32.32941149 51.14115161 29.67567762 51.04247107 27 51 C25.43569367 48.04261855 23.87390347 45.08391495 22.3125 42.125 C21.87744141 41.30257812 21.44238281 40.48015625 20.99414062 39.6328125 C20.55908203 38.8078125 20.12402344 37.9828125 19.67578125 37.1328125 C19.28302002 36.38918457 18.89025879 35.64555664 18.4855957 34.87939453 C16.28166029 30.60770773 14.14963436 26.29926872 12 22 C11.67 33.55 11.34 45.1 11 57 C7.37 57 3.74 57 0 57 C0 38.19 0 19.38 0 0 Z " fill="#009677" transform="translate(403,159)"/>
<path d="M0 0 C4.62 0 9.24 0 14 0 C15.04800781 2.04703125 16.09601563 4.0940625 17.17578125 6.203125 C18.19759314 8.19268097 19.22068255 10.18157496 20.24389648 12.17041016 C20.95226596 13.5489551 21.65931321 14.92818032 22.36499023 16.30810547 C23.38174995 18.29576682 24.40329873 20.28090273 25.42578125 22.265625 C25.8947155 23.18616669 25.8947155 23.18616669 26.37312317 24.12530518 C28.01795342 27.30605553 29.74696991 30.21311941 32 33 C32.47945068 32.03586182 32.95890137 31.07172363 33.45288086 30.07836914 C35.22690724 26.51225921 37.00355282 22.94745969 38.78100586 19.38305664 C39.55093109 17.83816761 40.32013899 16.29292088 41.08862305 14.74731445 C42.19132527 12.52982365 43.29657414 10.31361874 44.40234375 8.09765625 C44.74716293 7.4028566 45.09198212 6.70805695 45.44725037 5.99220276 C47.88612829 1.11387171 47.88612829 1.11387171 49 0 C53.29 0 57.58 0 62 0 C62 18.81 62 37.62 62 57 C58.7 57 55.4 57 52 57 C51.67 45.12 51.34 33.24 51 21 C46.05 30.9 41.1 40.8 36 51 C33.03 51 30.06 51 27 51 C22.05 41.1 17.1 31.2 12 21 C11.67 32.88 11.34 44.76 11 57 C7.37 57 3.74 57 0 57 C0 38.19 0 19.38 0 0 Z " fill="#8DC63F" transform="translate(278,159)"/>
<path d="M0 0 C1.14529208 -0.00256327 2.29058416 -0.00512655 3.47058207 -0.0077675 C7.30463345 -0.01270518 11.13829025 0.00378793 14.9723053 0.02018738 C17.72207386 0.02270494 20.47183474 0.02069057 23.22160339 0.01885986 C29.13980117 0.01728876 35.05789954 0.02668091 40.97607231 0.04357338 C49.53268204 0.06798091 58.08924382 0.07577044 66.64588458 0.07953735 C80.52929554 0.08609909 94.41265355 0.1060527 108.29603577 0.13444519 C121.78040808 0.16199296 135.26476599 0.18322303 148.74916077 0.19596863 C149.58069347 0.1967568 150.41222617 0.19754497 151.26895683 0.19835702 C155.44061818 0.20227221 159.61227963 0.20606331 163.78394115 0.20979273 C198.37809833 0.24087998 232.97219399 0.29370821 267.56629944 0.36076355 C267.56629944 1.35076355 267.56629944 2.34076355 267.56629944 3.36076355 C266.98321361 3.36136064 266.40012777 3.36195773 265.79937267 3.36257291 C231.23629958 3.39847158 196.67332422 3.45511777 162.1103332 3.5386845 C157.95975069 3.54870189 153.80916778 3.55854603 149.65858459 3.56828308 C148.83228279 3.57022445 148.00598098 3.57216583 147.15463972 3.57416603 C133.77757175 3.605182 120.40052094 3.62216555 107.02342379 3.63395777 C93.29594559 3.64637142 79.56855737 3.67387765 65.84113598 3.71537662 C57.37145153 3.74050592 48.90191632 3.75388125 40.43219405 3.75219312 C34.62315174 3.75216335 28.81426138 3.76680167 23.00527829 3.79292783 C19.65432674 3.80756716 16.30394868 3.8136079 12.95293236 3.80656624 C9.31639698 3.79994209 5.68077064 3.81781116 2.04432678 3.84178162 C0.98983684 3.8340212 -0.06465311 3.82626078 -1.1510973 3.8182652 C-7.41129541 3.89133011 -12.21893466 4.74044209 -17.43370056 8.36076355 C-20.71886029 11.95390701 -20.90968779 15.46002086 -20.70713806 20.14982605 C-20.28537406 23.56008925 -19.49350779 25.59289759 -17.43370056 28.36076355 C-10.6926742 32.63893539 -5.13578576 32.93401163 2.72767639 32.87974548 C3.93915974 32.88724674 5.15064308 32.89474799 6.39883804 32.90247655 C9.74452708 32.91921312 13.08934443 32.91820307 16.43500638 32.90956903 C20.04912628 32.90461219 23.66314086 32.92272393 27.27722168 32.93798828 C33.53315164 32.96127478 39.78896577 32.97004996 46.04493713 32.9688797 C55.08991579 32.96720883 64.13474024 32.98756179 73.17967772 33.013235 C87.85558188 33.05429558 102.53145825 33.07762373 117.20741272 33.08976746 C131.4610206 33.10159976 145.7145762 33.12180386 159.96815491 33.15324402 C161.28674777 33.15614817 161.28674777 33.15614817 162.63197887 33.15911099 C167.04211513 33.16887573 171.452251 33.17880481 175.8623867 33.18881559 C212.43033329 33.27161047 248.99827756 33.32561339 285.56629944 33.36076355 C285.56629944 34.35076355 285.56629944 35.34076355 285.56629944 36.36076355 C247.86645287 36.45232273 210.16662306 36.52280413 172.4666878 36.56502487 C168.01567926 36.57002768 163.56467093 36.57520497 159.11366272 36.58049011 C158.22754862 36.58153935 157.34143451 36.5825886 156.42846847 36.58366963 C142.08138347 36.60107398 127.73436259 36.63261184 113.38731563 36.66937473 C98.66547945 36.70678332 83.94367684 36.72899923 69.22179508 36.73711753 C60.13787945 36.74260547 51.05414507 36.75993749 41.97028524 36.79242942 C35.74079752 36.81357629 29.51140347 36.81996321 23.28188246 36.81476906 C19.68794417 36.81220753 16.09432256 36.81612893 12.5004406 36.83758545 C8.60137829 36.86069363 4.70272741 36.85270772 0.80360413 36.84178162 C-0.32870479 36.85343298 -1.4610137 36.86508435 -2.627635 36.87708879 C-9.79018713 36.82278691 -15.80632909 35.99974037 -21.04385757 30.74545503 C-24.68308791 26.43491362 -25.60139038 21.91425565 -25.43370056 16.36076355 C-24.48035027 10.73599682 -22.51021428 7.34668808 -18.43370056 3.36076355 C-12.32047009 -0.04420843 -6.89855714 -0.05659414 0 0 Z " fill="#6DB859" transform="translate(229.43370056152344,288.6392364501953)"/>
<path d="M0 0 C1.65322266 0.01740234 1.65322266 0.01740234 3.33984375 0.03515625 C4.44457031 0.04417969 5.54929687 0.05320313 6.6875 0.0625 C7.54214844 0.07410156 8.39679688 0.08570313 9.27734375 0.09765625 C15.95037027 12.5978327 21.36009564 25.67098996 26.85253906 38.71972656 C27.81169731 40.99370077 28.77998246 43.26384441 29.75683594 45.53027344 C30.21477539 46.60180664 30.67271484 47.67333984 31.14453125 48.77734375 C31.76110596 50.20796143 31.76110596 50.20796143 32.39013672 51.66748047 C33.27734375 54.09765625 33.27734375 54.09765625 33.27734375 57.09765625 C29.31734375 57.09765625 25.35734375 57.09765625 21.27734375 57.09765625 C19.62734375 53.46765625 17.97734375 49.83765625 16.27734375 46.09765625 C7.36734375 45.76765625 -1.54265625 45.43765625 -10.72265625 45.09765625 C-11.21765625 47.57265625 -11.21765625 47.57265625 -11.72265625 50.09765625 C-12.61571499 52.48994314 -13.67161651 54.76708987 -14.72265625 57.09765625 C-18.68265625 57.09765625 -22.64265625 57.09765625 -26.72265625 57.09765625 C-25.86928974 52.83082369 -24.82619667 49.71827898 -23.09765625 45.78515625 C-22.83458679 45.18245407 -22.57151733 44.57975189 -22.30047607 43.95878601 C-21.44574043 42.00305274 -20.58426883 40.05036827 -19.72265625 38.09765625 C-18.83576213 36.07391899 -17.95044363 34.04949686 -17.06512451 32.02507019 C-16.47202351 30.66934533 -15.87831365 29.31388666 -15.28399658 27.95869446 C-12.25131051 21.03962319 -9.29091465 14.09005723 -6.3515625 7.13085938 C-3.3693093 0.12085041 -3.3693093 0.12085041 0 0 Z M2.27734375 14.09765625 C0.9382179 17.22020568 -0.39296283 20.34607983 -1.72265625 23.47265625 C-2.295 24.80683594 -2.295 24.80683594 -2.87890625 26.16796875 C-3.23984375 27.01875 -3.60078125 27.86953125 -3.97265625 28.74609375 C-4.47539062 29.92437744 -4.47539062 29.92437744 -4.98828125 31.12646484 C-5.83902726 33.0594256 -5.83902726 33.0594256 -5.72265625 35.09765625 C0.21734375 35.09765625 6.15734375 35.09765625 12.27734375 35.09765625 C10.99395123 31.78172814 9.70113347 28.4700477 8.40234375 25.16015625 C7.85513672 23.74186523 7.85513672 23.74186523 7.296875 22.29492188 C6.94238281 21.39580078 6.58789062 20.49667969 6.22265625 19.5703125 C5.89797363 18.73765869 5.57329102 17.90500488 5.23876953 17.04711914 C4.43653291 14.92542954 4.43653291 14.92542954 2.27734375 14.09765625 Z " fill="#009677" transform="translate(497.72265625,158.90234375)"/>
<path d="M0 0 C-0.51035831 4.3890815 -1.52214277 7.33708062 -4 11 C-8 9.66666667 -12 8.33333333 -16 7 C-17.49676706 6.88340402 -18.99875061 6.82501041 -20.5 6.8125 C-21.2734375 6.79832031 -22.046875 6.78414062 -22.84375 6.76953125 C-25.29680056 6.86338472 -25.29680056 6.86338472 -28 9 C-28.2113453 11.3912295 -28.2113453 11.3912295 -27 14 C-23.26062698 16.42651808 -18.87337742 17.6972017 -14.6875 19.1484375 C-3.58526887 23.10991543 -3.58526887 23.10991543 0 29 C1.66026461 33.98079383 1.59903425 38.30273629 -0.125 43.1875 C-3.73146373 48.5971956 -7.81021582 51.30231648 -14 53 C-25.63607389 54.19844593 -35.63848361 52.08439078 -45 45 C-44.39301257 40.87248551 -42.96189209 37.6678852 -41 34 C-38.87008425 35.05271698 -36.76072119 36.12865745 -34.66796875 37.25390625 C-28.57618431 40.46768229 -23.59887673 42.93304212 -16.625 41.125 C-14.11992824 40.24372513 -14.11992824 40.24372513 -13 39 C-12.95936168 37.33382885 -12.957279 35.66611905 -13 34 C-17.7887022 31.46480472 -22.52665291 29.40794981 -27.625 27.5625 C-36.6304965 24.0980448 -36.6304965 24.0980448 -40 20 C-41.76481328 15.31246428 -42.14128248 11.21099272 -41.5625 6.25 C-38.96551234 0.84826566 -35.26802293 -2.02163717 -29.8125 -4.375 C-19.11961819 -6.12793144 -9.63041396 -5.03408002 0 0 Z " fill="#009677" transform="translate(393,163)"/>
<path d="M0 0 C12.87 0 25.74 0 39 0 C39 3.3 39 6.6 39 10 C30.09 10 21.18 10 12 10 C12 14.62 12 19.24 12 24 C20.25 24 28.5 24 37 24 C37 27.3 37 30.6 37 34 C28.75 34 20.5 34 12 34 C12 41.59 12 49.18 12 57 C8.04 57 4.08 57 0 57 C0 38.19 0 19.38 0 0 Z " fill="#009677" transform="translate(537,159)"/>
<path d="M0 0 C2.24129182 0.49806485 4.21084671 1.09302056 6.31813353 2.02270544 C9.15267828 3.05563724 11.2181275 3.25405892 14.22236347 3.26171303 C15.77869888 3.27291127 15.77869888 3.27291127 17.3664754 3.28433573 C18.49974094 3.282401 19.63300648 3.28046626 20.8006134 3.2784729 C22.61399351 3.2871615 22.61399351 3.2871615 24.46400756 3.29602563 C27.8162365 3.3100907 31.16826603 3.31525606 34.52051008 3.31667423 C38.13670383 3.32036901 41.75285165 3.33552489 45.36901855 3.34928894 C51.63315665 3.37156313 57.8972784 3.38657546 64.16144753 3.39665604 C73.21837916 3.41124135 82.27525386 3.43677777 91.33215209 3.46498732 C106.0263513 3.51045799 120.7205587 3.54707167 135.41479492 3.578125 C149.6888981 3.60830941 163.96298123 3.64265919 178.23706055 3.68261719 C179.11691062 3.68507874 179.9967607 3.68754028 180.9032729 3.69007643 C185.31722095 3.70245101 189.73116875 3.71490754 194.14511645 3.72740483 C230.76338331 3.83097674 267.38167405 3.92017865 304 4 C304 4.99 304 5.98 304 7 C266.28312115 7.06865873 228.56625172 7.12152503 190.84932303 7.15319599 C186.3970258 7.15694813 181.94472869 7.1608311 177.49243164 7.16479492 C176.60605523 7.16558185 175.71967881 7.16636878 174.80644251 7.16717956 C160.45223034 7.18023535 146.09805419 7.20389015 131.7438634 7.23145839 C117.01638023 7.25950777 102.28891593 7.27617527 87.56140715 7.28226548 C78.47291682 7.28638289 69.38452832 7.2993899 60.29606933 7.3237494 C54.06472878 7.33960082 47.8334409 7.3444017 41.60208165 7.34050413 C38.00629646 7.33858166 34.41068927 7.34153965 30.81493568 7.35761642 C26.91557462 7.37492324 23.01644547 7.36896445 19.11705017 7.36076355 C17.41421754 7.37387134 17.41421754 7.37387134 15.67698425 7.38724393 C9.66324809 7.35298477 5.32321748 6.86755556 0 4 C0 2.68 0 1.36 0 0 Z " fill="#6FB958" transform="translate(211,318)"/>
<path d="M0 0 C2.31 0 4.62 0 7 0 C6.67 1.32 6.34 2.64 6 4 C7.32 4 8.64 4 10 4 C9.67 5.65 9.34 7.3 9 9 C7.68 9 6.36 9 5 9 C5.33 10.98 5.66 12.96 6 15 C6.66 15 7.32 15 8 15 C8.33 16.98 8.66 18.96 9 21 C7.35425434 21.02688151 5.70838587 21.04634123 4.0625 21.0625 C3.14597656 21.07410156 2.22945313 21.08570313 1.28515625 21.09765625 C-1 21 -1 21 -2 20 C-2.07205511 18.31391034 -2.08386068 16.62499341 -2.0625 14.9375 C-2.05347656 14.01839844 -2.04445313 13.09929687 -2.03515625 12.15234375 C-2.02355469 11.44207031 -2.01195312 10.73179687 -2 10 C-5.14061025 8.65486576 -5.14061025 8.65486576 -9 10 C-9.99 13.63 -10.98 17.26 -12 21 C-14.31 21 -16.62 21 -19 21 C-18.51679152 14.7945858 -17.66681876 9.00054754 -16 3 C-14.083412 2.97287847 -12.1667127 2.95354903 -10.25 2.9375 C-8.64898437 2.92009766 -8.64898437 2.92009766 -7.015625 2.90234375 C-4.46631499 2.98489913 -2.42066409 3.25382442 0 4 C0 2.68 0 1.36 0 0 Z " fill="#009677" transform="translate(487,297)"/>
<path d="M0 0 C2.31 0 4.62 0 7 0 C6.67 1.98 6.34 3.96 6 6 C7.8871875 5.87625 7.8871875 5.87625 9.8125 5.75 C11.95703125 5.609375 11.95703125 5.609375 14 6 C16.23301875 8.13977182 16.96990737 9.32936414 17.109375 12.4375 C16.99078125 13.283125 16.8721875 14.12875 16.75 15 C16.64171875 15.845625 16.5334375 16.69125 16.421875 17.5625 C16.04403451 19.74557837 15.5743015 21.86122199 15 24 C12.69 24 10.38 24 8 24 C8.33 20.04 8.66 16.08 9 12 C4.8686365 13.48397601 4.8686365 13.48397601 4.171875 16.3828125 C4.03265625 17.28773438 3.8934375 18.19265625 3.75 19.125 C3.60046875 20.03507812 3.4509375 20.94515625 3.296875 21.8828125 C3.19890625 22.58148438 3.1009375 23.28015625 3 24 C0.36 24 -2.28 24 -5 24 C-3.35 16.08 -1.7 8.16 0 0 Z " fill="#009677" transform="translate(408,294)"/>
<path d="M0 0 C0.74056641 0.02255859 1.48113281 0.04511719 2.24414062 0.06835938 C4.05947357 0.1269185 5.87375681 0.21659114 7.6875 0.3125 C7.20429152 6.5179142 6.35431876 12.31195246 4.6875 18.3125 C2.24933415 18.3934723 -0.18614384 18.45296972 -2.625 18.5 C-3.66043945 18.53770508 -3.66043945 18.53770508 -4.71679688 18.57617188 C-9.76846965 18.64938452 -9.76846965 18.64938452 -12.26171875 17.10546875 C-13.62683194 14.77614923 -13.77972716 13.13306626 -13.8125 10.4375 C-13.8434375 9.59445312 -13.874375 8.75140625 -13.90625 7.8828125 C-12.14840933 0.27321276 -6.63055796 -0.38515305 0 0 Z M-4.3125 5.3125 C-6.59978734 7.15133881 -6.59978734 7.15133881 -6.4375 9.9375 C-6.39625 10.72125 -6.355 11.505 -6.3125 12.3125 C-4.9925 12.6425 -3.6725 12.9725 -2.3125 13.3125 C-0.0624628 10.61527016 -0.0624628 10.61527016 -0.5 8.1875 C-0.768125 7.56875 -1.03625 6.95 -1.3125 6.3125 C-2.3025 5.9825 -3.2925 5.6525 -4.3125 5.3125 Z " fill="#009677" transform="translate(460.3125,299.6875)"/>
<path d="M0 0 C1.32 0 2.64 0 4 0 C4.33 2.97 4.66 5.94 5 9 C5.99 9 6.98 9 8 9 C8.33 6.03 8.66 3.06 9 0 C15.6 0 22.2 0 29 0 C29 3.3 29 6.6 29 10 C30.32 9.67 31.64 9.34 33 9 C33.33 6.03 33.66 3.06 34 0 C34.99 0 35.98 0 37 0 C37.10815225 1.76949095 37.18566083 3.54087487 37.25 5.3125 C37.29640625 6.29863281 37.3428125 7.28476563 37.390625 8.30078125 C37 11 37 11 35.1796875 12.86328125 C32.09268779 14.4731682 30.27235742 13.99593487 27 13 C24.5705484 9.3558226 24.83820425 7.28758728 25 3 C23.68 3 22.36 3 21 3 C21 6.3 21 9.6 21 13 C19.68 13 18.36 13 17 13 C17 9.7 17 6.4 17 3 C15.68 3 14.36 3 13 3 C13.103125 4.0725 13.20625 5.145 13.3125 6.25 C13 10 13 10 10.8125 12.5 C8 14 8 14 5.375 14 C2.32489046 12.71574335 1.43103893 12.01271353 0 9 C-0.23932874 5.98237675 -0.17422255 3.01985747 0 0 Z " fill="#009677" transform="translate(278,235)"/>
<path d="M0 0 C0.66 0.33 1.32 0.66 2 1 C1.67 1.99 1.34 2.98 1 4 C-1.31 4 -3.62 4 -6 4 C-6 5.65 -6 7.3 -6 9 C-3.36 9 -0.72 9 2 9 C3.32 6.03 4.64 3.06 6 0 C7.65 0 9.3 0 11 0 C12.32 2.97 13.64 5.94 15 9 C15.33 6.03 15.66 3.06 16 0 C17.32 0 18.64 0 20 0 C20 3.3 20 6.6 20 10 C21.65 10 23.3 10 25 10 C25 10.99 25 11.98 25 13 C11.3667426 13.3690205 11.3667426 13.3690205 5 11 C5 11.66 5 12.32 5 13 C-3.99753199 14.45008768 -3.99753199 14.45008768 -8.0625 12.625 C-10.97982515 10.17821116 -10.97982515 10.17821116 -11.375 6.6875 C-11 3 -11 3 -8.875 0.5 C-5.34749237 -1.34043876 -3.76484655 -1.08762234 0 0 Z M8 5 C7.67 5.99 7.34 6.98 7 8 C7.99 7.67 8.98 7.34 10 7 C9.34 6.34 8.68 5.68 8 5 Z " fill="#009677" transform="translate(465,235)"/>
<path d="M0 0 C2.625 1.5625 2.625 1.5625 4 4 C4.25 7.75 4.25 7.75 4 11 C1.69 11.33 -0.62 11.66 -3 12 C-2.01 12 -1.02 12 0 12 C0.66 13.32 1.32 14.64 2 16 C-1.20624887 18.13749925 -2.22458103 18.29574999 -5.9375 18.3125 C-6.79214844 18.32925781 -7.64679688 18.34601563 -8.52734375 18.36328125 C-11.55342751 17.91869075 -12.88108934 17.20077766 -15 15 C-16.18417682 10.18162536 -15.65855129 6.09758548 -13.125 1.875 C-8.72656761 -0.76405944 -5.00673563 -0.89496455 0 0 Z M-7 5 C-7.33 5.66 -7.66 6.32 -8 7 C-6.35 7 -4.7 7 -3 7 C-3.33 6.34 -3.66 5.68 -4 5 C-4.99 5 -5.98 5 -7 5 Z " fill="#009677" transform="translate(442,300)"/>
<path d="M0 0 C0.84755859 0.0515625 1.69511719 0.103125 2.56835938 0.15625 C3.44943359 0.22070312 4.33050781 0.28515625 5.23828125 0.3515625 C6.13095703 0.40828125 7.02363281 0.465 7.94335938 0.5234375 C10.14665538 0.66482548 12.34879664 0.81622228 14.55078125 0.9765625 C14.55078125 1.9665625 14.55078125 2.9565625 14.55078125 3.9765625 C13.23078125 3.9765625 11.91078125 3.9765625 10.55078125 3.9765625 C10.55078125 7.2765625 10.55078125 10.5765625 10.55078125 13.9765625 C9.23078125 13.9765625 7.91078125 13.9765625 6.55078125 13.9765625 C6.55078125 10.6765625 6.55078125 7.3765625 6.55078125 3.9765625 C2.09578125 4.4715625 2.09578125 4.4715625 -2.44921875 4.9765625 C-1.62421875 5.3684375 -0.79921875 5.7603125 0.05078125 6.1640625 C0.87578125 6.7621875 1.70078125 7.3603125 2.55078125 7.9765625 C2.86328125 10.6640625 2.86328125 10.6640625 2.55078125 12.9765625 C-2.74152644 15.19194712 -2.74152644 15.19194712 -6.32421875 14.1015625 C-7.02546875 13.7303125 -7.72671875 13.3590625 -8.44921875 12.9765625 C-8.11921875 11.6565625 -7.78921875 10.3365625 -7.44921875 8.9765625 C-6.45921875 8.9765625 -5.46921875 8.9765625 -4.44921875 8.9765625 C-5.43921875 8.3165625 -6.42921875 7.6565625 -7.44921875 6.9765625 C-7.82421875 4.4765625 -7.82421875 4.4765625 -7.44921875 1.9765625 C-4.22473728 -0.17309181 -3.6499091 -0.24496034 0 0 Z " fill="#009677" transform="translate(352.44921875,234.0234375)"/>
<path d="M0 0 C4.62 0 9.24 0 14 0 C14.33 2.97 14.66 5.94 15 9 C15.99 9 16.98 9 18 9 C18.33 6.03 18.66 3.06 19 0 C19.99 0 20.98 0 22 0 C22.10815225 1.76949095 22.18566083 3.54087487 22.25 5.3125 C22.29640625 6.29863281 22.3428125 7.28476563 22.390625 8.30078125 C22 11 22 11 20.1796875 12.86328125 C17.09268779 14.4731682 15.27235742 13.99593487 12 13 C9.5705484 9.3558226 9.83820425 7.28758728 10 3 C7.69 3 5.38 3 3 3 C3 3.66 3 4.32 3 5 C4.98 5 6.96 5 9 5 C9 5.99 9 6.98 9 8 C7.02 8 5.04 8 3 8 C3 9.65 3 11.3 3 13 C2.01 13 1.02 13 0 13 C0 8.71 0 4.42 0 0 Z " fill="#009677" transform="translate(534,235)"/>
<path d="M0 0 C6.6 0 13.2 0 20 0 C20 0.99 20 1.98 20 3 C18.02 3 16.04 3 14 3 C14 3.66 14 4.32 14 5 C15.98 5 17.96 5 20 5 C20 5.99 20 6.98 20 8 C18.02 8 16.04 8 14 8 C14 9.65 14 11.3 14 13 C12.68 13 11.36 13 10 13 C10 9.7 10 6.4 10 3 C7.69 3 5.38 3 3 3 C3 3.66 3 4.32 3 5 C4.98 5 6.96 5 9 5 C9 5.99 9 6.98 9 8 C7.02 8 5.04 8 3 8 C3 9.65 3 11.3 3 13 C2.01 13 1.02 13 0 13 C0 8.71 0 4.42 0 0 Z " fill="#009677" transform="translate(380,235)"/>
<path d="M0 0 C1.65 0 3.3 0 5 0 C5.66 1.98 6.32 3.96 7 6 C7.66 6 8.32 6 9 6 C9.66 4.02 10.32 2.04 11 0 C12.65 0 14.3 0 16 0 C16 4.29 16 8.58 16 13 C14.68 13 13.36 13 12 13 C11.67 12.01 11.34 11.02 11 10 C10.67 10.66 10.34 11.32 10 12 C8.68 12 7.36 12 6 12 C5.67 11.34 5.34 10.68 5 10 C4.67 10.99 4.34 11.98 4 13 C2.68 13 1.36 13 0 13 C0 8.71 0 4.42 0 0 Z " fill="#009677" transform="translate(261,235)"/>
<path d="M0 0 C1.65 0 3.3 0 5 0 C6.32 2.97 7.64 5.94 9 9 C9.33 6.03 9.66 3.06 10 0 C11.32 0 12.64 0 14 0 C14 4.29 14 8.58 14 13 C7.84765625 13.09765625 7.84765625 13.09765625 6 13 C5.67 12.67 5.34 12.34 5 12 C1.36806821 11.79822601 -1.34087582 12.26817516 -5 13 C-3.35 8.71 -1.7 4.42 0 0 Z M2 4 C1.67 5.32 1.34 6.64 1 8 C1.99 7.67 2.98 7.34 4 7 C3.34 6.01 2.68 5.02 2 4 Z " fill="#009677" transform="translate(499,235)"/>
<path d="M0 0 C1.32 0 2.64 0 4 0 C5.75 2.5 5.75 2.5 7 5 C7.391875 4.175 7.78375 3.35 8.1875 2.5 C8.785625 1.675 9.38375 0.85 10 0 C11.65 0 13.3 0 15 0 C15 4.29 15 8.58 15 13 C13.68 13 12.36 13 11 13 C10.67 12.01 10.34 11.02 10 10 C9.67 10.66 9.34 11.32 9 12 C7.0625 11.625 7.0625 11.625 5 11 C4.67 10.34 4.34 9.68 4 9 C3.67 10.32 3.34 11.64 3 13 C2.01 13 1.02 13 0 13 C0 8.71 0 4.42 0 0 Z " fill="#009677" transform="translate(406,235)"/>
<path d="M0 0 C1.32 0 2.64 0 4 0 C4.33 1.98 4.66 3.96 5 6 C5.66 6 6.32 6 7 6 C7.33 4.35 7.66 2.7 8 1 C9.32 0.67 10.64 0.34 12 0 C12.66 1.65 13.32 3.3 14 5 C15.93798263 2.22739701 15.93798263 2.22739701 17 0 C17.99 0 18.98 0 20 0 C19.71640113 1.4391134 19.42278601 2.87625518 19.125 4.3125 C18.96257812 5.11300781 18.80015625 5.91351563 18.6328125 6.73828125 C18 9 18 9 16 12 C14.125 11.75 14.125 11.75 12 11 C10.75 8.9375 10.75 8.9375 10 7 C9.34 8.65 8.68 10.3 8 12 C6.68 12 5.36 12 4 12 C2.68 8.04 1.36 4.08 0 0 Z " fill="#8DC63F" transform="translate(347,302)"/>
<path d="M0 0 C5 1 5 1 6.8125 3.0625 C7.204375 3.701875 7.59625 4.34125 8 5 C8.33 3.35 8.66 1.7 9 0 C10.32 0 11.64 0 13 0 C13 4.29 13 8.58 13 13 C8 12 8 12 6.1875 9.9375 C5.795625 9.298125 5.40375 8.65875 5 8 C4.67 9.65 4.34 11.3 4 13 C2.68 13 1.36 13 0 13 C0 8.71 0 4.42 0 0 Z " fill="#009677" transform="translate(558,235)"/>
<path d="M0 0 C2.56809203 2.80885066 3 4.32615149 3 8.125 C2 11 2 11 -0.1875 12.9375 C-3.65432539 14.24718959 -5.47486247 14.07286794 -9 13 C-10.875 11.875 -10.875 11.875 -12 10 C-12.5 6.5625 -12.5 6.5625 -12 3 C-8.35161233 -1.42228808 -5.36004496 -1.68742156 0 0 Z M-7 3 C-8.29633621 4.06645115 -8.29633621 4.06645115 -8.0625 6.5625 C-8.041875 7.366875 -8.02125 8.17125 -8 9 C-5.60280568 9.67958603 -5.60280568 9.67958603 -3 10 C-2.34 9.34 -1.68 8.68 -1 8 C-1.3185177 5.89179203 -1.3185177 5.89179203 -2 4 C-3.65614657 3.61781233 -5.32457024 3.28604898 -7 3 Z " fill="#009677" transform="translate(229,235)"/>
<path d="M0 0 C1.588125 -0.061875 3.17625 -0.12375 4.8125 -0.1875 C6.15248047 -0.23970703 6.15248047 -0.23970703 7.51953125 -0.29296875 C10 0 10 0 11.80078125 1.29296875 C13.79958597 4.13817287 13.35896649 6.64964607 13 10 C11.80078125 11.70703125 11.80078125 11.70703125 10 13 C7.51953125 13.29296875 7.51953125 13.29296875 4.8125 13.1875 C3.224375 13.125625 1.63625 13.06375 0 13 C0 8.71 0 4.42 0 0 Z M4 3 C4 5.31 4 7.62 4 10 C5.65 9.67 7.3 9.34 9 9 C9 7.35 9 5.7 9 4 C7.35 3.67 5.7 3.34 4 3 Z " fill="#009677" transform="translate(515,235)"/>
<path d="M0 0 C7.51953125 -0.390625 7.51953125 -0.390625 10 0 C11.8359375 1.7890625 11.8359375 1.7890625 13 4 C12.67272727 10.32727273 12.67272727 10.32727273 10 13 C7.6171875 13.1953125 7.6171875 13.1953125 4.875 13.125 C2.461875 13.063125 2.461875 13.063125 0 13 C0 8.71 0 4.42 0 0 Z M3 3 C3 5.31 3 7.62 3 10 C4.65 9.67 6.3 9.34 8 9 C8.6814823 7.10820797 8.6814823 7.10820797 9 5 C8.34 4.34 7.68 3.68 7 3 C5.68 3 4.36 3 3 3 Z " fill="#009677" transform="translate(243,235)"/>
<path d="M0 0 C1.588125 -0.061875 3.17625 -0.12375 4.8125 -0.1875 C6.15248047 -0.23970703 6.15248047 -0.23970703 7.51953125 -0.29296875 C10 0 10 0 11.80078125 1.29296875 C13.79958597 4.13817287 13.35896649 6.64964607 13 10 C11.80078125 11.70703125 11.80078125 11.70703125 10 13 C7.51953125 13.29296875 7.51953125 13.29296875 4.8125 13.1875 C3.224375 13.125625 1.63625 13.06375 0 13 C0 8.71 0 4.42 0 0 Z M3 3 C3 5.31 3 7.62 3 10 C4.66611905 10.042721 6.33382885 10.04063832 8 10 C9.28322547 8.9404123 9.28322547 8.9404123 9.125 6.5 C9.28322547 4.0595877 9.28322547 4.0595877 8 3 C6.33382885 2.95936168 4.66611905 2.957279 3 3 Z " fill="#009677" transform="translate(435,235)"/>
<path d="M0 0 C7.51953125 -0.390625 7.51953125 -0.390625 10 0 C11.8359375 1.7890625 11.8359375 1.7890625 13 4 C12.67272727 10.32727273 12.67272727 10.32727273 10 13 C7.6171875 13.1953125 7.6171875 13.1953125 4.875 13.125 C2.461875 13.063125 2.461875 13.063125 0 13 C0 8.71 0 4.42 0 0 Z M3 3 C3 5.31 3 7.62 3 10 C4.66611905 10.042721 6.33382885 10.04063832 8 10 C9.28322547 8.9404123 9.28322547 8.9404123 9.125 6.5 C9.28322547 4.0595877 9.28322547 4.0595877 8 3 C6.33382885 2.95936168 4.66611905 2.957279 3 3 Z " fill="#009677" transform="translate(573,235)"/>
<path d="M0 0 C0.99 0 1.98 0 3 0 C3 1.98 3 3.96 3 6 C5.31 6 7.62 6 10 6 C10 4.02 10 2.04 10 0 C10.99 0 11.98 0 13 0 C13 4.95 13 9.9 13 15 C12.01 15 11.02 15 10 15 C10 13.02 10 11.04 10 9 C7.69 9 5.38 9 3 9 C3 10.98 3 12.96 3 15 C2.01 15 1.02 15 0 15 C0 10.05 0 5.1 0 0 Z " fill="#8DC63F" transform="translate(222,299)"/>
<path d="M0 0 C1.65 0 3.3 0 5 0 C5.83790789 1.78953185 6.67019396 3.58169695 7.5 5.375 C7.9640625 6.37273437 8.428125 7.37046875 8.90625 8.3984375 C10 11 10 11 10 13 C8.68 13 7.36 13 6 13 C6 12.34 6 11.68 6 11 C4.9275 11.350625 3.855 11.70125 2.75 12.0625 C-1 13 -1 13 -5 12 C-3.35 8.04 -1.7 4.08 0 0 Z M2 5 C1.67 5.99 1.34 6.98 1 8 C1.99 7.67 2.98 7.34 4 7 C3.34 6.34 2.68 5.68 2 5 Z " fill="#009677" transform="translate(320,235)"/>
<path d="M0 0 C3.3 0 6.6 0 10 0 C10 0.99 10 1.98 10 3 C7.69 3 5.38 3 3 3 C3 3.66 3 4.32 3 5 C5.31 5 7.62 5 10 5 C10 5.99 10 6.98 10 8 C7.69 8 5.38 8 3 8 C3 8.66 3 9.32 3 10 C5.64 10 8.28 10 11 10 C11 10.99 11 11.98 11 13 C7.37 13 3.74 13 0 13 C0 8.71 0 4.42 0 0 Z " fill="#009677" transform="translate(423,235)"/>
<path d="M0 0 C1.32 0 2.64 0 4 0 C4.83790789 1.78953185 5.67019396 3.58169695 6.5 5.375 C6.9640625 6.37273437 7.428125 7.37046875 7.90625 8.3984375 C9 11 9 11 9 13 C7.68 13 6.36 13 5 13 C5 12.34 5 11.68 5 11 C3.9275 11.350625 2.855 11.70125 1.75 12.0625 C-2 13 -2 13 -6 12 C-4.02 8.04 -2.04 4.08 0 0 Z M1 5 C0.67 5.99 0.34 6.98 0 8 C0.99 8 1.98 8 3 8 C2.67 7.01 2.34 6.02 2 5 C1.67 5 1.34 5 1 5 Z " fill="#009677" transform="translate(370,235)"/>
<path d="M0 0 C3.625 0.25 3.625 0.25 5.5625 1.5 C6.625 3.25 6.625 3.25 6.625 7.25 C3.985 7.58 1.345 7.91 -1.375 8.25 C0.605 8.25 2.585 8.25 4.625 8.25 C4.625 9.57 4.625 10.89 4.625 12.25 C-0.61019826 12.67911461 -0.61019826 12.67911461 -3.375 12.25 C-5.5 10.125 -5.5 10.125 -6.375 7.25 C-4.78369565 0.35434783 -4.78369565 0.35434783 0 0 Z M-1.375 3.25 C-1.705 3.91 -2.035 4.57 -2.375 5.25 C-0.725 5.25 0.925 5.25 2.625 5.25 C2.625 4.59 2.625 3.93 2.625 3.25 C1.305 3.25 -0.015 3.25 -1.375 3.25 Z " fill="#8DC63F" transform="translate(334.375,301.75)"/>
<path d="M0 0 C3.625 0.25 3.625 0.25 5.5625 1.5 C6.625 3.25 6.625 3.25 6.625 7.25 C3.985 7.58 1.345 7.91 -1.375 8.25 C0.605 8.25 2.585 8.25 4.625 8.25 C4.625 9.57 4.625 10.89 4.625 12.25 C-0.61019826 12.67911461 -0.61019826 12.67911461 -3.375 12.25 C-5.5 10.125 -5.5 10.125 -6.375 7.25 C-4.78369565 0.35434783 -4.78369565 0.35434783 0 0 Z M-1.375 3.25 C-1.705 3.91 -2.035 4.57 -2.375 5.25 C-0.725 5.25 0.925 5.25 2.625 5.25 C2.625 4.59 2.625 3.93 2.625 3.25 C1.305 3.25 -0.015 3.25 -1.375 3.25 Z " fill="#8DC63F" transform="translate(243.375,301.75)"/>
<path d="M0 0 C0.99 0 1.98 0 3 0 C3 1.32 3 2.64 3 4 C4.11375 3.95875 5.2275 3.9175 6.375 3.875 C10 4 10 4 12 6 C12.1953125 8.3828125 12.1953125 8.3828125 12.125 11.125 C12.10695313 12.03507812 12.08890625 12.94515625 12.0703125 13.8828125 C12.04710937 14.58148438 12.02390625 15.28015625 12 16 C11.01 16 10.02 16 9 16 C8.67 13.03 8.34 10.06 8 7 C6.68 7 5.36 7 4 7 C3.67 9.97 3.34 12.94 3 16 C2.01 16 1.02 16 0 16 C0 10.72 0 5.44 0 0 Z " fill="#8DC63F" transform="translate(280,298)"/>
<path d="M0 0 C0.99 0 1.98 0 3 0 C3 1.32 3 2.64 3 4 C5.31 4 7.62 4 10 4 C11.26237731 6.52475462 11.09856404 8.31200466 11.0625 11.125 C11.05347656 12.03507812 11.04445313 12.94515625 11.03515625 13.8828125 C11.02355469 14.58148438 11.01195312 15.28015625 11 16 C10.01 16 9.02 16 8 16 C7.67 13.36 7.34 10.72 7 8 C6.01 8 5.02 8 4 8 C3.67 10.64 3.34 13.28 3 16 C2.01 16 1.02 16 0 16 C0 10.72 0 5.44 0 0 Z " fill="#8DC63F" transform="translate(384,298)"/>
<path d="M0 0 C1.1875 1.6875 1.1875 1.6875 2 4 C1.319375 5.0828125 1.319375 5.0828125 0.625 6.1875 C-1.65639697 10.13607169 -1.61199102 13.53246556 -1 18 C-0.2869101 20.0243049 -0.2869101 20.0243049 0.625 21.875 C1.07875 22.90625 1.5325 23.9375 2 25 C1.34 25.99 0.68 26.98 0 28 C-4.33629117 22.77421321 -6.21889068 18.85857455 -6 12 C-5.06841965 6.91865261 -3.46694222 3.81363645 0 0 Z " fill="#059677" transform="translate(210,293)"/>
<path d="M0 0 C2.64 0 5.28 0 8 0 C9.26237731 2.52475462 9.09856404 4.31200466 9.0625 7.125 C9.05347656 8.03507812 9.04445313 8.94515625 9.03515625 9.8828125 C9.02355469 10.58148438 9.01195312 11.28015625 9 12 C7.52093108 12.02689216 6.04172517 12.04634621 4.5625 12.0625 C3.32693359 12.07990234 3.32693359 12.07990234 2.06640625 12.09765625 C0 12 0 12 -1 11 C-1.04063832 9.33382885 -1.042721 7.66611905 -1 6 C0.98 5.34 2.96 4.68 5 4 C3.35 4 1.7 4 0 4 C0 2.68 0 1.36 0 0 Z M3 7 C3 7.99 3 8.98 3 10 C3.99 9.67 4.98 9.34 6 9 C6 8.34 6 7.68 6 7 C5.01 7 4.02 7 3 7 Z " fill="#8DC63F" transform="translate(308,302)"/>
<path d="M0 0 C2.64 0 5.28 0 8 0 C9.26237731 2.52475462 9.09856404 4.31200466 9.0625 7.125 C9.05347656 8.03507812 9.04445313 8.94515625 9.03515625 9.8828125 C9.02355469 10.58148438 9.01195312 11.28015625 9 12 C7.52093108 12.02689216 6.04172517 12.04634621 4.5625 12.0625 C3.32693359 12.07990234 3.32693359 12.07990234 2.06640625 12.09765625 C0 12 0 12 -1 11 C-1.04063832 9.33382885 -1.042721 7.66611905 -1 6 C0.98 5.34 2.96 4.68 5 4 C3.35 4 1.7 4 0 4 C0 2.68 0 1.36 0 0 Z M3 7 C3 7.99 3 8.98 3 10 C3.99 9.67 4.98 9.34 6 9 C6 8.34 6 7.68 6 7 C5.01 7 4.02 7 3 7 Z " fill="#8DC63F" transform="translate(252,302)"/>
<path d="M0 0 C0.66 0.99 1.32 1.98 2 3 C-1.05263664 3.98120464 -2.94736336 3.98120464 -6 3 C-5.67 4.65 -5.34 6.3 -5 8 C-3.02 8 -1.04 8 1 8 C1 8.99 1 9.98 1 11 C0 12 0 12 -3.375 12.25 C-7 12 -7 12 -8.9375 10.875 C-10.50422245 8.11019567 -10.38976435 6.11811483 -10 3 C-7.72386284 -1.01671263 -4.20715633 -0.45896251 0 0 Z " fill="#8DC63F" transform="translate(304,302)"/>
<path d="M0 0 C0.99 0 1.98 0 3 0 C3 0.66 3 1.32 3 2 C3.99 2 4.98 2 6 2 C6 2.99 6 3.98 6 5 C5.01 5 4.02 5 3 5 C3 6.98 3 8.96 3 11 C4.32 11.33 5.64 11.66 7 12 C7 12.66 7 13.32 7 14 C5.00045254 14.04254356 2.99958364 14.04080783 1 14 C0 13 0 13 -0.09765625 11.15234375 C-0.06510417 9.1015625 -0.03255208 7.05078125 0 5 C-0.66 5 -1.32 5 -2 5 C-2 4.01 -2 3.02 -2 2 C-1.34 2 -0.68 2 0 2 C0 1.34 0 0.68 0 0 Z " fill="#8DC63F" transform="translate(375,300)"/>
<path d="M0 0 C0.99 0 1.98 0 3 0 C3 0.66 3 1.32 3 2 C3.99 2 4.98 2 6 2 C6 2.99 6 3.98 6 5 C5.01 5 4.02 5 3 5 C3 6.98 3 8.96 3 11 C4.32 11.33 5.64 11.66 7 12 C7 12.66 7 13.32 7 14 C5.00045254 14.04254356 2.99958364 14.04080783 1 14 C0 13 0 13 -0.09765625 11.15234375 C-0.06510417 9.1015625 -0.03255208 7.05078125 0 5 C-0.66 5 -1.32 5 -2 5 C-2 4.01 -2 3.02 -2 2 C-1.34 2 -0.68 2 0 2 C0 1.34 0 0.68 0 0 Z " fill="#8DC63F" transform="translate(272,300)"/>
<path d="M0 0 C0.99 0 1.98 0 3 0 C3 3.3 3 6.6 3 10 C4.98 10 6.96 10 9 10 C9 10.99 9 11.98 9 13 C6.03 13 3.06 13 0 13 C0 8.71 0 4.42 0 0 Z " fill="#009677" transform="translate(331,235)"/>
<path d="M0 0 C0.99 0 1.98 0 3 0 C3 3.3 3 6.6 3 10 C4.98 10 6.96 10 9 10 C9 10.99 9 11.98 9 13 C6.03 13 3.06 13 0 13 C0 8.71 0 4.42 0 0 Z " fill="#009677" transform="translate(233,235)"/>
<path d="M0 0 C1.32 0 2.64 0 4 0 C4 4.29 4 8.58 4 13 C2.68 13 1.36 13 0 13 C0 8.71 0 4.42 0 0 Z " fill="#009677" transform="translate(449,235)"/>
<path d="M0 0 C2.31 0 4.62 0 7 0 C7 0.99 7 1.98 7 3 C6.01 3.33 5.02 3.66 4 4 C3.67 6.64 3.34 9.28 3 12 C2.01 12 1.02 12 0 12 C0 8.04 0 4.08 0 0 Z " fill="#8DC63F" transform="translate(321,302)"/>
<path d="M0 0 C0.99 0 1.98 0 3 0 C3 5.28 3 10.56 3 16 C2.01 16 1.02 16 0 16 C0 10.72 0 5.44 0 0 Z " fill="#8DC63F" transform="translate(265,298)"/>
<path d="M0 0 C0.99 0 1.98 0 3 0 C3 3.96 3 7.92 3 12 C2.01 12 1.02 12 0 12 C0 8.04 0 4.08 0 0 Z " fill="#8DC63F" transform="translate(368,302)"/>
<path d="M0 0 C0.99 0.33 1.98 0.66 3 1 C3 1.99 3 2.98 3 4 C1.68 4 0.36 4 -1 4 C-0.67 2.68 -0.34 1.36 0 0 Z " fill="#8DC63F" transform="translate(369,297)"/>
</svg>
