<?xml version="1.0" encoding="UTF-8"?>
<svg version="1.1" xmlns="http://www.w3.org/2000/svg" width="301" height="92">
<path d="M0 0 C8.58 0 17.16 0 26 0 C26 7.26 26 14.52 26 22 C33.59 22 41.18 22 49 22 C49.02682299 26.31254083 49.04675244 30.62491707 49.0625 34.9375 C49.07087891 36.16919922 49.07925781 37.40089844 49.08789062 38.66992188 C49.09111328 39.83974609 49.09433594 41.00957031 49.09765625 42.21484375 C49.10289307 43.29886475 49.10812988 44.38288574 49.11352539 45.49975586 C49 48 49 48 48 49 C44.19986851 49.06043947 40.41281472 49.02002822 36.61328125 48.9609375 C35.81535156 48.95320313 35.01742187 48.94546875 34.1953125 48.9375 C33.46328613 48.92589844 32.73125977 48.91429687 31.97705078 48.90234375 C29.7865758 48.92167494 29.7865758 48.92167494 27 50 C27.00523682 50.59538574 27.01047363 51.19077148 27.01586914 51.80419922 C27.03661999 54.49445547 27.04965407 57.18469489 27.0625 59.875 C27.07087891 60.81214844 27.07925781 61.74929687 27.08789062 62.71484375 C27.09111328 63.61074219 27.09433594 64.50664063 27.09765625 65.4296875 C27.10289307 66.25710449 27.10812988 67.08452148 27.11352539 67.93701172 C27 70 27 70 26 72 C21.85418113 72.02886751 17.70838784 72.04675327 13.5625 72.0625 C12.37849609 72.07087891 11.19449219 72.07925781 9.97460938 72.08789062 C8.84990234 72.09111328 7.72519531 72.09433594 6.56640625 72.09765625 C5.00321655 72.10551147 5.00321655 72.10551147 3.40844727 72.11352539 C1 72 1 72 0 71 C-0.08700342 69.36527118 -0.10701063 67.72685945 -0.09765625 66.08984375 C-0.09443359 65.10048828 -0.09121094 64.11113281 -0.08789062 63.09179688 C-0.07951172 62.05087891 -0.07113281 61.00996094 -0.0625 59.9375 C-0.05798828 58.89271484 -0.05347656 57.84792969 -0.04882812 56.77148438 C-0.03699913 54.1809334 -0.02051689 51.59049441 0 49 C-0.69150146 49.00523682 -1.38300293 49.01047363 -2.09545898 49.01586914 C-5.20946352 49.036575 -8.32345361 49.04963963 -11.4375 49.0625 C-12.52611328 49.07087891 -13.61472656 49.07925781 -14.73632812 49.08789062 C-15.77080078 49.09111328 -16.80527344 49.09433594 -17.87109375 49.09765625 C-18.82943115 49.10289307 -19.78776855 49.10812988 -20.77514648 49.11352539 C-23 49 -23 49 -24 48 C-24.09959621 46.15840977 -24.13080411 44.31303033 -24.1328125 42.46875 C-24.13410156 41.34855469 -24.13539062 40.22835937 -24.13671875 39.07421875 C-24.13285156 37.89472656 -24.12898438 36.71523438 -24.125 35.5 C-24.12886719 34.32050781 -24.13273437 33.14101563 -24.13671875 31.92578125 C-24.13542969 30.80558594 -24.13414063 29.68539062 -24.1328125 28.53125 C-24.13168457 27.49548828 -24.13055664 26.45972656 -24.12939453 25.39257812 C-24 23 -24 23 -23 22 C-21.29436222 21.84259395 -19.58272756 21.74906608 -17.87109375 21.68359375 C-16.83662109 21.64169922 -15.80214844 21.59980469 -14.73632812 21.55664062 C-13.64771484 21.51732422 -12.55910156 21.47800781 -11.4375 21.4375 C-9.7987793 21.37272461 -9.7987793 21.37272461 -8.12695312 21.30664062 C-5.41813232 21.20018042 -2.70908349 21.09955193 0 21 C0 14.07 0 7.14 0 0 Z M7 20 C7 20.33 7 20.66 7 21 C9.64 21 12.28 21 15 21 C15 20.67 15 20.34 15 20 C12.36 20 9.72 20 7 20 Z M11 28 C11 28.33 11 28.66 11 29 C12.98 29 14.96 29 17 29 C17 28.67 17 28.34 17 28 C15.02 28 13.04 28 11 28 Z M21 31 C21 31.99 21 32.98 21 34 C19.80375 33.979375 18.6075 33.95875 17.375 33.9375 C14.65886224 33.92310351 12.44591067 34.10655564 9.75 34.625 C6.60314245 35.05411694 5.71187889 34.44633541 3 33 C1.68 33.33 0.36 33.66 -1 34 C1.97 37.465 1.97 37.465 5 41 C5.66 40.67 6.32 40.34 7 40 C6.34 39.01 5.68 38.02 5 37 C6.093125 37.20625 7.18625 37.4125 8.3125 37.625 C12.0838401 38.40346525 12.0838401 38.40346525 15 36 C17.8125 36.3125 17.8125 36.3125 21 37 C23 37.33333333 25 37.66666667 27 38 C25.19587357 34.73539027 24.16605307 33.11070205 21 31 Z M9 42 C9 42.33 9 42.66 9 43 C10.98 43 12.96 43 15 43 C15 42.67 15 42.34 15 42 C13.02 42 11.04 42 9 42 Z " fill="#0C5493" transform="translate(33,10)"/>
<path d="M0 0 C8.58 0 17.16 0 26 0 C26 7.26 26 14.52 26 22 C33.59 22 41.18 22 49 22 C49.02682299 26.31254083 49.04675244 30.62491707 49.0625 34.9375 C49.07087891 36.16919922 49.07925781 37.40089844 49.08789062 38.66992188 C49.09111328 39.83974609 49.09433594 41.00957031 49.09765625 42.21484375 C49.10289307 43.29886475 49.10812988 44.38288574 49.11352539 45.49975586 C49 48 49 48 48 49 C45.06633032 49.10112813 42.15669827 49.1396904 39.22265625 49.1328125 C38.34097275 49.13376923 37.45928925 49.13472595 36.55088806 49.13571167 C34.68211801 49.13639359 32.81334561 49.13453851 30.94458008 49.13037109 C28.07823372 49.12502932 25.21204453 49.13031242 22.34570312 49.13671875 C20.53385382 49.13605785 18.72200461 49.13477643 16.91015625 49.1328125 C15.61791893 49.13584885 15.61791893 49.13584885 14.29957581 49.13894653 C8.22990878 49.11495439 8.22990878 49.11495439 6 48 C6 47.34 6 46.68 6 46 C5.071875 45.566875 5.071875 45.566875 4.125 45.125 C2 44 2 44 0 42 C0 41.01 0 40.02 0 39 C-0.66 39 -1.32 39 -2 39 C-2.33 37.68 -2.66 36.36 -3 35 C-0.0280615 36.12451727 2.33440687 37.22293791 5 39 C5 38.34 5 37.68 5 37 C6.093125 37.04125 7.18625 37.0825 8.3125 37.125 C12.08892229 37.32074666 12.08892229 37.32074666 15 35 C20.22504055 35.37321718 25.09343517 37.26634709 30 39 C29.76389075 33.21532342 28.30261718 30.61939696 24.27734375 26.48046875 C23 25 23 25 23 23 C17.8883166 20.92593038 13.53206619 20.75679561 8.125 20.875 C5.44375 20.91625 2.7625 20.9575 0 21 C0 14.07 0 7.14 0 0 Z M9 42 C9 42.33 9 42.66 9 43 C10.98 43 12.96 43 15 43 C15 42.67 15 42.34 15 42 C13.02 42 11.04 42 9 42 Z " fill="#61971C" transform="translate(33,10)"/>
<path d="M0 0 C2.31 0 4.62 0 7 0 C9.36328125 2.37109375 9.36328125 2.37109375 11.3125 5.4375 C13.57888501 9.35010042 13.57888501 9.35010042 17 12 C17.20625 11.319375 17.4125 10.63875 17.625 9.9375 C18.82136491 7.3816295 19.98890136 5.41606141 21.6875 3.1875 C22.14511719 2.58292969 22.60273438 1.97835938 23.07421875 1.35546875 C25 0 25 0 32 0 C32 10.23 32 20.46 32 31 C29.69 31 27.38 31 25 31 C24.505 21.595 24.505 21.595 24 12 C21.36 15.63 18.72 19.26 16 23 C12 19 12 19 8 13 C7.67 18.94 7.34 24.88 7 31 C4.69 31 2.38 31 0 31 C0 20.77 0 10.54 0 0 Z " fill="#2065A6" transform="translate(181,9)"/>
<path d="M0 0 C13.09349288 3.44565602 27.47082912 14.51172061 34.83203125 25.8125 C39 33.1528103 39 33.1528103 39 38 C37.87980469 38.06058594 36.75960937 38.12117188 35.60546875 38.18359375 C34.13280016 38.26801424 32.66014456 38.35266149 31.1875 38.4375 C30.44951172 38.47681641 29.71152344 38.51613281 28.95117188 38.55664062 C25.76928658 38.74381035 23.03837622 38.98720793 20 40 C17.81415251 40.09467365 15.62539133 40.12988914 13.4375 40.125 C12.28121094 40.12757812 11.12492187 40.13015625 9.93359375 40.1328125 C7 40 7 40 5 39 C5 38.34 5 37.68 5 37 C4.071875 36.566875 4.071875 36.566875 3.125 36.125 C1 35 1 35 -1 33 C-1 32.01 -1 31.02 -1 30 C-1.66 30 -2.32 30 -3 30 C-3.33 28.68 -3.66 27.36 -4 26 C-1.0280615 27.12451727 1.33440687 28.22293791 4 30 C4 29.34 4 28.68 4 28 C5.093125 28.04125 6.18625 28.0825 7.3125 28.125 C11.08892229 28.32074666 11.08892229 28.32074666 14 26 C19.22504055 26.37321718 24.09343517 28.26634709 29 30 C28.76389075 24.21532342 27.30261718 21.61939696 23.27734375 17.48046875 C22 16 22 16 22 14 C17.12929813 12.11010621 12.77608662 11.5985553 7.625 11.375 C6.88894531 11.33632813 6.15289062 11.29765625 5.39453125 11.2578125 C3.59672594 11.16442002 1.79839892 11.0811629 0 11 C0 7.37 0 3.74 0 0 Z M8 33 C8 33.33 8 33.66 8 34 C9.98 34 11.96 34 14 34 C14 33.67 14 33.34 14 33 C12.02 33 10.04 33 8 33 Z " fill="#97BF34" transform="translate(34,19)"/>
<path d="M0 0 C4.021875 -0.0928125 4.021875 -0.0928125 8.125 -0.1875 C8.95789551 -0.21481201 9.79079102 -0.24212402 10.64892578 -0.27026367 C15.50273718 -0.3241177 18.81697656 0.27277043 23 3 C25.45485943 6.68228915 25.82932584 9.72454348 25 14 C23.55625961 16.3894658 21.99679341 18.00320659 20 20 C22.31 23.63 24.62 27.26 27 31 C21.21366363 31.78904587 21.21366363 31.78904587 18 31 C15.34306215 28.34306215 13.56722681 25.40487707 12 22 C12 21.34 12 20.68 12 20 C10.35 20 8.7 20 7 20 C7 23.63 7 27.26 7 31 C4.69 31 2.38 31 0 31 C0 20.77 0 10.54 0 0 Z M7 6 C7 8.97 7 11.94 7 15 C12.26271712 15.44711919 12.26271712 15.44711919 17.0625 13.8125 C18.3945522 11.23719907 17.85352401 9.70282604 17 7 C15.99163938 5.76732652 15.99163938 5.76732652 13.93359375 5.90234375 C11.62239583 5.93489583 9.31119792 5.96744792 7 6 Z " fill="#2065A6" transform="translate(258,9)"/>
<path d="M0 0 C4.021875 -0.0928125 4.021875 -0.0928125 8.125 -0.1875 C8.95789551 -0.21481201 9.79079102 -0.24212402 10.64892578 -0.27026367 C15.50273718 -0.3241177 18.81697656 0.27277043 23 3 C25.45485943 6.68228915 25.82932584 9.72454348 25 14 C23.55625961 16.3894658 21.99679341 18.00320659 20 20 C22.31 23.63 24.62 27.26 27 31 C21.21366363 31.78904587 21.21366363 31.78904587 18 31 C15.34306215 28.34306215 13.56722681 25.40487707 12 22 C12 21.34 12 20.68 12 20 C10.35 20 8.7 20 7 20 C7 23.63 7 27.26 7 31 C4.69 31 2.38 31 0 31 C0 20.77 0 10.54 0 0 Z M7 6 C7 8.97 7 11.94 7 15 C12.26271712 15.44711919 12.26271712 15.44711919 17.0625 13.8125 C18.3945522 11.23719907 17.85352401 9.70282604 17 7 C15.99163938 5.76732652 15.99163938 5.76732652 13.93359375 5.90234375 C11.62239583 5.93489583 9.31119792 5.96744792 7 6 Z " fill="#2065A6" transform="translate(123,9)"/>
<path d="M0 0 C2.31 0 4.62 0 7 0 C7 4.29 7 8.58 7 13 C10.96 13 14.92 13 19 13 C19 8.71 19 4.42 19 0 C21.31 0 23.62 0 26 0 C26 10.23 26 20.46 26 31 C23.69 31 21.38 31 19 31 C19 27.04 19 23.08 19 19 C15.04 19 11.08 19 7 19 C7 22.96 7 26.92 7 31 C4.69 31 2.38 31 0 31 C0 20.77 0 10.54 0 0 Z " fill="#78B130" transform="translate(230,51)"/>
<path d="M0 0 C2.31 0 4.62 0 7 0 C7 4.29 7 8.58 7 13 C10.96 13 14.92 13 19 13 C19 8.71 19 4.42 19 0 C21.31 0 23.62 0 26 0 C26 10.23 26 20.46 26 31 C23.69 31 21.38 31 19 31 C19 27.04 19 23.08 19 19 C15.04 19 11.08 19 7 19 C7 22.96 7 26.92 7 31 C4.69 31 2.38 31 0 31 C0 20.77 0 10.54 0 0 Z " fill="#78B130" transform="translate(94,51)"/>
<path d="M0 0 C17.77777778 0 17.77777778 0 22.8125 3.125 C24.76117072 6.20184851 25.11454215 9.43571766 25 13 C23.87155083 16.20717132 23.11943526 18.26202041 20.24609375 20.15625 C17.45945156 21.2030582 15.21864945 21.19568213 12.25 21.125 C11.26515625 21.10695313 10.2803125 21.08890625 9.265625 21.0703125 C8.51796875 21.04710938 7.7703125 21.02390625 7 21 C7 24.3 7 27.6 7 31 C4.69 31 2.38 31 0 31 C0 20.77 0 10.54 0 0 Z M7 6 C7 8.97 7 11.94 7 15 C11.0100934 15.17864631 11.0100934 15.17864631 15 15 C17.2491908 13.17296773 17.2491908 13.17296773 17.25 10.5 C17.2491908 7.82703227 17.2491908 7.82703227 15 6 C12.31160615 5.73008094 9.70858064 5.91262643 7 6 Z " fill="#2065A6" transform="translate(94,9)"/>
<path d="M0 0 C1.134375 0.020625 2.26875 0.04125 3.4375 0.0625 C6.34887006 6.86428493 9.11987409 13.71008538 11.75 20.625 C12.01635254 21.31529297 12.28270508 22.00558594 12.55712891 22.71679688 C13.65983607 25.64479936 14.4375 27.90609799 14.4375 31.0625 C12.1275 31.0625 9.8175 31.0625 7.4375 31.0625 C6.7775 28.7525 6.1175 26.4425 5.4375 24.0625 C1.4775 24.0625 -2.4825 24.0625 -6.5625 24.0625 C-6.706875 25.031875 -6.85125 26.00125 -7 27 C-7.5625 30.0625 -7.5625 30.0625 -8.5625 31.0625 C-10.89547433 31.10342937 -13.22955225 31.10491723 -15.5625 31.0625 C-14.01778889 26.80705045 -12.46946216 22.55294125 -10.91772461 18.30004883 C-10.39002735 16.85217237 -9.86333139 15.40393057 -9.33764648 13.95532227 C-8.58317932 11.87680433 -7.82515631 9.79961394 -7.06640625 7.72265625 C-6.83095596 7.07160416 -6.59550568 6.42055206 -6.35292053 5.74977112 C-4.27260776 0.07495803 -4.27260776 0.07495803 0 0 Z M-0.5625 9.0625 C-1.8825 12.3625 -3.2025 15.6625 -4.5625 19.0625 C-1.9225 19.0625 0.7175 19.0625 3.4375 19.0625 C2.4475 15.7625 1.4575 12.4625 0.4375 9.0625 C0.1075 9.0625 -0.2225 9.0625 -0.5625 9.0625 Z " fill="#78B130" transform="translate(164.5625,50.9375)"/>
<path d="M0 0 C6.93 0 13.86 0 21 0 C21 1.98 21 3.96 21 6 C16.38 6 11.76 6 7 6 C7 8.31 7 10.62 7 13 C10.96 13 14.92 13 19 13 C19 14.98 19 16.96 19 19 C15.04 19 11.08 19 7 19 C7 21.31 7 23.62 7 26 C11.62 26 16.24 26 21 26 C21 27.65 21 29.3 21 31 C14.07 31 7.14 31 0 31 C0 20.77 0 10.54 0 0 Z " fill="#78B130" transform="translate(126,51)"/>
<path d="M0 0 C6.93 0 13.86 0 21 0 C21 1.98 21 3.96 21 6 C16.38 6 11.76 6 7 6 C7 8.31 7 10.62 7 13 C10.96 13 14.92 13 19 13 C19 14.98 19 16.96 19 19 C15.04 19 11.08 19 7 19 C7 21.31 7 23.62 7 26 C11.62 26 16.24 26 21 26 C21 27.65 21 29.3 21 31 C14.07 31 7.14 31 0 31 C0 20.77 0 10.54 0 0 Z " fill="#2065A6" transform="translate(232,9)"/>
<path d="M0 0 C6.93 0 13.86 0 21 0 C21 1.98 21 3.96 21 6 C16.38 6 11.76 6 7 6 C7 8.31 7 10.62 7 13 C10.96 13 14.92 13 19 13 C19 14.98 19 16.96 19 19 C15.04 19 11.08 19 7 19 C7 21.31 7 23.62 7 26 C11.62 26 16.24 26 21 26 C21 27.65 21 29.3 21 31 C14.07 31 7.14 31 0 31 C0 20.77 0 10.54 0 0 Z " fill="#2065A6" transform="translate(155,9)"/>
<path d="M0 0 C8.25 0 16.5 0 25 0 C25 1.98 25 3.96 25 6 C22.03 6 19.06 6 16 6 C16 14.25 16 22.5 16 31 C13.69 31 11.38 31 9 31 C9 22.75 9 14.5 9 6 C6.03 6 3.06 6 0 6 C0 4.02 0 2.04 0 0 Z " fill="#78B130" transform="translate(202,51)"/>
<path d="M0 0 C7.59 0 15.18 0 23 0 C23 6.93 23 13.86 23 21 C18.94046785 18.68026735 14.9237641 16.36814884 10.9375 13.9375 C7.35747574 11.77855407 3.77705262 9.78913019 0 8 C0 5.36 0 2.72 0 0 Z " fill="#6AA91A" transform="translate(34,11)"/>
<path d="M0 0 C0.99 0 1.98 0 3 0 C3.66 0.99 4.32 1.98 5 3 C6.64010495 3.72957383 8.31315815 4.38617038 10 5 C12.11310578 6.02341133 14.21710892 7.06579132 16.3125 8.125 C17.38113281 8.66382812 18.44976562 9.20265625 19.55078125 9.7578125 C20.76314453 10.37269531 20.76314453 10.37269531 22 11 C22 13.64 22 16.28 22 19 C14.41 19 6.82 19 -1 19 C-1.020625 16.050625 -1.04125 13.10125 -1.0625 10.0625 C-1.071604 9.13187744 -1.08070801 8.20125488 -1.09008789 7.24243164 C-1.09258545 6.51403076 -1.09508301 5.78562988 -1.09765625 5.03515625 C-1.10289307 4.2862915 -1.10812988 3.53742676 -1.11352539 2.76586914 C-1 1 -1 1 0 0 Z " fill="#008ED4" transform="translate(36,61)"/>
<path d="M0 0 C2.31 0 4.62 0 7 0 C7 8.58 7 17.16 7 26 C11.62 26 16.24 26 21 26 C21 27.65 21 29.3 21 31 C14.07 31 7.14 31 0 31 C0 20.77 0 10.54 0 0 Z " fill="#78B130" transform="translate(183,51)"/>
<path d="M0 0 C0.94875 0.350625 1.8975 0.70125 2.875 1.0625 C2.875 2.0525 2.875 3.0425 2.875 4.0625 C1.225 4.0625 -0.425 4.0625 -2.125 4.0625 C-2.125 4.7225 -2.125 5.3825 -2.125 6.0625 C-2.785 6.0625 -3.445 6.0625 -4.125 6.0625 C-4.125 6.7225 -4.125 7.3825 -4.125 8.0625 C-2.206875 8.000625 -2.206875 8.000625 -0.25 7.9375 C1.9296875 7.8671875 1.9296875 7.8671875 3.875 8.0625 C4.535 8.7225 5.195 9.3825 5.875 10.0625 C4.14978537 10.45528091 2.41953752 10.82599151 0.6875 11.1875 C-0.75689453 11.50074219 -0.75689453 11.50074219 -2.23046875 11.8203125 C-5.5091705 12.09464382 -7.16826557 11.40288628 -10.125 10.0625 C-13.33370233 9.89492243 -13.33370233 9.89492243 -16.125 10.0625 C-16.95138376 12.95484315 -17.125 14.94992431 -17.125 18.0625 C-18.921875 17.9296875 -18.921875 17.9296875 -21.125 17.0625 C-22.828125 14.4453125 -22.828125 14.4453125 -24.375 11.1875 C-24.89578125 10.11757813 -25.4165625 9.04765625 -25.953125 7.9453125 C-27.125 5.0625 -27.125 5.0625 -27.125 2.0625 C-26.46902832 2.00715088 -25.81305664 1.95180176 -25.13720703 1.89477539 C-22.17442727 1.64240601 -19.21222626 1.38378185 -16.25 1.125 C-15.21746094 1.03798828 -14.18492188 0.95097656 -13.12109375 0.86132812 C-11.64189453 0.73081055 -11.64189453 0.73081055 -10.1328125 0.59765625 C-9.22160645 0.519104 -8.31040039 0.44055176 -7.37158203 0.35961914 C-1.42347144 -0.42704143 -1.42347144 -0.42704143 0 0 Z " fill="#0178C0" transform="translate(46.125,31.9375)"/>
<path d="M0 0 C2.31 0 4.62 0 7 0 C7 10.23 7 20.46 7 31 C4.69 31 2.38 31 0 31 C0 20.77 0 10.54 0 0 Z " fill="#2065A6" transform="translate(219,9)"/>
<path d="M0 0 C5.33884485 1.30747221 7.61323001 3.50303975 11.0625 7.5625 C12.97235002 9.83550018 12.97235002 9.83550018 15 12 C15.04092937 14.33297433 15.04241723 16.66705225 15 19 C11.2047869 17.50902342 9.38957269 15.24299151 7 12 C6.67 12.66 6.34 13.32 6 14 C0.60631629 15.73694899 -4.46974602 16.41471613 -10 15 C-10.94875 14.814375 -11.8975 14.62875 -12.875 14.4375 C-13.57625 14.293125 -14.2775 14.14875 -15 14 C-15.33 14.66 -15.66 15.32 -16 16 C-16.98020375 17.0194119 -17.97803008 18.02246356 -19 19 C-19.625 16.125 -19.625 16.125 -20 13 C-18 11 -18 11 -15.1875 10.75 C-12 11 -12 11 -9.6875 12.125 C-5.57533471 13.46384451 -2.07155632 12.1531641 2 11 C-0.64 10.67 -3.28 10.34 -6 10 C-6 9.34 -6 8.68 -6 8 C-5.34 8 -4.68 8 -4 8 C-4 7.34 -4 6.68 -4 6 C-2.35 6 -0.7 6 1 6 C1 5.01 1 4.02 1 3 C-0.32 2.67 -1.64 2.34 -3 2 C-2.01 1.34 -1.02 0.68 0 0 Z M-4 8 C-4 8.33 -4 8.66 -4 9 C-2.02 9 -0.04 9 2 9 C2 8.67 2 8.34 2 8 C0.02 8 -1.96 8 -4 8 Z " fill="#1B4A66" transform="translate(48,30)"/>
<path d="M0 0 C6.875 3.75 6.875 3.75 8 6 C10.57317703 6.3448897 13.03950772 6.56076018 15.625 6.6875 C16.32496094 6.73455078 17.02492188 6.78160156 17.74609375 6.83007812 C22.32240348 7.08903443 26.48491503 6.78806601 31 6 C30.01 6.66 29.02 7.32 28 8 C27.63469768 11.12557959 27.63469768 11.12557959 27.8125 14.625 C27.83957031 15.81351563 27.86664063 17.00203125 27.89453125 18.2265625 C27.94673828 19.59941406 27.94673828 19.59941406 28 21 C22.3844502 19.71310317 17.49553073 17.69510697 13 14 C12.67 13.01 12.34 12.02 12 11 C10.04373063 9.6284617 8.00266517 8.52959627 5.91015625 7.37890625 C3.73083531 5.80569502 2.99877311 4.46294312 2 2 C1.34 2 0.68 2 0 2 C0 1.34 0 0.68 0 0 Z " fill="#09579D" transform="translate(32,52)"/>
<path d="M0 0 C-0.33 1.65 -0.66 3.3 -1 5 C-0.34 5 0.32 5 1 5 C1.556875 5.763125 2.11375 6.52625 2.6875 7.3125 C5.58995152 10.68561934 7.86695832 11.48985015 12 13 C11.67 13.99 11.34 14.98 11 16 C9.0625 15.6875 9.0625 15.6875 7 15 C6.67 14.01 6.34 13.02 6 12 C5.01 12.33 4.02 12.66 3 13 C2.67 18.94 2.34 24.88 2 31 C9.59 31 17.18 31 25 31 C25 28.69 25 26.38 25 24 C25.66 24 26.32 24 27 24 C27.125 30.75 27.125 30.75 26 33 C21.85418113 33.02886751 17.70838784 33.04675327 13.5625 33.0625 C12.37849609 33.07087891 11.19449219 33.07925781 9.97460938 33.08789062 C8.84990234 33.09111328 7.72519531 33.09433594 6.56640625 33.09765625 C5.00321655 33.10551147 5.00321655 33.10551147 3.40844727 33.11352539 C1 33 1 33 0 32 C-0.0991918 30.38916255 -0.1307982 28.77404356 -0.1328125 27.16015625 C-0.13410156 26.17982422 -0.13539062 25.19949219 -0.13671875 24.18945312 C-0.13285156 23.15755859 -0.12898438 22.12566406 -0.125 21.0625 C-0.12886719 20.03447266 -0.13273437 19.00644531 -0.13671875 17.94726562 C-0.13542969 16.96564453 -0.13414063 15.98402344 -0.1328125 14.97265625 C-0.13168457 14.06781494 -0.13055664 13.16297363 -0.12939453 12.23071289 C0 10 0 10 1 8 C-4.61 8 -10.22 8 -16 8 C-16 7.67 -16 7.34 -16 7 C-10.06 6.505 -10.06 6.505 -4 6 C-4.66 4.35 -5.32 2.7 -6 1 C-4 0 -4 0 0 0 Z " fill="#136F97" transform="translate(33,49)"/>
<path d="M0 0 C5.785014 1.52237211 11.27535988 4.33046726 16 8 C16 8.99 16 9.98 16 11 C10.72 11 5.44 11 0 11 C0 7.37 0 3.74 0 0 Z " fill="#95BC35" transform="translate(34,19)"/>
<path d="M0 0 C5.8585482 1.4347465 8.5888712 4.11071539 12 9 C12.25 11.8125 12.25 11.8125 12 14 C11.278125 13.319375 10.55625 12.63875 9.8125 11.9375 C7.24380581 9.7031361 7.24380581 9.7031361 4.6875 10.3125 C3.3571875 10.6528125 3.3571875 10.6528125 2 11 C-0.70287447 10.81846366 -3.31797914 10.40912183 -6 10 C-6 9.34 -6 8.68 -6 8 C-5.34 8 -4.68 8 -4 8 C-4 7.34 -4 6.68 -4 6 C-2.35 6 -0.7 6 1 6 C1 5.01 1 4.02 1 3 C-0.32 2.67 -1.64 2.34 -3 2 C-2.01 1.34 -1.02 0.68 0 0 Z M-4 8 C-4 8.33 -4 8.66 -4 9 C-2.02 9 -0.04 9 2 9 C2 8.67 2 8.34 2 8 C0.02 8 -1.96 8 -4 8 Z " fill="#126592" transform="translate(48,30)"/>
<path d="M0 0 C0.02886537 4.31248609 0.04675255 8.62494762 0.0625 12.9375 C0.07087891 14.16919922 0.07925781 15.40089844 0.08789062 16.66992188 C0.09272461 18.4246582 0.09272461 18.4246582 0.09765625 20.21484375 C0.10551147 21.84087524 0.10551147 21.84087524 0.11352539 23.49975586 C0 26 0 26 -1 27 C-2.99964982 27.08758003 -5.0023611 27.10696576 -7.00390625 27.09765625 C-8.21884766 27.09443359 -9.43378906 27.09121094 -10.68554688 27.08789062 C-11.96494141 27.07951172 -13.24433594 27.07113281 -14.5625 27.0625 C-15.84576172 27.05798828 -17.12902344 27.05347656 -18.45117188 27.04882812 C-21.63416022 27.03699545 -24.81705762 27.02051068 -28 27 C-24.26601857 24.51067905 -21.09126157 24.5165764 -16.75 24.3125 C-16.01136719 24.26544922 -15.27273437 24.21839844 -14.51171875 24.16992188 C-9.69142631 23.91062925 -5.96324286 24.29096531 -1 25 C-1 17.41 -1 9.82 -1 2 C-8.59 2 -16.18 2 -24 2 C-24 1.67 -24 1.34 -24 1 C-20.37503356 0.83259796 -16.7500216 0.66620297 -13.125 0.5 C-12.09246094 0.45230469 -11.05992188 0.40460937 -9.99609375 0.35546875 C-9.00996094 0.31035156 -8.02382812 0.26523437 -7.0078125 0.21875 C-6.09660645 0.17685547 -5.18540039 0.13496094 -4.24658203 0.09179688 C-2.83190448 0.03399218 -1.41585803 0 0 0 Z " fill="#659124" transform="translate(82,32)"/>
<path d="M0 0 C-0.33 1.65 -0.66 3.3 -1 5 C-0.34 5 0.32 5 1 5 C1.556875 5.763125 2.11375 6.52625 2.6875 7.3125 C5.58995152 10.68561934 7.86695832 11.48985015 12 13 C11.67 13.99 11.34 14.98 11 16 C9.0625 15.6875 9.0625 15.6875 7 15 C6.67 14.01 6.34 13.02 6 12 C4.68 12.33 3.36 12.66 2 13 C1.67 11.68 1.34 10.36 1 9 C-4.61 8.67 -10.22 8.34 -16 8 C-16 7.67 -16 7.34 -16 7 C-10.06 6.505 -10.06 6.505 -4 6 C-4.66 4.35 -5.32 2.7 -6 1 C-4 0 -4 0 0 0 Z " fill="#0665A4" transform="translate(33,49)"/>
<path d="M0 0 C4.70165746 1.6519337 4.70165746 1.6519337 6.3125 3.53125 C8.68705619 5.59799335 10.58520117 5.50501183 13.6875 5.6875 C14.68136719 5.75324219 15.67523438 5.81898437 16.69921875 5.88671875 C17.45847656 5.92410156 18.21773437 5.96148437 19 6 C19 6.99 19 7.98 19 9 C16.03 9 13.06 9 10 9 C10.33 10.32 10.66 11.64 11 13 C10.34 13 9.68 13 9 13 C9 12.34 9 11.68 9 11 C8.071875 10.566875 8.071875 10.566875 7.125 10.125 C5 9 5 9 3 7 C3 6.01 3 5.02 3 4 C2.34 4 1.68 4 1 4 C0.67 2.68 0.34 1.36 0 0 Z M12 7 C12 7.33 12 7.66 12 8 C13.98 8 15.96 8 18 8 C18 7.67 18 7.34 18 7 C16.02 7 14.04 7 12 7 Z " fill="#769032" transform="translate(30,45)"/>
<path d="M0 0 C6.875 3.75 6.875 3.75 8 6 C10.30428213 6.25635503 12.62091113 6.40592533 14.9375 6.5 C21.77836691 6.77836691 21.77836691 6.77836691 24 9 C22.68 9.33 21.36 9.66 20 10 C20 9.34 20 8.68 20 8 C19.41992188 8.09539063 18.83984375 8.19078125 18.2421875 8.2890625 C13.27835924 8.99350017 9.66320758 9.22057504 5 7 C3.125 5.5 3.125 5.5 2 4 C2 3.34 2 2.68 2 2 C1.34 2 0.68 2 0 2 C0 1.34 0 0.68 0 0 Z " fill="#274A56" transform="translate(32,52)"/>
<path d="M0 0 C4.02376035 0.37960003 6.68230868 1.57000816 10.3125 3.3125 C10.3125 3.6425 10.3125 3.9725 10.3125 4.3125 C7.0125 3.9825 3.7125 3.6525 0.3125 3.3125 C-0.0175 3.9725 -0.3475 4.6325 -0.6875 5.3125 C-1.66770375 6.3319119 -2.66553008 7.33496356 -3.6875 8.3125 C-4.3125 5.4375 -4.3125 5.4375 -4.6875 2.3125 C-2.6875 0.3125 -2.6875 0.3125 0 0 Z " fill="#195E85" transform="translate(32.6875,40.6875)"/>
<path d="M0 0 C3.0598298 0.81179158 4.71657229 1.73725626 7.0625 3.8125 C5.94875 3.626875 4.835 3.44125 3.6875 3.25 C0.23681139 2.49569343 0.23681139 2.49569343 -1.9375 3.8125 C-3.64113822 4.03872081 -5.35078701 4.22138473 -7.0625 4.375 C-7.97257812 4.45878906 -8.88265625 4.54257812 -9.8203125 4.62890625 C-10.86832031 4.71978516 -10.86832031 4.71978516 -11.9375 4.8125 C-12.2675 3.8225 -12.5975 2.8325 -12.9375 1.8125 C-11.2978125 1.874375 -11.2978125 1.874375 -9.625 1.9375 C-5.5325245 1.79877202 -3.95338547 -0.25234375 0 0 Z " fill="#73902D" transform="translate(50.9375,45.1875)"/>
<path d="M0 0 C1.2065625 0.0309375 1.2065625 0.0309375 2.4375 0.0625 C1.4475 0.7225 0.4575 1.3825 -0.5625 2.0625 C-0.92780232 5.18807959 -0.92780232 5.18807959 -0.75 8.6875 C-0.72292969 9.87601563 -0.69585937 11.06453125 -0.66796875 12.2890625 C-0.61576172 13.66191406 -0.61576172 13.66191406 -0.5625 15.0625 C-1.2225 15.0625 -1.8825 15.0625 -2.5625 15.0625 C-2.75640729 12.75052845 -2.94246367 10.4378971 -3.125 8.125 C-3.28162109 6.19333984 -3.28162109 6.19333984 -3.44140625 4.22265625 C-3.48136719 3.17980469 -3.52132812 2.13695312 -3.5625 1.0625 C-2.5625 0.0625 -2.5625 0.0625 0 0 Z " fill="#21425D" transform="translate(60.5625,57.9375)"/>
<path d="M0 0 C1.5 1.0625 1.5 1.0625 3 3 C3.1875 6.6875 3.1875 6.6875 3 10 C1.68 9.34 0.36 8.68 -1 8 C-1.04241723 5.66705225 -1.04092937 3.33297433 -1 1 C-0.67 0.67 -0.34 0.34 0 0 Z " fill="#28484E" transform="translate(60,39)"/>
<path d="M0 0 C5 2 5 2 10 4 C9.67 4.99 9.34 5.98 9 7 C7.0625 6.6875 7.0625 6.6875 5 6 C4.67 5.01 4.34 4.02 4 3 C2.68 3.33 1.36 3.66 0 4 C0 2.68 0 1.36 0 0 Z " fill="#0269B1" transform="translate(35,58)"/>
<path d="M0 0 C2.97 0.495 2.97 0.495 6 1 C4 3 4 3 2.12060547 3.22705078 C1.37697754 3.21657715 0.63334961 3.20610352 -0.1328125 3.1953125 C-1.34130859 3.18564453 -1.34130859 3.18564453 -2.57421875 3.17578125 C-3.41597656 3.15902344 -4.25773437 3.14226563 -5.125 3.125 C-6.39923828 3.11146484 -6.39923828 3.11146484 -7.69921875 3.09765625 C-9.79959884 3.07405647 -11.89983444 3.03818483 -14 3 C-14 2.67 -14 2.34 -14 2 C-9.38 2 -4.76 2 0 2 C0 1.34 0 0.68 0 0 Z " fill="#165A7A" transform="translate(37,30)"/>
<path d="M0 0 C2.5 1.125 2.5 1.125 5 3 C5.3125 6.1875 5.3125 6.1875 5 9 C2.5 6.75 2.5 6.75 0 4 C0 2.68 0 1.36 0 0 Z " fill="#0E5A87" transform="translate(55,35)"/>
<path d="M0 0 C0.99 0 1.98 0 3 0 C3.33 1.32 3.66 2.64 4 4 C3.34 4 2.68 4 2 4 C1.67 4.99 1.34 5.98 1 7 C-1 4 -1 4 -0.625 1.8125 C-0.41875 1.214375 -0.2125 0.61625 0 0 Z " fill="#365141" transform="translate(29,42)"/>
<path d="M0 0 C0 0.99 0 1.98 0 3 C-2.97 3.66 -5.94 4.32 -9 5 C-9.33 4.01 -9.66 3.02 -10 2 C-8.3603125 2.061875 -8.3603125 2.061875 -6.6875 2.125 C-2.91107771 2.32074666 -2.91107771 2.32074666 0 0 Z " fill="#5B6B2B" transform="translate(48,45)"/>
</svg>
