<?xml version="1.0" encoding="UTF-8"?>
<svg version="1.1" xmlns="http://www.w3.org/2000/svg" width="200" height="200">
<path d="M0 0 C0.66 0 1.32 0 2 0 C2.64910154 1.58199631 3.29414694 3.16565724 3.9375 4.75 C4.29714844 5.63171875 4.65679687 6.5134375 5.02734375 7.421875 C8.57475328 16.82464725 6.84382383 23.98974628 3 33 C2 35 1 37 0 39 C0 39.99 0 40.98 0 42 C0.54414551 41.72212646 1.08829102 41.44425293 1.64892578 41.15795898 C4.13292856 39.90116872 6.6285046 38.66927523 9.125 37.4375 C9.9809375 36.99986328 10.836875 36.56222656 11.71875 36.11132812 C18.14355948 32.9730558 18.14355948 32.9730558 22.4765625 33.109375 C26.26217225 34.44547256 28.06469352 36.59704028 30.25 39.875 C31.550107 43.55863651 31.55964156 46.80977639 29.890625 50.359375 C29.34921875 51.14828125 28.8078125 51.9371875 28.25 52.75 C27.62480469 53.68199219 26.99960937 54.61398438 26.35546875 55.57421875 C25.99243652 56.10192871 25.6294043 56.62963867 25.25537109 57.17333984 C23.22037625 60.13441169 21.21728474 63.11677857 19.21582031 66.10058594 C18.12063376 67.73139829 17.0197823 69.35842169 15.91308594 70.98144531 C15.40680664 71.73135742 14.90052734 72.48126953 14.37890625 73.25390625 C13.9207251 73.92752197 13.46254395 74.6011377 12.99047852 75.29516602 C11.83254881 76.95960809 11.83254881 76.95960809 12 79 C16.16404589 75.77754314 18.91974799 73.10507853 21.5 68.4375 C21.81622314 67.8703125 22.13244629 67.303125 22.45825195 66.71875 C24.91184653 62.23037086 27.18129573 57.65053895 29.44921875 53.06640625 C29.75517975 52.44914169 30.06114075 51.83187714 30.37637329 51.19590759 C31.92769202 48.06224376 33.46744973 44.92372349 34.98828125 41.77514648 C42.76451826 25.90120527 42.76451826 25.90120527 52 22 C54.79863374 21.47672454 57.50653394 21.46033369 60.34765625 21.50390625 C61.12257919 21.50245102 61.89750214 21.50099579 62.69590759 21.49949646 C64.3237588 21.50114677 65.95162703 21.51261014 67.5793457 21.53344727 C70.05943526 21.56246414 72.53739069 21.55402661 75.01757812 21.54101562 C76.60678113 21.54725258 78.19597745 21.5556432 79.78515625 21.56640625 C80.51968521 21.56347061 81.25421417 21.56053497 82.01100159 21.55751038 C86.73684898 21.64342619 89.98007828 22.51916178 94 25 C97.40464965 28.59379686 99.95028635 32.0227045 100.03515625 37.10546875 C99.67246047 42.38667321 98.52521546 45.88724863 95 50 C91.28146635 52.67913244 88.696605 53.37413479 84.140625 53.40625 C83.02429688 53.42816406 81.90796875 53.45007813 80.7578125 53.47265625 C79.60023437 53.48167969 78.44265625 53.49070313 77.25 53.5 C63.68584446 53.42265553 63.68584446 53.42265553 52.0625 59.5625 C48.2457883 64.82692992 47.87646357 71.69964208 48 78 C47.34 78 46.68 78 46 78 C43.27549481 68.90434423 43.60403681 59.52199826 47.41015625 50.75 C49.98256221 46.30043294 53.16423519 43.70326525 57.95703125 41.8671875 C63.1932351 40.47344747 68.56220118 40.78824782 73.9375 40.875 C75.00291016 40.88402344 76.06832031 40.89304688 77.16601562 40.90234375 C79.77758034 40.92576586 82.38866937 40.95856548 85 41 C85 39.35 85 37.7 85 36 C84.24380371 36.00523682 83.48760742 36.01047363 82.70849609 36.01586914 C79.26400593 36.03672724 75.8195291 36.04968826 72.375 36.0625 C70.59029297 36.07506836 70.59029297 36.07506836 68.76953125 36.08789062 C67.61582031 36.09111328 66.46210937 36.09433594 65.2734375 36.09765625 C64.21560059 36.10289307 63.15776367 36.10812988 62.06787109 36.11352539 C58.96637654 35.99875578 56.04652343 35.57696282 53 35 C52.58226318 35.97235596 52.16452637 36.94471191 51.73413086 37.9465332 C50.15757386 41.60923473 48.56846812 45.26638492 46.97583008 48.92211914 C46.29279456 50.4945623 45.61301261 52.06842343 44.93676758 53.64379883 C32.68896791 82.15551605 32.68896791 82.15551605 21 88 C14.86285304 88.8950006 11.35223986 86.86598313 6.13671875 83.703125 C3.85091416 81.88116741 2.95011165 80.74130573 2 78 C1.75363388 75.29982731 1.90934334 72.71969994 2 70 C2.66 70 3.32 70 4 70 C4.66 68.02 5.32 66.04 6 64 C6.66 64 7.32 64 8 64 C8.226875 63.484375 8.45375 62.96875 8.6875 62.4375 C10.18821778 59.65045269 11.98144856 57.21166052 13.87890625 54.68359375 C15.18551179 52.88113235 15.18551179 52.88113235 16 50 C17.33333333 48.66666667 18.66666667 47.33333333 20 46 C21.02439904 44.34821782 22.02791278 42.68309959 23 41 C21.9378125 41.49371094 20.875625 41.98742187 19.78125 42.49609375 C18.35442449 43.14379743 16.92732641 43.79090089 15.5 44.4375 C14.80390625 44.76298828 14.1078125 45.08847656 13.390625 45.42382812 C8.53275527 47.60537148 4.31197323 48.57528142 -1 49 C-1 48.34 -1 47.68 -1 47 C-1.66 47 -2.32 47 -3 47 C-5.67517135 43.86622785 -6.96494814 41.91134833 -7.125 37.75 C-5.82853783 33.42845945 -3.81776435 30.14193836 -1.43359375 26.33984375 C2.18435912 20.4347926 2.58925169 14.77639446 2 8 C1.1025173 5.16621868 1.1025173 5.16621868 0 3 C0 2.01 0 1.02 0 0 Z M54 31 C55 33 55 33 55 33 Z " fill="#2E2251" transform="translate(9,43)"/>
<path d="M0 0 C3.5 1.8125 3.5 1.8125 6 4 C6 4.99 6 5.98 6 7 C1.05 6.67 -3.9 6.34 -9 6 C-9 7.32 -9 8.64 -9 10 C-8.16855469 10.10957031 -7.33710937 10.21914062 -6.48046875 10.33203125 C-5.39378906 10.49058594 -4.30710938 10.64914063 -3.1875 10.8125 C-2.10855469 10.96332031 -1.02960938 11.11414063 0.08203125 11.26953125 C3 12 3 12 6 15 C6.33 10.38 6.66 5.76 7 1 C13 1 13 1 15.6875 3.25 C17.07167894 4.89605063 18.41973935 6.57519837 19.6875 8.3125 C20.120625 8.869375 20.55375 9.42625 21 10 C21.66 10 22.32 10 23 10 C24.5139172 8.2432326 24.5139172 8.2432326 26 6.0625 C28.79291553 2.10354223 28.79291553 2.10354223 31 1 C32.98 1 34.96 1 37 1 C37 8.92 37 16.84 37 25 C40.16551963 17.85409439 40.16551963 17.85409439 43.31176758 10.69970703 C43.9096106 9.36721924 43.9096106 9.36721924 44.51953125 8.0078125 C44.92276611 7.09660645 45.32600098 6.18540039 45.74145508 5.24658203 C47 3 47 3 50 1 C52.6875 0.875 52.6875 0.875 55 1 C55.3853894 1.81621826 55.3853894 1.81621826 55.77856445 2.64892578 C56.95584786 5.14127954 58.1341658 7.63314287 59.3125 10.125 C59.71662109 10.9809375 60.12074219 11.836875 60.53710938 12.71875 C62.24778388 16.33480994 63.96563312 19.93306321 65.79296875 23.4921875 C67 26 67 26 67 28 C64.69 28 62.38 28 60 28 C59.67 26.35 59.34 24.7 59 23 C56.74926172 23.06018017 54.49927675 23.14901206 52.25 23.25 C50.37054688 23.31960937 50.37054688 23.31960937 48.453125 23.390625 C44.45991821 24.09530855 43.7247328 25.18593169 41 28 C37.25873568 28.52252295 33.79803065 28.1808586 30 28 C29.505 20.575 29.505 20.575 29 13 C27.02 15.31 25.04 17.62 23 20 C18.11261969 17.55630984 16.97285462 15.45928193 14 11 C13.67 16.61 13.34 22.22 13 28 C11.02 28 9.04 28 7 28 C6.505 26.02 6.505 26.02 6 24 C5.401875 24.66 4.80375 25.32 4.1875 26 C-0.45764761 28.91460242 -4.65004832 28.66673572 -10 28 C-13.125 26.75 -13.125 26.75 -15 25 C-15.875 22.875 -15.875 22.875 -16 21 C-15 20 -15 20 -12.4375 19.9375 C-11.2309375 19.9684375 -11.2309375 19.9684375 -10 20 C-10 20.66 -10 21.32 -10 22 C-8.72125 22.020625 -7.4425 22.04125 -6.125 22.0625 C-5.40570313 22.07410156 -4.68640625 22.08570312 -3.9453125 22.09765625 C-1.91814596 22.12649242 -1.91814596 22.12649242 0 21 C0 20.01 0 19.02 0 18 C-0.83144531 17.80664062 -1.66289063 17.61328125 -2.51953125 17.4140625 C-3.60621094 17.15367188 -4.69289062 16.89328125 -5.8125 16.625 C-6.89144531 16.36976562 -7.97039062 16.11453125 -9.08203125 15.8515625 C-12 15 -12 15 -15 13 C-15.4125 13.78375 -15.825 14.5675 -16.25 15.375 C-18.13918688 18.20878033 -18.89186145 18.83444804 -22 20 C-24.796875 20.1953125 -24.796875 20.1953125 -27.75 20.125 C-28.73484375 20.10695313 -29.7196875 20.08890625 -30.734375 20.0703125 C-31.48203125 20.04710938 -32.2296875 20.02390625 -33 20 C-33 22.64 -33 25.28 -33 28 C-34.98 28 -36.96 28 -39 28 C-39 19.09 -39 10.18 -39 1 C-36.15375 0.9175 -33.3075 0.835 -30.375 0.75 C-29.04734619 0.69537598 -29.04734619 0.69537598 -27.69287109 0.63964844 C-22.14989771 0.56229882 -19.29519786 1.46931956 -15 5 C-14.401875 4.360625 -13.80375 3.72125 -13.1875 3.0625 C-9.40687961 -0.50208494 -4.9889377 -0.69525685 0 0 Z M-33 6 C-33 8.64 -33 11.28 -33 14 C-31.37536158 14.05395478 -29.75021459 14.09277195 -28.125 14.125 C-27.22007813 14.14820312 -26.31515625 14.17140625 -25.3828125 14.1953125 C-22.81193006 14.24324836 -22.81193006 14.24324836 -21 12 C-21.16507646 9.42459787 -21.16507646 9.42459787 -22 7 C-24.40545638 5.79727181 -25.94996953 5.89928528 -28.625 5.9375 C-29.44226563 5.94652344 -30.25953125 5.95554687 -31.1015625 5.96484375 C-31.72804688 5.97644531 -32.35453125 5.98804687 -33 6 Z M51 8 C50.30300448 9.45381897 49.61766134 10.91322953 48.9375 12.375 C48.55464844 13.18710938 48.17179687 13.99921875 47.77734375 14.8359375 C47.39255859 15.90714844 47.39255859 15.90714844 47 17 C47.33 17.66 47.66 18.32 48 19 C50.31 18.34 52.62 17.68 55 17 C54.01 14.03 53.02 11.06 52 8 C51.67 8 51.34 8 51 8 Z M7 17 C7 18.65 7 20.3 7 22 C7.33 22 7.66 22 8 22 C8 20.35 8 18.7 8 17 C7.67 17 7.34 17 7 17 Z " fill="#2E2251" transform="translate(109,101)"/>
<path d="M0 0 C0.88107422 -0.01611328 1.76214844 -0.03222656 2.66992188 -0.04882812 C7.89400465 -0.0527413 11.55244136 0.38762527 16.0625 3.3125 C19.46714965 6.90629686 22.01278635 10.3352045 22.09765625 15.41796875 C21.73496047 20.69917321 20.58771546 24.19974863 17.0625 28.3125 C13.34396635 30.99163244 10.759105 31.68663479 6.203125 31.71875 C5.08679688 31.74066406 3.97046875 31.76257813 2.8203125 31.78515625 C1.66273437 31.79417969 0.50515625 31.80320312 -0.6875 31.8125 C-14.25165554 31.73515553 -14.25165554 31.73515553 -25.875 37.875 C-29.6917117 43.13942992 -30.06103643 50.01214208 -29.9375 56.3125 C-30.5975 56.3125 -31.2575 56.3125 -31.9375 56.3125 C-34.66200519 47.21684423 -34.33346319 37.83449826 -30.52734375 29.0625 C-27.95493779 24.61293294 -24.77326481 22.01576525 -19.98046875 20.1796875 C-14.7442649 18.78594747 -9.37529882 19.10074782 -4 19.1875 C-2.93458984 19.19652344 -1.86917969 19.20554687 -0.77148438 19.21484375 C1.84008034 19.23826586 4.45116937 19.27106548 7.0625 19.3125 C7.0625 17.6625 7.0625 16.0125 7.0625 14.3125 C5.92035034 14.32035522 5.92035034 14.32035522 4.75512695 14.32836914 C1.29509308 14.34919525 -2.16492759 14.36217813 -5.625 14.375 C-6.82318359 14.38337891 -8.02136719 14.39175781 -9.25585938 14.40039062 C-10.99125977 14.40522461 -10.99125977 14.40522461 -12.76171875 14.41015625 C-13.82479248 14.41539307 -14.88786621 14.42062988 -15.9831543 14.42602539 C-18.7509509 14.31966844 -21.24542897 13.94144788 -23.9375 13.3125 C-22.56548559 8.12933445 -19.2337988 5.24844768 -14.9375 2.3125 C-10.17063888 -0.3004461 -5.29486947 -0.01928212 0 0 Z " fill="#A28A5E" transform="translate(86.9375,64.6875)"/>
<path d="M0 0 C0.66 0 1.32 0 2 0 C2.64910154 1.58199631 3.29414694 3.16565724 3.9375 4.75 C4.29714844 5.63171875 4.65679687 6.5134375 5.02734375 7.421875 C8.57475328 16.82464725 6.84382383 23.98974628 3 33 C2 35 1 37 0 39 C0 39.99 0 40.98 0 42 C0.54414551 41.72212646 1.08829102 41.44425293 1.64892578 41.15795898 C4.13292856 39.90116872 6.6285046 38.66927523 9.125 37.4375 C9.9809375 36.99986328 10.836875 36.56222656 11.71875 36.11132812 C18.14355948 32.9730558 18.14355948 32.9730558 22.4765625 33.109375 C26.26217225 34.44547256 28.06469352 36.59704028 30.25 39.875 C31.550107 43.55863651 31.55964156 46.80977639 29.890625 50.359375 C29.34921875 51.14828125 28.8078125 51.9371875 28.25 52.75 C27.6209375 53.68457031 26.991875 54.61914062 26.34375 55.58203125 C25.98023438 56.11006348 25.61671875 56.6380957 25.2421875 57.18212891 C23.79586832 59.29873515 22.38162034 61.43514359 20.96875 63.57421875 C18.87522269 66.7393266 16.77971254 69.9029927 14.671875 73.05859375 C14.2294043 73.72173584 13.78693359 74.38487793 13.33105469 75.06811523 C11.9395766 77.08769817 10.48401434 79.04767857 9 81 C3.125 79.125 3.125 79.125 2 78 C1.85884839 75.32941149 1.95752893 72.67567762 2 70 C2.66 70 3.32 70 4 70 C4.66 68.02 5.32 66.04 6 64 C6.66 64 7.32 64 8 64 C8.226875 63.484375 8.45375 62.96875 8.6875 62.4375 C10.18821778 59.65045269 11.98144856 57.21166052 13.87890625 54.68359375 C15.18551179 52.88113235 15.18551179 52.88113235 16 50 C17.33333333 48.66666667 18.66666667 47.33333333 20 46 C21.02439904 44.34821782 22.02791278 42.68309959 23 41 C21.9378125 41.49371094 20.875625 41.98742187 19.78125 42.49609375 C18.35442449 43.14379743 16.92732641 43.79090089 15.5 44.4375 C14.80390625 44.76298828 14.1078125 45.08847656 13.390625 45.42382812 C8.53275527 47.60537148 4.31197323 48.57528142 -1 49 C-1 48.34 -1 47.68 -1 47 C-1.66 47 -2.32 47 -3 47 C-5.67517135 43.86622785 -6.96494814 41.91134833 -7.125 37.75 C-5.82853783 33.42845945 -3.81776435 30.14193836 -1.43359375 26.33984375 C2.18435912 20.4347926 2.58925169 14.77639446 2 8 C1.1025173 5.16621868 1.1025173 5.16621868 0 3 C0 2.01 0 1.02 0 0 Z " fill="#9B2134" transform="translate(9,43)"/>
<path d="M0 0 C0.77923828 0.05671875 1.55847656 0.1134375 2.36132812 0.171875 C4.26256639 0.31184346 6.16268686 0.46686032 8.0625 0.625 C8.0625 4.255 8.0625 7.885 8.0625 11.625 C4.54278463 12.3469929 1.32207381 12.63786952 -2.25 12.5 C-8.77812236 12.45596545 -13.91901097 13.86419042 -18.875 18.1875 C-22.6917117 23.45192992 -23.06103643 30.32464208 -22.9375 36.625 C-23.5975 36.625 -24.2575 36.625 -24.9375 36.625 C-27.66200519 27.52934423 -27.33346319 18.14699826 -23.52734375 9.375 C-20.90756066 4.8434833 -17.68885026 2.27332594 -12.79296875 0.4609375 C-8.31986865 -0.50891399 -4.52445111 -0.38769932 0 0 Z " fill="#B89D6C" transform="translate(79.9375,84.375)"/>
<path d="M0 0 C0.66 0 1.32 0 2 0 C2.64910154 1.58199631 3.29414694 3.16565724 3.9375 4.75 C4.29714844 5.63171875 4.65679687 6.5134375 5.02734375 7.421875 C8.57475328 16.82464725 6.84382383 23.98974628 3 33 C2 35 1 37 0 39 C0 39.99 0 40.98 0 42 C0.54414551 41.72212646 1.08829102 41.44425293 1.64892578 41.15795898 C4.13292856 39.90116872 6.6285046 38.66927523 9.125 37.4375 C9.9809375 36.99986328 10.836875 36.56222656 11.71875 36.11132812 C15.55814455 34.23593156 18.14289067 32.97490446 22.46875 33.1015625 C25.50934709 34.18078678 27.01240174 35.47727914 29 38 C29 38.66 29 39.32 29 40 C27.783125 40.20625 26.56625 40.4125 25.3125 40.625 C21.02223275 41.55207668 17.38045622 43.14616813 13.4375 45.0625 C8.44817451 47.46932251 4.51908479 48.7835653 -1 49 C-1 48.34 -1 47.68 -1 47 C-1.66 47 -2.32 47 -3 47 C-5.67517135 43.86622785 -6.96494814 41.91134833 -7.125 37.75 C-5.82853783 33.42845945 -3.81776435 30.14193836 -1.43359375 26.33984375 C2.18435912 20.4347926 2.58925169 14.77639446 2 8 C1.1025173 5.16621868 1.1025173 5.16621868 0 3 C0 2.01 0 1.02 0 0 Z " fill="#D8B879" transform="translate(9,43)"/>
<path d="M0 0 C3.5 1.8125 3.5 1.8125 6 4 C6 4.99 6 5.98 6 7 C1.05 6.67 -3.9 6.34 -9 6 C-9 7.32 -9 8.64 -9 10 C-7.77023438 10.14695312 -7.77023438 10.14695312 -6.515625 10.296875 C-4.89914063 10.52117187 -4.89914063 10.52117187 -3.25 10.75 C-2.18265625 10.88921875 -1.1153125 11.0284375 -0.015625 11.171875 C3.44205832 12.12139425 4.77577537 13.23404385 7 16 C8.25331017 19.25860644 8.23279906 20.47313898 6.8125 23.6875 C4.35665756 26.82081622 2.34955695 27.80633246 -1.5859375 28.37109375 C-10.04066087 28.57239669 -10.04066087 28.57239669 -13.6875 25.5 C-14.450625 24.675 -15.21375 23.85 -16 23 C-15.505 21.515 -15.505 21.515 -15 20 C-11.28400809 19.79913557 -10.22791555 19.8480563 -7 22 C-4.94290404 22.24055468 -4.94290404 22.24055468 -2.8125 22.125 C-1.554375 22.08375 -0.29625 22.0425 1 22 C0.67 20.68 0.34 19.36 0 18 C-0.74765625 17.82984375 -1.4953125 17.6596875 -2.265625 17.484375 C-3.25046875 17.24203125 -4.2353125 16.9996875 -5.25 16.75 C-6.22453125 16.51796875 -7.1990625 16.2859375 -8.203125 16.046875 C-11.36628559 14.86289869 -12.89385201 13.61792227 -15 11 C-15.5 8 -15.5 8 -15 5 C-11.03834379 -0.05452689 -6.19836454 -0.86380221 0 0 Z " fill="#2E2251" transform="translate(190,101)"/>
<path d="M0 0 C-0.33 4.29 -0.66 8.58 -1 13 C-4.0621826 13.19533059 -7.12446321 13.38153284 -10.1875 13.5625 C-11.48397461 13.64661133 -11.48397461 13.64661133 -12.80664062 13.73242188 C-17.04749079 13.9761489 -20.85797819 14.15770796 -25 13 C-23.62798559 7.81683445 -20.2962988 4.93594768 -16 2 C-10.63924611 -0.64499243 -5.88550179 -0.14181932 0 0 Z " fill="#CFB076" transform="translate(88,65)"/>
<path d="M0 0 C0.66 0 1.32 0 2 0 C2.64910154 1.58199631 3.29414694 3.16565724 3.9375 4.75 C4.29714844 5.63171875 4.65679687 6.5134375 5.02734375 7.421875 C8.60883067 16.91497287 6.71688768 23.89613659 3 33 C2.6184375 33.96550781 2.236875 34.93101563 1.84375 35.92578125 C0.90783825 38.28895842 -0.04019987 40.64644755 -1 43 C-2.65 43 -4.3 43 -6 43 C-7.39121135 38.91911336 -7.49927633 37.02735707 -5.578125 33.07421875 C-4.33860648 31.01774485 -3.06724094 28.98006157 -1.76171875 26.96484375 C1.93692335 20.74029973 2.61709056 15.09654148 2 8 C1.1025173 5.16621868 1.1025173 5.16621868 0 3 C0 2.01 0 1.02 0 0 Z " fill="#2E2251" transform="translate(9,43)"/>
<path d="M0 0 C0.9590625 0.2784375 0.9590625 0.2784375 1.9375 0.5625 C2.9584375 0.7790625 2.9584375 0.7790625 4 1 C4.33 0.67 4.66 0.34 5 0 C6.66617115 -0.04063832 8.33388095 -0.042721 10 0 C10.33 0.99 10.66 1.98 11 3 C9.35 2.67 7.7 2.34 6 2 C6 3.32 6 4.64 6 6 C8.40877257 5.88658466 8.40877257 5.88658466 11 5 C12.84434349 2.53884453 12.84434349 2.53884453 14 0 C17 1 17 1 18.1875 2.875 C19 5 19 5 19 8 C12.66666667 8 6.33333333 8 0 8 C0 5.36 0 2.72 0 0 Z " fill="#2E2252" transform="translate(95,149)"/>
<path d="M0 0 C1.65 0 3.3 0 5 0 C5.33 0.99 5.66 1.98 6 3 C6.66 2.01 7.32 1.02 8 0 C10.5 -0.3125 10.5 -0.3125 13 0 C13.66 0.66 14.32 1.32 15 2 C14.44444444 6.55555556 14.44444444 6.55555556 13 8 C11.33391013 8.04384447 9.66619446 8.0396713 8 8 C7.01 8 6.02 8 5 8 C3.33333333 8 1.66666667 8 0 8 C-0.98120464 4.94736336 -0.98120464 3.05263664 0 0 Z M9 2 C9 3.32 9 4.64 9 6 C10.32 5.67 11.64 5.34 13 5 C12.67 4.01 12.34 3.02 12 2 C11.01 2 10.02 2 9 2 Z " fill="#2E2252" transform="translate(148,149)"/>
<path d="M0 0 C4 1 4 1 6 2 C6.33 1.34 6.66 0.68 7 0 C8.32 0 9.64 0 11 0 C11 3.3 11 6.6 11 10 C10.01 10 9.02 10 8 10 C7.67 8.68 7.34 7.36 7 6 C6.01 6.33 5.02 6.66 4 7 C3.67 7 3.34 7 3 7 C2.67 7.99 2.34 8.98 2 10 C1.34 10 0.68 10 0 10 C0 6.7 0 3.4 0 0 Z " fill="#2E2252" transform="translate(99,136)"/>
<path d="M0 0 C2.64 0 5.28 0 8 0 C8.59732819 2.76264289 9 5.16032769 9 8 C9.33 8.66 9.66 9.32 10 10 C6 10 6 10 4.25 8.5 C3.8375 8.005 3.425 7.51 3 7 C3 7.99 3 8.98 3 10 C2.01 10 1.02 10 0 10 C0 6.7 0 3.4 0 0 Z M3 2 C3 2.66 3 3.32 3 4 C3.99 4 4.98 4 6 4 C6 3.34 6 2.68 6 2 C5.01 2 4.02 2 3 2 Z " fill="#2E2252" transform="translate(155,136)"/>
<path d="M0 0 C2.64 0 5.28 0 8 0 C8.74010154 3.42296964 9 6.50130105 9 10 C5.125 9.125 5.125 9.125 4 8 C3.67 8.66 3.34 9.32 3 10 C2.01 10 1.02 10 0 10 C0 6.7 0 3.4 0 0 Z M3 2 C3 2.66 3 3.32 3 4 C3.99 4 4.98 4 6 4 C6 3.34 6 2.68 6 2 C5.01 2 4.02 2 3 2 Z " fill="#2E2252" transform="translate(124,136)"/>
<path d="M0 0 C2.64 0 5.28 0 8 0 C8.74010154 3.42296964 9 6.50130105 9 10 C5.125 9.125 5.125 9.125 4 8 C3.67 8.66 3.34 9.32 3 10 C2.01 10 1.02 10 0 10 C0 6.7 0 3.4 0 0 Z M3 2 C3 2.66 3 3.32 3 4 C3.99 4 4.98 4 6 4 C6 3.34 6 2.68 6 2 C5.01 2 4.02 2 3 2 Z " fill="#2D2252" transform="translate(80,136)"/>
<path d="M0 0 C1.67542976 0.28604898 3.34385343 0.61781233 5 1 C5.9097643 4.07045451 6.17299981 6.79950343 6 10 C5 11 5 11 2.0625 11.25 C1.051875 11.1675 0.04125 11.085 -1 11 C-1.66 10.01 -2.32 9.02 -3 8 C-2.67 7.34 -2.34 6.68 -2 6 C-1.835 5.154375 -1.67 4.30875 -1.5 3.4375 C-1 1 -1 1 0 0 Z M0 7 C1.485 7.99 1.485 7.99 3 9 C3.33 8.34 3.66 7.68 4 7 C2.68 7 1.36 7 0 7 Z " fill="#2E2252" transform="translate(139,135)"/>
<path d="M0 0 C2.64 0 5.28 0 8 0 C8 0.66 8 1.32 8 2 C6.35 2 4.7 2 3 2 C4.65 2.33 6.3 2.66 8 3 C8 5.31 8 7.62 8 10 C5.36 10 2.72 10 0 10 C0 6.7 0 3.4 0 0 Z " fill="#2D2152" transform="translate(146,136)"/>
<path d="M0 0 C2.64 0 5.28 0 8 0 C8 0.66 8 1.32 8 2 C6.35 2 4.7 2 3 2 C4.65 2.33 6.3 2.66 8 3 C8 5.31 8 7.62 8 10 C5.36 10 2.72 10 0 10 C0 6.7 0 3.4 0 0 Z " fill="#2D2152" transform="translate(115,136)"/>
<path d="M0 0 C2.64 0 5.28 0 8 0 C8 3.3 8 6.6 8 10 C5.36 10 2.72 10 0 10 C0 6.7 0 3.4 0 0 Z " fill="#2D2152" transform="translate(190,136)"/>
<path d="M0 0 C2.64 0 5.28 0 8 0 C8 3.33333333 8 6.66666667 8 10 C5.36 10 2.72 10 0 10 C0 6.7 0 3.4 0 0 Z " fill="#2D2152" transform="translate(90,136)"/>
<path d="M0 0 C6.15234375 -0.09765625 6.15234375 -0.09765625 8 0 C9 1 9 1 9.125 3.5 C9 6 9 6 8 7 C6.33382885 7.04063832 4.66611905 7.042721 3 7 C3 7.99 3 8.98 3 10 C2.01 10 1.02 10 0 10 C0 6.7 0 3.4 0 0 Z M3 2 C3 2.99 3 3.98 3 5 C3.99 5 4.98 5 6 5 C6 4.01 6 3.02 6 2 C5.01 2 4.02 2 3 2 Z " fill="#2E2252" transform="translate(70,136)"/>
<path d="M0 0 C1.98 0 3.96 0 6 0 C6 3.63 6 7.26 6 11 C4.02 11.33 2.04 11.66 0 12 C-1.31157516 9.37684968 -0.89649988 7.76966564 -0.5625 4.875 C-0.46066406 3.96492188 -0.35882813 3.05484375 -0.25390625 2.1171875 C-0.17011719 1.41851562 -0.08632812 0.71984375 0 0 Z " fill="#D0B076" transform="translate(82,85)"/>
<path d="M0 0 C1.875 0.25 1.875 0.25 4 1 C5.25 3.0625 5.25 3.0625 6 5 C6.45375 4.175 6.9075 3.35 7.375 2.5 C7.91125 1.675 8.4475 0.85 9 0 C9.66 0 10.32 0 11 0 C10.39301257 4.12751449 8.96189209 7.3321148 7 11 C6.01 11 5.02 11 4 11 C3.32880451 9.5437455 2.66318193 8.08492133 2 6.625 C1.62875 5.81289062 1.2575 5.00078125 0.875 4.1640625 C0 2 0 2 0 0 Z " fill="#2E2252" transform="translate(164,135)"/>
<path d="M0 0 C0.99 0 1.98 0 3 0 C3.66 1.65 4.32 3.3 5 5 C5.33 3.35 5.66 1.7 6 0 C6.66 0 7.32 0 8 0 C8 2.64 8 5.28 8 8 C4.37 8 0.74 8 -3 8 C-1.125 1.125 -1.125 1.125 0 0 Z M1 3 C2 5 2 5 2 5 Z " fill="#2E2252" transform="translate(127,149)"/>
<path d="M0 0 C2.625 0.9375 2.625 0.9375 5 2 C4.67 2.66 4.34 3.32 4 4 C2.35 3.67 0.7 3.34 -1 3 C-1 4.32 -1 5.64 -1 7 C0.65 7 2.3 7 4 7 C4 8.32 4 9.64 4 11 C1.1875 11.3125 1.1875 11.3125 -2 11 C-3.875 8.5 -3.875 8.5 -5 6 C-2.25 1.125 -2.25 1.125 0 0 Z " fill="#2F2352" transform="translate(184,135)"/>
<path d="M0 0 C0.7425 0.185625 1.485 0.37125 2.25 0.5625 C4.94990963 0.99203108 6.44631077 0.85122974 9 0 C9 2.64 9 5.28 9 8 C8.01 8 7.02 8 6 8 C6 7.01 6 6.02 6 5 C5.566875 5.495 5.13375 5.99 4.6875 6.5 C3 8 3 8 0 8 C0 5.36 0 2.72 0 0 Z " fill="#2E2252" transform="translate(70,149)"/>
<path d="M0 0 C2.875 -0.125 2.875 -0.125 6 0 C6.66 0.66 7.32 1.32 8 2 C7.44444444 6.55555556 7.44444444 6.55555556 6 8 C4.00041636 8.04080783 1.99954746 8.04254356 0 8 C0 5.36 0 2.72 0 0 Z M3 2 C3 3.32 3 4.64 3 6 C3.66 6 4.32 6 5 6 C5 4.68 5 3.36 5 2 C4.34 2 3.68 2 3 2 Z " fill="#2D2252" transform="translate(136,149)"/>
<path d="M0 0 C3.5742977 0.32493615 5.55712453 0.63870686 8.375 2.9375 C10 5 10 5 10 7 C5.545 7.495 5.545 7.495 1 8 C0.67 5.36 0.34 2.72 0 0 Z " fill="#A48C60" transform="translate(28,76)"/>
<path d="M0 0 C1.99954746 -0.04254356 4.00041636 -0.04080783 6 0 C7 1 7 1 7.125 4 C7 7 7 7 6 8 C4.00041636 8.04080783 1.99954746 8.04254356 0 8 C0 5.36 0 2.72 0 0 Z M2 2 C2 3.32 2 4.64 2 6 C2.99 6 3.98 6 5 6 C4.67 4.68 4.34 3.36 4 2 C3.34 2 2.68 2 2 2 Z " fill="#2E2252" transform="translate(87,149)"/>
<path d="M0 0 C1.98 0 3.96 0 6 0 C6 2.64 6 5.28 6 8 C4.02 8 2.04 8 0 8 C0 5.36 0 2.72 0 0 Z " fill="#2E2252" transform="translate(175,149)"/>
<path d="M0 0 C1.98 0 3.96 0 6 0 C6 2.64 6 5.28 6 8 C4.02 8 2.04 8 0 8 C0 5.36 0 2.72 0 0 Z " fill="#2D2252" transform="translate(80,149)"/>
<path d="M0 0 C1.2065625 0.0309375 1.2065625 0.0309375 2.4375 0.0625 C2.4375 1.0525 2.4375 2.0425 2.4375 3.0625 C1.4475 3.0625 0.4575 3.0625 -0.5625 3.0625 C-0.8925 4.0525 -1.2225 5.0425 -1.5625 6.0625 C-0.2425 5.7325 1.0775 5.4025 2.4375 5.0625 C2.7675 6.0525 3.0975 7.0425 3.4375 8.0625 C1.43795254 8.10504356 -0.56291636 8.10330783 -2.5625 8.0625 C-3.5625 7.0625 -3.5625 7.0625 -3.6875 4.0625 C-3.52180824 0.08589776 -3.52180824 0.08589776 0 0 Z " fill="#2F2252" transform="translate(167.5625,148.9375)"/>
<path d="M0 0 C1.32 0.33 2.64 0.66 4 1 C6.18703385 0.62092718 6.18703385 0.62092718 8 0 C7.690625 0.5775 7.38125 1.155 7.0625 1.75 C6.07416636 3.84294184 5.4831387 5.74535275 5 8 C4.01 8 3.02 8 2 8 C1.34 5.36 0.68 2.72 0 0 Z " fill="#2E2252" transform="translate(190,149)"/>
<path d="M0 0 C0 1.98 0 3.96 0 6 C-1.32 6.33 -2.64 6.66 -4 7 C-4 6.34 -4 5.68 -4 5 C-4.66 5 -5.32 5 -6 5 C-6.66 3.68 -7.32 2.36 -8 1 C-5.23735711 0.40267181 -2.83967231 0 0 0 Z " fill="#A99267" transform="translate(12,85)"/>
<path d="M0 0 C0 2.64 0 5.28 0 8 C-0.99 8.33 -1.98 8.66 -3 9 C-4 8 -4 8 -4.0625 4.9375 C-4.041875 3.968125 -4.02125 2.99875 -4 2 C-4.66 1.67 -5.32 1.34 -6 1 C-3 0 -3 0 0 0 Z " fill="#BA9D6A" transform="translate(29,77)"/>
<path d="M0 0 C2.31 0 4.62 0 7 0 C7 0.66 7 1.32 7 2 C6.34 2 5.68 2 5 2 C5 3.98 5 5.96 5 8 C4.01 8 3.02 8 2 8 C2 6.02 2 4.04 2 2 C1.34 2 0.68 2 0 2 C0 1.34 0 0.68 0 0 Z " fill="#2D2152" transform="translate(182,149)"/>
<path d="M0 0 C0.99 0 1.98 0 3 0 C3 3.3 3 6.6 3 10 C2.01 10 1.02 10 0 10 C0 6.7 0 3.4 0 0 Z " fill="#2E2252" transform="translate(111,136)"/>
<path d="M0 0 C0 2.64 0 5.28 0 8 C-1.32 8 -2.64 8 -4 8 C-4 5.69 -4 3.38 -4 1 C-2 0 -2 0 0 0 Z " fill="#C1A56F" transform="translate(16,83)"/>
<path d="M0 0 C0.99 0 1.98 0 3 0 C3 3.3 3 6.6 3 10 C2.01 10 1.02 10 0 10 C0 6.7 0 3.4 0 0 Z " fill="#2E2252" transform="translate(176,136)"/>
<path d="M0 0 C0.66 0 1.32 0 2 0 C2 1.98 2 3.96 2 6 C3.32 6 4.64 6 6 6 C6 6.66 6 7.32 6 8 C4.02 8 2.04 8 0 8 C0 5.36 0 2.72 0 0 Z " fill="#2E2252" transform="translate(115,149)"/>
<path d="M0 0 C2 0 2 0 4.125 1.875 C6 4 6 4 6 6 C4.33388095 6.042721 2.66617115 6.04063832 1 6 C0 5 0 5 -0.0625 2.4375 C-0.041875 1.633125 -0.02125 0.82875 0 0 Z " fill="#947D57" transform="translate(32,77)"/>
<path d="M0 0 C0.66 0 1.32 0 2 0 C2 2.64 2 5.28 2 8 C1.34 8 0.68 8 0 8 C-0.79953138 4.71303767 -1.09658936 3.28976808 0 0 Z " fill="#2F2352" transform="translate(172,149)"/>
<path d="M0 0 C0.66 0 1.32 0 2 0 C2.33 2.31 2.66 4.62 3 7 C1.68 7.33 0.36 7.66 -1 8 C-0.67 5.36 -0.34 2.72 0 0 Z " fill="#CCAC73" transform="translate(23,79)"/>
</svg>
